<?xml version="1.0" standalone="no"?>
<!DOCTYPE svg PUBLIC "-//W3C//DTD SVG 1.1//EN" "http://www.w3.org/Graphics/SVG/1.1/DTD/svg11.dtd" >
<svg>
<metadata>
Created by FontForge 20090914 at Wed Apr 27 08:42:00 2016
 By www-data
Copyright (c) 2012, Vernon Adams (vern@newtypography.co.uk), with Reserved Font Names 'Oxygen'
</metadata>
<defs>
<font id="Oxygen-Regular" horiz-adv-x="1626" >
  <font-face 
    font-family="Oxygen"
    font-weight="400"
    font-stretch="normal"
    units-per-em="2048"
    panose-1="2 0 5 3 0 0 0 0 0 0"
    ascent="1638"
    descent="-410"
    x-height="1097"
    cap-height="1479"
    bbox="-215 -672 2620 2131"
    underline-thickness="0"
    underline-position="0"
    unicode-range="U+0020-U+FB02"
  />
<missing-glyph horiz-adv-x="1024" 
d="M102 0v1092h820v-1092h-820zM204 102h616v888h-616v-888z" />
    <glyph glyph-name="uniFB00" unicode="ff" horiz-adv-x="1321" 
d="M1212 1416c-69.333 0 -116.835 -20 -142.502 -60s-38.5 -109.333 -38.5 -208v-51h264v-124h-264v-973h-167v973h-485v-973h-167v973h-178l14 110l164 14v49c1.33301 141.333 27.833 243.833 79.5 307.5s135.167 95.5 250.5 95.5c44.667 0 99.334 -5 164.001 -15l-11 -131
c-59.333 8.66699 -104.333 13 -135 13c-69.333 0 -116.833 -20 -142.5 -60s-38.5 -109.333 -38.5 -208v-51h485v49c1.33301 141.333 27.833 243.833 79.5 307.5s135.167 95.5 250.5 95.5c44.667 0 99.334 -5 164.001 -15l-11 -131c-59.333 8.66699 -104.333 13 -135 13z" />
    <glyph glyph-name="uniFB01" unicode="fi" horiz-adv-x="1088" 
d="M181 0l0.000976562 979.997h-161v118h161v40c2 80.667 9.16699 146.167 21.5 196.5s33.166 90.833 62.499 121.5s65.333 51.667 108 63s98 17 166 17h73l20 -128h-94c-24.667 0 -46.167 -1.66699 -64.5 -5s-34.333 -7.66602 -48 -12.999s-25 -13.666 -34 -24.999
s-16.333 -23.166 -22 -35.499s-10 -29.166 -13 -50.499s-5 -42.333 -6 -63s-1.5 -47.334 -1.5 -80.001v-38h607v-1098h-168v980h-439v-980h-168zM788.001 1496h168v-198h-168v198z" />
    <glyph glyph-name="uniFB02" unicode="fl" horiz-adv-x="1237" 
d="M1094 -12c-27.333 0 -52 1.16895 -74 3.50195s-42 6.83301 -60 13.5s-33.833 13.834 -47.5 21.501s-25.834 18.667 -36.501 33s-19.667 28.166 -27 41.499s-13.5 31.166 -18.5 53.499s-9 43.5 -12 63.5s-5.33301 45.833 -7 77.5s-2.66699 61.167 -3 88.5
s-0.5 61.666 -0.5 102.999v889c-39.333 2.66699 -74.5 4.66699 -105.5 6s-55 2.16602 -72 2.49902s-30.667 0.333008 -41 0s-18.166 -0.666016 -23.499 -0.999023s-8.33301 -0.5 -9 -0.5c-74.667 0 -127.167 -18 -157.5 -54s-46.833 -100.667 -49.5 -194
c0 -4 -0.166992 -10 -0.5 -18s-0.5 -14.333 -0.5 -19h249v-118h-249v-980h-168v980h-161v118h161v30c2 74 11.5 136.167 28.5 186.5s41.833 89.833 74.5 118.5s70.167 49 112.5 61s93.5 18 153.5 18c26.667 0 168.667 -7.33301 426 -22v-1040c0 -132.667 8 -219.5 24 -260.5
s60.667 -61.5 134 -61.5c14 0 38.333 1.33301 73 4l11 -131c-76.667 -8.66699 -118 -13 -124 -13z" />
    <glyph glyph-name=".notdef" horiz-adv-x="1024" 
d="M102 0v1092h820v-1092h-820zM204 102h616v888h-616v-888z" />
    <glyph glyph-name="space" unicode=" " horiz-adv-x="511" 
 />
    <glyph glyph-name="exclam" unicode="!" horiz-adv-x="586" 
d="M160 120c0 35.333 11.833 66.168 35.5 92.501s56.167 39.5 97.5 39.5c42 0 74.667 -13 98 -39s35 -57 35 -93s-11.667 -67 -35 -93s-56 -39 -98 -39c-41.333 0 -73.833 13.167 -97.5 39.5s-35.5 57.166 -35.5 92.499zM391 1496v-142l-56 -919h-79l-62 919v142h197z" />
    <glyph glyph-name="quotedbl" unicode="&#x22;" horiz-adv-x="710" 
d="M446 1016l-21 494h151l-29 -494h-101zM160 1016l-21 494h151l-29 -494h-101z" />
    <glyph glyph-name="numbersign" unicode="#" horiz-adv-x="1134" 
d="M1032 1055l-14 -124h-147l-67 -395h147l-10 -126h-155l-86 -433h-151l84 433h-235l-80 -433h-129l73 433h-171l10 126h183l61 394h-177l9 125h193l83 407h153l-79 -407h234l71 407h128l-66 -407h138zM737 931h-235l-80 -395h236z" />
    <glyph glyph-name="dollar" unicode="$" horiz-adv-x="1241" 
d="M580 1693l94.999 0.000976562v-168c170 -5.33301 308 -41 414 -107l-50 -141c-40.667 22.667 -94.167 43.167 -160.5 61.5s-134.166 29.166 -203.499 32.499v-508l104 -25c120 -28.667 211 -74.5 273 -137.5s93 -152.5 93 -268.5c0 -143.333 -41.833 -253 -125.5 -329
s-198.5 -117.667 -344.5 -125v-173h-95v173c-106.667 3.33301 -201.834 16.833 -285.501 40.5s-150.5 50.834 -200.5 81.501l52 144c134.667 -66 279.334 -103.333 434.001 -112v580l-147 37c-224.667 56.667 -337 176.667 -337 360c0 131.333 42.667 231.166 128 299.499
s204 106.5 356 114.5v170zM579.999 886.001v484c-202.667 -12 -304 -95 -304 -249c0 -56.667 18.5 -102.167 55.5 -136.5s92.5 -60.5 166.5 -78.5zM674.999 688.001v-557.001c194 10 291 108.333 291 295c0 64 -17.167 115.833 -51.5 155.5s-96.833 70.834 -187.5 93.501z
" />
    <glyph glyph-name="percent" unicode="%" horiz-adv-x="1877" 
d="M1431 754c112.667 0 199.667 -35.501 261 -106.501s92 -163.833 92 -278.5c0 -112 -31.167 -204 -93.5 -276s-148.833 -108 -259.5 -108c-112 0 -198.667 35.833 -260 107.5s-92 163.834 -92 276.501s31 205 93 277s148.333 108 259 108zM1431 639.999
c-71.333 0 -126.833 -26.333 -166.5 -79s-59.5 -116.667 -59.5 -192c0 -76.667 19.833 -141 59.5 -193s95.167 -78 166.5 -78s126.833 26.333 166.5 79s59.5 116.667 59.5 192c0 76.667 -19.833 141 -59.5 193s-95.167 78 -166.5 78zM401 -4.00098l795 1466h162l-822 -1466
h-135zM420 1489c96.667 0 174.167 -36.167 232.5 -108.5s87.5 -164.5 87.5 -276.5c0 -109.333 -29.333 -199.333 -88 -270s-136 -106 -232 -106c-96.667 0 -173.667 35.167 -231 105.5s-86 160.5 -86 270.5c0 111.333 28.833 203.333 86.5 276s134.5 109 230.5 109z
M420 1378c-60 0 -106.667 -26.667 -140 -80s-50 -118 -50 -194c0 -76.667 16.5 -139.167 49.5 -187.5s79.833 -72.5 140.5 -72.5s107.667 24.833 141 74.5s50 111.5 50 185.5c0 76.667 -17 141.5 -51 194.5s-80.667 79.5 -140 79.5z" />
    <glyph glyph-name="ampersand" unicode="&#x26;" horiz-adv-x="1477" 
d="M441 839c-62 67.333 -106.333 123.674 -133 169.007s-40 97.666 -40 156.999c0 99.333 35.167 178.166 105.5 236.499s164.833 87.5 283.5 87.5c70 0 133.833 -10.833 191.5 -32.5s105 -56.334 142 -104.001s55.5 -104.5 55.5 -170.5
c0 -42.667 -8.5 -82.834 -25.5 -120.501s-41.667 -71.834 -74 -102.501s-67.666 -58.334 -105.999 -83.001s-82.833 -48.667 -133.5 -72l401 -429c53.333 56 100.666 130.667 141.999 224l121 -92c-41.333 -90.667 -94.333 -174 -159 -250l181 -216
c-49.333 -18.667 -101.666 -36 -156.999 -52l-136 154c-137.333 -110.667 -297.333 -166 -480 -166c-168.667 0 -296.834 36.833 -384.501 110.5s-131.5 176.167 -131.5 307.5c0 102 28.833 187.667 86.5 257s141.167 131.666 250.5 186.999zM544 726.008
c-84 -42.667 -148.833 -89.333 -194.5 -140s-68.5 -110.667 -68.5 -180c0 -86 30.667 -153.167 92 -201.5s146.666 -72.5 255.999 -72.5c130.667 0 249.334 42.333 356.001 127l-220.5 234zM660 1345.01c-62 0 -111.666 -15.832 -148.999 -47.499s-56 -75.834 -56 -132.501
c0 -45.333 12.167 -86.833 36.5 -124.5s62.166 -81.167 113.499 -130.5c40.667 20 73.5 37.333 98.5 52s50.833 32.834 77.5 54.501s46.167 45.167 58.5 70.5s18.5 53.333 18.5 84c0 55.333 -19 98.166 -57 128.499s-85 45.5 -141 45.5z" />
    <glyph glyph-name="quotesingle" unicode="'" horiz-adv-x="423" 
d="M283 1486l-20 -511h-115l-21 511h156z" />
    <glyph glyph-name="parenleft" unicode="(" horiz-adv-x="609" 
d="M103 598c0 326.667 91.001 622.666 273.001 887.999h155c-172 -268 -258 -562.667 -258 -884c0 -150.667 22.667 -302.667 68 -456s108.666 -292.333 189.999 -417h-153c-86 119.333 -153.333 253.833 -202 403.5s-73 304.834 -73 465.501z" />
    <glyph glyph-name="parenright" unicode=")" horiz-adv-x="609" 
d="M506 598c0 -160.667 -24.3311 -315.667 -72.998 -465s-116.334 -284 -203.001 -404h-152c81.333 124.667 144.666 263.667 189.999 417s68 305.333 68 456c0 320 -86.333 614.667 -259 884h155c182.667 -269.333 274 -565.333 274 -888z" />
    <glyph glyph-name="asterisk" unicode="*" horiz-adv-x="1105" 
d="M643 1522l-36 -411l359 151l50 -171l-367 -83l107.5 -142l144.5 -191l-77 -47l-77 -47l-200 362l-189 -362l-156 94l248 333l-363 83l50 171l357 -151l-37 411h186z" />
    <glyph glyph-name="plus" unicode="+" horiz-adv-x="1126" 
d="M637 718h390v-136h-391v-429h-137v429h-397v136h398v424h137v-424z" />
    <glyph glyph-name="comma" unicode="," horiz-adv-x="505" 
d="M109 -278c2 19.333 7.83301 70.499 17.5 153.499s17.167 152.833 22.5 209.5s9.33301 106.334 12 149.001h197v-44c-32.667 -132 -80.667 -288 -144 -468h-105z" />
    <glyph glyph-name="hyphen" unicode="-" horiz-adv-x="672" 
d="M86 497v147h500v-147h-500z" />
    <glyph glyph-name="period" unicode="." horiz-adv-x="494" 
d="M261 -12c-41.333 0 -73.833 13.168 -97.5 39.501s-35.5 57.166 -35.5 92.499c0 36 11.667 67 35 93s56 39 98 39s74.667 -13 98 -39s35 -57 35 -93s-11.667 -67 -35 -93s-56 -39 -98 -39z" />
    <glyph glyph-name="slash" unicode="/" horiz-adv-x="952" 
d="M194 -218h-144l676 1684h146z" />
    <glyph glyph-name="zero" unicode="0" horiz-adv-x="1241" 
d="M622 -23c-88.667 0 -166.332 19.499 -232.999 58.499s-120.167 93.833 -160.5 164.5s-70.333 152 -90 244s-29.5 194.333 -29.5 307c0 92.667 6.5 178.334 19.5 257.001s33.167 150 60.5 214s61.166 118.333 101.499 163s88.5 79.167 144.5 103.5s118.333 36.5 187 36.5
c85.333 0 160.833 -18.667 226.5 -56s119 -90.5 160 -159.5s71.833 -150.333 92.5 -244s31 -198.5 31 -314.5c0 -112.667 -9.66699 -215 -29 -307s-49 -173.333 -89 -244s-93.167 -125.5 -159.5 -164.5s-143.833 -58.5 -232.5 -58.5zM622.002 1373
c-68 0 -126.333 -26.833 -175 -80.5s-85.167 -126.334 -109.5 -218.001s-36.5 -197.5 -36.5 -317.5c0 -122 12.167 -229.833 36.5 -323.5s60.833 -167.834 109.5 -222.501s107 -82 175 -82s126.333 27.333 175 82s85.167 128.834 109.5 222.501s36.5 201.5 36.5 323.5
c0 120 -12.167 225.833 -36.5 317.5s-60.833 164.334 -109.5 218.001s-107 80.5 -175 80.5z" />
    <glyph glyph-name="one" unicode="1" horiz-adv-x="626" 
d="M302 1496l158.998 0.00195312v-1496h-177v1311c-67.333 -44 -149.666 -81.667 -246.999 -113v167l65 28l73.5 32c16.333 7.33301 36.833 17.666 61.5 30.999s46.334 26.666 65.001 39.999z" />
    <glyph glyph-name="two" unicode="2" horiz-adv-x="1116" 
d="M113 0l-23 164.001l517 574c34.667 38.667 68.167 88.667 100.5 150s55.833 113.333 70.5 156l23 63c0 82.667 -23 146.834 -69 192.501s-111.333 68.5 -196 68.5c-141.333 0 -252.666 -41 -333.999 -123l-58 150c92 86.667 226.667 130 404 130
c136 0 244.333 -36.833 325 -110.5s121 -172.167 121 -295.5c-2.66699 -9.33301 -6.66699 -21.833 -12 -37.5s-16.833 -46.167 -34.5 -91.5s-36.167 -88.333 -55.5 -129s-43.833 -85.334 -73.5 -134.001s-59.834 -89.334 -90.501 -122.001l-422 -451h693l-11 -154h-875z" />
    <glyph glyph-name="three" unicode="3" horiz-adv-x="1103" 
d="M496 -23c-89.333 0 -168.835 11.667 -238.502 35s-120.5 50.333 -152.5 81l56 147c94 -74 206 -111 336 -111c100 0 179.5 24.833 238.5 74.5s88.5 119.167 88.5 208.5c0 48.667 -7.5 91.167 -22.5 127.5s-35 65.666 -60 87.999s-57 40.333 -96 54
s-79 23.334 -120 29.001s-88.5 9.16699 -142.5 10.5c-6.66699 0 -16.667 0.166992 -30 0.5s-23.333 0.5 -30 0.5v149h50c46.667 0.666992 87.834 3.16699 123.501 7.5s71.334 12.166 107.001 23.499s65.167 26.333 88.5 45s42.333 43.667 57 75s22 68.333 22 111
c0 160 -91.667 240 -275 240c-66 0 -128 -9.66699 -186 -29s-107.667 -45.333 -149 -78l-56 146c99.333 75.333 242.333 113 429 113c75.333 0 145 -13.833 209 -41.5s116.667 -70 158 -127s62 -123.833 62 -200.5c0 -93.333 -23 -170 -69 -230s-110.667 -103 -194 -129
c93.333 -20 166.5 -63.667 219.5 -131s79.5 -152.666 79.5 -255.999c0 -131.333 -47 -236.333 -141 -315s-214.667 -118 -362 -118z" />
    <glyph glyph-name="four" unicode="4" horiz-adv-x="1211" 
d="M1122 371h-170v-371h-168v371h-676v153l657 972h187v-980h184zM784 1269l-500 -753h500v753z" />
    <glyph glyph-name="five" unicode="5" horiz-adv-x="1177" 
d="M1004 1496l-13.999 -164h-611c-6.66699 -194 -11.667 -351 -15 -471c75.333 48 157 72 245 72c74 0 140.167 -11.833 198.5 -35.5s106 -56.167 143 -97.5s65.167 -89.5 84.5 -144.5s29 -114.5 29 -178.5c0 -151.333 -48.5 -272.5 -145.5 -363.5
s-228.833 -136.5 -395.5 -136.5c-167.333 0 -301.333 45.667 -402 137l65 141c98.667 -77.333 213 -116 343 -116c109.333 0 195.666 31 258.999 93s95 143 95 243c0 89.333 -26.667 161.833 -80 217.5s-129.333 83.5 -228 83.5s-178 -33 -238 -99l-139 19l39 800h767z" />
    <glyph glyph-name="six" unicode="6" horiz-adv-x="1199" 
d="M637 921c84 0 161.668 -19.834 233.001 -59.501s128.666 -96 171.999 -169s65 -154.167 65 -243.5c0 -136 -45.833 -248.667 -137.5 -338s-212.5 -134 -362.5 -134c-78 0 -149.167 13.167 -213.5 39.5s-117.333 62 -159 107s-74 97.333 -97 157s-34.5 123.5 -34.5 191.5
c0 108.667 19.833 205.834 59.5 291.501s111.5 194.167 215.5 325.5l120 148l146 176l63 76h231l-526 -628c75.333 40 150.333 60 225 60zM292.001 452.999c0 -59.333 11.168 -113.001 33.501 -161.001s57.333 -87.167 105 -117.5s104.5 -45.5 170.5 -45.5
c98.667 0 176.167 30.333 232.5 91s84.5 136 84.5 226c0 94.667 -28.167 172.5 -84.5 233.5s-133.833 91.5 -232.5 91.5c-104.667 0 -182.334 -29.667 -233.001 -89s-76 -135.666 -76 -228.999z" />
    <glyph glyph-name="seven" unicode="7" horiz-adv-x="1052" 
d="M261 0l514 1341h-675l11 155h867v-136l-535 -1360h-182z" />
    <glyph glyph-name="eight" unicode="8" horiz-adv-x="1182" 
d="M594 -23c-90.667 0 -172.502 15.167 -245.502 45.5s-132.167 76.833 -177.5 139.5s-68 137 -68 223c0 95.333 27.333 178.333 82 249s131 122 229 154c-186.667 66 -280 186 -280 360c0 118 42.667 210.333 128 277s196 100 332 100c135.333 0 245 -33.333 329 -100
s126 -159 126 -277c0 -88 -22.667 -162 -68 -222s-108.666 -106 -189.999 -138c90 -32 160.667 -83.333 212 -154s77 -153.667 77 -249c0 -128 -46.167 -228 -138.5 -300s-208.166 -108 -347.499 -108zM593.998 703c-95.333 -22 -171.666 -58.832 -228.999 -110.499
s-86 -116.834 -86 -195.501c0 -82 29.667 -147.167 89 -195.5s134.666 -72.5 225.999 -72.5s165.833 24.167 223.5 72.5s86.5 113.5 86.5 195.5c0 79.333 -28 144.833 -84 196.5s-131.333 88.167 -226 109.5zM593.998 1373c-78.667 0 -145.5 -19.667 -200.5 -59
s-82.5 -93.333 -82.5 -162c0 -157.333 94.333 -257 283 -299c186 42 279 141.667 279 299c0 68.667 -27 122.667 -81 162s-120 59 -198 59z" />
    <glyph glyph-name="nine" unicode="9" horiz-adv-x="1165" 
d="M556 598c-84.667 0 -162.5 18.499 -233.5 55.499s-128.167 90.5 -171.5 160.5s-65 149.667 -65 239c0 136 46.667 248.667 140 338s215.333 134 366 134c78 0 148.833 -12.5 212.5 -37.5s116 -59.333 157 -103s72.667 -94.667 95 -153s33.5 -121.5 33.5 -189.5
c0 -95.333 -16.333 -181.666 -49 -258.999s-89 -170.333 -169 -279l-143.5 -183l-179.5 -223l-79 -98h-220l531 658c-75.333 -40 -150.333 -60 -225 -60zM901 1061c0 91.333 -25.8311 166.167 -77.498 224.5s-126.834 87.5 -225.501 87.5c-99.333 0 -178 -30.5 -236 -91.5
s-87 -136.167 -87 -225.5c0 -93.333 28 -168 84 -224s133.667 -84 233 -84c105.333 0 183.166 29 233.499 87s75.5 133.333 75.5 226z" />
    <glyph glyph-name="colon" unicode=":" horiz-adv-x="494" 
d="M146 893v231h206v-231h-206zM146 -25v233h206v-233h-206z" />
    <glyph glyph-name="semicolon" unicode=";" horiz-adv-x="518" 
d="M174 893v231h206v-231h-206zM376 197l-125 -507h-113l56 507h182z" />
    <glyph glyph-name="less" unicode="&#x3c;" horiz-adv-x="1175" 
d="M1061 146l-958 459v97l960 493v-158l-775 -379l773 -354v-158z" />
    <glyph glyph-name="equal" unicode="=" horiz-adv-x="1228" 
d="M132 377v142h965v-142h-965zM131 799v144h966v-144h-966z" />
    <glyph glyph-name="greater" unicode="&#x3e;" horiz-adv-x="1176" 
d="M115 311l774 347l-772 386v156l958 -499v-97l-960 -452v159z" />
    <glyph glyph-name="question" unicode="?" horiz-adv-x="865" 
d="M404 435h-87.001c0 42.667 9.83301 91.667 29.5 147s43.5 109.5 71.5 162.5l83.5 157.5c27.667 52 51.334 103.333 71.001 154s29.5 94 29.5 130c-0.666992 63.333 -21 110.333 -61 141s-94.667 46 -164 46c-86 0 -172.333 -27 -259 -81l-45 135
c82 64.667 192.333 97 331 97c108 0 195.167 -28.5 261.5 -85.5s99.5 -136.5 99.5 -238.5c0 -51.333 -7.5 -101.333 -22.5 -150s-35.833 -96.167 -62.5 -142.5s-54.5 -91.333 -83.5 -135s-61.667 -96.167 -98 -157.5s-67.833 -121.333 -94.5 -180zM241.999 120
c0 35.333 11.833 66.168 35.5 92.501s56.167 39.5 97.5 39.5c42 0 74.667 -13 98 -39s35 -57 35 -93s-11.667 -67 -35 -93s-56 -39 -98 -39c-41.333 0 -73.833 13.167 -97.5 39.5s-35.5 57.166 -35.5 92.499z" />
    <glyph glyph-name="at" unicode="@" horiz-adv-x="1814" 
d="M1703 784c0 -78 -11.832 -150.666 -35.499 -217.999s-55 -123 -94 -167s-83.167 -78.333 -132.5 -103s-99.666 -37 -150.999 -37c-54 0 -99 15 -135 45s-57.667 72 -65 126c-30 -42.667 -67.667 -80.334 -113 -113.001s-97 -49 -155 -49
c-86.667 0 -155.667 31.167 -207 93.5s-77 147.166 -77 254.499c0 138 37.167 253 111.5 345s176.5 138 306.5 138c95.333 0 196.666 -18.333 303.999 -55c-4.66699 -33.333 -11.834 -81.5 -21.501 -144.5s-17 -112.5 -22 -148.5s-9.83301 -76 -14.5 -120s-7 -80 -7 -108
c0 -94.667 37 -142 111 -142c67.333 0 128.5 40.167 183.5 120.5s82.5 176.833 82.5 289.5c0 176.667 -58.5 317 -175.5 421s-268.5 156 -454.5 156c-134 0 -254.167 -31 -360.5 -93s-189 -147.667 -248 -257s-88.5 -232.333 -88.5 -369c0 -204 58.167 -364 174.5 -480
s271.833 -174 466.5 -174c166 0 314.667 37.667 446 113l35 -111c-126.667 -85.333 -287.334 -128 -482.001 -128c-233.333 0 -420.666 69.667 -561.999 209s-212 328.333 -212 567c0 118.667 20.833 230.334 62.5 335.001s99 194.5 172 269.5s161.833 134.167 266.5 177.5
s217.667 65 339 65c142.667 0 270.667 -28.667 384 -86s203 -140 269 -248s99 -232.667 99 -374zM680.001 609.001c0 -66 13.4971 -118.001 40.4971 -156.001s67.167 -57 120.5 -57c70.667 0 124.334 29.167 161.001 87.5s61.667 140.5 75 246.5
c6 47.333 14.667 123.333 26 228c-38 13.333 -86.667 20 -146 20c-61.333 0 -113.166 -17 -155.499 -51s-73.166 -78.167 -92.499 -132.5s-29 -116.166 -29 -185.499z" />
    <glyph glyph-name="A" unicode="A" horiz-adv-x="1302" 
d="M892 614c-140.667 408.667 -218.333 638.333 -233 689l-243 -689h476zM1121 -0.000976562l-173 469h-590l-179 -469h-176l568 1482h177l551 -1482h-178z" />
    <glyph glyph-name="B" unicode="B" horiz-adv-x="1286" 
d="M347 704v-562h309c125.333 0 219.333 23.167 282 69.5s94 118.5 94 216.5c0 102 -33.833 173.5 -101.5 214.5s-173.167 61.5 -316.5 61.5h-267zM347 843h317c103.333 0 181.333 18 234 54s79 100 79 192c0 92.667 -31.5 156.5 -94.5 191.5s-160.833 52.5 -293.5 52.5
h-242v-490zM174 1479l424.001 0.00195312c190 0 330.833 -29 422.5 -87s137.5 -150.333 137.5 -277c0 -18.667 -1.16699 -37.167 -3.5 -55.5s-8.33301 -41.833 -18 -70.5s-22.834 -54.834 -39.501 -78.501s-41.167 -47.334 -73.5 -71.001s-70.166 -42.5 -113.499 -56.5
c99.333 -18.667 174.666 -60.667 225.999 -126s77 -144 77 -236c0 -134 -43.833 -237.667 -131.5 -311s-218.167 -110 -391.5 -110h-516v1479z" />
    <glyph glyph-name="C" unicode="C" horiz-adv-x="1290" 
d="M823 1352c-111.333 0 -207.17 -27.002 -287.503 -81.002s-140.166 -126.667 -179.499 -218s-59 -196.333 -59 -315c0 -88.667 10.667 -169.5 32 -242.5s53.333 -137 96 -192s98.167 -97.667 166.5 -128s146.833 -45.5 235.5 -45.5c114 0 232 29.667 354 89l29 -147
c-99.333 -62.667 -233.666 -94 -402.999 -94c-111.333 0 -211.166 18.5 -299.499 55.5s-161.333 89.333 -219 157s-101.5 148.334 -131.5 242.001s-45 197.834 -45 312.501c0 110.667 16.333 212.667 49 306s78.834 173.5 138.501 240.5s134.167 119.167 223.5 156.5
s188.666 56 297.999 56c166 0 306 -36.667 420 -110l-68 -141c-109.333 66 -226 99 -350 99z" />
    <glyph glyph-name="D" unicode="D" horiz-adv-x="1502" 
d="M1205 736c0 206.667 -53.334 357.001 -160.001 451.001s-262 141 -466 141h-232v-1177h261c194.667 0 342.834 49.167 444.501 147.5s152.5 244.166 152.5 437.499zM1390 741.001c0 -240.667 -68.3311 -424.333 -204.998 -551s-327.334 -190 -572.001 -190h-439v1479h410
c123.333 0 233.666 -14.5 330.999 -43.5s181.833 -73 253.5 -132s126.5 -136 164.5 -231s57 -205.5 57 -331.5z" />
    <glyph glyph-name="E" unicode="E" horiz-adv-x="1143" 
d="M174 0v1479h848l-7 -153h-668v-484h635v-151h-635v-538h690l-8 -153h-855z" />
    <glyph glyph-name="F" unicode="F" horiz-adv-x="1041" 
d="M347 0h-173v1479h821l-7 -153h-641v-519h611v-147h-611v-660z" />
    <glyph glyph-name="G" unicode="G" horiz-adv-x="1461" 
d="M819 -22c-112.667 0 -213.834 18.8301 -303.501 56.4971s-163.667 90.334 -222 158.001s-103 147.834 -134 240.501s-46.5 194.334 -46.5 305.001c0 149.333 28.333 281.333 85 396s141 205 253 271s244.667 99 398 99c170 0 319.333 -38.667 448 -116l-66 -143
c-124 71.333 -250.667 107 -380 107c-90 0 -170.5 -15.5 -241.5 -46.5s-129 -74 -174 -129s-79.333 -119.667 -103 -194s-35.5 -155.833 -35.5 -244.5c0 -188 46.833 -336.5 140.5 -445.5s231.834 -163.5 414.501 -163.5c104 0 209.667 21 317 63v422h-349l6 151h505v-676
c-84 -40 -165.167 -68.5 -243.5 -85.5s-167.833 -25.5 -268.5 -25.5z" />
    <glyph glyph-name="H" unicode="H" horiz-adv-x="1488" 
d="M1314 0h-173v692h-794v-692h-173v1479h173v-635h794v635h173v-1479z" />
    <glyph glyph-name="I" unicode="I" horiz-adv-x="540" 
d="M355 0h-173v1479h173v-1479z" />
    <glyph glyph-name="J" unicode="J" horiz-adv-x="550" 
d="M226 181l0.00390625 1315h177v-1255c0 -48.667 -1 -89.667 -3 -123s-6 -67.166 -12 -101.499s-14.833 -62.5 -26.5 -84.5s-26.834 -43.167 -45.501 -63.5s-41.834 -36 -69.501 -47s-60.5 -19.667 -98.5 -26s-82 -9.5 -132 -9.5h-35l-21 142h74
c35.333 0 65.166 4.33301 89.499 13s43.166 19.5 56.499 32.5s23.5 31.5 30.5 55.5s11.333 46.5 13 67.5s2.5 49.167 2.5 84.5z" />
    <glyph glyph-name="K" unicode="K" horiz-adv-x="1242" 
d="M1260 0h-212l-566 706l-135 -119v-587h-174v1479h174v-726l650 726h217l-600 -666z" />
    <glyph glyph-name="L" unicode="L" horiz-adv-x="1021" 
d="M174 0v1479h174v-1325h651l-6 -154h-819z" />
    <glyph glyph-name="M" unicode="M" horiz-adv-x="1817" 
d="M822 91l-454 1056l-38 101l7 -362v-886h-162v1479h224l515 -1178l510 1178h218v-1479h-168v890l7 354l-37 -101l-453 -1052h-169z" />
    <glyph glyph-name="N" unicode="N" horiz-adv-x="1516" 
d="M1342 0h-196l-768 1164l-50 69c5.33301 -140 8 -265 8 -375v-858h-162v1479h193l770 -1164l51 -69c-4.66699 212.667 -7 335.667 -7 369v864h161v-1479z" />
    <glyph glyph-name="O" unicode="O" 
d="M296 739c0 -190 43.668 -339.167 131.001 -447.5s216.333 -162.5 387 -162.5s299.167 54 385.5 162s129.5 257.333 129.5 448c0 194.667 -43.5 345.667 -130.5 453s-214.833 161 -383.5 161s-297.334 -53.667 -386.001 -161s-133 -258.333 -133 -453zM1514 739
c0 -112.667 -15.501 -215.669 -46.501 -309.002s-75.667 -173.5 -134 -240.5s-131.833 -119 -220.5 -156s-188.334 -55.5 -299.001 -55.5c-149.333 0 -277.166 31.833 -383.499 95.5s-186 152.334 -239 266.001s-79.5 247.167 -79.5 400.5
c0 236.667 61.667 423.334 185 560.001s296 205 518 205c218.667 0 389.834 -68.833 513.501 -206.5s185.5 -324.167 185.5 -559.5z" />
    <glyph glyph-name="P" unicode="P" horiz-adv-x="1159" 
d="M323 0l-176.998 -0.000976562v1496h482c73.333 0 139.666 -7.66699 198.999 -23s112 -38.666 158 -69.999s81.667 -73.333 107 -126s38 -114 38 -184c0 -58 -5.33301 -109.833 -16 -155.5s-29 -88.5 -55 -128.5s-60 -73.167 -102 -99.5s-95.833 -47 -161.5 -62
s-141.834 -22.5 -228.501 -22.5c-68.667 0 -150 4.33301 -244 13v-638zM584.002 777.999c65.333 0 121.334 6.33203 168.001 18.999s82.5 28.334 107.5 47.001s44.667 43 59 73s23.166 57.5 26.499 82.5s5 55.167 5 90.5c0 84.667 -28.5 147 -85.5 187s-134.5 60 -232.5 60
h-309v-557c128.667 -1.33301 215.667 -2 261 -2z" />
    <glyph glyph-name="Q" unicode="Q" 
d="M1267 -470c-32 32 -85.002 97.1641 -159.002 195.497s-129.333 185.5 -166 261.5c-41.333 -6 -84 -9 -128 -9c-149.333 0 -277.166 31.833 -383.499 95.5s-186 152.334 -239 266.001s-79.5 247.167 -79.5 400.5c0 236.667 61.667 423.334 185 560.001s296 205 518 205
c218.667 0 389.834 -68.833 513.501 -206.5s185.5 -324.167 185.5 -559.5c0 -171.333 -35 -318.833 -105 -442.5s-170.333 -212.167 -301 -265.5l44 -73.5c18.667 -30.333 52.5 -79.666 101.5 -147.999s92.833 -121.5 131.5 -159.5zM813.998 128.997
c170.667 0 299.168 54 385.501 162s129.5 257.333 129.5 448c0 194.667 -43.5 345.667 -130.5 453s-214.833 161 -383.5 161s-297.334 -53.667 -386.001 -161s-133 -258.333 -133 -453c0 -190 43.667 -339.167 131 -447.5s216.333 -162.5 387 -162.5z" />
    <glyph glyph-name="R" unicode="R" horiz-adv-x="1339" 
d="M324 1341l-0.000976562 -500c27.333 0 83.833 -0.666992 169.5 -2s151.834 -2 198.501 -2c127.333 0 216 21.167 266 63.5s75 109.5 75 201.5c0 80.667 -24 140.667 -72 180s-128.333 59 -241 59h-396zM1272 0l-200.001 -0.000976562l-204 464
c-55.333 124.667 -90.666 199.667 -105.999 225c-48.667 -3.33301 -106.334 -5 -173.001 -5l-265 8v-692h-177v1496h473c54.667 0 103 -1.33301 145 -4s83.833 -7.5 125.5 -14.5s77.834 -16.667 108.501 -29s59.334 -28.333 86.001 -48s48.167 -43.167 64.5 -70.5
s29.166 -59.833 38.499 -97.5s14 -80.167 14 -127.5c0 -93.333 -24.5 -173.666 -73.5 -240.999s-118.5 -114 -208.5 -140c0 -1.33301 6.66699 -13.333 20 -36l47.5 -83.5c18.333 -33 32.5 -60.5 42.5 -82.5z" />
    <glyph glyph-name="S" unicode="S" horiz-adv-x="1227" 
d="M146 244c154 -76 319 -114 495 -114c216.667 0 325 98.667 325 296c0 64 -17.167 115.833 -51.5 155.5s-96.833 70.834 -187.5 93.501l-294 74c-224.667 56.667 -337 176.667 -337 360c0 140.667 48.333 245.167 145 313.5s230.334 102.5 401.001 102.5
c89.333 0 173 -9.66699 251 -29s143.333 -45.333 196 -78l-50 -141c-44.667 24.667 -103.834 46.667 -177.501 66s-148.167 29 -223.5 29c-241.333 0 -362 -83.667 -362 -251c0 -56.667 18.5 -102.167 55.5 -136.5s92.5 -60.5 166.5 -78.5l281 -68
c120 -28.667 211 -74.5 273 -137.5s93 -152.5 93 -268.5c0 -150.667 -46.167 -264.167 -138.5 -340.5s-217.833 -114.5 -376.5 -114.5c-118.667 0 -224.167 12.167 -316.5 36.5s-165.5 53.166 -219.5 86.499z" />
    <glyph glyph-name="T" unicode="T" horiz-adv-x="1099" 
d="M636 0h-174v1326h-455v153h1084v-153h-455v-1326z" />
    <glyph glyph-name="U" unicode="U" horiz-adv-x="1438" 
d="M1277 1479v-959.999c0 -170 -46.5 -302.667 -139.5 -398s-234.5 -143 -424.5 -143s-330.333 47.667 -421 143s-136 228.666 -136 399.999v958h174v-961c0 -134 31.667 -232.667 95 -296s161.333 -95 294 -95c129.333 0 225.833 32 289.5 96s95.5 162.667 95.5 296v960
h173z" />
    <glyph glyph-name="V" unicode="V" horiz-adv-x="1242" 
d="M1062 1479h185l-537 -1479h-180l-535 1479h185l329 -938c42.667 -122 79.667 -237 111 -345c10 50 47.333 166 112 348z" />
    <glyph glyph-name="W" unicode="W" horiz-adv-x="2013" 
d="M446 0l-446 1479h181l366 -1273l366 1246h195l355 -1247l369 1274h181l-452 -1479h-189l-360 1243l-378 -1243h-188z" />
    <glyph glyph-name="X" unicode="X" horiz-adv-x="1240" 
d="M1231 0h-199l-412 661l-423 -661h-188l506 772l-473 707h201l383 -592l398 592h185l-476 -704z" />
    <glyph glyph-name="Y" unicode="Y" horiz-adv-x="1194" 
d="M591 754l416 725h188l-522 -889v-590h-175v586l-499 893h187z" />
    <glyph glyph-name="Z" unicode="Z" horiz-adv-x="1184" 
d="M86 0v136l804 1189h-775v154h996v-129l-809 -1196h816l-6 -154h-1026z" />
    <glyph glyph-name="bracketleft" unicode="[" horiz-adv-x="676" 
d="M596 -293h-453v1776h453v-132h-280v-1512h280v-132z" />
    <glyph glyph-name="backslash" unicode="\" horiz-adv-x="843" 
d="M208 1464l599 -1524h-156l-599 1524h156z" />
    <glyph glyph-name="bracketright" unicode="]" horiz-adv-x="676" 
d="M80 -161h280v1512h-280v132h453v-1776h-453v132z" />
    <glyph glyph-name="asciicircum" unicode="^" horiz-adv-x="1157" 
d="M69 589l445 927h102l470 -927h-143l-378 746l-351 -746h-145z" />
    <glyph glyph-name="underscore" unicode="_" horiz-adv-x="1085" 
d="M1012 -304h-939v134h939v-134z" />
    <glyph glyph-name="grave" unicode="`" horiz-adv-x="643" 
d="M408 1251l-323 387h250l185 -387h-112z" />
    <glyph glyph-name="a" unicode="a" horiz-adv-x="1098" 
d="M460 112c79.333 0 149.167 21.835 209.5 65.502s99.166 102.5 116.499 176.5v185c-3.33301 0 -23.5 -1.66699 -60.5 -5s-61.167 -5.33301 -72.5 -6c-144.667 -12.667 -245.5 -36.334 -302.5 -71.001s-85.5 -90.334 -85.5 -167.001c0 -58.667 17.333 -103 52 -133
s82.334 -45 143.001 -45zM823.001 0.00195312c-10 42.667 -19.667 88.6689 -29 138.002c-60.667 -60.667 -117.667 -102.667 -171 -126s-116 -35 -188 -35c-102.667 0 -185.167 26.833 -247.5 80.5s-93.5 130.834 -93.5 231.501c0 112 42.5 195 127.5 249
s207.5 87.667 367.5 101c22 2 55.167 4.83301 99.5 8.5s77.5 6.5 99.5 8.5v97c0 77.333 -18 134.666 -54 171.999s-92.667 56 -170 56c-108 0 -217 -26.667 -327 -80c-3.33301 8 -12 31.167 -26 69.5s-21.333 58.166 -22 59.499c48.667 27.333 106.5 49.166 173.5 65.499
s135.167 24.5 204.5 24.5c136.667 0 235.167 -29.833 295.5 -89.5s90.5 -161.167 90.5 -304.5v-726h-130z" />
    <glyph glyph-name="b" unicode="b" horiz-adv-x="1215" 
d="M642 981c-106 0 -187.168 -36.499 -243.501 -109.499s-84.5 -180.167 -84.5 -321.5c0 -289.333 109 -434 327 -434c54 0 101.5 11.167 142.5 33.5s73.333 53.666 97 93.999s41.334 85.833 53.001 136.5s17.5 107 17.5 169c0 84 -9.83301 157.333 -29.5 220
s-53.167 113.667 -100.5 153s-107 59 -179 59zM658.999 1120c97.333 0 181.332 -24.666 251.999 -73.999s123.667 -116.333 159 -201s53 -181.667 53 -291c0 -113.333 -17.5 -213 -52.5 -299s-88 -153.833 -159 -203.5s-155.833 -74.5 -254.5 -74.5
c-72.667 0 -139 15.667 -199 47s-110 74 -150 128l-17 -152h-143v1523l167 10v-363c0 -89.333 -1.33301 -166 -4 -230c38.667 55.333 88.834 99.166 150.501 131.499s127.5 48.5 197.5 48.5z" />
    <glyph glyph-name="c" unicode="c" horiz-adv-x="968" 
d="M607 -23c-161.333 0 -287.499 52.333 -378.499 157s-136.5 241.667 -136.5 411c0.666992 170.667 47.167 309.167 139.5 415.5s218.833 159.5 379.5 159.5c56.667 0 111.5 -7 164.5 -21s94.833 -32.333 125.5 -55l-46 -130c-78 42 -160.333 63 -247 63
c-106 0 -189.833 -38.667 -251.5 -116s-92.5 -183 -92.5 -317c0 -130.667 30.5 -234.167 91.5 -310.5s145.5 -114.5 253.5 -114.5c86 0 174 23.333 264 70l21 -133c-72.667 -52.667 -168.334 -79 -287.001 -79z" />
    <glyph glyph-name="d" unicode="d" horiz-adv-x="1211" 
d="M571 121c110 0 191.831 35.333 245.498 106s80.5 171.667 80.5 303c0 148 -25.833 259.5 -77.5 334.5s-135.167 112.5 -250.5 112.5c-51.333 0 -96.666 -11 -135.999 -33s-71 -52.667 -95 -92s-42.167 -84.5 -54.5 -135.5s-18.5 -106.833 -18.5 -167.5
c0 -85.333 10.5 -159.333 31.5 -222s54.833 -112.667 101.5 -150s104.334 -56 173.001 -56zM899.998 159c-36 -55.333 -84 -99.332 -144 -131.999s-127 -49 -201 -49c-144.667 0 -258 51.5 -340 154.5s-123 243.167 -123 420.5c0 169.333 41.667 306.166 125 410.499
s195 156.5 335 156.5c72.667 0 141.167 -15.833 205.5 -47.5s112.5 -74.167 144.5 -127.5l-3 95v483l165 10v-1533h-142z" />
    <glyph glyph-name="e" unicode="e" horiz-adv-x="1108" 
d="M574 982c-85.333 0 -155 -30.167 -209 -90.5s-85.667 -142.833 -95 -247.5h579c0 108.667 -24.5 192.167 -73.5 250.5s-116.167 87.5 -201.5 87.5zM607 -23c-159.333 0 -284.833 50.667 -376.5 152s-137.5 240 -137.5 416c0 170 44.333 307.833 133 413.5
s205.334 159.5 350.001 161.5c136 0 243.833 -46.5 323.5 -139.5s119.5 -217.167 119.5 -372.5c0 -8 -0.166992 -22.667 -0.5 -44s-0.5 -36.666 -0.5 -45.999h-753c2 -124.667 34.167 -221.834 96.5 -291.501s146.166 -104.5 251.499 -104.5c116 0 232.333 30.667 349 92
l26 -135c-111.333 -68 -238.333 -102 -381 -102z" />
    <glyph glyph-name="f" unicode="f" horiz-adv-x="669" 
d="M560 1416c-69.333 0 -116.834 -20 -142.501 -60s-38.5 -109.333 -38.5 -208v-51h264v-124h-264v-973h-167v973h-178l14 110l164 14v49c1.33301 141.333 27.833 243.833 79.5 307.5s135.167 95.5 250.5 95.5c44.667 0 99.334 -5 164.001 -15l-11 -131
c-59.333 8.66699 -104.333 13 -135 13z" />
    <glyph glyph-name="g" unicode="g" horiz-adv-x="1187" 
d="M569 143c56.667 0 106.333 10.002 149 30.002s76 47.667 100 83s41.833 74.666 53.5 117.999s17.5 90.666 17.5 141.999v81c0 53.333 -6 102.5 -18 147.5s-30.5 85.333 -55.5 121s-58.333 63.5 -100 83.5s-90.167 30 -145.5 30c-46 0 -87.833 -8.66699 -125.5 -26
s-68.667 -40.166 -93 -68.499s-45 -61.333 -62 -99s-29.167 -75.834 -36.5 -114.501s-11 -77.667 -11 -117c0 -38.667 4 -77 12 -115s20.667 -75 38 -111s38.333 -67.5 63 -94.5s55.5 -48.833 92.5 -65.5s77.5 -25 121.5 -25zM311.999 -501.998l-15.001 151.003h204
c56.667 0 106 4 148 12s77 21.167 105 39.5s50.667 38.666 68 60.999s30.5 51.333 39.5 87s15 71 18 106s4.5 77.833 4.5 128.5v97c-40 -57.333 -86.333 -101.5 -139 -132.5s-119.667 -46.5 -201 -46.5c-62.667 0 -120.5 10.833 -173.5 32.5s-97.667 50.5 -134 86.5
s-67.333 77.667 -93 125s-44.334 96.333 -56.001 147s-17.5 101.667 -17.5 153c0 80 9.83301 154 29.5 222s48.834 128.667 87.501 182s89.5 95.166 152.5 125.499s135.167 45.5 216.5 45.5c72 0 134.833 -13.833 188.5 -41.5s101.834 -70.167 144.501 -127.5v146h163v-1018
c0 -46.667 -1.16699 -87.5 -3.5 -122.5s-8 -73.833 -17 -116.5s-21.167 -79.334 -36.5 -110.001s-36.833 -61.5 -64.5 -92.5s-60.667 -56 -99 -75s-85.833 -34.5 -142.5 -46.5s-120.667 -18 -192 -18h-185z" />
    <glyph glyph-name="h" unicode="h" horiz-adv-x="1112" 
d="M882 0v663c0 110 -17.5 190 -52.5 240s-96.167 75 -183.5 75c-84 0 -154.833 -21 -212.5 -63s-95.167 -96.333 -112.5 -163c-6 -50 -9 -105.667 -9 -167v-585h-167v1523l167 10v-446c0 -38 -1.33301 -85 -4 -141c94 116 218.667 174 374 174
c244.667 0 367 -143.667 367 -431v-689h-167z" />
    <glyph glyph-name="i" unicode="i" horiz-adv-x="511" 
d="M340 1097v-1097h-168v1097h168zM340 1496v-198h-168v198h168z" />
    <glyph glyph-name="j" unicode="j" horiz-adv-x="445" 
d="M330 1097v-1236c0 -70.667 -4.5 -127.667 -13.5 -171s-26 -80.166 -51 -110.499s-58.833 -51.5 -101.5 -63.5s-98.334 -18 -167.001 -18h-52l-22 151h52c26 0 48.5 1.5 67.5 4.5s35.333 6.83301 49 11.5s24.834 12.334 33.501 23.001s15.5 20.834 20.5 30.501
s8.66699 24.167 11 43.5s3.83301 36.666 4.5 51.999s1 37 1 65v1218h168zM330 1496v-198h-168v198h168z" />
    <glyph glyph-name="k" unicode="k" horiz-adv-x="1041" 
d="M145 0v1523l166 10v-797v-140c4 4 10 10.667 18 20s14.333 16.333 19 21c58 63.333 208 216.666 450 459.999h212l-456 -462l488 -635h-208l-401 540l-122 -105v-435h-166z" />
    <glyph glyph-name="l" unicode="l" horiz-adv-x="569" 
d="M438 -20c-106.667 0 -182.168 28.6641 -226.501 85.9971s-66.5 157 -66.5 299v1158l166 10v-1102c0 -45.333 0.5 -81.666 1.5 -108.999s3.5 -54.166 7.5 -80.499s9.33301 -46.166 16 -59.499s16.334 -25.5 29.001 -36.5s27.834 -18.333 45.501 -22s39.5 -5.5 65.5 -5.5
c21.333 0 63.333 4 126 12l9 -133c-68.667 -11.333 -126.334 -17 -173.001 -17z" />
    <glyph glyph-name="m" unicode="m" horiz-adv-x="1773" 
d="M1536 0l-0.000976562 571.002c0 53.333 -1.16699 98 -3.5 134s-7.66602 72.667 -15.999 110s-20 66.833 -35 88.5s-35.833 39.334 -62.5 53.001s-58.667 20.5 -96 20.5c-73.333 0 -135.833 -19.667 -187.5 -59s-88.5 -94.666 -110.5 -165.999c-6 -48 -9 -99.333 -9 -154
v-598h-167v589c0 49.333 -1.66699 92.166 -5 128.499s-9.66602 71.666 -18.999 105.999s-21.833 62.166 -37.5 83.499s-36.5 38.333 -62.5 51s-57 19 -93 19c-80 0 -147.167 -20.333 -201.5 -61s-90.833 -94.667 -109.5 -162c-6 -51.333 -9 -107 -9 -167v-587h-167
c-1.33301 686 -2 1051.67 -2 1097h140l21 -157c33.333 50.667 80.666 93.334 141.999 128.001s131 52 209 52c40.667 0 78.167 -4.16699 112.5 -12.5s63 -18.833 86 -31.5s43.5 -27.834 61.5 -45.501s32 -35 42 -52s18.333 -34.833 25 -53.5c80 130 202.333 195 367 195
c122 0 211.5 -34.833 268.5 -104.5s85.5 -172.834 85.5 -309.501v-706h-167z" />
    <glyph glyph-name="n" unicode="n" horiz-adv-x="1184" 
d="M143 0l-0.00195312 1097h140l21 -157c43.333 54 97.5 97.5 162.5 130.5s135.167 49.5 210.5 49.5c126.667 0 220.334 -35.5 281.001 -106.5s91 -180.167 91 -327.5v-686h-167c0 440 -0.333008 675.667 -1 707c-2.66699 93.333 -21.5 161.666 -56.5 204.999
s-93.5 65 -175.5 65c-86 0 -157.667 -20.667 -215 -62s-94.666 -95 -111.999 -161c-6.66699 -44.667 -10 -96 -10 -154v-600h-169z" />
    <glyph glyph-name="o" unicode="o" horiz-adv-x="1201" 
d="M265 546c0 -130 28.8311 -234.167 86.498 -312.5s141.834 -117.5 252.501 -117.5c109.333 0 191.833 39 247.5 117s83.5 183 83.5 315c0 134 -27.5 239.5 -82.5 316.5s-138.833 115.5 -251.5 115.5c-109.333 0 -192.666 -39.333 -249.999 -118s-86 -184 -86 -316z
M1108 549c0 -170 -45.332 -307.833 -135.999 -413.5s-216 -158.5 -376 -158.5c-154 0 -276.5 53.333 -367.5 160s-136.5 243.667 -136.5 411c0 170.667 45.667 308.667 137 414s216.666 158 375.999 158c156.667 0 279.667 -52.833 369 -158.5s134 -243.167 134 -412.5z" />
    <glyph glyph-name="p" unicode="p" horiz-adv-x="1201" 
d="M143 -476v1573h147l16 -149c96 114.667 211.333 172 346 172c100 0 184.667 -25 254 -75s120.5 -117.667 153.5 -203s49.5 -185 49.5 -299c0 -109.333 -18 -206.5 -54 -291.5s-88.833 -152 -158.5 -201s-151.167 -73.5 -244.5 -73.5c-70.667 0 -137 15.833 -199 47.5
s-111.667 73.5 -149 125.5c4 -72 6 -142 6 -210v-405zM629 118c50.667 0 95.999 11.501 135.999 34.501s72.333 54.5 97 94.5s43.334 85.5 56.001 136.5s19 106.167 19 165.5c0 125.333 -26.333 228.166 -79 308.499s-129.667 120.5 -231 120.5c-212 0 -318 -137 -318 -411
c0 -148.667 24.833 -260.667 74.5 -336s131.5 -113 245.5 -113z" />
    <glyph glyph-name="q" unicode="q" horiz-adv-x="1211" 
d="M552 -23c-95.333 0 -177.834 24.668 -247.501 74.001s-121.834 116 -156.501 200s-52 180.667 -52 290c0 113.333 17.333 213.166 52 299.499s87.334 154.5 158.001 204.5s155.334 75 254.001 75c136.667 0 251.667 -59.333 345 -178l12 155h148v-1563l-167 -10v487
c0 48.667 1.66699 98 5 148c-37.333 -56 -86.333 -100.333 -147 -133s-128.667 -49 -204 -49zM573.999 121.001c110.667 0 192.168 34.6689 244.501 104.002s79.166 170.666 80.499 303.999c0 147.333 -25.667 258.666 -77 333.999s-134.333 113 -249 113
c-69.333 0 -127.5 -19.833 -174.5 -59.5s-80.5 -90.667 -100.5 -153s-30 -134.5 -30 -216.5c0 -62 5.83301 -118.167 17.5 -168.5s29.5 -95 53.5 -134s55.833 -69.333 95.5 -91s86.167 -32.5 139.5 -32.5z" />
    <glyph glyph-name="r" unicode="r" horiz-adv-x="746" 
d="M635 1107c30 0 57.333 -2 82 -6l-6 -154c-30.667 5.33301 -57.334 8 -80.001 8c-93.333 0 -169.166 -32.5 -227.499 -97.5s-87.5 -145.5 -87.5 -241.5v-616h-167c-0.666992 673.333 -1 1039 -1 1097h139l16 -197c38 62 86.333 112 145 150s121 57 187 57z" />
    <glyph glyph-name="s" unicode="s" horiz-adv-x="953" 
d="M470 -23c-74.667 0 -143.502 8.00098 -206.502 24.001s-114.167 36.667 -153.5 62l21 141c111.333 -59.333 220.666 -89 327.999 -89c162.667 0 246.334 57.333 251.001 172c0 48.667 -17.333 87 -52 115s-102.667 59.333 -204 94l-83 29
c-96 32 -164.5 71.667 -205.5 119s-61.833 106.333 -62.5 177c0 86 34.5 157.333 103.5 214s163.5 85 283.5 85c124 0 237 -24 339 -72l-49 -128c-103.333 42.667 -200 64 -290 64c-70 0 -124.833 -13.833 -164.5 -41.5s-59.5 -66.5 -59.5 -116.5
c0 -42.667 14.333 -75.334 43 -98.001s86 -48.667 172 -78c22 -8 49.667 -17.333 83 -28c110.667 -36 189 -78.5 235 -127.5s69 -115.167 69 -198.5c-1.33301 -101.333 -37.666 -179.833 -108.999 -235.5s-167.666 -83.5 -288.999 -83.5z" />
    <glyph glyph-name="t" unicode="t" horiz-adv-x="710" 
d="M493 -20c-108 0 -184.666 26.333 -229.999 79s-69.333 137.667 -72 255v659h-163l7 110l155 14l57 251l110 4v-255h305v-124h-305v-629c0 -83.333 12.667 -142 38 -176s68.666 -51 129.999 -51c22 0 69.667 5.33301 143 16l7 -132c-79.333 -14 -140 -21 -182 -21z" />
    <glyph glyph-name="u" unicode="u" horiz-adv-x="1100" 
d="M105 366l-0.000976562 730.997h168v-733c0 -48 6.83301 -88.667 20.5 -122s33.334 -59.166 59.001 -77.499s54.667 -31.5 87 -39.5s69.5 -12 111.5 -12c86.667 0 154.167 19 202.5 57s72.5 102.667 72.5 194v733h168v-731c0 -56 -8 -106.333 -24 -151
s-37.5 -81.834 -64.5 -111.501s-59.5 -54.167 -97.5 -73.5s-78.167 -33.333 -120.5 -42s-87.833 -13 -136.5 -13c-48 0 -93.333 4.33301 -136 13s-83.167 22.834 -121.5 42.501s-71.333 44.334 -99 74.001s-49.5 66.834 -65.5 111.501s-24 94.667 -24 150z" />
    <glyph glyph-name="v" unicode="v" horiz-adv-x="1031" 
d="M424 0l-425 1097h179l242 -652l100 -278c22.667 71.333 54 163.333 94 276l236 654h178l-422 -1097h-182z" />
    <glyph glyph-name="w" unicode="w" horiz-adv-x="1606" 
d="M1090 0l-285.999 918.999c-20.667 -73.333 -44.334 -152.666 -71.001 -237.999l-70 -220l-78 -238l-73 -223h-180l-313 1097h173l235 -898l288 898h189c158.667 -502.667 252 -801 280 -895l232 895h171l-316 -1097h-181z" />
    <glyph glyph-name="x" unicode="x" horiz-adv-x="1057" 
d="M433 558l-387 539h191l293 -418l294 418h191l-388 -541l398 -556h-185l-309 441l-309 -441h-191z" />
    <glyph glyph-name="y" unicode="y" horiz-adv-x="1022" 
d="M3 1097h177.001l346 -913l308 913h177c-296 -814.667 -449 -1234.67 -459 -1260c-46 -115.333 -101.667 -199.833 -167 -253.5s-151.333 -80.5 -258 -80.5c-32 0 -65.667 2.66699 -101 8l-10 142c37.333 -2.66699 65.333 -4 84 -4c75.333 0 132.5 13.833 171.5 41.5
s73.833 79.5 104.5 155.5c27.333 70 47.666 124 60.999 162z" />
    <glyph glyph-name="z" unicode="z" horiz-adv-x="912" 
d="M849 0h-766v126l561 839h-546v132h733v-132l-560 -833h578v-132z" />
    <glyph glyph-name="braceleft" unicode="{" horiz-adv-x="733" 
d="M454 84c0 -85.333 13 -144.327 39 -176.994s75.333 -49.334 148 -50.001v-138c-124.667 0.666992 -214.5 28.667 -269.5 84s-82.5 141.666 -82.5 258.999v207c0 47.333 -2.5 86.666 -7.5 117.999s-14.833 60.833 -29.5 88.5s-36.5 48 -65.5 61s-66.167 19.5 -111.5 19.5
v145c21.333 0 40.5 1 57.5 3s32.333 5.5 46 10.5s25.667 9.83301 36 14.5s19.333 11.667 27 21s14.167 17.666 19.5 24.999s9.83301 18 13.5 32s6.5 26.167 8.5 36.5s3.33301 24.666 4 42.999s1.16699 34 1.5 47s0.5 30.833 0.5 53.5v243
c0 103.333 29.833 180.666 89.5 231.999s147.167 77 262.5 77v-138c-72.667 -0.666992 -122 -17.667 -148 -51s-39 -92.333 -39 -177v-265c0 -60.667 -14.833 -113.167 -44.5 -157.5s-76.5 -85.833 -140.5 -124.5c63.333 -20 110 -55 140 -105s45 -107.333 45 -172v-265z
" />
    <glyph glyph-name="bar" unicode="|" horiz-adv-x="799" 
d="M327 1579h145v-1979h-145v1979z" />
    <glyph glyph-name="braceright" unicode="}" horiz-adv-x="738" 
d="M466 632c-63.333 20 -109.83 54.832 -139.497 104.499s-44.5 106.834 -44.5 171.501v265c0 84 -13.167 142.833 -39.5 176.5s-75.5 50.834 -147.5 51.501v138c122.667 0 212 -28 268 -84s84 -142.667 84 -260v-208c0 -38.667 1.33301 -70.834 4 -96.501
s8.16699 -51.334 16.5 -77.001s20.166 -46 35.499 -61s36.166 -27.167 62.499 -36.5s58.5 -14.333 96.5 -15v-145c-36.667 0 -68 -4.66699 -94 -14s-46.833 -21.666 -62.5 -36.999s-27.834 -35.833 -36.501 -61.5s-14.5 -51.834 -17.5 -78.501s-4.5 -58.667 -4.5 -96v-242
c0 -204 -117.333 -306.667 -352 -308v138c72 0.666992 121.167 17.334 147.5 50.001s39.5 91.667 39.5 177v265c0 63.333 13 114.5 39 153.5s74.333 82.167 145 129.5z" />
    <glyph glyph-name="asciitilde" unicode="~" horiz-adv-x="1255" 
d="M387 663c-42.667 0 -82.999 -14.9961 -120.999 -44.9961s-69.333 -68.333 -94 -115l-52 105c25.333 59.333 60.833 107.166 106.5 143.499s100.5 54.5 164.5 54.5c38.667 0 76 -5.16699 112 -15.5s81 -27.5 135 -51.5l34.5 -15c17 -7.33301 28.667 -12.5 35 -15.5
s16.5 -7.33301 30.5 -13l31.5 -12.5c7 -2.66699 16.167 -5.83398 27.5 -9.50098s20.666 -6.33398 27.999 -8.00098s15.333 -3.16699 24 -4.5s16.667 -2 24 -2c39.333 0 77.666 14.667 114.999 44s68.333 66.666 93 111.999l56 -96c-26 -63.333 -61.667 -112.833 -107 -148.5
s-99.333 -53.5 -162 -53.5c-59.333 0 -137.666 22 -234.999 66c-43.333 20 -75.333 34.333 -96 43s-45.167 17 -73.5 25s-53.833 12 -76.5 12z" />
    <glyph glyph-name="uni00A0" unicode="&#xa0;" horiz-adv-x="511" 
 />
    <glyph glyph-name="exclamdown" unicode="&#xa1;" horiz-adv-x="586" 
d="M426 1095c0 -35.333 -11.833 -66.168 -35.5 -92.501s-56.167 -39.5 -97.5 -39.5c-42 0 -74.667 13 -98 39s-35 57 -35 93s11.667 67 35 93s56 39 98 39c41.333 0 73.833 -13.167 97.5 -39.5s35.5 -57.166 35.5 -92.499zM195 -281.002v142l56 919h79l62 -919v-142h-197z
" />
    <glyph glyph-name="cent" unicode="&#xa2;" horiz-adv-x="1102" 
d="M547 1496l94.999 -0.00292969v-182c111.333 -7.33301 196 -38.333 254 -93l-42 -119c-63.333 42.667 -134 67.334 -212 74.001v-869c75.333 7.33301 146.333 34.333 213 81l42 -120c-62.667 -57.333 -147.667 -90 -255 -98v-169h-95v169
c-99.333 8.66699 -185.666 40.334 -258.999 95.001s-128 123.334 -164 206.001s-54 173 -54 271c0.666992 72 12 141 34 207s53 125 93 177s90.333 94.833 151 128.5s127 53.5 199 59.5v182zM546.999 309.997l-0.00195312 863.998
c-89.333 -13.333 -162.666 -60.666 -219.999 -141.999s-86 -179.666 -86 -294.999c0 -114 27.833 -210 83.5 -288s129.834 -124.333 222.501 -139z" />
    <glyph glyph-name="sterling" unicode="&#xa3;" horiz-adv-x="1132" 
d="M696 1503c135.333 0 254.334 -43.333 357.001 -130l-78 -120c-91.333 69.333 -184 104 -278 104c-92.667 0 -158.5 -31.167 -197.5 -93.5s-58.5 -152.5 -58.5 -270.5v-178h410v-134h-410v-162c0 -91.333 -8.16699 -165.833 -24.5 -223.5s-48.833 -105.167 -97.5 -142.5
c54.667 3.33301 86 5 94 5h655v-158h-972l-11 139c66 24.667 113.167 62 141.5 112s42.5 116 42.5 198v232h-186v134h186v96c0 46.667 1.66699 90 5 130s9.16602 80.5 17.499 121.5s19.333 77.833 33 110.5s31.5 63.667 53.5 93s47.667 53.833 77 73.5
s64.333 35.167 105 46.5s86 17 136 17z" />
    <glyph glyph-name="currency" unicode="&#xa4;" horiz-adv-x="1151" 
d="M267 732c0 -85.333 30.167 -158.166 90.5 -218.499s133.166 -90.5 218.499 -90.5c86 0 159.167 30.167 219.5 90.5s90.5 133.166 90.5 218.499s-30.333 158.333 -91 219s-133.667 91 -219 91s-158.166 -30.333 -218.499 -91s-90.5 -133.667 -90.5 -219zM158 732
c0 90 27.668 173 83.001 249l-186 179l74 72l184 -175c75.333 62 163 93 263 93c98.667 0 186 -31.333 262 -94l187 176l70 -74l-184 -177c55.333 -78 83 -161 83 -249c0 -93.333 -27.333 -176.666 -82 -249.999l182 -176l-69 -74l-187 176c-76.667 -62 -164 -93 -262 -93
c-100.667 0 -188.334 31 -263.001 93l-184 -175l-73 72l185 177c-55.333 75.333 -83 158.666 -83 249.999z" />
    <glyph glyph-name="yen" unicode="&#xa5;" horiz-adv-x="1135" 
d="M567 805l369 674h172l-423 -750h306v-124h-346v-182h347v-124h-347v-299h-158v299h-353v124h353v182h-352v124h304l-414 750h178z" />
    <glyph glyph-name="brokenbar" unicode="&#xa6;" horiz-adv-x="788" 
d="M322 310h146v-709h-146v709zM322 1579h146v-707h-146v707z" />
    <glyph glyph-name="section" unicode="&#xa7;" horiz-adv-x="1017" 
d="M141 797c0 58 14.999 109.507 44.999 154.507s70.333 80.833 121 107.5c-49.333 31.333 -86.166 66.333 -110.499 105s-36.5 86.334 -36.5 143.001c0 81.333 29.333 145.666 88 192.999s141.667 74.666 249 81.999c65.333 6 123.5 4.66699 174.5 -4
s105.833 -24.667 164.5 -48c-3.33301 -16.667 -7.83301 -40.834 -13.5 -72.501s-9.83398 -55.834 -12.501 -72.501c-90 40.667 -178 61 -264 61c-152 0 -228 -45 -228 -135c0 -41.333 17.833 -76.333 53.5 -105s101.834 -62.334 198.501 -101.001
c106.667 -43.333 184.834 -89.166 234.501 -137.499s74.5 -107.833 74.5 -178.5c0 -57.333 -14.5 -109.833 -43.5 -157.5s-67.833 -86.834 -116.5 -117.501c99.333 -56.667 149 -135.334 149 -236.001c0 -96.667 -38.333 -172 -115 -226s-179 -81 -307 -81
c-124 0 -224.333 19.667 -301 59v155c98 -50.667 199 -76 303 -76c82 0 146 14.167 192 42.5s69 66.5 69 114.5c0 16 -1.66699 30.167 -5 42.5s-10.333 24.166 -21 35.499s-20.834 20.833 -30.501 28.5s-26 17.167 -49 28.5s-43 20.666 -60 27.999l-79.5 33
c-114.667 44 -197.167 90.833 -247.5 140.5s-75.5 114.5 -75.5 194.5zM291.999 813.007c0 -46.667 17.667 -85.001 53 -115.001s96 -62 182 -96l57 -24c95.333 58 143 121.333 143 190c0 22.667 -5.16699 43.834 -15.5 63.501s-22.666 36.167 -36.999 49.5
s-35.833 27.333 -64.5 42s-54.334 26.667 -77.001 36s-54.667 21.333 -96 36c-42.667 -18.667 -77.5 -43.667 -104.5 -75s-40.5 -67 -40.5 -107z" />
    <glyph glyph-name="dieresis" unicode="&#xa8;" horiz-adv-x="770" 
d="M663 1254h-155v212h155v-212zM272 1254h-154v212h154v-212z" />
    <glyph glyph-name="copyright" unicode="&#xa9;" horiz-adv-x="1841" 
d="M1701 781c0 -104.667 -14.5 -201.333 -43.5 -290s-68.5 -164.5 -118.5 -227.5s-108.833 -116.5 -176.5 -160.5s-140.334 -76.5 -218.001 -97.5s-158.5 -31.5 -242.5 -31.5c-79.333 0 -156.666 10.5 -231.999 31.5s-146.5 53.667 -213.5 98s-125.667 97.666 -176 159.999
s-90.166 138 -119.499 227s-44 185.833 -44 290.5c0 104 14.5 200.333 43.5 289s68.333 164.334 118 227.001s107.834 116 174.501 160s137.5 76.5 212.5 97.5s152.167 31.5 231.5 31.5c84 0 165 -10.667 243 -32s151.167 -54 219.5 -98s127.666 -97.333 177.999 -160
s90.166 -138.167 119.499 -226.5s44 -184.5 44 -288.5zM902 67.001c110 0 209.001 18.6621 297.001 55.9951s160 88.5 216 153.5s98.833 140.167 128.5 225.5s44.5 177.333 44.5 276s-15 190.834 -45 276.501s-73.333 161.334 -130 227.001
s-129.334 117.334 -218.001 155.001s-188 56.5 -298 56.5c-104.667 0 -199.5 -18.833 -284.5 -56.5s-155.167 -89 -210.5 -154s-97.833 -140.167 -127.5 -225.5s-44.5 -176.666 -44.5 -273.999c0 -99.333 15 -192.166 45 -278.499s72.667 -162 128 -227
s126 -116.333 212 -154s181.667 -56.5 287 -56.5zM1191 458.996l39.002 -107.002c-36.667 -23.333 -84.334 -42.833 -143.001 -58.5s-118 -23.5 -178 -23.5c-137.333 0 -250.833 48.667 -340.5 146s-134.5 220.333 -134.5 369c0 150 44.667 273.5 134 370.5
s206.333 145.5 351 145.5c119.333 0 222 -30 308 -90l-60 -97c-30 21.333 -68.333 38 -115 50s-94 18 -142 18c-56.667 0 -107.167 -10.667 -151.5 -32s-80 -50.333 -107 -87s-47.333 -78.167 -61 -124.5s-20.5 -96.166 -20.5 -149.499
c0 -119.333 30.333 -216.166 91 -290.499s150 -111.5 268 -111.5c45.333 0 93.166 7 143.499 21s89.833 31 118.5 51z" />
    <glyph glyph-name="ordfeminine" unicode="&#xaa;" horiz-adv-x="807" 
d="M134 741h545v-106h-545v106zM369 937c56 0 98.334 21.833 127.001 65.5s44.334 98.834 47.001 165.501v27c-10 -1.33301 -25.833 -2.83301 -47.5 -4.5s-38.834 -3.16699 -51.501 -4.5s-28.834 -3.5 -48.501 -6.5s-35.5 -6.5 -47.5 -10.5s-25.167 -9.66699 -39.5 -17
s-25.5 -15.5 -33.5 -24.5s-14.667 -20.333 -20 -34s-8 -28.834 -8 -45.501c0 -74 40.667 -111 122 -111zM350.001 826c-64.667 0 -117.83 20.502 -159.497 61.502s-62.5 95.167 -62.5 162.5c0 37.333 7.16699 69.666 21.5 96.999s32.666 49.166 54.999 65.499
s52.666 30 90.999 41s75.833 18.833 112.5 23.5s81.667 8.66699 135 12v18c-1.33301 60 -11.333 102.667 -30 128s-52 38 -100 38c-45.333 0 -84.333 -5.5 -117 -16.5s-65.334 -34.833 -98.001 -71.5l-61 78c64.667 84.667 158.667 127 282 127
c70.667 0 128.5 -21.333 173.5 -64s67.5 -108 67.5 -196l-2 -348c0 -17.333 2 -62.333 6 -135h-118l-3 79c-44.667 -66.667 -109 -100 -193 -100z" />
    <glyph glyph-name="guillemotleft" unicode="&#xab;" horiz-adv-x="1000" 
d="M390 149l-270 371l-20 47l293 403l143 -35l-274 -374l269 -376zM771 149l-116.5 159.5l-130.5 181.5l-55 77l304 403l128 -35l-259 -374l256 -376z" />
    <glyph glyph-name="logicalnot" unicode="&#xac;" horiz-adv-x="1225" 
d="M1100 825v-565h-135v421h-856v144h991z" />
    <glyph glyph-name="uni00AD" unicode="&#xad;" horiz-adv-x="946" 
d="M108 236v150h735v-150h-735z" />
    <glyph glyph-name="registered" unicode="&#xae;" horiz-adv-x="1824" 
d="M1701 781c0 -104.667 -14.5 -201.333 -43.5 -290s-68.5 -164.5 -118.5 -227.5s-108.833 -116.5 -176.5 -160.5s-140.334 -76.5 -218.001 -97.5s-158.5 -31.5 -242.5 -31.5c-79.333 0 -156.666 10.5 -231.999 31.5s-146.5 53.667 -213.5 98s-125.667 97.666 -176 159.999
s-90.166 138 -119.499 227s-44 185.833 -44 290.5c0 104 14.5 200.333 43.5 289s68.333 164.334 118 227.001s107.834 116 174.501 160s137.5 76.5 212.5 97.5s152.167 31.5 231.5 31.5c84 0 165 -10.667 243 -32s151.167 -54 219.5 -98s127.666 -97.333 177.999 -160
s90.166 -138.167 119.499 -226.5s44 -184.5 44 -288.5zM902 67.001c110 0 209.001 18.6621 297.001 55.9951s160 88.5 216 153.5s98.833 140.167 128.5 225.5s44.5 177.333 44.5 276s-15 190.834 -45 276.501s-73.333 161.334 -130 227.001
s-129.334 117.334 -218.001 155.001s-188 56.5 -298 56.5c-104.667 0 -199.5 -18.833 -284.5 -56.5s-155.167 -89 -210.5 -154s-97.833 -140.167 -127.5 -225.5s-44.5 -176.666 -44.5 -273.999c0 -99.333 15 -192.166 45 -278.499s72.667 -162 128 -227
s126 -116.333 212 -154s181.667 -56.5 287 -56.5zM857.001 842.996c98.667 0 170.666 10.8311 215.999 32.498s68 62.834 68 123.501c0 62.667 -21.167 103.334 -63.5 122.001s-119.166 28 -230.499 28h-116v-306h126zM914 715.994l-182.999 0.000976562v-415h-132v976h258
c295.333 0 443 -90 443 -270c0 -72 -20.333 -132.5 -61 -181.5s-107 -79.167 -199 -90.5c22 -17.333 43.667 -40.5 65 -69.5s40 -57.667 56 -86l71 -127c31.333 -56.333 60.666 -106.833 87.999 -151.5h-149l-125 224c-21.333 39.333 -37.333 68 -48 86
s-23.667 37.167 -39 57.5s-30.333 36.166 -45 47.499z" />
    <glyph glyph-name="macron" unicode="&#xaf;" horiz-adv-x="1062" 
d="M886 1625v-122h-710v122h710z" />
    <glyph glyph-name="degree" unicode="&#xb0;" horiz-adv-x="846" 
d="M235 1205c0 -54 18.499 -100 55.499 -138s81.5 -57 133.5 -57s96.5 19 133.5 57s55.5 84 55.5 138s-18.5 99.833 -55.5 137.5s-81.5 56.5 -133.5 56.5c-51.333 0 -95.666 -18.833 -132.999 -56.5s-56 -83.5 -56 -137.5zM111.999 1205c0 86.667 30.502 160.667 91.502 222
s134.167 92 219.5 92s158.666 -30.667 219.999 -92s92 -135.333 92 -222c0 -85.333 -30.333 -159.333 -91 -222s-134.334 -94 -221.001 -94c-85.333 0 -158.5 31 -219.5 93s-91.5 136.333 -91.5 223z" />
    <glyph glyph-name="plusminus" unicode="&#xb1;" horiz-adv-x="1202" 
d="M118 0v143h970v-143h-970zM668 790h418v-143h-416v-414h-137v414h-415v143h414v416h136v-416z" />
    <glyph glyph-name="uni00B2" unicode="&#xb2;" horiz-adv-x="763" 
d="M615 650h-481v119l104 117.5l85 99c37.333 44.333 63.5 77.166 78.5 98.499s32.333 47.333 52 78s33 57 40 79s10.5 42.667 10.5 62c0 36.667 -11 66 -33 88s-52.333 33 -91 33c-71.333 0 -125.666 -47.333 -162.999 -142l-74 85c20 58 51.5 103.167 94.5 135.5
s92.833 48.5 149.5 48.5c66.667 0 121.667 -22.667 165 -68s65 -104.666 65 -177.999c0 -35.333 -5.83301 -71.333 -17.5 -108s-25.834 -70.5 -42.501 -101.5s-40.5 -66.167 -71.5 -105.5s-59.5 -73.333 -85.5 -102l-103 -110h318v-128z" />
    <glyph glyph-name="uni00B3" unicode="&#xb3;" horiz-adv-x="756" 
d="M352 1424c-54.667 0 -110.331 -28.334 -166.998 -85.001l-53 103c28 33.333 61.667 60.166 101 80.499s79.666 30.5 120.999 30.5c64.667 0 120.667 -22.667 168 -68s71 -105.333 71 -180c0 -87.333 -31.667 -151.666 -95 -192.999c76.667 -42.667 115 -113.667 115 -213
c0 -80.667 -25.333 -145.5 -76 -194.5s-113 -73.5 -187 -73.5c-87.333 0 -160 34.667 -218 104l55 103c51.333 -56.667 104.333 -85 159 -85c43.333 0 79.5 13.833 108.5 41.5s43.5 63.834 43.5 108.501c0 50.667 -16.167 87.167 -48.5 109.5s-79.5 33.5 -141.5 33.5h-48
v128h44c116 0 174 43 174 129c0 40.667 -11.333 71 -34 91s-53.334 30 -92.001 30z" />
    <glyph glyph-name="acute" unicode="&#xb4;" horiz-adv-x="639" 
d="M567 1638l-325 -388h-114l186 388h253z" />
    <glyph glyph-name="paragraph" unicode="&#xb6;" horiz-adv-x="1068" 
d="M393 -158v1005c-71.333 1.33301 -136.5 20 -195.5 56s-104.5 81.5 -136.5 136.5s-48 112.5 -48 172.5c0 46 8.5 89.167 25.5 129.5s42.667 77.166 77 110.499s81 59.833 140 79.5s127.5 29.5 205.5 29.5h466v-131h-75v-1588h-115v1588h-219v-1588h-125z" />
    <glyph glyph-name="periodcentered" unicode="&#xb7;" horiz-adv-x="468" 
d="M318 759v-198h-168v198h168z" />
    <glyph glyph-name="cedilla" unicode="&#xb8;" horiz-adv-x="596" 
d="M268 -410h-154l112 426h86z" />
    <glyph glyph-name="uni00B9" unicode="&#xb9;" horiz-adv-x="601" 
d="M122 1334l-0.000976562 102c62.667 32 112.334 66.333 149.001 103l97 -1v-792h124v-96h-357v96h118v663c-32 -21.333 -75.667 -46.333 -131 -75z" />
    <glyph glyph-name="ordmasculine" unicode="&#xba;" horiz-adv-x="899" 
d="M256 1207c0 -78 17 -141.832 51 -191.499s82.667 -74.5 146 -74.5c60 0 107 25.167 141 75.5s51 112.5 51 186.5c0 77.333 -17.333 141.666 -52 192.999s-82.667 77 -144 77c-59.333 0 -106.333 -25.5 -141 -76.5s-52 -114.167 -52 -189.5zM451 1590
c98.667 0 176.333 -36.334 233 -109.001s85 -164.667 85 -276c0 -109.333 -28.167 -199.833 -84.5 -271.5s-133.5 -107.5 -231.5 -107.5c-102.667 0 -182 35.833 -238 107.5s-84 163.834 -84 276.501c0 109.333 28.667 200 86 272s135.333 108 234 108z" />
    <glyph glyph-name="guillemotright" unicode="&#xbb;" horiz-adv-x="1012" 
d="M534 554l-304 -405l-128 36l259 377l-257 373l127 35zM915 554l-293 -405l-139 36l270 377l-265 373l137 35z" />
    <glyph glyph-name="onequarter" unicode="&#xbc;" horiz-adv-x="1609" 
d="M122 1334l-0.000976562 102c62.667 32 112.334 66.333 149.001 103l97 -1v-792h124v-96h-357v96h118v663c-32 -21.333 -75.667 -46.333 -131 -75zM1420 40h-107v200h-390v99l379 560h120v-541h94l10 -118h-106v-200zM1165 1547h135l-921 -1547h-134zM1066 358h246
c0 220 0.333008 339.333 1 358z" />
    <glyph glyph-name="onehalf" unicode="&#xbd;" horiz-adv-x="1591" 
d="M245 0l920 1547h135l-921 -1547h-134zM934 -30l-0.00195312 93.001c148.667 149.333 243.334 246.666 284.001 291.999c99.333 114.667 150 202 152 262c0 43.333 -13.333 78 -40 104s-59 39 -97 39s-76 -10.5 -114 -31.5s-71 -52.5 -99 -94.5l-77 65
c22.667 52.667 61.667 94 117 124s114.333 45 177 45c73.333 0 135.333 -20.5 186 -61.5s76 -100.167 76 -177.5c0 -24 -2.33301 -47.5 -7 -70.5s-13.667 -47.167 -27 -72.5l-35.5 -65.5c-10.333 -18.333 -28.166 -42 -53.499 -71l-57.5 -66c-13 -15 -36.833 -39 -71.5 -72
l-72.5 -68l-81.5 -74.5h394v-99h-553zM134.998 650.001l-0.000976562 96h118v663c-32 -21.333 -75.667 -46.333 -131 -75v102c62.667 32 112.334 66.333 149.001 103l97 -1v-792h124v-96h-357z" />
    <glyph glyph-name="threequarters" unicode="&#xbe;" horiz-adv-x="1630" 
d="M1085 361h246c0 202 1 322 3 360zM331 0l918 1547h144l-928 -1547h-134zM1334 44v201h-392v98l379 560h121v-542h96l8 -116h-105v-201h-107zM333 631c-86.667 0 -158.997 34.667 -216.997 104l52 103c51.333 -56.667 104.666 -85 159.999 -85
c43.333 0 80.166 13.833 110.499 41.5s45.5 63.834 45.5 108.501c0 95.333 -63.667 143 -191 143h-49v128h44c116 0 174 43 174 129c0 40.667 -11.333 71 -34 91s-53 30 -91 30c-57.333 0 -114.333 -28.333 -171 -85l-50 103c28 33.333 61.667 60.166 101 80.499
s79.666 30.5 120.999 30.5c66.667 0 127 -22.833 181 -68.5s81 -105.5 81 -179.5c0 -86.667 -37.667 -151 -113 -193c88.667 -42 133 -113 133 -213c0 -79.333 -28.667 -143.833 -86 -193.5s-124.333 -74.5 -201 -74.5z" />
    <glyph glyph-name="questiondown" unicode="&#xbf;" horiz-adv-x="865" 
d="M434 779h87.001c0 -42.667 -9.83301 -91.667 -29.5 -147s-43.5 -109.5 -71.5 -162.5l-83.5 -157.5c-27.667 -52 -51.334 -103.333 -71.001 -154s-29.5 -94 -29.5 -130c0.666992 -63.333 21 -110.333 61 -141s94.667 -46 164 -46c86 0 172.333 27 259 81l45 -135
c-82 -64.667 -192.333 -97 -331 -97c-108 0 -195.167 28.5 -261.5 85.5s-99.5 136.5 -99.5 238.5c0 51.333 7.5 101.333 22.5 150s35.833 96.167 62.5 142.5s54.5 91.333 83.5 135s61.667 96.167 98 157.5s67.833 121.333 94.5 180zM596.001 1094
c0 -35.333 -11.833 -66.168 -35.5 -92.501s-56.167 -39.5 -97.5 -39.5c-42 0 -74.667 13 -98 39s-35 57 -35 93s11.667 67 35 93s56 39 98 39c41.333 0 73.833 -13.167 97.5 -39.5s35.5 -57.166 35.5 -92.499z" />
    <glyph glyph-name="Agrave" unicode="&#xc0;" horiz-adv-x="1302" 
d="M595 1627l-323 387h250l185 -387h-112zM892 614c-140.667 408.667 -218.333 638.333 -233 689l-243 -689h476zM1121 -0.000976562l-173 469h-590l-179 -469h-176l568 1482h177l551 -1482h-178z" />
    <glyph glyph-name="Aacute" unicode="&#xc1;" horiz-adv-x="1302" 
d="M1033 2015l-325 -388h-114l186 388h253zM892 614c-140.667 408.667 -218.333 638.333 -233 689l-243 -689h476zM1121 -0.000976562l-173 469h-590l-179 -469h-176l568 1482h177l551 -1482h-178z" />
    <glyph glyph-name="Acircumflex" unicode="&#xc2;" horiz-adv-x="1302" 
d="M358 1627l187 388h213l187 -388h-134l-161 272l-161 -272h-131zM892 614c-140.667 408.667 -218.333 638.333 -233 689l-243 -689h476zM1121 -0.000976562l-173 469h-590l-179 -469h-176l568 1482h177l551 -1482h-178z" />
    <glyph glyph-name="Atilde" unicode="&#xc3;" horiz-adv-x="1302" 
d="M369 1635l-81.998 55.001c23.333 65.333 50.666 111.666 81.999 138.999s67 41 107 41c30 0 65.5 -8 106.5 -24l120.5 -48c39.333 -16 72.666 -24 99.999 -24c55.333 0 97 32.667 125 98l86 -36c-23.333 -77.333 -51.833 -131.5 -85.5 -162.5s-72.167 -46.5 -115.5 -46.5
c-30.667 0 -66.667 7.66699 -108 23l-121.5 46.5c-39.667 15.667 -72.5 23.5 -98.5 23.5c-51.333 0 -90 -28.333 -116 -85zM892.002 614.001c-140.667 408.667 -218.333 638.333 -233 689l-243 -689h476zM1121 0l-173 469h-590l-179 -469h-176l568 1482h177l551 -1482h-178z
" />
    <glyph glyph-name="Adieresis" unicode="&#xc4;" horiz-adv-x="1302" 
d="M923 1627h-155v212h155v-212zM532 1627h-154v212h154v-212zM892 614c-140.667 408.667 -218.333 638.333 -233 689l-243 -689h476zM1121 -0.000976562l-173 469h-590l-179 -469h-176l568 1482h177l551 -1482h-178z" />
    <glyph glyph-name="Aring" unicode="&#xc5;" horiz-adv-x="1302" 
d="M500 1741c0 -43.333 14.833 -80.168 44.5 -110.501s65.167 -45.5 106.5 -45.5s76.833 15.333 106.5 46s44.5 67.334 44.5 110.001c0 43.333 -14.833 80 -44.5 110s-65.167 45 -106.5 45s-76.833 -15 -106.5 -45s-44.5 -66.667 -44.5 -110zM401 1741
c0 68.667 24.5 127.667 73.5 177s107.5 74 175.5 74c68.667 0 127.5 -24.667 176.5 -74s73.5 -108.333 73.5 -177c0 -68 -24.333 -127.167 -73 -177.5s-107.667 -75.5 -177 -75.5c-68 0 -126.5 24.833 -175.5 74.5s-73.5 109.167 -73.5 178.5zM892 613.998
c-140.667 408.667 -218.333 638.333 -233 689l-243 -689h476zM1121 -0.00292969l-173 469h-590l-179 -469h-176l568 1482h177l551 -1482h-178z" />
    <glyph glyph-name="AE" unicode="&#xc6;" horiz-adv-x="2092" 
d="M85 0l916 1568h945v-159h-705l39 -527h631v-158h-611l42 -566h624v-158h-783l-31 427h-654l-240 -427h-173zM582 589h548l-61 820z" />
    <glyph glyph-name="Ccedilla" unicode="&#xc7;" horiz-adv-x="1290" 
d="M676 -434h-154l112 426h86zM823 1352c-111.333 0 -207.17 -27.002 -287.503 -81.002s-140.166 -126.667 -179.499 -218s-59 -196.333 -59 -315c0 -88.667 10.667 -169.5 32 -242.5s53.333 -137 96 -192s98.167 -97.667 166.5 -128s146.833 -45.5 235.5 -45.5
c114 0 232 29.667 354 89l29 -147c-99.333 -62.667 -233.666 -94 -402.999 -94c-111.333 0 -211.166 18.5 -299.499 55.5s-161.333 89.333 -219 157s-101.5 148.334 -131.5 242.001s-45 197.834 -45 312.501c0 110.667 16.333 212.667 49 306s78.834 173.5 138.501 240.5
s134.167 119.167 223.5 156.5s188.666 56 297.999 56c166 0 306 -36.667 420 -110l-68 -141c-109.333 66 -226 99 -350 99z" />
    <glyph glyph-name="Egrave" unicode="&#xc8;" horiz-adv-x="1143" 
d="M550 1627l-323 387h250l185 -387h-112zM174 0v1479h848l-7 -153h-668v-484h635v-151h-635v-538h690l-8 -153h-855z" />
    <glyph glyph-name="Eacute" unicode="&#xc9;" horiz-adv-x="1143" 
d="M987 2015l-325 -388h-114l186 388h253zM174 0v1479h848l-7 -153h-668v-484h635v-151h-635v-538h690l-8 -153h-855z" />
    <glyph glyph-name="Ecircumflex" unicode="&#xca;" horiz-adv-x="1143" 
d="M312 1627l187 388h213l187 -388h-134l-161 272l-161 -272h-131zM174 0v1479h848l-7 -153h-668v-484h635v-151h-635v-538h690l-8 -153h-855z" />
    <glyph glyph-name="Edieresis" unicode="&#xcb;" horiz-adv-x="1143" 
d="M878 1627h-155v212h155v-212zM487 1627h-154v212h154v-212zM174 0v1479h848l-7 -153h-668v-484h635v-151h-635v-538h690l-8 -153h-855z" />
    <glyph glyph-name="Igrave" unicode="&#xcc;" horiz-adv-x="540" 
d="M212 1627l-323 387h250l185 -387h-112zM355 0h-173v1479h173v-1479z" />
    <glyph glyph-name="Iacute" unicode="&#xcd;" horiz-adv-x="540" 
d="M651 2015l-325 -388h-114l186 388h253zM355 0h-173v1479h173v-1479z" />
    <glyph glyph-name="Icircumflex" unicode="&#xce;" horiz-adv-x="540" 
d="M-25 1627l187 388h213l187 -388h-134l-161 272l-161 -272h-131zM355 0h-173v1479h173v-1479z" />
    <glyph glyph-name="Idieresis" unicode="&#xcf;" horiz-adv-x="540" 
d="M541 1627h-155v212h155v-212zM150 1627h-154v212h154v-212zM355 0h-173v1479h173v-1479z" />
    <glyph glyph-name="Eth" unicode="&#xd0;" horiz-adv-x="1522" 
d="M147 0l0.00195312 697h-118v135h118v664h372c107.333 0 204.666 -7.66699 291.999 -23s169 -41.333 245 -78s139.667 -83.5 191 -140.5s91.666 -129.167 120.999 -216.5s44 -187.333 44 -300c0 -122 -19 -230.167 -57 -324.5s-92 -171.5 -162 -231.5
s-153 -105.333 -249 -136s-203.667 -46 -323 -46h-474zM324.002 155l314.999 -0.00292969c186 0 329.833 48.833 431.5 146.5s152.5 241.834 152.5 432.501c0 92.667 -10.833 174 -32.5 244s-51.5 127.833 -89.5 173.5s-86 82.834 -144 111.501s-120.667 48.834 -188 60.501
s-143.666 17.5 -228.999 17.5h-216v-509h242v-135h-242v-542z" />
    <glyph glyph-name="Ntilde" unicode="&#xd1;" horiz-adv-x="1516" 
d="M477 1635l-81.998 55.001c23.333 65.333 50.666 111.666 81.999 138.999s67 41 107 41c30 0 65.5 -8 106.5 -24l120.5 -48c39.333 -16 72.666 -24 99.999 -24c55.333 0 97 32.667 125 98l86 -36c-23.333 -77.333 -51.833 -131.5 -85.5 -162.5s-72.167 -46.5 -115.5 -46.5
c-30.667 0 -66.667 7.66699 -108 23l-121.5 46.5c-39.667 15.667 -72.5 23.5 -98.5 23.5c-51.333 0 -90 -28.333 -116 -85zM1342 0.000976562h-196l-768 1164l-50 69c5.33301 -140 8 -265 8 -375v-858h-162v1479h193l770 -1164l51 -69c-4.66699 212.667 -7 335.667 -7 369
v864h161v-1479z" />
    <glyph glyph-name="Ograve" unicode="&#xd2;" 
d="M757 1627l-323 387h250l185 -387h-112zM296 739c0 -190 43.668 -339.167 131.001 -447.5s216.333 -162.5 387 -162.5s299.167 54 385.5 162s129.5 257.333 129.5 448c0 194.667 -43.5 345.667 -130.5 453s-214.833 161 -383.5 161s-297.334 -53.667 -386.001 -161
s-133 -258.333 -133 -453zM1514 739c0 -112.667 -15.501 -215.669 -46.501 -309.002s-75.667 -173.5 -134 -240.5s-131.833 -119 -220.5 -156s-188.334 -55.5 -299.001 -55.5c-149.333 0 -277.166 31.833 -383.499 95.5s-186 152.334 -239 266.001
s-79.5 247.167 -79.5 400.5c0 236.667 61.667 423.334 185 560.001s296 205 518 205c218.667 0 389.834 -68.833 513.501 -206.5s185.5 -324.167 185.5 -559.5z" />
    <glyph glyph-name="Oacute" unicode="&#xd3;" 
d="M1195 2015l-325 -388h-114l186 388h253zM296 739c0 -190 43.668 -339.167 131.001 -447.5s216.333 -162.5 387 -162.5s299.167 54 385.5 162s129.5 257.333 129.5 448c0 194.667 -43.5 345.667 -130.5 453s-214.833 161 -383.5 161s-297.334 -53.667 -386.001 -161
s-133 -258.333 -133 -453zM1514 739c0 -112.667 -15.501 -215.669 -46.501 -309.002s-75.667 -173.5 -134 -240.5s-131.833 -119 -220.5 -156s-188.334 -55.5 -299.001 -55.5c-149.333 0 -277.166 31.833 -383.499 95.5s-186 152.334 -239 266.001
s-79.5 247.167 -79.5 400.5c0 236.667 61.667 423.334 185 560.001s296 205 518 205c218.667 0 389.834 -68.833 513.501 -206.5s185.5 -324.167 185.5 -559.5z" />
    <glyph glyph-name="Ocircumflex" unicode="&#xd4;" 
d="M520 1627l187 388h213l187 -388h-134l-161 272l-161 -272h-131zM296 739c0 -190 43.668 -339.167 131.001 -447.5s216.333 -162.5 387 -162.5s299.167 54 385.5 162s129.5 257.333 129.5 448c0 194.667 -43.5 345.667 -130.5 453s-214.833 161 -383.5 161
s-297.334 -53.667 -386.001 -161s-133 -258.333 -133 -453zM1514 739c0 -112.667 -15.501 -215.669 -46.501 -309.002s-75.667 -173.5 -134 -240.5s-131.833 -119 -220.5 -156s-188.334 -55.5 -299.001 -55.5c-149.333 0 -277.166 31.833 -383.499 95.5
s-186 152.334 -239 266.001s-79.5 247.167 -79.5 400.5c0 236.667 61.667 423.334 185 560.001s296 205 518 205c218.667 0 389.834 -68.833 513.501 -206.5s185.5 -324.167 185.5 -559.5z" />
    <glyph glyph-name="Otilde" unicode="&#xd5;" 
d="M531 1635l-81.998 55.001c23.333 65.333 50.666 111.666 81.999 138.999s67 41 107 41c30 0 65.5 -8 106.5 -24l120.5 -48c39.333 -16 72.666 -24 99.999 -24c55.333 0 97 32.667 125 98l86 -36c-23.333 -77.333 -51.833 -131.5 -85.5 -162.5s-72.167 -46.5 -115.5 -46.5
c-30.667 0 -66.667 7.66699 -108 23l-121.5 46.5c-39.667 15.667 -72.5 23.5 -98.5 23.5c-51.333 0 -90 -28.333 -116 -85zM296.002 739.001c0 -190 43.668 -339.167 131.001 -447.5s216.333 -162.5 387 -162.5s299.167 54 385.5 162s129.5 257.333 129.5 448
c0 194.667 -43.5 345.667 -130.5 453s-214.833 161 -383.5 161s-297.334 -53.667 -386.001 -161s-133 -258.333 -133 -453zM1514 739.001c0 -112.667 -15.501 -215.669 -46.501 -309.002s-75.667 -173.5 -134 -240.5s-131.833 -119 -220.5 -156
s-188.334 -55.5 -299.001 -55.5c-149.333 0 -277.166 31.833 -383.499 95.5s-186 152.334 -239 266.001s-79.5 247.167 -79.5 400.5c0 236.667 61.667 423.334 185 560.001s296 205 518 205c218.667 0 389.834 -68.833 513.501 -206.5s185.5 -324.167 185.5 -559.5z" />
    <glyph glyph-name="Odieresis" unicode="&#xd6;" 
d="M1085 1627h-155v212h155v-212zM694 1627h-154v212h154v-212zM296 739c0 -190 43.668 -339.167 131.001 -447.5s216.333 -162.5 387 -162.5s299.167 54 385.5 162s129.5 257.333 129.5 448c0 194.667 -43.5 345.667 -130.5 453s-214.833 161 -383.5 161
s-297.334 -53.667 -386.001 -161s-133 -258.333 -133 -453zM1514 739c0 -112.667 -15.501 -215.669 -46.501 -309.002s-75.667 -173.5 -134 -240.5s-131.833 -119 -220.5 -156s-188.334 -55.5 -299.001 -55.5c-149.333 0 -277.166 31.833 -383.499 95.5
s-186 152.334 -239 266.001s-79.5 247.167 -79.5 400.5c0 236.667 61.667 423.334 185 560.001s296 205 518 205c218.667 0 389.834 -68.833 513.501 -206.5s185.5 -324.167 185.5 -559.5z" />
    <glyph glyph-name="multiply" unicode="&#xd7;" horiz-adv-x="993" 
d="M876 278l-108 -97l-272 313l-272 -313l-108 97l285 326l-285 328l106 95l274 -314l274 314l106 -95l-285 -328z" />
    <glyph glyph-name="Oslash" unicode="&#xd8;" 
d="M502 -232l-124.997 42.999l96 239c-117.333 57.333 -206.833 145.5 -268.5 264.5s-92.5 260.833 -92.5 425.5c0 236.667 61.667 423.334 185 560.001s296 205 518 205c83.333 0 160.666 -10.667 231.999 -32l89 220l131 -46l-92 -227
c109.333 -60 193.166 -148.5 251.499 -265.5s87.5 -255.5 87.5 -415.5c0 -112.667 -15.5 -215.667 -46.5 -309s-75.667 -173.5 -134 -240.5s-131.833 -119 -220.5 -156s-188.334 -55.5 -299.001 -55.5c-76.667 0 -148.667 8.66699 -216 26zM989.003 1329
c-52 16 -109.999 23.999 -173.999 23.999c-168.667 0 -297.334 -53.667 -386.001 -161s-133 -258.333 -133 -453c0 -127.333 20 -237.166 60 -329.499s99.333 -162.5 178 -210.5zM1114 1270l-457 -1122c50.667 -12.667 103 -19 157 -19c170.667 0 299.167 54 385.5 162
s129.5 257.333 129.5 448c0 254.667 -71.667 431.667 -215 531z" />
    <glyph glyph-name="Ugrave" unicode="&#xd9;" horiz-adv-x="1438" 
d="M660 1627l-323 387h250l185 -387h-112zM1277 1479v-959.999c0 -170 -46.5 -302.667 -139.5 -398s-234.5 -143 -424.5 -143s-330.333 47.667 -421 143s-136 228.666 -136 399.999v958h174v-961c0 -134 31.667 -232.667 95 -296s161.333 -95 294 -95
c129.333 0 225.833 32 289.5 96s95.5 162.667 95.5 296v960h173z" />
    <glyph glyph-name="Uacute" unicode="&#xda;" horiz-adv-x="1438" 
d="M1099 2015l-325 -388h-114l186 388h253zM1277 1479v-959.999c0 -170 -46.5 -302.667 -139.5 -398s-234.5 -143 -424.5 -143s-330.333 47.667 -421 143s-136 228.666 -136 399.999v958h174v-961c0 -134 31.667 -232.667 95 -296s161.333 -95 294 -95
c129.333 0 225.833 32 289.5 96s95.5 162.667 95.5 296v960h173z" />
    <glyph glyph-name="Ucircumflex" unicode="&#xdb;" horiz-adv-x="1438" 
d="M423 1627l187 388h213l187 -388h-134l-161 272l-161 -272h-131zM1277 1479v-959.999c0 -170 -46.5 -302.667 -139.5 -398s-234.5 -143 -424.5 -143s-330.333 47.667 -421 143s-136 228.666 -136 399.999v958h174v-961c0 -134 31.667 -232.667 95 -296
s161.333 -95 294 -95c129.333 0 225.833 32 289.5 96s95.5 162.667 95.5 296v960h173z" />
    <glyph glyph-name="Udieresis" unicode="&#xdc;" horiz-adv-x="1438" 
d="M989 1627h-155v212h155v-212zM598 1627h-154v212h154v-212zM1277 1479v-959.999c0 -170 -46.5 -302.667 -139.5 -398s-234.5 -143 -424.5 -143s-330.333 47.667 -421 143s-136 228.666 -136 399.999v958h174v-961c0 -134 31.667 -232.667 95 -296s161.333 -95 294 -95
c129.333 0 225.833 32 289.5 96s95.5 162.667 95.5 296v960h173z" />
    <glyph glyph-name="Yacute" unicode="&#xdd;" horiz-adv-x="1194" 
d="M979 2015l-325 -388h-114l186 388h253zM591 754l416 725h188l-522 -889v-590h-175v586l-499 893h187z" />
    <glyph glyph-name="Thorn" unicode="&#xde;" horiz-adv-x="1291" 
d="M324 493h384c221.333 0 332 96.333 332 289c0 100 -28.5 172.667 -85.5 218s-153.167 68 -288.5 68h-342v-575zM147 0l0.000976562 1496h177v-279h324c187.333 0 327.666 -32.833 420.999 -98.5s140 -174.834 140 -327.501c0 -140 -40 -249.833 -120 -329.5
s-203.333 -119.5 -370 -119.5l-395 7v-349h-177z" />
    <glyph glyph-name="germandbls" unicode="&#xdf;" horiz-adv-x="1222" 
d="M771 148c64.667 0 115.169 17.5049 151.502 52.5049s54.5 82.5 54.5 142.5c0 33.333 -8.66699 65.166 -26 95.499s-42 58.166 -74 83.499s-62.667 47.5 -92 66.5s-64.333 40 -105 63s-70.334 40.833 -89.001 53.5c-54.667 37.333 -82 76.333 -82 117
c0 38.667 21.667 76 65 112c17.333 14 42.333 31.5 75 52.5s58.167 38.167 76.5 51.5s35.166 32.666 50.499 57.999s23 54 23 86c0 58 -22.333 104.333 -67 139s-99.334 52 -164.001 52c-188 0 -282 -105.667 -282 -317v-1056h-168v1046c0 152.667 37.333 270.667 112 354
s187.334 125 338.001 125c126.667 0 228.334 -30.5 305.001 -91.5s115 -144.833 115 -251.5c0 -26.667 -2.66699 -51.167 -8 -73.5s-14.333 -43 -27 -62s-24.834 -35.333 -36.501 -49s-28.5 -28.5 -50.5 -44.5s-40.333 -28.667 -55 -38l-64 -39l-64 -38
c25.333 -18 58.666 -39.5 99.999 -64.5l109.5 -65.5c31.667 -18.667 65.5 -41.5 101.5 -68.5s65.833 -53.667 89.5 -80s43.334 -57.833 59.001 -94.5s23.5 -75.667 23.5 -117c0 -62 -9.5 -115.833 -28.5 -161.5s-46 -81.834 -81 -108.501s-74.833 -46.334 -119.5 -59.001
s-95 -19 -151 -19h-343l16 148h312z" />
    <glyph glyph-name="agrave" unicode="&#xe0;" horiz-adv-x="1098" 
d="M468 1242l-323 387h250l185 -387h-112zM460 112c79.333 0 149.167 21.835 209.5 65.502s99.166 102.5 116.499 176.5v185c-3.33301 0 -23.5 -1.66699 -60.5 -5s-61.167 -5.33301 -72.5 -6c-144.667 -12.667 -245.5 -36.334 -302.5 -71.001s-85.5 -90.334 -85.5 -167.001
c0 -58.667 17.333 -103 52 -133s82.334 -45 143.001 -45zM823.001 0.00195312c-10 42.667 -19.667 88.6689 -29 138.002c-60.667 -60.667 -117.667 -102.667 -171 -126s-116 -35 -188 -35c-102.667 0 -185.167 26.833 -247.5 80.5s-93.5 130.834 -93.5 231.501
c0 112 42.5 195 127.5 249s207.5 87.667 367.5 101c22 2 55.167 4.83301 99.5 8.5s77.5 6.5 99.5 8.5v97c0 77.333 -18 134.666 -54 171.999s-92.667 56 -170 56c-108 0 -217 -26.667 -327 -80c-3.33301 8 -12 31.167 -26 69.5s-21.333 58.166 -22 59.499
c48.667 27.333 106.5 49.166 173.5 65.499s135.167 24.5 204.5 24.5c136.667 0 235.167 -29.833 295.5 -89.5s90.5 -161.167 90.5 -304.5v-726h-130z" />
    <glyph glyph-name="aacute" unicode="&#xe1;" horiz-adv-x="1098" 
d="M905 1630l-325 -388h-114l186 388h253zM460 112c79.333 0 149.167 21.835 209.5 65.502s99.166 102.5 116.499 176.5v185c-3.33301 0 -23.5 -1.66699 -60.5 -5s-61.167 -5.33301 -72.5 -6c-144.667 -12.667 -245.5 -36.334 -302.5 -71.001s-85.5 -90.334 -85.5 -167.001
c0 -58.667 17.333 -103 52 -133s82.334 -45 143.001 -45zM823.001 0.00195312c-10 42.667 -19.667 88.6689 -29 138.002c-60.667 -60.667 -117.667 -102.667 -171 -126s-116 -35 -188 -35c-102.667 0 -185.167 26.833 -247.5 80.5s-93.5 130.834 -93.5 231.501
c0 112 42.5 195 127.5 249s207.5 87.667 367.5 101c22 2 55.167 4.83301 99.5 8.5s77.5 6.5 99.5 8.5v97c0 77.333 -18 134.666 -54 171.999s-92.667 56 -170 56c-108 0 -217 -26.667 -327 -80c-3.33301 8 -12 31.167 -26 69.5s-21.333 58.166 -22 59.499
c48.667 27.333 106.5 49.166 173.5 65.499s135.167 24.5 204.5 24.5c136.667 0 235.167 -29.833 295.5 -89.5s90.5 -161.167 90.5 -304.5v-726h-130z" />
    <glyph glyph-name="acircumflex" unicode="&#xe2;" horiz-adv-x="1098" 
d="M230 1242l187 388h213l187 -388h-134l-161 272l-161 -272h-131zM460 112c79.333 0 149.167 21.835 209.5 65.502s99.166 102.5 116.499 176.5v185c-3.33301 0 -23.5 -1.66699 -60.5 -5s-61.167 -5.33301 -72.5 -6c-144.667 -12.667 -245.5 -36.334 -302.5 -71.001
s-85.5 -90.334 -85.5 -167.001c0 -58.667 17.333 -103 52 -133s82.334 -45 143.001 -45zM823.001 0.00195312c-10 42.667 -19.667 88.6689 -29 138.002c-60.667 -60.667 -117.667 -102.667 -171 -126s-116 -35 -188 -35c-102.667 0 -185.167 26.833 -247.5 80.5
s-93.5 130.834 -93.5 231.501c0 112 42.5 195 127.5 249s207.5 87.667 367.5 101c22 2 55.167 4.83301 99.5 8.5s77.5 6.5 99.5 8.5v97c0 77.333 -18 134.666 -54 171.999s-92.667 56 -170 56c-108 0 -217 -26.667 -327 -80c-3.33301 8 -12 31.167 -26 69.5
s-21.333 58.166 -22 59.499c48.667 27.333 106.5 49.166 173.5 65.499s135.167 24.5 204.5 24.5c136.667 0 235.167 -29.833 295.5 -89.5s90.5 -161.167 90.5 -304.5v-726h-130z" />
    <glyph glyph-name="atilde" unicode="&#xe3;" horiz-adv-x="1098" 
d="M242 1250l-81.998 55.001c23.333 65.333 50.666 111.666 81.999 138.999s67 41 107 41c30 0 65.5 -8 106.5 -24l120.5 -48c39.333 -16 72.666 -24 99.999 -24c55.333 0 97 32.667 125 98l86 -36c-23.333 -77.333 -51.833 -131.5 -85.5 -162.5s-72.167 -46.5 -115.5 -46.5
c-30.667 0 -66.667 7.66699 -108 23l-121.5 46.5c-39.667 15.667 -72.5 23.5 -98.5 23.5c-51.333 0 -90 -28.333 -116 -85zM460.002 112.001c79.333 0 149.167 21.835 209.5 65.502s99.166 102.5 116.499 176.5v185c-3.33301 0 -23.5 -1.66699 -60.5 -5
s-61.167 -5.33301 -72.5 -6c-144.667 -12.667 -245.5 -36.334 -302.5 -71.001s-85.5 -90.334 -85.5 -167.001c0 -58.667 17.333 -103 52 -133s82.334 -45 143.001 -45zM823.003 0.00292969c-10 42.667 -19.667 88.6689 -29 138.002
c-60.667 -60.667 -117.667 -102.667 -171 -126s-116 -35 -188 -35c-102.667 0 -185.167 26.833 -247.5 80.5s-93.5 130.834 -93.5 231.501c0 112 42.5 195 127.5 249s207.5 87.667 367.5 101c22 2 55.167 4.83301 99.5 8.5s77.5 6.5 99.5 8.5v97
c0 77.333 -18 134.666 -54 171.999s-92.667 56 -170 56c-108 0 -217 -26.667 -327 -80c-3.33301 8 -12 31.167 -26 69.5s-21.333 58.166 -22 59.499c48.667 27.333 106.5 49.166 173.5 65.499s135.167 24.5 204.5 24.5c136.667 0 235.167 -29.833 295.5 -89.5
s90.5 -161.167 90.5 -304.5v-726h-130z" />
    <glyph glyph-name="adieresis" unicode="&#xe4;" horiz-adv-x="1098" 
d="M796 1242h-155v212h155v-212zM405 1242h-154v212h154v-212zM460 112c79.333 0 149.167 21.835 209.5 65.502s99.166 102.5 116.499 176.5v185c-3.33301 0 -23.5 -1.66699 -60.5 -5s-61.167 -5.33301 -72.5 -6c-144.667 -12.667 -245.5 -36.334 -302.5 -71.001
s-85.5 -90.334 -85.5 -167.001c0 -58.667 17.333 -103 52 -133s82.334 -45 143.001 -45zM823.001 0.00195312c-10 42.667 -19.667 88.6689 -29 138.002c-60.667 -60.667 -117.667 -102.667 -171 -126s-116 -35 -188 -35c-102.667 0 -185.167 26.833 -247.5 80.5
s-93.5 130.834 -93.5 231.501c0 112 42.5 195 127.5 249s207.5 87.667 367.5 101c22 2 55.167 4.83301 99.5 8.5s77.5 6.5 99.5 8.5v97c0 77.333 -18 134.666 -54 171.999s-92.667 56 -170 56c-108 0 -217 -26.667 -327 -80c-3.33301 8 -12 31.167 -26 69.5
s-21.333 58.166 -22 59.499c48.667 27.333 106.5 49.166 173.5 65.499s135.167 24.5 204.5 24.5c136.667 0 235.167 -29.833 295.5 -89.5s90.5 -161.167 90.5 -304.5v-726h-130z" />
    <glyph glyph-name="aring" unicode="&#xe5;" horiz-adv-x="1098" 
d="M373 1495c0 -43.333 14.833 -80.168 44.5 -110.501s65.167 -45.5 106.5 -45.5s76.833 15.333 106.5 46s44.5 67.334 44.5 110.001c0 43.333 -14.833 80 -44.5 110s-65.167 45 -106.5 45s-76.833 -15 -106.5 -45s-44.5 -66.667 -44.5 -110zM274 1495
c0 68.667 24.5 127.667 73.5 177s107.5 74 175.5 74c68.667 0 127.5 -24.667 176.5 -74s73.5 -108.333 73.5 -177c0 -68 -24.333 -127.167 -73 -177.5s-107.667 -75.5 -177 -75.5c-68 0 -126.5 24.833 -175.5 74.5s-73.5 109.167 -73.5 178.5zM460 111.998
c79.333 0 149.167 21.835 209.5 65.502s99.166 102.5 116.499 176.5v185c-3.33301 0 -23.5 -1.66699 -60.5 -5s-61.167 -5.33301 -72.5 -6c-144.667 -12.667 -245.5 -36.334 -302.5 -71.001s-85.5 -90.334 -85.5 -167.001c0 -58.667 17.333 -103 52 -133
s82.334 -45 143.001 -45zM823.001 0c-10 42.667 -19.667 88.6689 -29 138.002c-60.667 -60.667 -117.667 -102.667 -171 -126s-116 -35 -188 -35c-102.667 0 -185.167 26.833 -247.5 80.5s-93.5 130.834 -93.5 231.501c0 112 42.5 195 127.5 249s207.5 87.667 367.5 101
c22 2 55.167 4.83301 99.5 8.5s77.5 6.5 99.5 8.5v97c0 77.333 -18 134.666 -54 171.999s-92.667 56 -170 56c-108 0 -217 -26.667 -327 -80c-3.33301 8 -12 31.167 -26 69.5s-21.333 58.166 -22 59.499c48.667 27.333 106.5 49.166 173.5 65.499s135.167 24.5 204.5 24.5
c136.667 0 235.167 -29.833 295.5 -89.5s90.5 -161.167 90.5 -304.5v-726h-130z" />
    <glyph glyph-name="ae" unicode="&#xe6;" horiz-adv-x="1674" 
d="M888 615l515.998 29.001v10c-1.33301 114 -19.166 197.5 -53.499 250.5s-88.166 79.5 -161.499 79.5c-95.333 0 -167.833 -33.833 -217.5 -101.5s-77.5 -156.834 -83.5 -267.501zM415.998 113.001c21.333 0 43.832 1.83301 67.499 5.5s50.834 9.66699 81.501 18
s54.5 15.166 71.5 20.499s44.333 14.5 82 27.5l68.5 23.5c-44.667 81.333 -70 178.333 -76 291c-29.333 -1.33301 -50.666 -2.66602 -63.999 -3.99902c-105.333 -8 -187.333 -20.667 -246 -38s-98.834 -38.833 -120.501 -64.5s-32.5 -59.5 -32.5 -101.5
c0 -118.667 56 -178 168 -178zM403.997 -25.999c-95.333 0 -173.167 26.168 -233.5 78.501s-90.5 134.833 -90.5 247.5c0 36.667 5.5 69.834 16.5 99.501s25.333 54.667 43 75s41.334 38.333 71.001 54s59 28.167 88 37.5s65 17.333 108 24s82 11.5 117 14.5
s77.5 5.83301 127.5 8.5l63 3v165c0 68 -14.333 117.5 -43 148.5s-77.667 46.5 -147 46.5c-65.333 0 -130 -7.83301 -194 -23.5s-118 -35.167 -162 -58.5l-36 138c43.333 24.667 101.166 46.167 173.499 64.5s143.833 27.5 214.5 27.5c82.667 0 152.5 -16.333 209.5 -49
s92.833 -80.334 107.5 -143.001c35.333 63.333 84.5 111.166 147.5 143.499s132.167 48.5 207.5 48.5c66 0 123.667 -12.167 173 -36.5s88.333 -57.5 117 -99.5s49.834 -88.5 63.501 -139.5s20.5 -105.833 20.5 -164.5c0 -52 -12.167 -89 -36.5 -111s-74.5 -35 -150.5 -39
l-497 -25c8.66699 -124.667 37.5 -220.834 86.5 -288.501s124.167 -101.5 225.5 -101.5c58.667 0 116.667 11 174 33s107 47.667 149 77l52 -121c-102.667 -88.667 -231.334 -133 -386.001 -133c-134.667 0 -243.667 45.667 -327 137
c-63.333 -39.333 -136 -72.166 -218 -98.499s-160 -39.5 -234 -39.5z" />
    <glyph glyph-name="ccedilla" unicode="&#xe7;" horiz-adv-x="968" 
d="M496 -435h-154l112 426h86zM607 -23c-161.333 0 -287.499 52.333 -378.499 157s-136.5 241.667 -136.5 411c0.666992 170.667 47.167 309.167 139.5 415.5s218.833 159.5 379.5 159.5c56.667 0 111.5 -7 164.5 -21s94.833 -32.333 125.5 -55l-46 -130
c-78 42 -160.333 63 -247 63c-106 0 -189.833 -38.667 -251.5 -116s-92.5 -183 -92.5 -317c0 -130.667 30.5 -234.167 91.5 -310.5s145.5 -114.5 253.5 -114.5c86 0 174 23.333 264 70l21 -133c-72.667 -52.667 -168.334 -79 -287.001 -79z" />
    <glyph glyph-name="egrave" unicode="&#xe8;" horiz-adv-x="1108" 
d="M500 1242l-323 387h250l185 -387h-112zM574 982c-85.333 0 -155 -30.167 -209 -90.5s-85.667 -142.833 -95 -247.5h579c0 108.667 -24.5 192.167 -73.5 250.5s-116.167 87.5 -201.5 87.5zM607 -23c-159.333 0 -284.833 50.667 -376.5 152s-137.5 240 -137.5 416
c0 170 44.333 307.833 133 413.5s205.334 159.5 350.001 161.5c136 0 243.833 -46.5 323.5 -139.5s119.5 -217.167 119.5 -372.5c0 -8 -0.166992 -22.667 -0.5 -44s-0.5 -36.666 -0.5 -45.999h-753c2 -124.667 34.167 -221.834 96.5 -291.501s146.166 -104.5 251.499 -104.5
c116 0 232.333 30.667 349 92l26 -135c-111.333 -68 -238.333 -102 -381 -102z" />
    <glyph glyph-name="eacute" unicode="&#xe9;" horiz-adv-x="1108" 
d="M938 1630l-325 -388h-114l186 388h253zM574 982c-85.333 0 -155 -30.167 -209 -90.5s-85.667 -142.833 -95 -247.5h579c0 108.667 -24.5 192.167 -73.5 250.5s-116.167 87.5 -201.5 87.5zM607 -23c-159.333 0 -284.833 50.667 -376.5 152s-137.5 240 -137.5 416
c0 170 44.333 307.833 133 413.5s205.334 159.5 350.001 161.5c136 0 243.833 -46.5 323.5 -139.5s119.5 -217.167 119.5 -372.5c0 -8 -0.166992 -22.667 -0.5 -44s-0.5 -36.666 -0.5 -45.999h-753c2 -124.667 34.167 -221.834 96.5 -291.501s146.166 -104.5 251.499 -104.5
c116 0 232.333 30.667 349 92l26 -135c-111.333 -68 -238.333 -102 -381 -102z" />
    <glyph glyph-name="ecircumflex" unicode="&#xea;" horiz-adv-x="1108" 
d="M262 1242l187 388h213l187 -388h-134l-161 272l-161 -272h-131zM574 982c-85.333 0 -155 -30.167 -209 -90.5s-85.667 -142.833 -95 -247.5h579c0 108.667 -24.5 192.167 -73.5 250.5s-116.167 87.5 -201.5 87.5zM607 -23c-159.333 0 -284.833 50.667 -376.5 152
s-137.5 240 -137.5 416c0 170 44.333 307.833 133 413.5s205.334 159.5 350.001 161.5c136 0 243.833 -46.5 323.5 -139.5s119.5 -217.167 119.5 -372.5c0 -8 -0.166992 -22.667 -0.5 -44s-0.5 -36.666 -0.5 -45.999h-753c2 -124.667 34.167 -221.834 96.5 -291.501
s146.166 -104.5 251.499 -104.5c116 0 232.333 30.667 349 92l26 -135c-111.333 -68 -238.333 -102 -381 -102z" />
    <glyph glyph-name="edieresis" unicode="&#xeb;" horiz-adv-x="1108" 
d="M829 1242h-155v212h155v-212zM438 1242h-154v212h154v-212zM574 982c-85.333 0 -155 -30.167 -209 -90.5s-85.667 -142.833 -95 -247.5h579c0 108.667 -24.5 192.167 -73.5 250.5s-116.167 87.5 -201.5 87.5zM607 -23c-159.333 0 -284.833 50.667 -376.5 152
s-137.5 240 -137.5 416c0 170 44.333 307.833 133 413.5s205.334 159.5 350.001 161.5c136 0 243.833 -46.5 323.5 -139.5s119.5 -217.167 119.5 -372.5c0 -8 -0.166992 -22.667 -0.5 -44s-0.5 -36.666 -0.5 -45.999h-753c2 -124.667 34.167 -221.834 96.5 -291.501
s146.166 -104.5 251.499 -104.5c116 0 232.333 30.667 349 92l26 -135c-111.333 -68 -238.333 -102 -381 -102z" />
    <glyph glyph-name="igrave" unicode="&#xec;" horiz-adv-x="430" 
d="M164 1242l-323 387h250l185 -387h-112zM304 1098v-1098h-169v1098h169z" />
    <glyph glyph-name="iacute" unicode="&#xed;" horiz-adv-x="430" 
d="M601 1630l-325 -388h-114l186 388h253zM304 1098v-1098h-169v1098h169z" />
    <glyph glyph-name="icircumflex" unicode="&#xee;" horiz-adv-x="430" 
d="M-74 1242l187 388h213l187 -388h-134l-161 272l-161 -272h-131zM304 1098v-1098h-169v1098h169z" />
    <glyph glyph-name="idieresis" unicode="&#xef;" horiz-adv-x="430" 
d="M492 1242h-155v212h155v-212zM101 1242h-154v212h154v-212zM304 1098v-1098h-169v1098h169z" />
    <glyph glyph-name="eth" unicode="&#xf0;" horiz-adv-x="1204" 
d="M603 833c-102.667 0 -184.003 -33.332 -244.003 -99.999s-90 -149.334 -90 -248.001c0 -66 12.167 -126.333 36.5 -181s62.833 -100 115.5 -136s115.334 -54 188.001 -54c104.667 0 186.834 33.667 246.501 101s89.5 153 89.5 257c0 46 -7.5 90.333 -22.5 133
s-36.5 81 -64.5 115s-64.167 61.333 -108.5 82s-93.166 31 -146.499 31zM568.997 972.001c97.333 0 189.001 -31.666 275.001 -94.999c-55.333 105.333 -156.333 232 -303 380l-272 -112l-43 132l220 87l-236 224h223l146 -159l289 113l46 -129l-242 -93
c165.333 -180 279.666 -325.333 342.999 -436c68 -128 102 -258.667 102 -392c0 -74 -11 -142.167 -33 -204.5s-54 -116.833 -96 -163.5s-95.833 -83.167 -161.5 -109.5s-140.167 -39.5 -223.5 -39.5c-80.667 0 -154 13.667 -220 41s-120.333 64.5 -163 111.5
s-75.5 101.167 -98.5 162.5s-34.5 126.666 -34.5 195.999c0 146 44.167 263.5 132.5 352.5s204.833 133.5 349.5 133.5z" />
    <glyph glyph-name="ntilde" unicode="&#xf1;" horiz-adv-x="1184" 
d="M315 1250l-81.998 55.001c23.333 65.333 50.666 111.666 81.999 138.999s67 41 107 41c30 0 65.5 -8 106.5 -24l120.5 -48c39.333 -16 72.666 -24 99.999 -24c55.333 0 97 32.667 125 98l86 -36c-23.333 -77.333 -51.833 -131.5 -85.5 -162.5s-72.167 -46.5 -115.5 -46.5
c-30.667 0 -66.667 7.66699 -108 23l-121.5 46.5c-39.667 15.667 -72.5 23.5 -98.5 23.5c-51.333 0 -90 -28.333 -116 -85zM143.002 0.000976562l-0.00195312 1097h140l21 -157c43.333 54 97.5 97.5 162.5 130.5s135.167 49.5 210.5 49.5
c126.667 0 220.334 -35.5 281.001 -106.5s91 -180.167 91 -327.5v-686h-167c0 440 -0.333008 675.667 -1 707c-2.66699 93.333 -21.5 161.666 -56.5 204.999s-93.5 65 -175.5 65c-86 0 -157.667 -20.667 -215 -62s-94.666 -95 -111.999 -161
c-6.66699 -44.667 -10 -96 -10 -154v-600h-169z" />
    <glyph glyph-name="ograve" unicode="&#xf2;" horiz-adv-x="1201" 
d="M544 1242l-323 387h250l185 -387h-112zM265 546c0 -130 28.8311 -234.167 86.498 -312.5s141.834 -117.5 252.501 -117.5c109.333 0 191.833 39 247.5 117s83.5 183 83.5 315c0 134 -27.5 239.5 -82.5 316.5s-138.833 115.5 -251.5 115.5
c-109.333 0 -192.666 -39.333 -249.999 -118s-86 -184 -86 -316zM1108 549c0 -170 -45.332 -307.833 -135.999 -413.5s-216 -158.5 -376 -158.5c-154 0 -276.5 53.333 -367.5 160s-136.5 243.667 -136.5 411c0 170.667 45.667 308.667 137 414s216.666 158 375.999 158
c156.667 0 279.667 -52.833 369 -158.5s134 -243.167 134 -412.5z" />
    <glyph glyph-name="oacute" unicode="&#xf3;" horiz-adv-x="1201" 
d="M982 1630l-325 -388h-114l186 388h253zM265 546c0 -130 28.8311 -234.167 86.498 -312.5s141.834 -117.5 252.501 -117.5c109.333 0 191.833 39 247.5 117s83.5 183 83.5 315c0 134 -27.5 239.5 -82.5 316.5s-138.833 115.5 -251.5 115.5
c-109.333 0 -192.666 -39.333 -249.999 -118s-86 -184 -86 -316zM1108 549c0 -170 -45.332 -307.833 -135.999 -413.5s-216 -158.5 -376 -158.5c-154 0 -276.5 53.333 -367.5 160s-136.5 243.667 -136.5 411c0 170.667 45.667 308.667 137 414s216.666 158 375.999 158
c156.667 0 279.667 -52.833 369 -158.5s134 -243.167 134 -412.5z" />
    <glyph glyph-name="ocircumflex" unicode="&#xf4;" horiz-adv-x="1201" 
d="M306 1242l187 388h213l187 -388h-134l-161 272l-161 -272h-131zM265 546c0 -130 28.8311 -234.167 86.498 -312.5s141.834 -117.5 252.501 -117.5c109.333 0 191.833 39 247.5 117s83.5 183 83.5 315c0 134 -27.5 239.5 -82.5 316.5s-138.833 115.5 -251.5 115.5
c-109.333 0 -192.666 -39.333 -249.999 -118s-86 -184 -86 -316zM1108 549c0 -170 -45.332 -307.833 -135.999 -413.5s-216 -158.5 -376 -158.5c-154 0 -276.5 53.333 -367.5 160s-136.5 243.667 -136.5 411c0 170.667 45.667 308.667 137 414s216.666 158 375.999 158
c156.667 0 279.667 -52.833 369 -158.5s134 -243.167 134 -412.5z" />
    <glyph glyph-name="otilde" unicode="&#xf5;" horiz-adv-x="1201" 
d="M319 1250l-81.998 55.001c23.333 65.333 50.666 111.666 81.999 138.999s67 41 107 41c30 0 65.5 -8 106.5 -24l120.5 -48c39.333 -16 72.666 -24 99.999 -24c55.333 0 97 32.667 125 98l86 -36c-23.333 -77.333 -51.833 -131.5 -85.5 -162.5s-72.167 -46.5 -115.5 -46.5
c-30.667 0 -66.667 7.66699 -108 23l-121.5 46.5c-39.667 15.667 -72.5 23.5 -98.5 23.5c-51.333 0 -90 -28.333 -116 -85zM265.002 546.001c0 -130 28.8311 -234.167 86.498 -312.5s141.834 -117.5 252.501 -117.5c109.333 0 191.833 39 247.5 117s83.5 183 83.5 315
c0 134 -27.5 239.5 -82.5 316.5s-138.833 115.5 -251.5 115.5c-109.333 0 -192.666 -39.333 -249.999 -118s-86 -184 -86 -316zM1108 549.001c0 -170 -45.332 -307.833 -135.999 -413.5s-216 -158.5 -376 -158.5c-154 0 -276.5 53.333 -367.5 160s-136.5 243.667 -136.5 411
c0 170.667 45.667 308.667 137 414s216.666 158 375.999 158c156.667 0 279.667 -52.833 369 -158.5s134 -243.167 134 -412.5z" />
    <glyph glyph-name="odieresis" unicode="&#xf6;" horiz-adv-x="1201" 
d="M873 1242h-155v212h155v-212zM482 1242h-154v212h154v-212zM265 546c0 -130 28.8311 -234.167 86.498 -312.5s141.834 -117.5 252.501 -117.5c109.333 0 191.833 39 247.5 117s83.5 183 83.5 315c0 134 -27.5 239.5 -82.5 316.5s-138.833 115.5 -251.5 115.5
c-109.333 0 -192.666 -39.333 -249.999 -118s-86 -184 -86 -316zM1108 549c0 -170 -45.332 -307.833 -135.999 -413.5s-216 -158.5 -376 -158.5c-154 0 -276.5 53.333 -367.5 160s-136.5 243.667 -136.5 411c0 170.667 45.667 308.667 137 414s216.666 158 375.999 158
c156.667 0 279.667 -52.833 369 -158.5s134 -243.167 134 -412.5z" />
    <glyph glyph-name="divide" unicode="&#xf7;" horiz-adv-x="1211" 
d="M1098 523h-1001v149h1001v-149zM716 1166v-227h-225v227h225zM682 249v-227h-191v227h191z" />
    <glyph glyph-name="oslash" unicode="&#xf8;" horiz-adv-x="1200" 
d="M294 -235l-70.998 38.0039l109 245c-76.667 47.333 -135.834 114.666 -177.501 201.999s-62.5 186.666 -62.5 297.999c0 170.667 45.667 308.667 137 414s216.666 158 375.999 158c68 0 131.333 -11 190 -33l107 240l77 -31l-110 -245
c76.667 -46.667 135.667 -113.834 177 -201.501s62 -187.834 62 -300.501c0 -170 -45.333 -307.833 -136 -413.5s-216 -158.5 -376 -158.5c-70 0 -134 11.667 -192 35zM736.002 955.004c-40.667 16.667 -85.668 25 -135.001 25c-109.333 0 -192.666 -39.333 -249.999 -118
s-86 -184 -86 -316c0 -164.667 43 -284 129 -358zM807.001 913.004l-344 -769c41.333 -18.667 88.333 -28 141 -28c109.333 0 191.833 39 247.5 117s83.5 183 83.5 315c0 171.333 -42.667 293 -128 365z" />
    <glyph glyph-name="ugrave" unicode="&#xf9;" horiz-adv-x="1100" 
d="M494 1242l-323 387h250l185 -387h-112zM105 366l-0.000976562 730.997h168v-733c0 -48 6.83301 -88.667 20.5 -122s33.334 -59.166 59.001 -77.499s54.667 -31.5 87 -39.5s69.5 -12 111.5 -12c86.667 0 154.167 19 202.5 57s72.5 102.667 72.5 194v733h168v-731
c0 -56 -8 -106.333 -24 -151s-37.5 -81.834 -64.5 -111.501s-59.5 -54.167 -97.5 -73.5s-78.167 -33.333 -120.5 -42s-87.833 -13 -136.5 -13c-48 0 -93.333 4.33301 -136 13s-83.167 22.834 -121.5 42.501s-71.333 44.334 -99 74.001s-49.5 66.834 -65.5 111.501
s-24 94.667 -24 150z" />
    <glyph glyph-name="uacute" unicode="&#xfa;" horiz-adv-x="1100" 
d="M931 1630l-325 -388h-114l186 388h253zM105 366l-0.000976562 730.997h168v-733c0 -48 6.83301 -88.667 20.5 -122s33.334 -59.166 59.001 -77.499s54.667 -31.5 87 -39.5s69.5 -12 111.5 -12c86.667 0 154.167 19 202.5 57s72.5 102.667 72.5 194v733h168v-731
c0 -56 -8 -106.333 -24 -151s-37.5 -81.834 -64.5 -111.501s-59.5 -54.167 -97.5 -73.5s-78.167 -33.333 -120.5 -42s-87.833 -13 -136.5 -13c-48 0 -93.333 4.33301 -136 13s-83.167 22.834 -121.5 42.501s-71.333 44.334 -99 74.001s-49.5 66.834 -65.5 111.501
s-24 94.667 -24 150z" />
    <glyph glyph-name="ucircumflex" unicode="&#xfb;" horiz-adv-x="1100" 
d="M256 1242l187 388h213l187 -388h-134l-161 272l-161 -272h-131zM105 366l-0.000976562 730.997h168v-733c0 -48 6.83301 -88.667 20.5 -122s33.334 -59.166 59.001 -77.499s54.667 -31.5 87 -39.5s69.5 -12 111.5 -12c86.667 0 154.167 19 202.5 57
s72.5 102.667 72.5 194v733h168v-731c0 -56 -8 -106.333 -24 -151s-37.5 -81.834 -64.5 -111.501s-59.5 -54.167 -97.5 -73.5s-78.167 -33.333 -120.5 -42s-87.833 -13 -136.5 -13c-48 0 -93.333 4.33301 -136 13s-83.167 22.834 -121.5 42.501s-71.333 44.334 -99 74.001
s-49.5 66.834 -65.5 111.501s-24 94.667 -24 150z" />
    <glyph glyph-name="udieresis" unicode="&#xfc;" horiz-adv-x="1100" 
d="M822 1242h-155v212h155v-212zM431 1242h-154v212h154v-212zM105 366l-0.000976562 730.997h168v-733c0 -48 6.83301 -88.667 20.5 -122s33.334 -59.166 59.001 -77.499s54.667 -31.5 87 -39.5s69.5 -12 111.5 -12c86.667 0 154.167 19 202.5 57s72.5 102.667 72.5 194
v733h168v-731c0 -56 -8 -106.333 -24 -151s-37.5 -81.834 -64.5 -111.501s-59.5 -54.167 -97.5 -73.5s-78.167 -33.333 -120.5 -42s-87.833 -13 -136.5 -13c-48 0 -93.333 4.33301 -136 13s-83.167 22.834 -121.5 42.501s-71.333 44.334 -99 74.001
s-49.5 66.834 -65.5 111.501s-24 94.667 -24 150z" />
    <glyph glyph-name="yacute" unicode="&#xfd;" horiz-adv-x="1022" 
d="M889 1630l-325 -388h-114l186 388h253zM3 1097h177.001l346 -913l308 913h177c-296 -814.667 -449 -1234.67 -459 -1260c-46 -115.333 -101.667 -199.833 -167 -253.5s-151.333 -80.5 -258 -80.5c-32 0 -65.667 2.66699 -101 8l-10 142c37.333 -2.66699 65.333 -4 84 -4
c75.333 0 132.5 13.833 171.5 41.5s73.833 79.5 104.5 155.5c27.333 70 47.666 124 60.999 162z" />
    <glyph glyph-name="thorn" unicode="&#xfe;" horiz-adv-x="1205" 
d="M292 162v-620.999h-168v1672v297h168v-577c86 127.333 203 191 351 191c90 -0.666992 169.833 -25.834 239.5 -75.501s123.167 -117 160.5 -202s56 -180.5 56 -286.5c0 -59.333 -5.83301 -117 -17.5 -173s-29.834 -109 -54.501 -159s-54.667 -93.667 -90 -131
s-78.166 -67 -128.499 -89s-105.5 -33 -165.5 -33c-160.667 0 -277.667 62.333 -351 187zM624 113.001c44.667 0 85.001 9.16895 121.001 27.502s65 42.166 87 71.499s40.333 63.666 55 102.999s24.834 78.333 30.501 117s8.5 78.334 8.5 119.001
c0 52 -4.83301 102 -14.5 150s-25.167 94.167 -46.5 138.5s-52 79.833 -92 106.5s-87.333 40 -142 40c-72.667 0 -135.334 -20.5 -188.001 -61.5s-91.334 -93.833 -116.001 -158.5s-37 -136.334 -37 -215.001c0 -60 6.33301 -115.5 19 -166.5s32 -97.167 58 -138.5
s60.833 -73.833 104.5 -97.5s94.5 -35.5 152.5 -35.5z" />
    <glyph glyph-name="ydieresis" unicode="&#xff;" horiz-adv-x="1022" 
d="M779 1242h-155v212h155v-212zM388 1242h-154v212h154v-212zM3 1097h177.001l346 -913l308 913h177c-296 -814.667 -449 -1234.67 -459 -1260c-46 -115.333 -101.667 -199.833 -167 -253.5s-151.333 -80.5 -258 -80.5c-32 0 -65.667 2.66699 -101 8l-10 142
c37.333 -2.66699 65.333 -4 84 -4c75.333 0 132.5 13.833 171.5 41.5s73.833 79.5 104.5 155.5c27.333 70 47.666 124 60.999 162z" />
    <glyph glyph-name="Amacron" unicode="&#x100;" horiz-adv-x="1302" 
d="M1006 1749v-122h-710v122h710zM892 614c-140.667 408.667 -218.333 638.333 -233 689l-243 -689h476zM1121 -0.000976562l-173 469h-590l-179 -469h-176l568 1482h177l551 -1482h-178z" />
    <glyph glyph-name="amacron" unicode="&#x101;" horiz-adv-x="1098" 
d="M878 1364v-122h-710v122h710zM460 112c79.333 0 149.167 21.835 209.5 65.502s99.166 102.5 116.499 176.5v185c-3.33301 0 -23.5 -1.66699 -60.5 -5s-61.167 -5.33301 -72.5 -6c-144.667 -12.667 -245.5 -36.334 -302.5 -71.001s-85.5 -90.334 -85.5 -167.001
c0 -58.667 17.333 -103 52 -133s82.334 -45 143.001 -45zM823.001 0.00195312c-10 42.667 -19.667 88.6689 -29 138.002c-60.667 -60.667 -117.667 -102.667 -171 -126s-116 -35 -188 -35c-102.667 0 -185.167 26.833 -247.5 80.5s-93.5 130.834 -93.5 231.501
c0 112 42.5 195 127.5 249s207.5 87.667 367.5 101c22 2 55.167 4.83301 99.5 8.5s77.5 6.5 99.5 8.5v97c0 77.333 -18 134.666 -54 171.999s-92.667 56 -170 56c-108 0 -217 -26.667 -327 -80c-3.33301 8 -12 31.167 -26 69.5s-21.333 58.166 -22 59.499
c48.667 27.333 106.5 49.166 173.5 65.499s135.167 24.5 204.5 24.5c136.667 0 235.167 -29.833 295.5 -89.5s90.5 -161.167 90.5 -304.5v-726h-130z" />
    <glyph glyph-name="Abreve" unicode="&#x102;" horiz-adv-x="1302" 
d="M649 1627c-66.667 0 -124.833 22.6689 -174.5 68.002s-74.5 108.666 -74.5 189.999h116c0 -46 12.5 -81 37.5 -105s56.833 -36 95.5 -36s71 12 97 36s39 59 39 105h117c0 -80.667 -25.333 -143.834 -76 -189.501s-109.667 -68.5 -177 -68.5zM892.001 614.002
c-140.667 408.667 -218.333 638.333 -233 689l-243 -689h476zM1121 0.000976562l-173 469h-590l-179 -469h-176l568 1482h177l551 -1482h-178z" />
    <glyph glyph-name="abreve" unicode="&#x103;" horiz-adv-x="1098" 
d="M521 1242c-66.667 0 -124.833 22.6689 -174.5 68.002s-74.5 108.666 -74.5 189.999h116c0 -46 12.5 -81 37.5 -105s56.833 -36 95.5 -36s71 12 97 36s39 59 39 105h117c0 -80.667 -25.333 -143.834 -76 -189.501s-109.667 -68.5 -177 -68.5zM460.001 112.002
c79.333 0 149.167 21.835 209.5 65.502s99.166 102.5 116.499 176.5v185c-3.33301 0 -23.5 -1.66699 -60.5 -5s-61.167 -5.33301 -72.5 -6c-144.667 -12.667 -245.5 -36.334 -302.5 -71.001s-85.5 -90.334 -85.5 -167.001c0 -58.667 17.333 -103 52 -133
s82.334 -45 143.001 -45zM823.002 0.00390625c-10 42.667 -19.667 88.6689 -29 138.002c-60.667 -60.667 -117.667 -102.667 -171 -126s-116 -35 -188 -35c-102.667 0 -185.167 26.833 -247.5 80.5s-93.5 130.834 -93.5 231.501c0 112 42.5 195 127.5 249
s207.5 87.667 367.5 101c22 2 55.167 4.83301 99.5 8.5s77.5 6.5 99.5 8.5v97c0 77.333 -18 134.666 -54 171.999s-92.667 56 -170 56c-108 0 -217 -26.667 -327 -80c-3.33301 8 -12 31.167 -26 69.5s-21.333 58.166 -22 59.499c48.667 27.333 106.5 49.166 173.5 65.499
s135.167 24.5 204.5 24.5c136.667 0 235.167 -29.833 295.5 -89.5s90.5 -161.167 90.5 -304.5v-726h-130z" />
    <glyph glyph-name="Aogonek" unicode="&#x104;" horiz-adv-x="1302" 
d="M1145 -294c38 0 83.667 11 137 33v-117c-50.667 -21.333 -103 -32 -157 -32c-56 0 -102.167 15.5 -138.5 46.5s-54.5 74.167 -54.5 129.5c0 91.333 63.667 174 191 248h114c-120 -88.667 -180 -161.667 -180 -219c0 -25.333 9.16699 -46.5 27.5 -63.5
s38.5 -25.5 60.5 -25.5zM892 614c-140.667 408.667 -218.333 638.333 -233 689l-243 -689h476zM1121 -0.000976562l-173 469h-590l-179 -469h-176l568 1482h177l551 -1482h-178z" />
    <glyph glyph-name="aogonek" unicode="&#x105;" horiz-adv-x="1098" 
d="M853 -303c38 0 83.667 11 137 33v-117c-50.667 -21.333 -103 -32 -157 -32c-56 0 -102.167 15.5 -138.5 46.5s-54.5 74.167 -54.5 129.5c0 91.333 63.667 174 191 248h114c-120 -88.667 -180 -161.667 -180 -219c0 -25.333 9.16699 -46.5 27.5 -63.5
s38.5 -25.5 60.5 -25.5zM460 112c79.333 0 149.167 21.835 209.5 65.502s99.166 102.5 116.499 176.5v185c-3.33301 0 -23.5 -1.66699 -60.5 -5s-61.167 -5.33301 -72.5 -6c-144.667 -12.667 -245.5 -36.334 -302.5 -71.001s-85.5 -90.334 -85.5 -167.001
c0 -58.667 17.333 -103 52 -133s82.334 -45 143.001 -45zM823.001 0.00195312c-10 42.667 -19.667 88.6689 -29 138.002c-60.667 -60.667 -117.667 -102.667 -171 -126s-116 -35 -188 -35c-102.667 0 -185.167 26.833 -247.5 80.5s-93.5 130.834 -93.5 231.501
c0 112 42.5 195 127.5 249s207.5 87.667 367.5 101c22 2 55.167 4.83301 99.5 8.5s77.5 6.5 99.5 8.5v97c0 77.333 -18 134.666 -54 171.999s-92.667 56 -170 56c-108 0 -217 -26.667 -327 -80c-3.33301 8 -12 31.167 -26 69.5s-21.333 58.166 -22 59.499
c48.667 27.333 106.5 49.166 173.5 65.499s135.167 24.5 204.5 24.5c136.667 0 235.167 -29.833 295.5 -89.5s90.5 -161.167 90.5 -304.5v-726h-130z" />
    <glyph glyph-name="Cacute" unicode="&#x106;" horiz-adv-x="1290" 
d="M1059 2015l-325 -388h-114l186 388h253zM823 1352c-111.333 0 -207.17 -27.002 -287.503 -81.002s-140.166 -126.667 -179.499 -218s-59 -196.333 -59 -315c0 -88.667 10.667 -169.5 32 -242.5s53.333 -137 96 -192s98.167 -97.667 166.5 -128s146.833 -45.5 235.5 -45.5
c114 0 232 29.667 354 89l29 -147c-99.333 -62.667 -233.666 -94 -402.999 -94c-111.333 0 -211.166 18.5 -299.499 55.5s-161.333 89.333 -219 157s-101.5 148.334 -131.5 242.001s-45 197.834 -45 312.501c0 110.667 16.333 212.667 49 306s78.834 173.5 138.501 240.5
s134.167 119.167 223.5 156.5s188.666 56 297.999 56c166 0 306 -36.667 420 -110l-68 -141c-109.333 66 -226 99 -350 99z" />
    <glyph glyph-name="cacute" unicode="&#x107;" horiz-adv-x="968" 
d="M879 1630l-325 -388h-114l186 388h253zM607 -23c-161.333 0 -287.499 52.333 -378.499 157s-136.5 241.667 -136.5 411c0.666992 170.667 47.167 309.167 139.5 415.5s218.833 159.5 379.5 159.5c56.667 0 111.5 -7 164.5 -21s94.833 -32.333 125.5 -55l-46 -130
c-78 42 -160.333 63 -247 63c-106 0 -189.833 -38.667 -251.5 -116s-92.5 -183 -92.5 -317c0 -130.667 30.5 -234.167 91.5 -310.5s145.5 -114.5 253.5 -114.5c86 0 174 23.333 264 70l21 -133c-72.667 -52.667 -168.334 -79 -287.001 -79z" />
    <glyph glyph-name="Ccircumflex" unicode="&#x108;" horiz-adv-x="1290" 
d="M383 1627l187 388h213l187 -388h-134l-161 272l-161 -272h-131zM823 1352c-111.333 0 -207.17 -27.002 -287.503 -81.002s-140.166 -126.667 -179.499 -218s-59 -196.333 -59 -315c0 -88.667 10.667 -169.5 32 -242.5s53.333 -137 96 -192s98.167 -97.667 166.5 -128
s146.833 -45.5 235.5 -45.5c114 0 232 29.667 354 89l29 -147c-99.333 -62.667 -233.666 -94 -402.999 -94c-111.333 0 -211.166 18.5 -299.499 55.5s-161.333 89.333 -219 157s-101.5 148.334 -131.5 242.001s-45 197.834 -45 312.501c0 110.667 16.333 212.667 49 306
s78.834 173.5 138.501 240.5s134.167 119.167 223.5 156.5s188.666 56 297.999 56c166 0 306 -36.667 420 -110l-68 -141c-109.333 66 -226 99 -350 99z" />
    <glyph glyph-name="ccircumflex" unicode="&#x109;" horiz-adv-x="968" 
d="M203 1242l187 388h213l187 -388h-134l-161 272l-161 -272h-131zM607 -23c-161.333 0 -287.499 52.333 -378.499 157s-136.5 241.667 -136.5 411c0.666992 170.667 47.167 309.167 139.5 415.5s218.833 159.5 379.5 159.5c56.667 0 111.5 -7 164.5 -21
s94.833 -32.333 125.5 -55l-46 -130c-78 42 -160.333 63 -247 63c-106 0 -189.833 -38.667 -251.5 -116s-92.5 -183 -92.5 -317c0 -130.667 30.5 -234.167 91.5 -310.5s145.5 -114.5 253.5 -114.5c86 0 174 23.333 264 70l21 -133
c-72.667 -52.667 -168.334 -79 -287.001 -79z" />
    <glyph glyph-name="Cdotaccent" unicode="&#x10a;" horiz-adv-x="1290" 
d="M760 1825v-198h-168v198h168zM823 1352c-111.333 0 -207.17 -27.002 -287.503 -81.002s-140.166 -126.667 -179.499 -218s-59 -196.333 -59 -315c0 -88.667 10.667 -169.5 32 -242.5s53.333 -137 96 -192s98.167 -97.667 166.5 -128s146.833 -45.5 235.5 -45.5
c114 0 232 29.667 354 89l29 -147c-99.333 -62.667 -233.666 -94 -402.999 -94c-111.333 0 -211.166 18.5 -299.499 55.5s-161.333 89.333 -219 157s-101.5 148.334 -131.5 242.001s-45 197.834 -45 312.501c0 110.667 16.333 212.667 49 306s78.834 173.5 138.501 240.5
s134.167 119.167 223.5 156.5s188.666 56 297.999 56c166 0 306 -36.667 420 -110l-68 -141c-109.333 66 -226 99 -350 99z" />
    <glyph glyph-name="cdotaccent" unicode="&#x10b;" horiz-adv-x="968" 
d="M580 1440v-198h-168v198h168zM607 -23c-161.333 0 -287.499 52.333 -378.499 157s-136.5 241.667 -136.5 411c0.666992 170.667 47.167 309.167 139.5 415.5s218.833 159.5 379.5 159.5c56.667 0 111.5 -7 164.5 -21s94.833 -32.333 125.5 -55l-46 -130
c-78 42 -160.333 63 -247 63c-106 0 -189.833 -38.667 -251.5 -116s-92.5 -183 -92.5 -317c0 -130.667 30.5 -234.167 91.5 -310.5s145.5 -114.5 253.5 -114.5c86 0 174 23.333 264 70l21 -133c-72.667 -52.667 -168.334 -79 -287.001 -79z" />
    <glyph glyph-name="Ccaron" unicode="&#x10c;" horiz-adv-x="1290" 
d="M383 2015h131l161 -312l161 312h134l-187 -388h-213zM823 1352c-111.333 0 -207.17 -27.002 -287.503 -81.002s-140.166 -126.667 -179.499 -218s-59 -196.333 -59 -315c0 -88.667 10.667 -169.5 32 -242.5s53.333 -137 96 -192s98.167 -97.667 166.5 -128
s146.833 -45.5 235.5 -45.5c114 0 232 29.667 354 89l29 -147c-99.333 -62.667 -233.666 -94 -402.999 -94c-111.333 0 -211.166 18.5 -299.499 55.5s-161.333 89.333 -219 157s-101.5 148.334 -131.5 242.001s-45 197.834 -45 312.501c0 110.667 16.333 212.667 49 306
s78.834 173.5 138.501 240.5s134.167 119.167 223.5 156.5s188.666 56 297.999 56c166 0 306 -36.667 420 -110l-68 -141c-109.333 66 -226 99 -350 99z" />
    <glyph glyph-name="ccaron" unicode="&#x10d;" horiz-adv-x="968" 
d="M203 1630h131l161 -312l161 312h134l-187 -388h-213zM607 -23c-161.333 0 -287.499 52.333 -378.499 157s-136.5 241.667 -136.5 411c0.666992 170.667 47.167 309.167 139.5 415.5s218.833 159.5 379.5 159.5c56.667 0 111.5 -7 164.5 -21s94.833 -32.333 125.5 -55
l-46 -130c-78 42 -160.333 63 -247 63c-106 0 -189.833 -38.667 -251.5 -116s-92.5 -183 -92.5 -317c0 -130.667 30.5 -234.167 91.5 -310.5s145.5 -114.5 253.5 -114.5c86 0 174 23.333 264 70l21 -133c-72.667 -52.667 -168.334 -79 -287.001 -79z" />
    <glyph glyph-name="Dcaron" unicode="&#x10e;" horiz-adv-x="1502" 
d="M488 2015h131l161 -312l161 312h134l-187 -388h-213zM1205 736c0 206.667 -53.334 357.001 -160.001 451.001s-262 141 -466 141h-232v-1177h261c194.667 0 342.834 49.167 444.501 147.5s152.5 244.166 152.5 437.499zM1390 741.001
c0 -240.667 -68.3311 -424.333 -204.998 -551s-327.334 -190 -572.001 -190h-439v1479h410c123.333 0 233.666 -14.5 330.999 -43.5s181.833 -73 253.5 -132s126.5 -136 164.5 -231s57 -205.5 57 -331.5z" />
    <glyph glyph-name="dcaron" unicode="&#x10f;" horiz-adv-x="1211" 
d="M1247 1021c2 19.333 7.83301 70.499 17.5 153.499s17.167 152.833 22.5 209.5s9.33301 106.334 12 149.001h197v-44c-32.667 -132 -80.667 -288 -144 -468h-105zM571 120.999c110 0 191.831 35.333 245.498 106s80.5 171.667 80.5 303c0 148 -25.833 259.5 -77.5 334.5
s-135.167 112.5 -250.5 112.5c-51.333 0 -96.666 -11 -135.999 -33s-71 -52.667 -95 -92s-42.167 -84.5 -54.5 -135.5s-18.5 -106.833 -18.5 -167.5c0 -85.333 10.5 -159.333 31.5 -222s54.833 -112.667 101.5 -150s104.334 -56 173.001 -56zM899.998 158.999
c-36 -55.333 -84 -99.332 -144 -131.999s-127 -49 -201 -49c-144.667 0 -258 51.5 -340 154.5s-123 243.167 -123 420.5c0 169.333 41.667 306.166 125 410.499s195 156.5 335 156.5c72.667 0 141.167 -15.833 205.5 -47.5s112.5 -74.167 144.5 -127.5l-3 95v483l165 10
v-1533h-142z" />
    <glyph glyph-name="Dcroat" unicode="&#x110;" horiz-adv-x="1522" 
d="M324 697l-0.000976562 -542.003h315c186 0 329.833 48.833 431.5 146.5s152.5 241.834 152.5 432.501c0 92.667 -10.833 174 -32.5 244s-51.5 127.833 -89.5 173.5s-86 82.834 -144 111.501s-120.667 48.834 -188 60.501s-143.666 17.5 -228.999 17.5h-216v-509h242v-135
h-242zM28.999 696.997l0.00195312 135h118v664h372c107.333 0 204.666 -7.66699 291.999 -23s169 -41.333 245 -78s139.667 -83.5 191 -140.5s91.666 -129.167 120.999 -216.5s44 -187.333 44 -300c0 -122 -19 -230.167 -57 -324.5s-92 -171.5 -162 -231.5
s-153 -105.333 -249 -136s-203.667 -46 -323 -46h-474v697h-118z" />
    <glyph glyph-name="dcroat" unicode="&#x111;" horiz-adv-x="1168" 
d="M541 -24c-145.333 0 -260.165 53.8311 -344.498 161.498s-126.5 248.834 -126.5 423.501c0 103.333 19.167 197.833 57.5 283.5s93.166 153.834 164.499 204.501s152.333 76 243 76c74 0 143.167 -17 207.5 -51s110.5 -79.667 138.5 -137v262h-223v142h223v149l168 20
v-169h117v-142h-117v-1199h-149l-21 172c-32.667 -58.667 -78.834 -106 -138.501 -142s-126.167 -54 -199.5 -54zM552.001 123.998c107.333 0 189.167 40.002 245.5 120.002s84.5 182.333 84.5 307c0 60 -6.5 115.333 -19.5 166s-32.5 95.667 -58.5 135s-60.667 70 -104 92
s-93.333 33 -150 33c-53.333 0 -100.5 -12.333 -141.5 -37s-73.167 -57.834 -96.5 -99.501s-40.666 -86.5 -51.999 -134.5s-17 -98 -17 -150c0 -57.333 5.66699 -110.833 17 -160.5s28.666 -95.334 51.999 -137.001s55.5 -74.5 96.5 -98.5s88.833 -36 143.5 -36z" />
    <glyph glyph-name="Emacron" unicode="&#x112;" horiz-adv-x="1143" 
d="M960 1749v-122h-710v122h710zM174 0v1479h848l-7 -153h-668v-484h635v-151h-635v-538h690l-8 -153h-855z" />
    <glyph glyph-name="emacron" unicode="&#x113;" horiz-adv-x="1108" 
d="M911 1364v-122h-710v122h710zM574 982c-85.333 0 -155 -30.167 -209 -90.5s-85.667 -142.833 -95 -247.5h579c0 108.667 -24.5 192.167 -73.5 250.5s-116.167 87.5 -201.5 87.5zM607 -23c-159.333 0 -284.833 50.667 -376.5 152s-137.5 240 -137.5 416
c0 170 44.333 307.833 133 413.5s205.334 159.5 350.001 161.5c136 0 243.833 -46.5 323.5 -139.5s119.5 -217.167 119.5 -372.5c0 -8 -0.166992 -22.667 -0.5 -44s-0.5 -36.666 -0.5 -45.999h-753c2 -124.667 34.167 -221.834 96.5 -291.501s146.166 -104.5 251.499 -104.5
c116 0 232.333 30.667 349 92l26 -135c-111.333 -68 -238.333 -102 -381 -102z" />
    <glyph glyph-name="Edotaccent" unicode="&#x116;" horiz-adv-x="1143" 
d="M690 1825v-198h-168v198h168zM174 0v1479h848l-7 -153h-668v-484h635v-151h-635v-538h690l-8 -153h-855z" />
    <glyph glyph-name="edotaccent" unicode="&#x117;" horiz-adv-x="1108" 
d="M640 1440v-198h-168v198h168zM574 982c-85.333 0 -155 -30.167 -209 -90.5s-85.667 -142.833 -95 -247.5h579c0 108.667 -24.5 192.167 -73.5 250.5s-116.167 87.5 -201.5 87.5zM607 -23c-159.333 0 -284.833 50.667 -376.5 152s-137.5 240 -137.5 416
c0 170 44.333 307.833 133 413.5s205.334 159.5 350.001 161.5c136 0 243.833 -46.5 323.5 -139.5s119.5 -217.167 119.5 -372.5c0 -8 -0.166992 -22.667 -0.5 -44s-0.5 -36.666 -0.5 -45.999h-753c2 -124.667 34.167 -221.834 96.5 -291.501s146.166 -104.5 251.499 -104.5
c116 0 232.333 30.667 349 92l26 -135c-111.333 -68 -238.333 -102 -381 -102z" />
    <glyph glyph-name="Eogonek" unicode="&#x118;" horiz-adv-x="1143" 
d="M787 -294c38 0 83.667 11 137 33v-117c-50.667 -21.333 -103 -32 -157 -32c-56 0 -102.167 15.5 -138.5 46.5s-54.5 74.167 -54.5 129.5c0 91.333 63.667 174 191 248h114c-120 -88.667 -180 -161.667 -180 -219c0 -25.333 9.16699 -46.5 27.5 -63.5
s38.5 -25.5 60.5 -25.5zM174 0v1479h848l-7 -153h-668v-484h635v-151h-635v-538h690l-8 -153h-855z" />
    <glyph glyph-name="eogonek" unicode="&#x119;" horiz-adv-x="1108" 
d="M667 -317c38 0 83.667 11 137 33v-117c-50.667 -21.333 -103 -32 -157 -32c-56 0 -102.167 15.5 -138.5 46.5s-54.5 74.167 -54.5 129.5c0 91.333 63.667 174 191 248h114c-120 -88.667 -180 -161.667 -180 -219c0 -25.333 9.16699 -46.5 27.5 -63.5
s38.5 -25.5 60.5 -25.5zM574 982c-85.333 0 -155 -30.167 -209 -90.5s-85.667 -142.833 -95 -247.5h579c0 108.667 -24.5 192.167 -73.5 250.5s-116.167 87.5 -201.5 87.5zM607 -23c-159.333 0 -284.833 50.667 -376.5 152s-137.5 240 -137.5 416
c0 170 44.333 307.833 133 413.5s205.334 159.5 350.001 161.5c136 0 243.833 -46.5 323.5 -139.5s119.5 -217.167 119.5 -372.5c0 -8 -0.166992 -22.667 -0.5 -44s-0.5 -36.666 -0.5 -45.999h-753c2 -124.667 34.167 -221.834 96.5 -291.501s146.166 -104.5 251.499 -104.5
c116 0 232.333 30.667 349 92l26 -135c-111.333 -68 -238.333 -102 -381 -102z" />
    <glyph glyph-name="Ecaron" unicode="&#x11a;" horiz-adv-x="1143" 
d="M312 2015h131l161 -312l161 312h134l-187 -388h-213zM174 0v1479h848l-7 -153h-668v-484h635v-151h-635v-538h690l-8 -153h-855z" />
    <glyph glyph-name="ecaron" unicode="&#x11b;" horiz-adv-x="1108" 
d="M262 1630h131l161 -312l161 312h134l-187 -388h-213zM574 982c-85.333 0 -155 -30.167 -209 -90.5s-85.667 -142.833 -95 -247.5h579c0 108.667 -24.5 192.167 -73.5 250.5s-116.167 87.5 -201.5 87.5zM607 -23c-159.333 0 -284.833 50.667 -376.5 152
s-137.5 240 -137.5 416c0 170 44.333 307.833 133 413.5s205.334 159.5 350.001 161.5c136 0 243.833 -46.5 323.5 -139.5s119.5 -217.167 119.5 -372.5c0 -8 -0.166992 -22.667 -0.5 -44s-0.5 -36.666 -0.5 -45.999h-753c2 -124.667 34.167 -221.834 96.5 -291.501
s146.166 -104.5 251.499 -104.5c116 0 232.333 30.667 349 92l26 -135c-111.333 -68 -238.333 -102 -381 -102z" />
    <glyph glyph-name="Gcircumflex" unicode="&#x11c;" horiz-adv-x="1461" 
d="M428 1627l187 388h213l187 -388h-134l-161 272l-161 -272h-131zM819 -22c-112.667 0 -213.834 18.8301 -303.501 56.4971s-163.667 90.334 -222 158.001s-103 147.834 -134 240.501s-46.5 194.334 -46.5 305.001c0 149.333 28.333 281.333 85 396s141 205 253 271
s244.667 99 398 99c170 0 319.333 -38.667 448 -116l-66 -143c-124 71.333 -250.667 107 -380 107c-90 0 -170.5 -15.5 -241.5 -46.5s-129 -74 -174 -129s-79.333 -119.667 -103 -194s-35.5 -155.833 -35.5 -244.5c0 -188 46.833 -336.5 140.5 -445.5
s231.834 -163.5 414.501 -163.5c104 0 209.667 21 317 63v422h-349l6 151h505v-676c-84 -40 -165.167 -68.5 -243.5 -85.5s-167.833 -25.5 -268.5 -25.5z" />
    <glyph glyph-name="gcircumflex" unicode="&#x11d;" horiz-adv-x="1187" 
d="M268 1242l187 388h213l187 -388h-134l-161 272l-161 -272h-131zM569 143c56.667 0 106.333 10.002 149 30.002s76 47.667 100 83s41.833 74.666 53.5 117.999s17.5 90.666 17.5 141.999v81c0 53.333 -6 102.5 -18 147.5s-30.5 85.333 -55.5 121s-58.333 63.5 -100 83.5
s-90.167 30 -145.5 30c-46 0 -87.833 -8.66699 -125.5 -26s-68.667 -40.166 -93 -68.499s-45 -61.333 -62 -99s-29.167 -75.834 -36.5 -114.501s-11 -77.667 -11 -117c0 -38.667 4 -77 12 -115s20.667 -75 38 -111s38.333 -67.5 63 -94.5s55.5 -48.833 92.5 -65.5
s77.5 -25 121.5 -25zM311.999 -501.998l-15.001 151.003h204c56.667 0 106 4 148 12s77 21.167 105 39.5s50.667 38.666 68 60.999s30.5 51.333 39.5 87s15 71 18 106s4.5 77.833 4.5 128.5v97c-40 -57.333 -86.333 -101.5 -139 -132.5s-119.667 -46.5 -201 -46.5
c-62.667 0 -120.5 10.833 -173.5 32.5s-97.667 50.5 -134 86.5s-67.333 77.667 -93 125s-44.334 96.333 -56.001 147s-17.5 101.667 -17.5 153c0 80 9.83301 154 29.5 222s48.834 128.667 87.501 182s89.5 95.166 152.5 125.499s135.167 45.5 216.5 45.5
c72 0 134.833 -13.833 188.5 -41.5s101.834 -70.167 144.501 -127.5v146h163v-1018c0 -46.667 -1.16699 -87.5 -3.5 -122.5s-8 -73.833 -17 -116.5s-21.167 -79.334 -36.5 -110.001s-36.833 -61.5 -64.5 -92.5s-60.667 -56 -99 -75s-85.833 -34.5 -142.5 -46.5
s-120.667 -18 -192 -18h-185z" />
    <glyph glyph-name="Gbreve" unicode="&#x11e;" horiz-adv-x="1461" 
d="M720 1627c-66.667 0 -124.833 22.6689 -174.5 68.002s-74.5 108.666 -74.5 189.999h116c0 -46 12.5 -81 37.5 -105s56.833 -36 95.5 -36s71 12 97 36s39 59 39 105h117c0 -80.667 -25.333 -143.834 -76 -189.501s-109.667 -68.5 -177 -68.5zM819.001 -21.998
c-112.667 0 -213.834 18.8301 -303.501 56.4971s-163.667 90.334 -222 158.001s-103 147.834 -134 240.501s-46.5 194.334 -46.5 305.001c0 149.333 28.333 281.333 85 396s141 205 253 271s244.667 99 398 99c170 0 319.333 -38.667 448 -116l-66 -143
c-124 71.333 -250.667 107 -380 107c-90 0 -170.5 -15.5 -241.5 -46.5s-129 -74 -174 -129s-79.333 -119.667 -103 -194s-35.5 -155.833 -35.5 -244.5c0 -188 46.833 -336.5 140.5 -445.5s231.834 -163.5 414.501 -163.5c104 0 209.667 21 317 63v422h-349l6 151h505v-676
c-84 -40 -165.167 -68.5 -243.5 -85.5s-167.833 -25.5 -268.5 -25.5z" />
    <glyph glyph-name="gbreve" unicode="&#x11f;" horiz-adv-x="1187" 
d="M559 1242c-66.667 0 -124.833 22.6689 -174.5 68.002s-74.5 108.666 -74.5 189.999h116c0 -46 12.5 -81 37.5 -105s56.833 -36 95.5 -36s71 12 97 36s39 59 39 105h117c0 -80.667 -25.333 -143.834 -76 -189.501s-109.667 -68.5 -177 -68.5zM569.001 143.002
c56.667 0 106.333 10.002 149 30.002s76 47.667 100 83s41.833 74.666 53.5 117.999s17.5 90.666 17.5 141.999v81c0 53.333 -6 102.5 -18 147.5s-30.5 85.333 -55.5 121s-58.333 63.5 -100 83.5s-90.167 30 -145.5 30c-46 0 -87.833 -8.66699 -125.5 -26
s-68.667 -40.166 -93 -68.499s-45 -61.333 -62 -99s-29.167 -75.834 -36.5 -114.501s-11 -77.667 -11 -117c0 -38.667 4 -77 12 -115s20.667 -75 38 -111s38.333 -67.5 63 -94.5s55.5 -48.833 92.5 -65.5s77.5 -25 121.5 -25zM312 -501.996l-15.001 151.003h204
c56.667 0 106 4 148 12s77 21.167 105 39.5s50.667 38.666 68 60.999s30.5 51.333 39.5 87s15 71 18 106s4.5 77.833 4.5 128.5v97c-40 -57.333 -86.333 -101.5 -139 -132.5s-119.667 -46.5 -201 -46.5c-62.667 0 -120.5 10.833 -173.5 32.5s-97.667 50.5 -134 86.5
s-67.333 77.667 -93 125s-44.334 96.333 -56.001 147s-17.5 101.667 -17.5 153c0 80 9.83301 154 29.5 222s48.834 128.667 87.501 182s89.5 95.166 152.5 125.499s135.167 45.5 216.5 45.5c72 0 134.833 -13.833 188.5 -41.5s101.834 -70.167 144.501 -127.5v146h163v-1018
c0 -46.667 -1.16699 -87.5 -3.5 -122.5s-8 -73.833 -17 -116.5s-21.167 -79.334 -36.5 -110.001s-36.833 -61.5 -64.5 -92.5s-60.667 -56 -99 -75s-85.833 -34.5 -142.5 -46.5s-120.667 -18 -192 -18h-185z" />
    <glyph glyph-name="Gdotaccent" unicode="&#x120;" horiz-adv-x="1461" 
d="M806 1825v-198h-168v198h168zM819 -22c-112.667 0 -213.834 18.8301 -303.501 56.4971s-163.667 90.334 -222 158.001s-103 147.834 -134 240.501s-46.5 194.334 -46.5 305.001c0 149.333 28.333 281.333 85 396s141 205 253 271s244.667 99 398 99
c170 0 319.333 -38.667 448 -116l-66 -143c-124 71.333 -250.667 107 -380 107c-90 0 -170.5 -15.5 -241.5 -46.5s-129 -74 -174 -129s-79.333 -119.667 -103 -194s-35.5 -155.833 -35.5 -244.5c0 -188 46.833 -336.5 140.5 -445.5s231.834 -163.5 414.501 -163.5
c104 0 209.667 21 317 63v422h-349l6 151h505v-676c-84 -40 -165.167 -68.5 -243.5 -85.5s-167.833 -25.5 -268.5 -25.5z" />
    <glyph glyph-name="gdotaccent" unicode="&#x121;" horiz-adv-x="1187" 
d="M645 1440v-198h-168v198h168zM569 143c56.667 0 106.333 10.002 149 30.002s76 47.667 100 83s41.833 74.666 53.5 117.999s17.5 90.666 17.5 141.999v81c0 53.333 -6 102.5 -18 147.5s-30.5 85.333 -55.5 121s-58.333 63.5 -100 83.5s-90.167 30 -145.5 30
c-46 0 -87.833 -8.66699 -125.5 -26s-68.667 -40.166 -93 -68.499s-45 -61.333 -62 -99s-29.167 -75.834 -36.5 -114.501s-11 -77.667 -11 -117c0 -38.667 4 -77 12 -115s20.667 -75 38 -111s38.333 -67.5 63 -94.5s55.5 -48.833 92.5 -65.5s77.5 -25 121.5 -25z
M311.999 -501.998l-15.001 151.003h204c56.667 0 106 4 148 12s77 21.167 105 39.5s50.667 38.666 68 60.999s30.5 51.333 39.5 87s15 71 18 106s4.5 77.833 4.5 128.5v97c-40 -57.333 -86.333 -101.5 -139 -132.5s-119.667 -46.5 -201 -46.5
c-62.667 0 -120.5 10.833 -173.5 32.5s-97.667 50.5 -134 86.5s-67.333 77.667 -93 125s-44.334 96.333 -56.001 147s-17.5 101.667 -17.5 153c0 80 9.83301 154 29.5 222s48.834 128.667 87.501 182s89.5 95.166 152.5 125.499s135.167 45.5 216.5 45.5
c72 0 134.833 -13.833 188.5 -41.5s101.834 -70.167 144.501 -127.5v146h163v-1018c0 -46.667 -1.16699 -87.5 -3.5 -122.5s-8 -73.833 -17 -116.5s-21.167 -79.334 -36.5 -110.001s-36.833 -61.5 -64.5 -92.5s-60.667 -56 -99 -75s-85.833 -34.5 -142.5 -46.5
s-120.667 -18 -192 -18h-185z" />
    <glyph glyph-name="Gcommaaccent" unicode="&#x122;" horiz-adv-x="1461" 
d="M592 -642l94 498h166l-143 -498h-117zM819 -22c-112.667 0 -213.834 18.8301 -303.501 56.4971s-163.667 90.334 -222 158.001s-103 147.834 -134 240.501s-46.5 194.334 -46.5 305.001c0 149.333 28.333 281.333 85 396s141 205 253 271s244.667 99 398 99
c170 0 319.333 -38.667 448 -116l-66 -143c-124 71.333 -250.667 107 -380 107c-90 0 -170.5 -15.5 -241.5 -46.5s-129 -74 -174 -129s-79.333 -119.667 -103 -194s-35.5 -155.833 -35.5 -244.5c0 -188 46.833 -336.5 140.5 -445.5s231.834 -163.5 414.501 -163.5
c104 0 209.667 21 317 63v422h-349l6 151h505v-676c-84 -40 -165.167 -68.5 -243.5 -85.5s-167.833 -25.5 -268.5 -25.5z" />
    <glyph glyph-name="gcommaaccent" unicode="&#x123;" horiz-adv-x="1187" 
d="M569 143c56.667 0 106.333 10.002 149 30.002s76 47.667 100 83s41.833 74.666 53.5 117.999s17.5 90.666 17.5 141.999v81c0 53.333 -6 102.5 -18 147.5s-30.5 85.333 -55.5 121s-58.333 63.5 -100 83.5s-90.167 30 -145.5 30c-46 0 -87.833 -8.66699 -125.5 -26
s-68.667 -40.166 -93 -68.499s-45 -61.333 -62 -99s-29.167 -75.834 -36.5 -114.501s-11 -77.667 -11 -117c0 -38.667 4 -77 12 -115s20.667 -75 38 -111s38.333 -67.5 63 -94.5s55.5 -48.833 92.5 -65.5s77.5 -25 121.5 -25zM311.999 -501.998l-15.001 151.003h204
c56.667 0 106 4 148 12s77 21.167 105 39.5s50.667 38.666 68 60.999s30.5 51.333 39.5 87s15 71 18 106s4.5 77.833 4.5 128.5v97c-40 -57.333 -86.333 -101.5 -139 -132.5s-119.667 -46.5 -201 -46.5c-62.667 0 -120.5 10.833 -173.5 32.5s-97.667 50.5 -134 86.5
s-67.333 77.667 -93 125s-44.334 96.333 -56.001 147s-17.5 101.667 -17.5 153c0 80 9.83301 154 29.5 222s48.834 128.667 87.501 182s89.5 95.166 152.5 125.499s135.167 45.5 216.5 45.5c72 0 134.833 -13.833 188.5 -41.5s101.834 -70.167 144.501 -127.5v146h163v-1018
c0 -46.667 -1.16699 -87.5 -3.5 -122.5s-8 -73.833 -17 -116.5s-21.167 -79.334 -36.5 -110.001s-36.833 -61.5 -64.5 -92.5s-60.667 -56 -99 -75s-85.833 -34.5 -142.5 -46.5s-120.667 -18 -192 -18h-185zM792.998 1749l-110 -499h-195l165 499h140z" />
    <glyph glyph-name="Hcircumflex" unicode="&#x124;" horiz-adv-x="1488" 
d="M450 1627l187 388h213l187 -388h-134l-161 272l-161 -272h-131zM1314 0h-173v692h-794v-692h-173v1479h173v-635h794v635h173v-1479z" />
    <glyph glyph-name="hcircumflex" unicode="&#x125;" horiz-adv-x="1112" 
d="M304 1655l187 388h213l187 -388h-134l-161 272l-161 -272h-131zM882 0v663c0 110 -17.5 190 -52.5 240s-96.167 75 -183.5 75c-84 0 -154.833 -21 -212.5 -63s-95.167 -96.333 -112.5 -163c-6 -50 -9 -105.667 -9 -167v-585h-167v1523l167 10v-446
c0 -38 -1.33301 -85 -4 -141c94 116 218.667 174 374 174c244.667 0 367 -143.667 367 -431v-689h-167z" />
    <glyph glyph-name="Hbar" unicode="&#x126;" horiz-adv-x="1463" 
d="M324 1146v-298h817v298h-817zM1141 696h-817v-696h-177v1146h-90v105h90v245h177v-245h817v245h177v-245h90v-105h-90v-1146h-177v696z" />
    <glyph glyph-name="hbar" unicode="&#x127;" horiz-adv-x="1112" 
d="M282 0l-167.999 -0.000976562v1270h-93v116h93v104l168 20v-124h276v-116h-276v-321c96.667 116.667 227.334 175 392.001 175c112 0 195.5 -39.833 250.5 -119.5s82.5 -193.167 82.5 -340.5v-664h-168v617c0 53.333 -1.66699 98 -5 134s-9.5 69.5 -18.5 100.5
s-21.667 55.333 -38 73s-37.5 31.334 -63.5 41.001s-57.667 14.5 -95 14.5c-80.667 0 -153.334 -24.5 -218.001 -73.5s-104.334 -101.833 -119.001 -158.5v-748z" />
    <glyph glyph-name="Itilde" unicode="&#x128;" horiz-adv-x="540" 
d="M-13 1635l-81.998 55.001c23.333 65.333 50.666 111.666 81.999 138.999s67 41 107 41c30 0 65.5 -8 106.5 -24l120.5 -48c39.333 -16 72.666 -24 99.999 -24c55.333 0 97 32.667 125 98l86 -36c-23.333 -77.333 -51.833 -131.5 -85.5 -162.5s-72.167 -46.5 -115.5 -46.5
c-30.667 0 -66.667 7.66699 -108 23l-121.5 46.5c-39.667 15.667 -72.5 23.5 -98.5 23.5c-51.333 0 -90 -28.333 -116 -85zM355.002 0.000976562h-173v1479h173v-1479z" />
    <glyph glyph-name="itilde" unicode="&#x129;" horiz-adv-x="430" 
d="M-62 1250l-81.998 55.001c23.333 65.333 50.666 111.666 81.999 138.999s67 41 107 41c30 0 65.5 -8 106.5 -24l120.5 -48c39.333 -16 72.666 -24 99.999 -24c55.333 0 97 32.667 125 98l86 -36c-23.333 -77.333 -51.833 -131.5 -85.5 -162.5s-72.167 -46.5 -115.5 -46.5
c-30.667 0 -66.667 7.66699 -108 23l-121.5 46.5c-39.667 15.667 -72.5 23.5 -98.5 23.5c-51.333 0 -90 -28.333 -116 -85zM304.002 1098v-1098h-169v1098h169z" />
    <glyph glyph-name="Imacron" unicode="&#x12a;" horiz-adv-x="540" 
d="M624 1749v-122h-710v122h710zM355 0h-173v1479h173v-1479z" />
    <glyph glyph-name="imacron" unicode="&#x12b;" horiz-adv-x="430" 
d="M574 1364v-122h-710v122h710zM304 1098v-1098h-169v1098h169z" />
    <glyph glyph-name="Ibreve" unicode="&#x12c;" horiz-adv-x="540" 
d="M267 1627c-66.667 0 -124.833 22.6689 -174.5 68.002s-74.5 108.666 -74.5 189.999h116c0 -46 12.5 -81 37.5 -105s56.833 -36 95.5 -36s71 12 97 36s39 59 39 105h117c0 -80.667 -25.333 -143.834 -76 -189.501s-109.667 -68.5 -177 -68.5zM355.001 0.00195312h-173
v1479h173v-1479z" />
    <glyph glyph-name="ibreve" unicode="&#x12d;" horiz-adv-x="430" 
d="M217 1242c-66.667 0 -124.833 22.6689 -174.5 68.002s-74.5 108.666 -74.5 189.999h116c0 -46 12.5 -81 37.5 -105s56.833 -36 95.5 -36s71 12 97 36s39 59 39 105h117c0 -80.667 -25.333 -143.834 -76 -189.501s-109.667 -68.5 -177 -68.5zM304.001 1098v-1098h-169
v1098h169z" />
    <glyph glyph-name="Iogonek" unicode="&#x12e;" horiz-adv-x="540" 
d="M233 -294c38 0 83.667 11 137 33v-117c-50.667 -21.333 -103 -32 -157 -32c-56 0 -102.167 15.5 -138.5 46.5s-54.5 74.167 -54.5 129.5c0 91.333 63.667 174 191 248h114c-120 -88.667 -180 -161.667 -180 -219c0 -25.333 9.16699 -46.5 27.5 -63.5
s38.5 -25.5 60.5 -25.5zM355 0h-173v1479h173v-1479z" />
    <glyph glyph-name="iogonek" unicode="&#x12f;" horiz-adv-x="511" 
d="M221 -294c38 0 83.667 11 137 33v-117c-50.667 -21.333 -103 -32 -157 -32c-56 0 -102.167 15.5 -138.5 46.5s-54.5 74.167 -54.5 129.5c0 91.333 63.667 174 191 248h114c-120 -88.667 -180 -161.667 -180 -219c0 -25.333 9.16699 -46.5 27.5 -63.5
s38.5 -25.5 60.5 -25.5zM340 1097v-1097h-168v1097h168zM340 1496v-198h-168v198h168z" />
    <glyph glyph-name="Idotaccent" unicode="&#x130;" horiz-adv-x="540" 
d="M352 1805v-198h-168v198h168zM355 0h-173v1479h173v-1479z" />
    <glyph glyph-name="dotlessi" unicode="&#x131;" horiz-adv-x="430" 
d="M304 1098v-1098h-169v1098h169z" />
    <glyph glyph-name="IJ" unicode="&#x132;" horiz-adv-x="1090" 
d="M766 181l0.00390625 1315h177v-1255c0 -48.667 -1 -89.667 -3 -123s-6 -67.166 -12 -101.499s-14.833 -62.5 -26.5 -84.5s-26.834 -43.167 -45.501 -63.5s-41.834 -36 -69.501 -47s-60.5 -19.667 -98.5 -26s-82 -9.5 -132 -9.5h-35l-21 142h74
c35.333 0 65.166 4.33301 89.499 13s43.166 19.5 56.499 32.5s23.5 31.5 30.5 55.5s11.333 46.5 13 67.5s2.5 49.167 2.5 84.5zM355.004 -0.000976562h-173v1479h173v-1479z" />
    <glyph glyph-name="ij" unicode="&#x133;" horiz-adv-x="911" 
d="M796 1097v-1236c0 -70.667 -4.5 -127.667 -13.5 -171s-26 -80.166 -51 -110.499s-58.833 -51.5 -101.5 -63.5s-98.334 -18 -167.001 -18h-52l-22 151h52c26 0 48.5 1.5 67.5 4.5s35.333 6.83301 49 11.5s24.834 12.334 33.501 23.001s15.5 20.834 20.5 30.501
s8.66699 24.167 11 43.5s3.83301 36.666 4.5 51.999s1 37 1 65v1218h168zM796 1496v-198h-168v198h168zM327 1097v-1097h-168v1097h168zM327 1496v-198h-168v198h168z" />
    <glyph glyph-name="Jcircumflex" unicode="&#x134;" horiz-adv-x="550" 
d="M-112 1627l187 388h213l187 -388h-134l-161 272l-161 -272h-131zM226 181l0.00390625 1315h177v-1255c0 -48.667 -1 -89.667 -3 -123s-6 -67.166 -12 -101.499s-14.833 -62.5 -26.5 -84.5s-26.834 -43.167 -45.501 -63.5s-41.834 -36 -69.501 -47
s-60.5 -19.667 -98.5 -26s-82 -9.5 -132 -9.5h-35l-21 142h74c35.333 0 65.166 4.33301 89.499 13s43.166 19.5 56.499 32.5s23.5 31.5 30.5 55.5s11.333 46.5 13 67.5s2.5 49.167 2.5 84.5z" />
    <glyph glyph-name="jcircumflex" unicode="&#x135;" horiz-adv-x="444" 
d="M-167 1242l187 388h213l187 -388h-134l-161 272l-161 -272h-131zM330 1098v-1237c0 -70.667 -4.5 -127.667 -13.5 -171s-26 -80.166 -51 -110.499s-58.833 -51.5 -101.5 -63.5s-98.334 -18 -167.001 -18h-52l-22 151h52c26 0 48.5 1.5 67.5 4.5s35.333 6.83301 49 11.5
s24.834 12.334 33.501 23.001s15.5 20.834 20.5 30.501s8.66699 24.167 11 43.5s3.83301 36.666 4.5 51.999s1 37 1 65v1219h168z" />
    <glyph glyph-name="Kcommaaccent" unicode="&#x136;" horiz-adv-x="1242" 
d="M586 -620l94 498h166l-143 -498h-117zM1260 0h-212l-566 706l-135 -119v-587h-174v1479h174v-726l650 726h217l-600 -666z" />
    <glyph glyph-name="kcommaaccent" unicode="&#x137;" horiz-adv-x="1041" 
d="M464 -620l94 498h166l-143 -498h-117zM145 0v1523l166 10v-797v-140c4 4 10 10.667 18 20s14.333 16.333 19 21c58 63.333 208 216.666 450 459.999h212l-456 -462l488 -635h-208l-401 540l-122 -105v-435h-166z" />
    <glyph glyph-name="kgreenlandic" unicode="&#x138;" horiz-adv-x="1104" 
d="M823 0l-503 480l-27 26v-506h-146v1105h146v-505l483 505h205l-523 -554c232.667 -216 418 -399.667 556 -551h-191z" />
    <glyph glyph-name="Lacute" unicode="&#x139;" horiz-adv-x="1021" 
d="M969 2015l-325 -388h-114l186 388h253zM174 0v1479h174v-1325h651l-6 -154h-819z" />
    <glyph glyph-name="lacute" unicode="&#x13a;" horiz-adv-x="569" 
d="M760 2043l-325 -388h-114l186 388h253zM438 -20c-106.667 0 -182.168 28.6641 -226.501 85.9971s-66.5 157 -66.5 299v1158l166 10v-1102c0 -45.333 0.5 -81.666 1.5 -108.999s3.5 -54.166 7.5 -80.499s9.33301 -46.166 16 -59.499s16.334 -25.5 29.001 -36.5
s27.834 -18.333 45.501 -22s39.5 -5.5 65.5 -5.5c21.333 0 63.333 4 126 12l9 -133c-68.667 -11.333 -126.334 -17 -173.001 -17z" />
    <glyph glyph-name="Lcommaaccent" unicode="&#x13b;" horiz-adv-x="1021" 
d="M456 -620l94 498h166l-143 -498h-117zM174 0v1479h174v-1325h651l-6 -154h-819z" />
    <glyph glyph-name="lcommaaccent" unicode="&#x13c;" horiz-adv-x="569" 
d="M248 -640l94 498h166l-143 -498h-117zM438 -20c-106.667 0 -182.168 28.6641 -226.501 85.9971s-66.5 157 -66.5 299v1158l166 10v-1102c0 -45.333 0.5 -81.666 1.5 -108.999s3.5 -54.166 7.5 -80.499s9.33301 -46.166 16 -59.499s16.334 -25.5 29.001 -36.5
s27.834 -18.333 45.501 -22s39.5 -5.5 65.5 -5.5c21.333 0 63.333 4 126 12l9 -133c-68.667 -11.333 -126.334 -17 -173.001 -17z" />
    <glyph glyph-name="Lcaron" unicode="&#x13d;" horiz-adv-x="1021" 
d="M1182 993c2 19.333 7.83301 70.499 17.5 153.499s17.167 152.833 22.5 209.5s9.33301 106.334 12 149.001h197v-44c-32.667 -132 -80.667 -288 -144 -468h-105zM174 -0.000976562v1479h174v-1325h651l-6 -154h-819z" />
    <glyph glyph-name="lcaron" unicode="&#x13e;" horiz-adv-x="569" 
d="M568 1021c2 19.333 7.83301 70.499 17.5 153.499s17.167 152.833 22.5 209.5s9.33301 106.334 12 149.001h197v-44c-32.667 -132 -80.667 -288 -144 -468h-105zM438 -20.001c-106.667 0 -182.168 28.6641 -226.501 85.9971s-66.5 157 -66.5 299v1158l166 10v-1102
c0 -45.333 0.5 -81.666 1.5 -108.999s3.5 -54.166 7.5 -80.499s9.33301 -46.166 16 -59.499s16.334 -25.5 29.001 -36.5s27.834 -18.333 45.501 -22s39.5 -5.5 65.5 -5.5c21.333 0 63.333 4 126 12l9 -133c-68.667 -11.333 -126.334 -17 -173.001 -17z" />
    <glyph glyph-name="Ldot" unicode="&#x13f;" horiz-adv-x="1021" 
d="M670 851v-198h-168v198h168zM174 0v1479h174v-1325h651l-6 -154h-819z" />
    <glyph glyph-name="ldot" unicode="&#x140;" horiz-adv-x="1037" 
d="M887 759v-198h-168v198h168zM438 -20c-106.667 0 -182.168 28.6641 -226.501 85.9971s-66.5 157 -66.5 299v1158l166 10v-1102c0 -45.333 0.5 -81.666 1.5 -108.999s3.5 -54.166 7.5 -80.499s9.33301 -46.166 16 -59.499s16.334 -25.5 29.001 -36.5
s27.834 -18.333 45.501 -22s39.5 -5.5 65.5 -5.5c21.333 0 63.333 4 126 12l9 -133c-68.667 -11.333 -126.334 -17 -173.001 -17z" />
    <glyph glyph-name="Lslash" unicode="&#x141;" horiz-adv-x="960" 
d="M0 527v148l148 81v740h177v-643l350 192v-156l-350 -188v-546h657l-12 -155h-822v606z" />
    <glyph glyph-name="lslash" unicode="&#x142;" horiz-adv-x="589" 
d="M487 985v-145.999l-176 -136v-272c0 -35.333 0.166992 -62.833 0.5 -82.5s1.16602 -41.834 2.49902 -66.501s3.33301 -43.167 6 -55.5s6.33398 -26 11.001 -41s10.5 -25.667 17.5 -32s15.667 -12.833 26 -19.5s22.333 -11 36 -13s29.5 -3 47.5 -3
c10.667 0 56.667 3.33301 138 10l15 -136c-86.667 -8.66699 -146 -13 -178 -13c-34 0 -63.833 1.83301 -89.5 5.5s-48.5 10.5 -68.5 20.5s-37 21 -51 33s-26 28.833 -36 50.5s-17.833 43.5 -23.5 65.5s-10.167 50.5 -13.5 85.5s-5.5 69.333 -6.5 103s-1.5 75.5 -1.5 125.5
v105l-112 -87v145l112 87v772l168 20v-662z" />
    <glyph glyph-name="Nacute" unicode="&#x143;" horiz-adv-x="1516" 
d="M1140 2015l-325 -388h-114l186 388h253zM1342 0h-196l-768 1164l-50 69c5.33301 -140 8 -265 8 -375v-858h-162v1479h193l770 -1164l51 -69c-4.66699 212.667 -7 335.667 -7 369v864h161v-1479z" />
    <glyph glyph-name="nacute" unicode="&#x144;" horiz-adv-x="1184" 
d="M978 1630l-325 -388h-114l186 388h253zM143 0l-0.00195312 1097h140l21 -157c43.333 54 97.5 97.5 162.5 130.5s135.167 49.5 210.5 49.5c126.667 0 220.334 -35.5 281.001 -106.5s91 -180.167 91 -327.5v-686h-167c0 440 -0.333008 675.667 -1 707
c-2.66699 93.333 -21.5 161.666 -56.5 204.999s-93.5 65 -175.5 65c-86 0 -157.667 -20.667 -215 -62s-94.666 -95 -111.999 -161c-6.66699 -44.667 -10 -96 -10 -154v-600h-169z" />
    <glyph glyph-name="Ncommaaccent" unicode="&#x145;" horiz-adv-x="1516" 
d="M628 -620l94 498h166l-143 -498h-117zM1342 0h-196l-768 1164l-50 69c5.33301 -140 8 -265 8 -375v-858h-162v1479h193l770 -1164l51 -69c-4.66699 212.667 -7 335.667 -7 369v864h161v-1479z" />
    <glyph glyph-name="ncommaaccent" unicode="&#x146;" horiz-adv-x="1184" 
d="M466 -620l94 498h166l-143 -498h-117zM143 0l-0.00195312 1097h140l21 -157c43.333 54 97.5 97.5 162.5 130.5s135.167 49.5 210.5 49.5c126.667 0 220.334 -35.5 281.001 -106.5s91 -180.167 91 -327.5v-686h-167c0 440 -0.333008 675.667 -1 707
c-2.66699 93.333 -21.5 161.666 -56.5 204.999s-93.5 65 -175.5 65c-86 0 -157.667 -20.667 -215 -62s-94.666 -95 -111.999 -161c-6.66699 -44.667 -10 -96 -10 -154v-600h-169z" />
    <glyph glyph-name="Ncaron" unicode="&#x147;" horiz-adv-x="1516" 
d="M464 2015h131l161 -312l161 312h134l-187 -388h-213zM1342 0h-196l-768 1164l-50 69c5.33301 -140 8 -265 8 -375v-858h-162v1479h193l770 -1164l51 -69c-4.66699 212.667 -7 335.667 -7 369v864h161v-1479z" />
    <glyph glyph-name="ncaron" unicode="&#x148;" horiz-adv-x="1184" 
d="M302 1630h131l161 -312l161 312h134l-187 -388h-213zM143 0l-0.00195312 1097h140l21 -157c43.333 54 97.5 97.5 162.5 130.5s135.167 49.5 210.5 49.5c126.667 0 220.334 -35.5 281.001 -106.5s91 -180.167 91 -327.5v-686h-167c0 440 -0.333008 675.667 -1 707
c-2.66699 93.333 -21.5 161.666 -56.5 204.999s-93.5 65 -175.5 65c-86 0 -157.667 -20.667 -215 -62s-94.666 -95 -111.999 -161c-6.66699 -44.667 -10 -96 -10 -154v-600h-169z" />
    <glyph glyph-name="Omacron" unicode="&#x14c;" 
d="M1168 1749v-122h-710v122h710zM296 739c0 -190 43.668 -339.167 131.001 -447.5s216.333 -162.5 387 -162.5s299.167 54 385.5 162s129.5 257.333 129.5 448c0 194.667 -43.5 345.667 -130.5 453s-214.833 161 -383.5 161s-297.334 -53.667 -386.001 -161
s-133 -258.333 -133 -453zM1514 739c0 -112.667 -15.501 -215.669 -46.501 -309.002s-75.667 -173.5 -134 -240.5s-131.833 -119 -220.5 -156s-188.334 -55.5 -299.001 -55.5c-149.333 0 -277.166 31.833 -383.499 95.5s-186 152.334 -239 266.001
s-79.5 247.167 -79.5 400.5c0 236.667 61.667 423.334 185 560.001s296 205 518 205c218.667 0 389.834 -68.833 513.501 -206.5s185.5 -324.167 185.5 -559.5z" />
    <glyph glyph-name="omacron" unicode="&#x14d;" horiz-adv-x="1201" 
d="M955 1364v-122h-710v122h710zM265 546c0 -130 28.8311 -234.167 86.498 -312.5s141.834 -117.5 252.501 -117.5c109.333 0 191.833 39 247.5 117s83.5 183 83.5 315c0 134 -27.5 239.5 -82.5 316.5s-138.833 115.5 -251.5 115.5
c-109.333 0 -192.666 -39.333 -249.999 -118s-86 -184 -86 -316zM1108 549c0 -170 -45.332 -307.833 -135.999 -413.5s-216 -158.5 -376 -158.5c-154 0 -276.5 53.333 -367.5 160s-136.5 243.667 -136.5 411c0 170.667 45.667 308.667 137 414s216.666 158 375.999 158
c156.667 0 279.667 -52.833 369 -158.5s134 -243.167 134 -412.5z" />
    <glyph glyph-name="Obreve" unicode="&#x14e;" 
d="M811 1627c-66.667 0 -124.833 22.6689 -174.5 68.002s-74.5 108.666 -74.5 189.999h116c0 -46 12.5 -81 37.5 -105s56.833 -36 95.5 -36s71 12 97 36s39 59 39 105h117c0 -80.667 -25.333 -143.834 -76 -189.501s-109.667 -68.5 -177 -68.5zM296.001 739.002
c0 -190 43.668 -339.167 131.001 -447.5s216.333 -162.5 387 -162.5s299.167 54 385.5 162s129.5 257.333 129.5 448c0 194.667 -43.5 345.667 -130.5 453s-214.833 161 -383.5 161s-297.334 -53.667 -386.001 -161s-133 -258.333 -133 -453zM1514 739.002
c0 -112.667 -15.501 -215.669 -46.501 -309.002s-75.667 -173.5 -134 -240.5s-131.833 -119 -220.5 -156s-188.334 -55.5 -299.001 -55.5c-149.333 0 -277.166 31.833 -383.499 95.5s-186 152.334 -239 266.001s-79.5 247.167 -79.5 400.5
c0 236.667 61.667 423.334 185 560.001s296 205 518 205c218.667 0 389.834 -68.833 513.501 -206.5s185.5 -324.167 185.5 -559.5z" />
    <glyph glyph-name="obreve" unicode="&#x14f;" horiz-adv-x="1201" 
d="M598 1242c-66.667 0 -124.833 22.6689 -174.5 68.002s-74.5 108.666 -74.5 189.999h116c0 -46 12.5 -81 37.5 -105s56.833 -36 95.5 -36s71 12 97 36s39 59 39 105h117c0 -80.667 -25.333 -143.834 -76 -189.501s-109.667 -68.5 -177 -68.5zM265.001 546.002
c0 -130 28.8311 -234.167 86.498 -312.5s141.834 -117.5 252.501 -117.5c109.333 0 191.833 39 247.5 117s83.5 183 83.5 315c0 134 -27.5 239.5 -82.5 316.5s-138.833 115.5 -251.5 115.5c-109.333 0 -192.666 -39.333 -249.999 -118s-86 -184 -86 -316zM1108 549.002
c0 -170 -45.332 -307.833 -135.999 -413.5s-216 -158.5 -376 -158.5c-154 0 -276.5 53.333 -367.5 160s-136.5 243.667 -136.5 411c0 170.667 45.667 308.667 137 414s216.666 158 375.999 158c156.667 0 279.667 -52.833 369 -158.5s134 -243.167 134 -412.5z" />
    <glyph glyph-name="Ohungarumlaut" unicode="&#x150;" 
d="M997 1962l-252 -335h-99l198 335h153zM1231 1962l-250 -335h-102l202 335h150zM296 739c0 -190 43.668 -339.167 131.001 -447.5s216.333 -162.5 387 -162.5s299.167 54 385.5 162s129.5 257.333 129.5 448c0 194.667 -43.5 345.667 -130.5 453s-214.833 161 -383.5 161
s-297.334 -53.667 -386.001 -161s-133 -258.333 -133 -453zM1514 739c0 -112.667 -15.501 -215.669 -46.501 -309.002s-75.667 -173.5 -134 -240.5s-131.833 -119 -220.5 -156s-188.334 -55.5 -299.001 -55.5c-149.333 0 -277.166 31.833 -383.499 95.5
s-186 152.334 -239 266.001s-79.5 247.167 -79.5 400.5c0 236.667 61.667 423.334 185 560.001s296 205 518 205c218.667 0 389.834 -68.833 513.501 -206.5s185.5 -324.167 185.5 -559.5z" />
    <glyph glyph-name="ohungarumlaut" unicode="&#x151;" horiz-adv-x="1201" 
d="M783 1577l-252 -335h-99l198 335h153zM1017 1577l-250 -335h-102l202 335h150zM265 546c0 -130 28.8311 -234.167 86.498 -312.5s141.834 -117.5 252.501 -117.5c109.333 0 191.833 39 247.5 117s83.5 183 83.5 315c0 134 -27.5 239.5 -82.5 316.5
s-138.833 115.5 -251.5 115.5c-109.333 0 -192.666 -39.333 -249.999 -118s-86 -184 -86 -316zM1108 549c0 -170 -45.332 -307.833 -135.999 -413.5s-216 -158.5 -376 -158.5c-154 0 -276.5 53.333 -367.5 160s-136.5 243.667 -136.5 411c0 170.667 45.667 308.667 137 414
s216.666 158 375.999 158c156.667 0 279.667 -52.833 369 -158.5s134 -243.167 134 -412.5z" />
    <glyph glyph-name="OE" unicode="&#x152;" horiz-adv-x="1980" 
d="M800 1524c72 0 138.333 -10 199 -30s110.334 -47 149.001 -81v82h726l-17 -154h-532v-496h496v-153h-496v-536h573l-15 -156h-735v82c-22.667 -24 -68.334 -47.5 -137.001 -70.5s-131.334 -34.5 -188.001 -34.5c-155.333 0 -287.666 33.667 -396.999 101
s-190.833 160 -244.5 278s-80.5 256.333 -80.5 415c3.33301 144 35 273.167 95 387.5s142.667 203.833 248 268.5s224 97 356 97zM1148 1259c-92.667 76 -203.67 113.998 -333.003 113.998c-158.667 0 -284.667 -55.5 -378 -166.5s-142 -255.5 -146 -433.5
c0 -73.333 5.83301 -141.166 17.5 -203.499s30.834 -120.666 57.501 -174.999s60.334 -100.833 101.001 -139.5s91.334 -69.167 152.001 -91.5s129 -33.833 205 -34.5c57.333 0 117.333 10.5 180 31.5s110.667 41.5 144 61.5v1037z" />
    <glyph glyph-name="oe" unicode="&#x153;" horiz-adv-x="1916" 
d="M1099 634h572.998v13c-2 110.667 -26.833 195.167 -74.5 253.5s-112.167 87.5 -193.5 87.5c-83.333 0 -152.666 -32 -207.999 -96s-87.666 -150 -96.999 -258zM589.998 113c57.333 0 107.829 12 151.496 36s78.167 56.5 103.5 97.5s44.333 86.833 57 137.5s19 105 19 163
c0 60.667 -6 116.5 -18 167.5s-30.667 97.333 -56 139s-60.166 74.167 -104.499 97.5s-96.166 35 -155.499 35c-46 0 -87.667 -8.16699 -125 -24.5s-68.666 -38.5 -93.999 -66.5s-46.666 -61 -63.999 -99s-29.833 -78 -37.5 -120s-11.5 -86 -11.5 -132
c0 -57.333 6.33301 -111 19 -161s32 -95.667 58 -137s61 -73.833 105 -97.5s95 -35.5 153 -35.5zM586.994 -25c-107.333 0 -199.668 25.998 -277.001 77.998s-134.666 120.5 -171.999 205.5s-56 181.167 -56 288.5c0 79.333 11.167 153.666 33.5 222.999
s54.166 130.333 95.499 183s94.666 94.334 159.999 125.001s138.333 46 219 46c97.333 0 180.833 -20.667 250.5 -62s124.5 -99 164.5 -173c40.667 70.667 97.334 126.834 170.001 168.501s152.334 63.834 239.001 66.501c134.667 0 238.334 -47.167 311.001 -141.5
s109 -223.833 109 -388.5c0 -5.33301 -0.333008 -17.5 -1 -36.5s-1 -31.833 -1 -38.5h-739c0 -121.333 31.667 -218.333 95 -291s144 -109 242 -109c70 0 131.167 10 183.5 30s103.166 46.667 152.499 80l52 -122c-102.667 -88 -233.667 -132 -393 -132
c-96 0 -180.333 20.333 -253 61s-130 99 -172 175c-42 -73.333 -97.833 -131 -167.5 -173s-151.5 -63 -245.5 -63z" />
    <glyph glyph-name="Racute" unicode="&#x154;" horiz-adv-x="1339" 
d="M1091 2015l-325 -388h-114l186 388h253zM324 1341l-0.000976562 -500c27.333 0 83.833 -0.666992 169.5 -2s151.834 -2 198.501 -2c127.333 0 216 21.167 266 63.5s75 109.5 75 201.5c0 80.667 -24 140.667 -72 180s-128.333 59 -241 59h-396zM1272 0
l-200.001 -0.000976562l-204 464c-55.333 124.667 -90.666 199.667 -105.999 225c-48.667 -3.33301 -106.334 -5 -173.001 -5l-265 8v-692h-177v1496h473c54.667 0 103 -1.33301 145 -4s83.833 -7.5 125.5 -14.5s77.834 -16.667 108.501 -29s59.334 -28.333 86.001 -48
s48.167 -43.167 64.5 -70.5s29.166 -59.833 38.499 -97.5s14 -80.167 14 -127.5c0 -93.333 -24.5 -173.666 -73.5 -240.999s-118.5 -114 -208.5 -140c0 -1.33301 6.66699 -13.333 20 -36l47.5 -83.5c18.333 -33 32.5 -60.5 42.5 -82.5z" />
    <glyph glyph-name="racute" unicode="&#x155;" horiz-adv-x="746" 
d="M815 1630l-325 -388h-114l186 388h253zM635 1107c30 0 57.333 -2 82 -6l-6 -154c-30.667 5.33301 -57.334 8 -80.001 8c-93.333 0 -169.166 -32.5 -227.499 -97.5s-87.5 -145.5 -87.5 -241.5v-616h-167c-0.666992 673.333 -1 1039 -1 1097h139l16 -197
c38 62 86.333 112 145 150s121 57 187 57z" />
    <glyph glyph-name="Rcommaaccent" unicode="&#x156;" horiz-adv-x="1339" 
d="M580 -620l94 498h166l-143 -498h-117zM324 1341l-0.000976562 -500c27.333 0 83.833 -0.666992 169.5 -2s151.834 -2 198.501 -2c127.333 0 216 21.167 266 63.5s75 109.5 75 201.5c0 80.667 -24 140.667 -72 180s-128.333 59 -241 59h-396zM1272 0
l-200.001 -0.000976562l-204 464c-55.333 124.667 -90.666 199.667 -105.999 225c-48.667 -3.33301 -106.334 -5 -173.001 -5l-265 8v-692h-177v1496h473c54.667 0 103 -1.33301 145 -4s83.833 -7.5 125.5 -14.5s77.834 -16.667 108.501 -29s59.334 -28.333 86.001 -48
s48.167 -43.167 64.5 -70.5s29.166 -59.833 38.499 -97.5s14 -80.167 14 -127.5c0 -93.333 -24.5 -173.666 -73.5 -240.999s-118.5 -114 -208.5 -140c0 -1.33301 6.66699 -13.333 20 -36l47.5 -83.5c18.333 -33 32.5 -60.5 42.5 -82.5z" />
    <glyph glyph-name="rcommaaccent" unicode="&#x157;" horiz-adv-x="746" 
d="M302 -620l94 498h166l-143 -498h-117zM635 1107c30 0 57.333 -2 82 -6l-6 -154c-30.667 5.33301 -57.334 8 -80.001 8c-93.333 0 -169.166 -32.5 -227.499 -97.5s-87.5 -145.5 -87.5 -241.5v-616h-167c-0.666992 673.333 -1 1039 -1 1097h139l16 -197
c38 62 86.333 112 145 150s121 57 187 57z" />
    <glyph glyph-name="Rcaron" unicode="&#x158;" horiz-adv-x="1339" 
d="M416 2015h131l161 -312l161 312h134l-187 -388h-213zM324 1341l-0.000976562 -500c27.333 0 83.833 -0.666992 169.5 -2s151.834 -2 198.501 -2c127.333 0 216 21.167 266 63.5s75 109.5 75 201.5c0 80.667 -24 140.667 -72 180s-128.333 59 -241 59h-396zM1272 0
l-200.001 -0.000976562l-204 464c-55.333 124.667 -90.666 199.667 -105.999 225c-48.667 -3.33301 -106.334 -5 -173.001 -5l-265 8v-692h-177v1496h473c54.667 0 103 -1.33301 145 -4s83.833 -7.5 125.5 -14.5s77.834 -16.667 108.501 -29s59.334 -28.333 86.001 -48
s48.167 -43.167 64.5 -70.5s29.166 -59.833 38.499 -97.5s14 -80.167 14 -127.5c0 -93.333 -24.5 -173.666 -73.5 -240.999s-118.5 -114 -208.5 -140c0 -1.33301 6.66699 -13.333 20 -36l47.5 -83.5c18.333 -33 32.5 -60.5 42.5 -82.5z" />
    <glyph glyph-name="rcaron" unicode="&#x159;" horiz-adv-x="746" 
d="M139 1630h131l161 -312l161 312h134l-187 -388h-213zM635 1107c30 0 57.333 -2 82 -6l-6 -154c-30.667 5.33301 -57.334 8 -80.001 8c-93.333 0 -169.166 -32.5 -227.499 -97.5s-87.5 -145.5 -87.5 -241.5v-616h-167c-0.666992 673.333 -1 1039 -1 1097h139l16 -197
c38 62 86.333 112 145 150s121 57 187 57z" />
    <glyph glyph-name="Sacute" unicode="&#x15a;" horiz-adv-x="1227" 
d="M1001 2035l-325 -388h-114l186 388h253zM146 244c154 -76 319 -114 495 -114c216.667 0 325 98.667 325 296c0 64 -17.167 115.833 -51.5 155.5s-96.833 70.834 -187.5 93.501l-294 74c-224.667 56.667 -337 176.667 -337 360c0 140.667 48.333 245.167 145 313.5
s230.334 102.5 401.001 102.5c89.333 0 173 -9.66699 251 -29s143.333 -45.333 196 -78l-50 -141c-44.667 24.667 -103.834 46.667 -177.501 66s-148.167 29 -223.5 29c-241.333 0 -362 -83.667 -362 -251c0 -56.667 18.5 -102.167 55.5 -136.5s92.5 -60.5 166.5 -78.5
l281 -68c120 -28.667 211 -74.5 273 -137.5s93 -152.5 93 -268.5c0 -150.667 -46.167 -264.167 -138.5 -340.5s-217.833 -114.5 -376.5 -114.5c-118.667 0 -224.167 12.167 -316.5 36.5s-165.5 53.166 -219.5 86.499z" />
    <glyph glyph-name="sacute" unicode="&#x15b;" horiz-adv-x="953" 
d="M867 1630l-325 -388h-114l186 388h253zM470 -23c-74.667 0 -143.502 8.00098 -206.502 24.001s-114.167 36.667 -153.5 62l21 141c111.333 -59.333 220.666 -89 327.999 -89c162.667 0 246.334 57.333 251.001 172c0 48.667 -17.333 87 -52 115s-102.667 59.333 -204 94
l-83 29c-96 32 -164.5 71.667 -205.5 119s-61.833 106.333 -62.5 177c0 86 34.5 157.333 103.5 214s163.5 85 283.5 85c124 0 237 -24 339 -72l-49 -128c-103.333 42.667 -200 64 -290 64c-70 0 -124.833 -13.833 -164.5 -41.5s-59.5 -66.5 -59.5 -116.5
c0 -42.667 14.333 -75.334 43 -98.001s86 -48.667 172 -78c22 -8 49.667 -17.333 83 -28c110.667 -36 189 -78.5 235 -127.5s69 -115.167 69 -198.5c-1.33301 -101.333 -37.666 -179.833 -108.999 -235.5s-167.666 -83.5 -288.999 -83.5z" />
    <glyph glyph-name="scircumflex" unicode="&#x15d;" horiz-adv-x="953" 
d="M192 1242l187 388h213l187 -388h-134l-161 272l-161 -272h-131zM470 -23c-74.667 0 -143.502 8.00098 -206.502 24.001s-114.167 36.667 -153.5 62l21 141c111.333 -59.333 220.666 -89 327.999 -89c162.667 0 246.334 57.333 251.001 172c0 48.667 -17.333 87 -52 115
s-102.667 59.333 -204 94l-83 29c-96 32 -164.5 71.667 -205.5 119s-61.833 106.333 -62.5 177c0 86 34.5 157.333 103.5 214s163.5 85 283.5 85c124 0 237 -24 339 -72l-49 -128c-103.333 42.667 -200 64 -290 64c-70 0 -124.833 -13.833 -164.5 -41.5
s-59.5 -66.5 -59.5 -116.5c0 -42.667 14.333 -75.334 43 -98.001s86 -48.667 172 -78c22 -8 49.667 -17.333 83 -28c110.667 -36 189 -78.5 235 -127.5s69 -115.167 69 -198.5c-1.33301 -101.333 -37.666 -179.833 -108.999 -235.5s-167.666 -83.5 -288.999 -83.5z" />
    <glyph glyph-name="Scedilla" unicode="&#x15e;" horiz-adv-x="1227" 
d="M618 -435h-154l112 426h86zM146 244c154 -76 319 -114 495 -114c216.667 0 325 98.667 325 296c0 64 -17.167 115.833 -51.5 155.5s-96.833 70.834 -187.5 93.501l-294 74c-224.667 56.667 -337 176.667 -337 360c0 140.667 48.333 245.167 145 313.5
s230.334 102.5 401.001 102.5c89.333 0 173 -9.66699 251 -29s143.333 -45.333 196 -78l-50 -141c-44.667 24.667 -103.834 46.667 -177.501 66s-148.167 29 -223.5 29c-241.333 0 -362 -83.667 -362 -251c0 -56.667 18.5 -102.167 55.5 -136.5s92.5 -60.5 166.5 -78.5
l281 -68c120 -28.667 211 -74.5 273 -137.5s93 -152.5 93 -268.5c0 -150.667 -46.167 -264.167 -138.5 -340.5s-217.833 -114.5 -376.5 -114.5c-118.667 0 -224.167 12.167 -316.5 36.5s-165.5 53.166 -219.5 86.499z" />
    <glyph glyph-name="scedilla" unicode="&#x15f;" horiz-adv-x="953" 
d="M484 -435h-154l112 426h86zM470 -23c-74.667 0 -143.502 8.00098 -206.502 24.001s-114.167 36.667 -153.5 62l21 141c111.333 -59.333 220.666 -89 327.999 -89c162.667 0 246.334 57.333 251.001 172c0 48.667 -17.333 87 -52 115s-102.667 59.333 -204 94l-83 29
c-96 32 -164.5 71.667 -205.5 119s-61.833 106.333 -62.5 177c0 86 34.5 157.333 103.5 214s163.5 85 283.5 85c124 0 237 -24 339 -72l-49 -128c-103.333 42.667 -200 64 -290 64c-70 0 -124.833 -13.833 -164.5 -41.5s-59.5 -66.5 -59.5 -116.5
c0 -42.667 14.333 -75.334 43 -98.001s86 -48.667 172 -78c22 -8 49.667 -17.333 83 -28c110.667 -36 189 -78.5 235 -127.5s69 -115.167 69 -198.5c-1.33301 -101.333 -37.666 -179.833 -108.999 -235.5s-167.666 -83.5 -288.999 -83.5z" />
    <glyph glyph-name="Scaron" unicode="&#x160;" horiz-adv-x="1227" 
d="M326 2035h131l161 -312l161 312h134l-187 -388h-213zM146 244c154 -76 319 -114 495 -114c216.667 0 325 98.667 325 296c0 64 -17.167 115.833 -51.5 155.5s-96.833 70.834 -187.5 93.501l-294 74c-224.667 56.667 -337 176.667 -337 360
c0 140.667 48.333 245.167 145 313.5s230.334 102.5 401.001 102.5c89.333 0 173 -9.66699 251 -29s143.333 -45.333 196 -78l-50 -141c-44.667 24.667 -103.834 46.667 -177.501 66s-148.167 29 -223.5 29c-241.333 0 -362 -83.667 -362 -251
c0 -56.667 18.5 -102.167 55.5 -136.5s92.5 -60.5 166.5 -78.5l281 -68c120 -28.667 211 -74.5 273 -137.5s93 -152.5 93 -268.5c0 -150.667 -46.167 -264.167 -138.5 -340.5s-217.833 -114.5 -376.5 -114.5c-118.667 0 -224.167 12.167 -316.5 36.5
s-165.5 53.166 -219.5 86.499z" />
    <glyph glyph-name="scaron" unicode="&#x161;" horiz-adv-x="953" 
d="M192 1630h131l161 -312l161 312h134l-187 -388h-213zM470 -23c-74.667 0 -143.502 8.00098 -206.502 24.001s-114.167 36.667 -153.5 62l21 141c111.333 -59.333 220.666 -89 327.999 -89c162.667 0 246.334 57.333 251.001 172c0 48.667 -17.333 87 -52 115
s-102.667 59.333 -204 94l-83 29c-96 32 -164.5 71.667 -205.5 119s-61.833 106.333 -62.5 177c0 86 34.5 157.333 103.5 214s163.5 85 283.5 85c124 0 237 -24 339 -72l-49 -128c-103.333 42.667 -200 64 -290 64c-70 0 -124.833 -13.833 -164.5 -41.5
s-59.5 -66.5 -59.5 -116.5c0 -42.667 14.333 -75.334 43 -98.001s86 -48.667 172 -78c22 -8 49.667 -17.333 83 -28c110.667 -36 189 -78.5 235 -127.5s69 -115.167 69 -198.5c-1.33301 -101.333 -37.666 -179.833 -108.999 -235.5s-167.666 -83.5 -288.999 -83.5z" />
    <glyph glyph-name="Tcommaaccent" unicode="&#x162;" horiz-adv-x="1099" 
d="M548 -412h-154l112 426h86zM636 0h-174v1326h-455v153h1084v-153h-455v-1326z" />
    <glyph glyph-name="tcommaaccent" unicode="&#x163;" horiz-adv-x="710" 
d="M350 -432h-154l112 426h86zM493 -20c-108 0 -184.666 26.333 -229.999 79s-69.333 137.667 -72 255v659h-163l7 110l155 14l57 251l110 4v-255h305v-124h-305v-629c0 -83.333 12.667 -142 38 -176s68.666 -51 129.999 -51c22 0 69.667 5.33301 143 16l7 -132
c-79.333 -14 -140 -21 -182 -21z" />
    <glyph glyph-name="Tcaron" unicode="&#x164;" horiz-adv-x="1099" 
d="M256 2015h131l161 -312l161 312h134l-187 -388h-213zM636 0h-174v1326h-455v153h1084v-153h-455v-1326z" />
    <glyph glyph-name="tcaron" unicode="&#x165;" horiz-adv-x="710" 
d="M858 840c2 19.333 7.83301 70.499 17.5 153.499s17.167 152.833 22.5 209.5s9.33301 106.334 12 149.001h197v-44c-32.667 -132 -80.667 -288 -144 -468h-105zM493 -20.001c-108 0 -184.666 26.333 -229.999 79s-69.333 137.667 -72 255v659h-163l7 110l155 14l57 251
l110 4v-255h305v-124h-305v-629c0 -83.333 12.667 -142 38 -176s68.666 -51 129.999 -51c22 0 69.667 5.33301 143 16l7 -132c-79.333 -14 -140 -21 -182 -21z" />
    <glyph glyph-name="Utilde" unicode="&#x168;" horiz-adv-x="1438" 
d="M435 1635l-81.998 55.001c23.333 65.333 50.666 111.666 81.999 138.999s67 41 107 41c30 0 65.5 -8 106.5 -24l120.5 -48c39.333 -16 72.666 -24 99.999 -24c55.333 0 97 32.667 125 98l86 -36c-23.333 -77.333 -51.833 -131.5 -85.5 -162.5s-72.167 -46.5 -115.5 -46.5
c-30.667 0 -66.667 7.66699 -108 23l-121.5 46.5c-39.667 15.667 -72.5 23.5 -98.5 23.5c-51.333 0 -90 -28.333 -116 -85zM1277 1479v-959.999c0 -170 -46.5 -302.667 -139.5 -398s-234.5 -143 -424.5 -143s-330.333 47.667 -421 143s-136 228.666 -136 399.999v958h174
v-961c0 -134 31.667 -232.667 95 -296s161.333 -95 294 -95c129.333 0 225.833 32 289.5 96s95.5 162.667 95.5 296v960h173z" />
    <glyph glyph-name="utilde" unicode="&#x169;" horiz-adv-x="1100" 
d="M268 1250l-81.998 55.001c23.333 65.333 50.666 111.666 81.999 138.999s67 41 107 41c30 0 65.5 -8 106.5 -24l120.5 -48c39.333 -16 72.666 -24 99.999 -24c55.333 0 97 32.667 125 98l86 -36c-23.333 -77.333 -51.833 -131.5 -85.5 -162.5s-72.167 -46.5 -115.5 -46.5
c-30.667 0 -66.667 7.66699 -108 23l-121.5 46.5c-39.667 15.667 -72.5 23.5 -98.5 23.5c-51.333 0 -90 -28.333 -116 -85zM105.002 366.001l-0.000976562 730.997h168v-733c0 -48 6.83301 -88.667 20.5 -122s33.334 -59.166 59.001 -77.499s54.667 -31.5 87 -39.5
s69.5 -12 111.5 -12c86.667 0 154.167 19 202.5 57s72.5 102.667 72.5 194v733h168v-731c0 -56 -8 -106.333 -24 -151s-37.5 -81.834 -64.5 -111.501s-59.5 -54.167 -97.5 -73.5s-78.167 -33.333 -120.5 -42s-87.833 -13 -136.5 -13c-48 0 -93.333 4.33301 -136 13
s-83.167 22.834 -121.5 42.501s-71.333 44.334 -99 74.001s-49.5 66.834 -65.5 111.501s-24 94.667 -24 150z" />
    <glyph glyph-name="Umacron" unicode="&#x16a;" horiz-adv-x="1438" 
d="M1072 1749v-122h-710v122h710zM1277 1479v-959.999c0 -170 -46.5 -302.667 -139.5 -398s-234.5 -143 -424.5 -143s-330.333 47.667 -421 143s-136 228.666 -136 399.999v958h174v-961c0 -134 31.667 -232.667 95 -296s161.333 -95 294 -95c129.333 0 225.833 32 289.5 96
s95.5 162.667 95.5 296v960h173z" />
    <glyph glyph-name="umacron" unicode="&#x16b;" horiz-adv-x="1100" 
d="M904 1364v-122h-710v122h710zM105 366l-0.000976562 730.997h168v-733c0 -48 6.83301 -88.667 20.5 -122s33.334 -59.166 59.001 -77.499s54.667 -31.5 87 -39.5s69.5 -12 111.5 -12c86.667 0 154.167 19 202.5 57s72.5 102.667 72.5 194v733h168v-731
c0 -56 -8 -106.333 -24 -151s-37.5 -81.834 -64.5 -111.501s-59.5 -54.167 -97.5 -73.5s-78.167 -33.333 -120.5 -42s-87.833 -13 -136.5 -13c-48 0 -93.333 4.33301 -136 13s-83.167 22.834 -121.5 42.501s-71.333 44.334 -99 74.001s-49.5 66.834 -65.5 111.501
s-24 94.667 -24 150z" />
    <glyph glyph-name="Ubreve" unicode="&#x16c;" horiz-adv-x="1438" 
d="M715 1627c-66.667 0 -124.833 22.6689 -174.5 68.002s-74.5 108.666 -74.5 189.999h116c0 -46 12.5 -81 37.5 -105s56.833 -36 95.5 -36s71 12 97 36s39 59 39 105h117c0 -80.667 -25.333 -143.834 -76 -189.501s-109.667 -68.5 -177 -68.5zM1277 1479v-959.999
c0 -170 -46.5 -302.667 -139.5 -398s-234.5 -143 -424.5 -143s-330.333 47.667 -421 143s-136 228.666 -136 399.999v958h174v-961c0 -134 31.667 -232.667 95 -296s161.333 -95 294 -95c129.333 0 225.833 32 289.5 96s95.5 162.667 95.5 296v960h173z" />
    <glyph glyph-name="ubreve" unicode="&#x16d;" horiz-adv-x="1100" 
d="M547 1242c-66.667 0 -124.833 22.6689 -174.5 68.002s-74.5 108.666 -74.5 189.999h116c0 -46 12.5 -81 37.5 -105s56.833 -36 95.5 -36s71 12 97 36s39 59 39 105h117c0 -80.667 -25.333 -143.834 -76 -189.501s-109.667 -68.5 -177 -68.5zM105.001 366.002
l-0.000976562 730.997h168v-733c0 -48 6.83301 -88.667 20.5 -122s33.334 -59.166 59.001 -77.499s54.667 -31.5 87 -39.5s69.5 -12 111.5 -12c86.667 0 154.167 19 202.5 57s72.5 102.667 72.5 194v733h168v-731c0 -56 -8 -106.333 -24 -151s-37.5 -81.834 -64.5 -111.501
s-59.5 -54.167 -97.5 -73.5s-78.167 -33.333 -120.5 -42s-87.833 -13 -136.5 -13c-48 0 -93.333 4.33301 -136 13s-83.167 22.834 -121.5 42.501s-71.333 44.334 -99 74.001s-49.5 66.834 -65.5 111.501s-24 94.667 -24 150z" />
    <glyph glyph-name="Uring" unicode="&#x16e;" horiz-adv-x="1438" 
d="M566 1880c0 -43.333 14.833 -80.168 44.5 -110.501s65.167 -45.5 106.5 -45.5s76.833 15.333 106.5 46s44.5 67.334 44.5 110.001c0 43.333 -14.833 80 -44.5 110s-65.167 45 -106.5 45s-76.833 -15 -106.5 -45s-44.5 -66.667 -44.5 -110zM467 1880
c0 68.667 24.5 127.667 73.5 177s107.5 74 175.5 74c68.667 0 127.5 -24.667 176.5 -74s73.5 -108.333 73.5 -177c0 -68 -24.333 -127.167 -73 -177.5s-107.667 -75.5 -177 -75.5c-68 0 -126.5 24.833 -175.5 74.5s-73.5 109.167 -73.5 178.5zM1277 1479v-959.999
c0 -170 -46.5 -302.667 -139.5 -398s-234.5 -143 -424.5 -143s-330.333 47.667 -421 143s-136 228.666 -136 399.999v958h174v-961c0 -134 31.667 -232.667 95 -296s161.333 -95 294 -95c129.333 0 225.833 32 289.5 96s95.5 162.667 95.5 296v960h173z" />
    <glyph glyph-name="uring" unicode="&#x16f;" horiz-adv-x="1100" 
d="M399 1495c0 -43.333 14.833 -80.168 44.5 -110.501s65.167 -45.5 106.5 -45.5s76.833 15.333 106.5 46s44.5 67.334 44.5 110.001c0 43.333 -14.833 80 -44.5 110s-65.167 45 -106.5 45s-76.833 -15 -106.5 -45s-44.5 -66.667 -44.5 -110zM300 1495
c0 68.667 24.5 127.667 73.5 177s107.5 74 175.5 74c68.667 0 127.5 -24.667 176.5 -74s73.5 -108.333 73.5 -177c0 -68 -24.333 -127.167 -73 -177.5s-107.667 -75.5 -177 -75.5c-68 0 -126.5 24.833 -175.5 74.5s-73.5 109.167 -73.5 178.5zM105 365.998
l-0.000976562 730.997h168v-733c0 -48 6.83301 -88.667 20.5 -122s33.334 -59.166 59.001 -77.499s54.667 -31.5 87 -39.5s69.5 -12 111.5 -12c86.667 0 154.167 19 202.5 57s72.5 102.667 72.5 194v733h168v-731c0 -56 -8 -106.333 -24 -151s-37.5 -81.834 -64.5 -111.501
s-59.5 -54.167 -97.5 -73.5s-78.167 -33.333 -120.5 -42s-87.833 -13 -136.5 -13c-48 0 -93.333 4.33301 -136 13s-83.167 22.834 -121.5 42.501s-71.333 44.334 -99 74.001s-49.5 66.834 -65.5 111.501s-24 94.667 -24 150z" />
    <glyph glyph-name="Uhungarumlaut" unicode="&#x170;" horiz-adv-x="1438" 
d="M900 1962l-252 -335h-99l198 335h153zM1134 1962l-250 -335h-102l202 335h150zM1277 1479v-959.999c0 -170 -46.5 -302.667 -139.5 -398s-234.5 -143 -424.5 -143s-330.333 47.667 -421 143s-136 228.666 -136 399.999v958h174v-961c0 -134 31.667 -232.667 95 -296
s161.333 -95 294 -95c129.333 0 225.833 32 289.5 96s95.5 162.667 95.5 296v960h173z" />
    <glyph glyph-name="uhungarumlaut" unicode="&#x171;" horiz-adv-x="1100" 
d="M733 1577l-252 -335h-99l198 335h153zM967 1577l-250 -335h-102l202 335h150zM105 366l-0.000976562 730.997h168v-733c0 -48 6.83301 -88.667 20.5 -122s33.334 -59.166 59.001 -77.499s54.667 -31.5 87 -39.5s69.5 -12 111.5 -12c86.667 0 154.167 19 202.5 57
s72.5 102.667 72.5 194v733h168v-731c0 -56 -8 -106.333 -24 -151s-37.5 -81.834 -64.5 -111.501s-59.5 -54.167 -97.5 -73.5s-78.167 -33.333 -120.5 -42s-87.833 -13 -136.5 -13c-48 0 -93.333 4.33301 -136 13s-83.167 22.834 -121.5 42.501s-71.333 44.334 -99 74.001
s-49.5 66.834 -65.5 111.501s-24 94.667 -24 150z" />
    <glyph glyph-name="Uogonek" unicode="&#x172;" horiz-adv-x="1438" 
d="M681 -316c38 0 83.667 11 137 33v-117c-50.667 -21.333 -103 -32 -157 -32c-56 0 -102.167 15.5 -138.5 46.5s-54.5 74.167 -54.5 129.5c0 91.333 63.667 174 191 248h114c-120 -88.667 -180 -161.667 -180 -219c0 -25.333 9.16699 -46.5 27.5 -63.5
s38.5 -25.5 60.5 -25.5zM1277 1479v-959.999c0 -170 -46.5 -302.667 -139.5 -398s-234.5 -143 -424.5 -143s-330.333 47.667 -421 143s-136 228.666 -136 399.999v958h174v-961c0 -134 31.667 -232.667 95 -296s161.333 -95 294 -95c129.333 0 225.833 32 289.5 96
s95.5 162.667 95.5 296v960h173z" />
    <glyph glyph-name="uogonek" unicode="&#x173;" horiz-adv-x="1100" 
d="M561 -319c38 0 83.667 11 137 33v-117c-50.667 -21.333 -103 -32 -157 -32c-56 0 -102.167 15.5 -138.5 46.5s-54.5 74.167 -54.5 129.5c0 91.333 63.667 174 191 248h114c-120 -88.667 -180 -161.667 -180 -219c0 -25.333 9.16699 -46.5 27.5 -63.5
s38.5 -25.5 60.5 -25.5zM105 366l-0.000976562 730.997h168v-733c0 -48 6.83301 -88.667 20.5 -122s33.334 -59.166 59.001 -77.499s54.667 -31.5 87 -39.5s69.5 -12 111.5 -12c86.667 0 154.167 19 202.5 57s72.5 102.667 72.5 194v733h168v-731
c0 -56 -8 -106.333 -24 -151s-37.5 -81.834 -64.5 -111.501s-59.5 -54.167 -97.5 -73.5s-78.167 -33.333 -120.5 -42s-87.833 -13 -136.5 -13c-48 0 -93.333 4.33301 -136 13s-83.167 22.834 -121.5 42.501s-71.333 44.334 -99 74.001s-49.5 66.834 -65.5 111.501
s-24 94.667 -24 150z" />
    <glyph glyph-name="Wcircumflex" unicode="&#x174;" horiz-adv-x="2013" 
d="M713 1627l187 388h213l187 -388h-134l-161 272l-161 -272h-131zM446 0l-446 1479h181l366 -1273l366 1246h195l355 -1247l369 1274h181l-452 -1479h-189l-360 1243l-378 -1243h-188z" />
    <glyph glyph-name="wcircumflex" unicode="&#x175;" horiz-adv-x="1606" 
d="M510 1242l187 388h213l187 -388h-134l-161 272l-161 -272h-131zM1090 0l-285.999 918.999c-20.667 -73.333 -44.334 -152.666 -71.001 -237.999l-70 -220l-78 -238l-73 -223h-180l-313 1097h173l235 -898l288 898h189c158.667 -502.667 252 -801 280 -895l232 895h171
l-316 -1097h-181z" />
    <glyph glyph-name="Ycircumflex" unicode="&#x176;" horiz-adv-x="1194" 
d="M304 1627l187 388h213l187 -388h-134l-161 272l-161 -272h-131zM591 754l416 725h188l-522 -889v-590h-175v586l-499 893h187z" />
    <glyph glyph-name="ycircumflex" unicode="&#x177;" horiz-adv-x="1022" 
d="M214 1242l187 388h213l187 -388h-134l-161 272l-161 -272h-131zM3 1097h177.001l346 -913l308 913h177c-296 -814.667 -449 -1234.67 -459 -1260c-46 -115.333 -101.667 -199.833 -167 -253.5s-151.333 -80.5 -258 -80.5c-32 0 -65.667 2.66699 -101 8l-10 142
c37.333 -2.66699 65.333 -4 84 -4c75.333 0 132.5 13.833 171.5 41.5s73.833 79.5 104.5 155.5c27.333 70 47.666 124 60.999 162z" />
    <glyph glyph-name="Ydieresis" unicode="&#x178;" horiz-adv-x="1194" 
d="M869 1627h-155v212h155v-212zM478 1627h-154v212h154v-212zM591 754l416 725h188l-522 -889v-590h-175v586l-499 893h187z" />
    <glyph glyph-name="Zacute" unicode="&#x179;" horiz-adv-x="1184" 
d="M984 2015l-325 -388h-114l186 388h253zM86 0v136l804 1189h-775v154h996v-129l-809 -1196h816l-6 -154h-1026z" />
    <glyph glyph-name="zacute" unicode="&#x17a;" horiz-adv-x="912" 
d="M848 1630l-325 -388h-114l186 388h253zM849 0h-766v126l561 839h-546v132h733v-132l-560 -833h578v-132z" />
    <glyph glyph-name="Zdotaccent" unicode="&#x17b;" horiz-adv-x="1184" 
d="M686 1825v-198h-168v198h168zM86 0v136l804 1189h-775v154h996v-129l-809 -1196h816l-6 -154h-1026z" />
    <glyph glyph-name="zdotaccent" unicode="&#x17c;" horiz-adv-x="912" 
d="M550 1440v-198h-168v198h168zM849 0h-766v126l561 839h-546v132h733v-132l-560 -833h578v-132z" />
    <glyph glyph-name="Zcaron" unicode="&#x17d;" horiz-adv-x="1184" 
d="M308 2015h131l161 -312l161 312h134l-187 -388h-213zM86 0v136l804 1189h-775v154h996v-129l-809 -1196h816l-6 -154h-1026z" />
    <glyph glyph-name="zcaron" unicode="&#x17e;" horiz-adv-x="912" 
d="M172 1630h131l161 -312l161 312h134l-187 -388h-213zM849 0h-766v126l561 839h-546v132h733v-132l-560 -833h578v-132z" />
    <glyph glyph-name="florin" unicode="&#x192;" horiz-adv-x="978" 
d="M257 895l7.99316 120.001h173l22 163c34.667 246 142.334 369 323.001 369c32.667 0 75.334 -7.33301 128.001 -22l-8 -156c-36 16 -68 24 -96 24c-49.333 0 -85 -13.333 -107 -40s-37.333 -68.667 -46 -126l-39 -212h186l-8 -120h-197l-136 -765
c-9.33301 -48.667 -18.166 -90.667 -26.499 -126s-19 -73.166 -32 -113.499s-27.833 -74.166 -44.5 -101.499s-36.167 -52.833 -58.5 -76.5s-48.666 -41.334 -78.999 -53.001s-63.833 -17.5 -100.5 -17.5c-19.333 0 -49.666 6.33301 -90.999 19l11 147
c29.333 -12 52.333 -18 69 -18c26.667 0 50.167 10.5 70.5 31.5s36 46.167 47 75.5s20.833 65.666 29.5 108.999c24.667 106.667 55.334 269.667 92.001 489s59.334 352.666 68.001 399.999h-158z" />
    <glyph glyph-name="uni01C4" unicode="&#x1c4;" horiz-adv-x="2686" 
d="M1810 2015h131l161 -312l161 312h134l-187 -388h-213zM1588 0v136l804 1189h-775v154h996v-129l-809 -1196h816l-6 -154h-1026zM1205 736c0 206.667 -53.334 357.001 -160.001 451.001s-262 141 -466 141h-232v-1177h261c194.667 0 342.834 49.167 444.501 147.5
s152.5 244.166 152.5 437.499zM1390 741.001c0 -240.667 -68.3311 -424.333 -204.998 -551s-327.334 -190 -572.001 -190h-439v1479h410c123.333 0 233.666 -14.5 330.999 -43.5s181.833 -73 253.5 -132s126.5 -136 164.5 -231s57 -205.5 57 -331.5z" />
    <glyph glyph-name="uni01C5" unicode="&#x1c5;" horiz-adv-x="2414" 
d="M1674 1630h131l161 -312l161 312h134l-187 -388h-213zM2351 0h-766v126l561 839h-546v132h733v-132l-560 -833h578v-132zM1205 736c0 206.667 -53.334 357.001 -160.001 451.001s-262 141 -466 141h-232v-1177h261c194.667 0 342.834 49.167 444.501 147.5
s152.5 244.166 152.5 437.499zM1390 741.001c0 -240.667 -68.3311 -424.333 -204.998 -551s-327.334 -190 -572.001 -190h-439v1479h410c123.333 0 233.666 -14.5 330.999 -43.5s181.833 -73 253.5 -132s126.5 -136 164.5 -231s57 -205.5 57 -331.5z" />
    <glyph glyph-name="uni01C6" unicode="&#x1c6;" horiz-adv-x="2123" 
d="M1383 1630h131l161 -312l161 312h134l-187 -388h-213zM2060 0h-766v126l561 839h-546v132h733v-132l-560 -833h578v-132zM571 121c110 0 191.831 35.333 245.498 106s80.5 171.667 80.5 303c0 148 -25.833 259.5 -77.5 334.5s-135.167 112.5 -250.5 112.5
c-51.333 0 -96.666 -11 -135.999 -33s-71 -52.667 -95 -92s-42.167 -84.5 -54.5 -135.5s-18.5 -106.833 -18.5 -167.5c0 -85.333 10.5 -159.333 31.5 -222s54.833 -112.667 101.5 -150s104.334 -56 173.001 -56zM899.998 159c-36 -55.333 -84 -99.332 -144 -131.999
s-127 -49 -201 -49c-144.667 0 -258 51.5 -340 154.5s-123 243.167 -123 420.5c0 169.333 41.667 306.166 125 410.499s195 156.5 335 156.5c72.667 0 141.167 -15.833 205.5 -47.5s112.5 -74.167 144.5 -127.5l-3 95v483l165 10v-1533h-142z" />
    <glyph glyph-name="uni01C7" unicode="&#x1c7;" horiz-adv-x="1571" 
d="M1247 181l0.00390625 1315h177v-1255c0 -48.667 -1 -89.667 -3 -123s-6 -67.166 -12 -101.499s-14.833 -62.5 -26.5 -84.5s-26.834 -43.167 -45.501 -63.5s-41.834 -36 -69.501 -47s-60.5 -19.667 -98.5 -26s-82 -9.5 -132 -9.5h-35l-21 142h74
c35.333 0 65.166 4.33301 89.499 13s43.166 19.5 56.499 32.5s23.5 31.5 30.5 55.5s11.333 46.5 13 67.5s2.5 49.167 2.5 84.5zM174.004 -0.000976562v1479h174v-1325h651l-6 -154h-819z" />
    <glyph glyph-name="uni01C8" unicode="&#x1c8;" horiz-adv-x="1466" 
d="M1351 1097v-1236c0 -70.667 -4.5 -127.667 -13.5 -171s-26 -80.166 -51 -110.499s-58.833 -51.5 -101.5 -63.5s-98.334 -18 -167.001 -18h-52l-22 151h52c26 0 48.5 1.5 67.5 4.5s35.333 6.83301 49 11.5s24.834 12.334 33.501 23.001s15.5 20.834 20.5 30.501
s8.66699 24.167 11 43.5s3.83301 36.666 4.5 51.999s1 37 1 65v1218h168zM1351 1496v-198h-168v198h168zM174 -0.00195312v1479h174v-1325h651l-6 -154h-819z" />
    <glyph glyph-name="uni01C9" unicode="&#x1c9;" horiz-adv-x="1014" 
d="M899 1097v-1236c0 -70.667 -4.5 -127.667 -13.5 -171s-26 -80.166 -51 -110.499s-58.833 -51.5 -101.5 -63.5s-98.334 -18 -167.001 -18h-52l-22 151h52c26 0 48.5 1.5 67.5 4.5s35.333 6.83301 49 11.5s24.834 12.334 33.501 23.001s15.5 20.834 20.5 30.501
s8.66699 24.167 11 43.5s3.83301 36.666 4.5 51.999s1 37 1 65v1218h168zM899 1496v-198h-168v198h168zM438 -20.002c-106.667 0 -182.168 28.6641 -226.501 85.9971s-66.5 157 -66.5 299v1158l166 10v-1102c0 -45.333 0.5 -81.666 1.5 -108.999s3.5 -54.166 7.5 -80.499
s9.33301 -46.166 16 -59.499s16.334 -25.5 29.001 -36.5s27.834 -18.333 45.501 -22s39.5 -5.5 65.5 -5.5c21.333 0 63.333 4 126 12l9 -133c-68.667 -11.333 -126.334 -17 -173.001 -17z" />
    <glyph glyph-name="uni01CA" unicode="&#x1ca;" horiz-adv-x="2066" 
d="M1742 181l0.00390625 1315h177v-1255c0 -48.667 -1 -89.667 -3 -123s-6 -67.166 -12 -101.499s-14.833 -62.5 -26.5 -84.5s-26.834 -43.167 -45.501 -63.5s-41.834 -36 -69.501 -47s-60.5 -19.667 -98.5 -26s-82 -9.5 -132 -9.5h-35l-21 142h74
c35.333 0 65.166 4.33301 89.499 13s43.166 19.5 56.499 32.5s23.5 31.5 30.5 55.5s11.333 46.5 13 67.5s2.5 49.167 2.5 84.5zM1342 -0.000976562h-196l-768 1164l-50 69c5.33301 -140 8 -265 8 -375v-858h-162v1479h193l770 -1164l51 -69
c-4.66699 212.667 -7 335.667 -7 369v864h161v-1479z" />
    <glyph glyph-name="uni01CB" unicode="&#x1cb;" horiz-adv-x="1961" 
d="M1846 1097v-1236c0 -70.667 -4.5 -127.667 -13.5 -171s-26 -80.166 -51 -110.499s-58.833 -51.5 -101.5 -63.5s-98.334 -18 -167.001 -18h-52l-22 151h52c26 0 48.5 1.5 67.5 4.5s35.333 6.83301 49 11.5s24.834 12.334 33.501 23.001s15.5 20.834 20.5 30.501
s8.66699 24.167 11 43.5s3.83301 36.666 4.5 51.999s1 37 1 65v1218h168zM1846 1496v-198h-168v198h168zM1342 -0.00195312h-196l-768 1164l-50 69c5.33301 -140 8 -265 8 -375v-858h-162v1479h193l770 -1164l51 -69c-4.66699 212.667 -7 335.667 -7 369v864h161v-1479z" />
    <glyph glyph-name="uni01CC" unicode="&#x1cc;" horiz-adv-x="1629" 
d="M1514 1097v-1236c0 -70.667 -4.5 -127.667 -13.5 -171s-26 -80.166 -51 -110.499s-58.833 -51.5 -101.5 -63.5s-98.334 -18 -167.001 -18h-52l-22 151h52c26 0 48.5 1.5 67.5 4.5s35.333 6.83301 49 11.5s24.834 12.334 33.501 23.001s15.5 20.834 20.5 30.501
s8.66699 24.167 11 43.5s3.83301 36.666 4.5 51.999s1 37 1 65v1218h168zM1514 1496v-198h-168v198h168zM143 -0.00195312l-0.00195312 1097h140l21 -157c43.333 54 97.5 97.5 162.5 130.5s135.167 49.5 210.5 49.5c126.667 0 220.334 -35.5 281.001 -106.5
s91 -180.167 91 -327.5v-686h-167c0 440 -0.333008 675.667 -1 707c-2.66699 93.333 -21.5 161.666 -56.5 204.999s-93.5 65 -175.5 65c-86 0 -157.667 -20.667 -215 -62s-94.666 -95 -111.999 -161c-6.66699 -44.667 -10 -96 -10 -154v-600h-169z" />
    <glyph glyph-name="uni01F1" unicode="&#x1f1;" horiz-adv-x="2686" 
d="M1588 0v136l804 1189h-775v154h996v-129l-809 -1196h816l-6 -154h-1026zM1205 736c0 206.667 -53.334 357.001 -160.001 451.001s-262 141 -466 141h-232v-1177h261c194.667 0 342.834 49.167 444.501 147.5s152.5 244.166 152.5 437.499zM1390 741.001
c0 -240.667 -68.3311 -424.333 -204.998 -551s-327.334 -190 -572.001 -190h-439v1479h410c123.333 0 233.666 -14.5 330.999 -43.5s181.833 -73 253.5 -132s126.5 -136 164.5 -231s57 -205.5 57 -331.5z" />
    <glyph glyph-name="uni01F2" unicode="&#x1f2;" horiz-adv-x="2414" 
d="M2351 0h-766v126l561 839h-546v132h733v-132l-560 -833h578v-132zM1205 736c0 206.667 -53.334 357.001 -160.001 451.001s-262 141 -466 141h-232v-1177h261c194.667 0 342.834 49.167 444.501 147.5s152.5 244.166 152.5 437.499zM1390 741.001
c0 -240.667 -68.3311 -424.333 -204.998 -551s-327.334 -190 -572.001 -190h-439v1479h410c123.333 0 233.666 -14.5 330.999 -43.5s181.833 -73 253.5 -132s126.5 -136 164.5 -231s57 -205.5 57 -331.5z" />
    <glyph glyph-name="uni01F3" unicode="&#x1f3;" horiz-adv-x="2123" 
d="M2060 0h-766v126l561 839h-546v132h733v-132l-560 -833h578v-132zM571 121c110 0 191.831 35.333 245.498 106s80.5 171.667 80.5 303c0 148 -25.833 259.5 -77.5 334.5s-135.167 112.5 -250.5 112.5c-51.333 0 -96.666 -11 -135.999 -33s-71 -52.667 -95 -92
s-42.167 -84.5 -54.5 -135.5s-18.5 -106.833 -18.5 -167.5c0 -85.333 10.5 -159.333 31.5 -222s54.833 -112.667 101.5 -150s104.334 -56 173.001 -56zM899.998 159c-36 -55.333 -84 -99.332 -144 -131.999s-127 -49 -201 -49c-144.667 0 -258 51.5 -340 154.5
s-123 243.167 -123 420.5c0 169.333 41.667 306.166 125 410.499s195 156.5 335 156.5c72.667 0 141.167 -15.833 205.5 -47.5s112.5 -74.167 144.5 -127.5l-3 95v483l165 10v-1533h-142z" />
    <glyph glyph-name="uni01F4" unicode="&#x1f4;" horiz-adv-x="1461" 
d="M1104 2015l-325 -388h-114l186 388h253zM819 -22c-112.667 0 -213.834 18.8301 -303.501 56.4971s-163.667 90.334 -222 158.001s-103 147.834 -134 240.501s-46.5 194.334 -46.5 305.001c0 149.333 28.333 281.333 85 396s141 205 253 271s244.667 99 398 99
c170 0 319.333 -38.667 448 -116l-66 -143c-124 71.333 -250.667 107 -380 107c-90 0 -170.5 -15.5 -241.5 -46.5s-129 -74 -174 -129s-79.333 -119.667 -103 -194s-35.5 -155.833 -35.5 -244.5c0 -188 46.833 -336.5 140.5 -445.5s231.834 -163.5 414.501 -163.5
c104 0 209.667 21 317 63v422h-349l6 151h505v-676c-84 -40 -165.167 -68.5 -243.5 -85.5s-167.833 -25.5 -268.5 -25.5z" />
    <glyph glyph-name="uni01F5" unicode="&#x1f5;" horiz-adv-x="1187" 
d="M943 1630l-325 -388h-114l186 388h253zM569 143c56.667 0 106.333 10.002 149 30.002s76 47.667 100 83s41.833 74.666 53.5 117.999s17.5 90.666 17.5 141.999v81c0 53.333 -6 102.5 -18 147.5s-30.5 85.333 -55.5 121s-58.333 63.5 -100 83.5s-90.167 30 -145.5 30
c-46 0 -87.833 -8.66699 -125.5 -26s-68.667 -40.166 -93 -68.499s-45 -61.333 -62 -99s-29.167 -75.834 -36.5 -114.501s-11 -77.667 -11 -117c0 -38.667 4 -77 12 -115s20.667 -75 38 -111s38.333 -67.5 63 -94.5s55.5 -48.833 92.5 -65.5s77.5 -25 121.5 -25z
M311.999 -501.998l-15.001 151.003h204c56.667 0 106 4 148 12s77 21.167 105 39.5s50.667 38.666 68 60.999s30.5 51.333 39.5 87s15 71 18 106s4.5 77.833 4.5 128.5v97c-40 -57.333 -86.333 -101.5 -139 -132.5s-119.667 -46.5 -201 -46.5
c-62.667 0 -120.5 10.833 -173.5 32.5s-97.667 50.5 -134 86.5s-67.333 77.667 -93 125s-44.334 96.333 -56.001 147s-17.5 101.667 -17.5 153c0 80 9.83301 154 29.5 222s48.834 128.667 87.501 182s89.5 95.166 152.5 125.499s135.167 45.5 216.5 45.5
c72 0 134.833 -13.833 188.5 -41.5s101.834 -70.167 144.501 -127.5v146h163v-1018c0 -46.667 -1.16699 -87.5 -3.5 -122.5s-8 -73.833 -17 -116.5s-21.167 -79.334 -36.5 -110.001s-36.833 -61.5 -64.5 -92.5s-60.667 -56 -99 -75s-85.833 -34.5 -142.5 -46.5
s-120.667 -18 -192 -18h-185z" />
    <glyph glyph-name="uni0200" unicode="&#x200;" horiz-adv-x="1302" 
d="M466 1627l-250 335h150l202 -335h-102zM734 1627l-247 335h151l198 -335h-102zM892 614c-140.667 408.667 -218.333 638.333 -233 689l-243 -689h476zM1121 -0.000976562l-173 469h-590l-179 -469h-176l568 1482h177l551 -1482h-178z" />
    <glyph glyph-name="uni0201" unicode="&#x201;" horiz-adv-x="1098" 
d="M339 1242l-250 335h150l202 -335h-102zM607 1242l-247 335h151l198 -335h-102zM460 112c79.333 0 149.167 21.835 209.5 65.502s99.166 102.5 116.499 176.5v185c-3.33301 0 -23.5 -1.66699 -60.5 -5s-61.167 -5.33301 -72.5 -6
c-144.667 -12.667 -245.5 -36.334 -302.5 -71.001s-85.5 -90.334 -85.5 -167.001c0 -58.667 17.333 -103 52 -133s82.334 -45 143.001 -45zM823.001 0.00195312c-10 42.667 -19.667 88.6689 -29 138.002c-60.667 -60.667 -117.667 -102.667 -171 -126s-116 -35 -188 -35
c-102.667 0 -185.167 26.833 -247.5 80.5s-93.5 130.834 -93.5 231.501c0 112 42.5 195 127.5 249s207.5 87.667 367.5 101c22 2 55.167 4.83301 99.5 8.5s77.5 6.5 99.5 8.5v97c0 77.333 -18 134.666 -54 171.999s-92.667 56 -170 56c-108 0 -217 -26.667 -327 -80
c-3.33301 8 -12 31.167 -26 69.5s-21.333 58.166 -22 59.499c48.667 27.333 106.5 49.166 173.5 65.499s135.167 24.5 204.5 24.5c136.667 0 235.167 -29.833 295.5 -89.5s90.5 -161.167 90.5 -304.5v-726h-130z" />
    <glyph glyph-name="uni0202" unicode="&#x202;" horiz-adv-x="1302" 
d="M649 1885c67.333 0 126.332 -22.8311 176.999 -68.498s76 -108.834 76 -189.501h-117c0 46 -13 81 -39 105s-58.333 36 -97 36s-70.5 -12 -95.5 -36s-37.5 -59 -37.5 -105h-116c0 81.333 24.833 144.666 74.5 189.999s107.834 68 174.501 68zM891.999 614.002
c-140.667 408.667 -218.333 638.333 -233 689l-243 -689h476zM1121 0.000976562l-173 469h-590l-179 -469h-176l568 1482h177l551 -1482h-178z" />
    <glyph glyph-name="uni0203" unicode="&#x203;" horiz-adv-x="1098" 
d="M521 1500c67.333 0 126.332 -22.8311 176.999 -68.498s76 -108.834 76 -189.501h-117c0 46 -13 81 -39 105s-58.333 36 -97 36s-70.5 -12 -95.5 -36s-37.5 -59 -37.5 -105h-116c0 81.333 24.833 144.666 74.5 189.999s107.834 68 174.501 68zM459.999 112.002
c79.333 0 149.167 21.835 209.5 65.502s99.166 102.5 116.499 176.5v185c-3.33301 0 -23.5 -1.66699 -60.5 -5s-61.167 -5.33301 -72.5 -6c-144.667 -12.667 -245.5 -36.334 -302.5 -71.001s-85.5 -90.334 -85.5 -167.001c0 -58.667 17.333 -103 52 -133
s82.334 -45 143.001 -45zM823 0.00390625c-10 42.667 -19.667 88.6689 -29 138.002c-60.667 -60.667 -117.667 -102.667 -171 -126s-116 -35 -188 -35c-102.667 0 -185.167 26.833 -247.5 80.5s-93.5 130.834 -93.5 231.501c0 112 42.5 195 127.5 249
s207.5 87.667 367.5 101c22 2 55.167 4.83301 99.5 8.5s77.5 6.5 99.5 8.5v97c0 77.333 -18 134.666 -54 171.999s-92.667 56 -170 56c-108 0 -217 -26.667 -327 -80c-3.33301 8 -12 31.167 -26 69.5s-21.333 58.166 -22 59.499c48.667 27.333 106.5 49.166 173.5 65.499
s135.167 24.5 204.5 24.5c136.667 0 235.167 -29.833 295.5 -89.5s90.5 -161.167 90.5 -304.5v-726h-130z" />
    <glyph glyph-name="uni0204" unicode="&#x204;" horiz-adv-x="1143" 
d="M421 1627l-250 335h150l202 -335h-102zM689 1627l-247 335h151l198 -335h-102zM174 0v1479h848l-7 -153h-668v-484h635v-151h-635v-538h690l-8 -153h-855z" />
    <glyph glyph-name="uni0205" unicode="&#x205;" horiz-adv-x="1108" 
d="M371 1242l-250 335h150l202 -335h-102zM639 1242l-247 335h151l198 -335h-102zM574 982c-85.333 0 -155 -30.167 -209 -90.5s-85.667 -142.833 -95 -247.5h579c0 108.667 -24.5 192.167 -73.5 250.5s-116.167 87.5 -201.5 87.5zM607 -23
c-159.333 0 -284.833 50.667 -376.5 152s-137.5 240 -137.5 416c0 170 44.333 307.833 133 413.5s205.334 159.5 350.001 161.5c136 0 243.833 -46.5 323.5 -139.5s119.5 -217.167 119.5 -372.5c0 -8 -0.166992 -22.667 -0.5 -44s-0.5 -36.666 -0.5 -45.999h-753
c2 -124.667 34.167 -221.834 96.5 -291.501s146.166 -104.5 251.499 -104.5c116 0 232.333 30.667 349 92l26 -135c-111.333 -68 -238.333 -102 -381 -102z" />
    <glyph glyph-name="uni0206" unicode="&#x206;" horiz-adv-x="1143" 
d="M603 1885c67.333 0 126.332 -22.8311 176.999 -68.498s76 -108.834 76 -189.501h-117c0 46 -13 81 -39 105s-58.333 36 -97 36s-70.5 -12 -95.5 -36s-37.5 -59 -37.5 -105h-116c0 81.333 24.833 144.666 74.5 189.999s107.834 68 174.501 68zM173.999 0.00195312v1479
h848l-7 -153h-668v-484h635v-151h-635v-538h690l-8 -153h-855z" />
    <glyph glyph-name="uni0207" unicode="&#x207;" horiz-adv-x="1108" 
d="M554 1500c67.333 0 126.332 -22.8311 176.999 -68.498s76 -108.834 76 -189.501h-117c0 46 -13 81 -39 105s-58.333 36 -97 36s-70.5 -12 -95.5 -36s-37.5 -59 -37.5 -105h-116c0 81.333 24.833 144.666 74.5 189.999s107.834 68 174.501 68zM573.999 982.002
c-85.333 0 -155 -30.167 -209 -90.5s-85.667 -142.833 -95 -247.5h579c0 108.667 -24.5 192.167 -73.5 250.5s-116.167 87.5 -201.5 87.5zM606.999 -22.998c-159.333 0 -284.833 50.667 -376.5 152s-137.5 240 -137.5 416c0 170 44.333 307.833 133 413.5
s205.334 159.5 350.001 161.5c136 0 243.833 -46.5 323.5 -139.5s119.5 -217.167 119.5 -372.5c0 -8 -0.166992 -22.667 -0.5 -44s-0.5 -36.666 -0.5 -45.999h-753c2 -124.667 34.167 -221.834 96.5 -291.501s146.166 -104.5 251.499 -104.5c116 0 232.333 30.667 349 92
l26 -135c-111.333 -68 -238.333 -102 -381 -102z" />
    <glyph glyph-name="uni0208" unicode="&#x208;" horiz-adv-x="540" 
d="M83 1627l-250 335h150l202 -335h-102zM351 1627l-247 335h151l198 -335h-102zM355 0h-173v1479h173v-1479z" />
    <glyph glyph-name="uni0209" unicode="&#x209;" horiz-adv-x="430" 
d="M35 1242l-250 335h150l202 -335h-102zM303 1242l-247 335h151l198 -335h-102zM304 1098v-1098h-169v1098h169z" />
    <glyph glyph-name="uni020A" unicode="&#x20a;" horiz-adv-x="540" 
d="M267 1885c67.333 0 126.332 -22.8311 176.999 -68.498s76 -108.834 76 -189.501h-117c0 46 -13 81 -39 105s-58.333 36 -97 36s-70.5 -12 -95.5 -36s-37.5 -59 -37.5 -105h-116c0 81.333 24.833 144.666 74.5 189.999s107.834 68 174.501 68zM354.999 0.00195312h-173
v1479h173v-1479z" />
    <glyph glyph-name="uni020B" unicode="&#x20b;" horiz-adv-x="430" 
d="M217 1500c67.333 0 126.332 -22.8311 176.999 -68.498s76 -108.834 76 -189.501h-117c0 46 -13 81 -39 105s-58.333 36 -97 36s-70.5 -12 -95.5 -36s-37.5 -59 -37.5 -105h-116c0 81.333 24.833 144.666 74.5 189.999s107.834 68 174.501 68zM303.999 1098v-1098h-169
v1098h169z" />
    <glyph glyph-name="uni020C" unicode="&#x20c;" 
d="M628 1627l-250 335h150l202 -335h-102zM896 1627l-247 335h151l198 -335h-102zM296 739c0 -190 43.668 -339.167 131.001 -447.5s216.333 -162.5 387 -162.5s299.167 54 385.5 162s129.5 257.333 129.5 448c0 194.667 -43.5 345.667 -130.5 453s-214.833 161 -383.5 161
s-297.334 -53.667 -386.001 -161s-133 -258.333 -133 -453zM1514 739c0 -112.667 -15.501 -215.669 -46.501 -309.002s-75.667 -173.5 -134 -240.5s-131.833 -119 -220.5 -156s-188.334 -55.5 -299.001 -55.5c-149.333 0 -277.166 31.833 -383.499 95.5
s-186 152.334 -239 266.001s-79.5 247.167 -79.5 400.5c0 236.667 61.667 423.334 185 560.001s296 205 518 205c218.667 0 389.834 -68.833 513.501 -206.5s185.5 -324.167 185.5 -559.5z" />
    <glyph glyph-name="uni020D" unicode="&#x20d;" horiz-adv-x="1201" 
d="M415 1242l-250 335h150l202 -335h-102zM683 1242l-247 335h151l198 -335h-102zM265 546c0 -130 28.8311 -234.167 86.498 -312.5s141.834 -117.5 252.501 -117.5c109.333 0 191.833 39 247.5 117s83.5 183 83.5 315c0 134 -27.5 239.5 -82.5 316.5
s-138.833 115.5 -251.5 115.5c-109.333 0 -192.666 -39.333 -249.999 -118s-86 -184 -86 -316zM1108 549c0 -170 -45.332 -307.833 -135.999 -413.5s-216 -158.5 -376 -158.5c-154 0 -276.5 53.333 -367.5 160s-136.5 243.667 -136.5 411c0 170.667 45.667 308.667 137 414
s216.666 158 375.999 158c156.667 0 279.667 -52.833 369 -158.5s134 -243.167 134 -412.5z" />
    <glyph glyph-name="uni020E" unicode="&#x20e;" 
d="M811 1885c67.333 0 126.332 -22.8311 176.999 -68.498s76 -108.834 76 -189.501h-117c0 46 -13 81 -39 105s-58.333 36 -97 36s-70.5 -12 -95.5 -36s-37.5 -59 -37.5 -105h-116c0 81.333 24.833 144.666 74.5 189.999s107.834 68 174.501 68zM295.999 739.002
c0 -190 43.668 -339.167 131.001 -447.5s216.333 -162.5 387 -162.5s299.167 54 385.5 162s129.5 257.333 129.5 448c0 194.667 -43.5 345.667 -130.5 453s-214.833 161 -383.5 161s-297.334 -53.667 -386.001 -161s-133 -258.333 -133 -453zM1514 739.002
c0 -112.667 -15.501 -215.669 -46.501 -309.002s-75.667 -173.5 -134 -240.5s-131.833 -119 -220.5 -156s-188.334 -55.5 -299.001 -55.5c-149.333 0 -277.166 31.833 -383.499 95.5s-186 152.334 -239 266.001s-79.5 247.167 -79.5 400.5
c0 236.667 61.667 423.334 185 560.001s296 205 518 205c218.667 0 389.834 -68.833 513.501 -206.5s185.5 -324.167 185.5 -559.5z" />
    <glyph glyph-name="uni020F" unicode="&#x20f;" horiz-adv-x="1201" 
d="M598 1500c67.333 0 126.332 -22.8311 176.999 -68.498s76 -108.834 76 -189.501h-117c0 46 -13 81 -39 105s-58.333 36 -97 36s-70.5 -12 -95.5 -36s-37.5 -59 -37.5 -105h-116c0 81.333 24.833 144.666 74.5 189.999s107.834 68 174.501 68zM264.999 546.002
c0 -130 28.8311 -234.167 86.498 -312.5s141.834 -117.5 252.501 -117.5c109.333 0 191.833 39 247.5 117s83.5 183 83.5 315c0 134 -27.5 239.5 -82.5 316.5s-138.833 115.5 -251.5 115.5c-109.333 0 -192.666 -39.333 -249.999 -118s-86 -184 -86 -316zM1108 549.002
c0 -170 -45.332 -307.833 -135.999 -413.5s-216 -158.5 -376 -158.5c-154 0 -276.5 53.333 -367.5 160s-136.5 243.667 -136.5 411c0 170.667 45.667 308.667 137 414s216.666 158 375.999 158c156.667 0 279.667 -52.833 369 -158.5s134 -243.167 134 -412.5z" />
    <glyph glyph-name="uni0210" unicode="&#x210;" horiz-adv-x="1339" 
d="M525 1627l-250 335h150l202 -335h-102zM793 1627l-247 335h151l198 -335h-102zM324 1341l-0.000976562 -500c27.333 0 83.833 -0.666992 169.5 -2s151.834 -2 198.501 -2c127.333 0 216 21.167 266 63.5s75 109.5 75 201.5c0 80.667 -24 140.667 -72 180
s-128.333 59 -241 59h-396zM1272 0l-200.001 -0.000976562l-204 464c-55.333 124.667 -90.666 199.667 -105.999 225c-48.667 -3.33301 -106.334 -5 -173.001 -5l-265 8v-692h-177v1496h473c54.667 0 103 -1.33301 145 -4s83.833 -7.5 125.5 -14.5
s77.834 -16.667 108.501 -29s59.334 -28.333 86.001 -48s48.167 -43.167 64.5 -70.5s29.166 -59.833 38.499 -97.5s14 -80.167 14 -127.5c0 -93.333 -24.5 -173.666 -73.5 -240.999s-118.5 -114 -208.5 -140c0 -1.33301 6.66699 -13.333 20 -36l47.5 -83.5
c18.333 -33 32.5 -60.5 42.5 -82.5z" />
    <glyph glyph-name="uni0211" unicode="&#x211;" horiz-adv-x="746" 
d="M247 1242l-250 335h150l202 -335h-102zM515 1242l-247 335h151l198 -335h-102zM635 1107c30 0 57.333 -2 82 -6l-6 -154c-30.667 5.33301 -57.334 8 -80.001 8c-93.333 0 -169.166 -32.5 -227.499 -97.5s-87.5 -145.5 -87.5 -241.5v-616h-167
c-0.666992 673.333 -1 1039 -1 1097h139l16 -197c38 62 86.333 112 145 150s121 57 187 57z" />
    <glyph glyph-name="uni0212" unicode="&#x212;" horiz-adv-x="1339" 
d="M707 1885c67.333 0 126.332 -22.8311 176.999 -68.498s76 -108.834 76 -189.501h-117c0 46 -13 81 -39 105s-58.333 36 -97 36s-70.5 -12 -95.5 -36s-37.5 -59 -37.5 -105h-116c0 81.333 24.833 144.666 74.5 189.999s107.834 68 174.501 68zM323.999 1341
l-0.000976562 -500c27.333 0 83.833 -0.666992 169.5 -2s151.834 -2 198.501 -2c127.333 0 216 21.167 266 63.5s75 109.5 75 201.5c0 80.667 -24 140.667 -72 180s-128.333 59 -241 59h-396zM1272 0.00195312l-200.001 -0.000976562l-204 464
c-55.333 124.667 -90.666 199.667 -105.999 225c-48.667 -3.33301 -106.334 -5 -173.001 -5l-265 8v-692h-177v1496h473c54.667 0 103 -1.33301 145 -4s83.833 -7.5 125.5 -14.5s77.834 -16.667 108.501 -29s59.334 -28.333 86.001 -48s48.167 -43.167 64.5 -70.5
s29.166 -59.833 38.499 -97.5s14 -80.167 14 -127.5c0 -93.333 -24.5 -173.666 -73.5 -240.999s-118.5 -114 -208.5 -140c0 -1.33301 6.66699 -13.333 20 -36l47.5 -83.5c18.333 -33 32.5 -60.5 42.5 -82.5z" />
    <glyph glyph-name="uni0213" unicode="&#x213;" horiz-adv-x="746" 
d="M431 1500c67.333 0 126.332 -22.8311 176.999 -68.498s76 -108.834 76 -189.501h-117c0 46 -13 81 -39 105s-58.333 36 -97 36s-70.5 -12 -95.5 -36s-37.5 -59 -37.5 -105h-116c0 81.333 24.833 144.666 74.5 189.999s107.834 68 174.501 68zM634.999 1107
c30 0 57.333 -2 82 -6l-6 -154c-30.667 5.33301 -57.334 8 -80.001 8c-93.333 0 -169.166 -32.5 -227.499 -97.5s-87.5 -145.5 -87.5 -241.5v-616h-167c-0.666992 673.333 -1 1039 -1 1097h139l16 -197c38 62 86.333 112 145 150s121 57 187 57z" />
    <glyph glyph-name="uni0214" unicode="&#x214;" horiz-adv-x="1438" 
d="M531 1627l-250 335h150l202 -335h-102zM799 1627l-247 335h151l198 -335h-102zM1277 1479v-959.999c0 -170 -46.5 -302.667 -139.5 -398s-234.5 -143 -424.5 -143s-330.333 47.667 -421 143s-136 228.666 -136 399.999v958h174v-961c0 -134 31.667 -232.667 95 -296
s161.333 -95 294 -95c129.333 0 225.833 32 289.5 96s95.5 162.667 95.5 296v960h173z" />
    <glyph glyph-name="uni0215" unicode="&#x215;" horiz-adv-x="1100" 
d="M365 1242l-250 335h150l202 -335h-102zM633 1242l-247 335h151l198 -335h-102zM105 366l-0.000976562 730.997h168v-733c0 -48 6.83301 -88.667 20.5 -122s33.334 -59.166 59.001 -77.499s54.667 -31.5 87 -39.5s69.5 -12 111.5 -12c86.667 0 154.167 19 202.5 57
s72.5 102.667 72.5 194v733h168v-731c0 -56 -8 -106.333 -24 -151s-37.5 -81.834 -64.5 -111.501s-59.5 -54.167 -97.5 -73.5s-78.167 -33.333 -120.5 -42s-87.833 -13 -136.5 -13c-48 0 -93.333 4.33301 -136 13s-83.167 22.834 -121.5 42.501s-71.333 44.334 -99 74.001
s-49.5 66.834 -65.5 111.501s-24 94.667 -24 150z" />
    <glyph glyph-name="uni0216" unicode="&#x216;" horiz-adv-x="1438" 
d="M715 1885c67.333 0 126.332 -22.8311 176.999 -68.498s76 -108.834 76 -189.501h-117c0 46 -13 81 -39 105s-58.333 36 -97 36s-70.5 -12 -95.5 -36s-37.5 -59 -37.5 -105h-116c0 81.333 24.833 144.666 74.5 189.999s107.834 68 174.501 68zM1277 1479v-959.999
c0 -170 -46.5 -302.667 -139.5 -398s-234.5 -143 -424.5 -143s-330.333 47.667 -421 143s-136 228.666 -136 399.999v958h174v-961c0 -134 31.667 -232.667 95 -296s161.333 -95 294 -95c129.333 0 225.833 32 289.5 96s95.5 162.667 95.5 296v960h173z" />
    <glyph glyph-name="uni0217" unicode="&#x217;" horiz-adv-x="1100" 
d="M547 1500c67.333 0 126.332 -22.8311 176.999 -68.498s76 -108.834 76 -189.501h-117c0 46 -13 81 -39 105s-58.333 36 -97 36s-70.5 -12 -95.5 -36s-37.5 -59 -37.5 -105h-116c0 81.333 24.833 144.666 74.5 189.999s107.834 68 174.501 68zM104.999 366.002
l-0.000976562 730.997h168v-733c0 -48 6.83301 -88.667 20.5 -122s33.334 -59.166 59.001 -77.499s54.667 -31.5 87 -39.5s69.5 -12 111.5 -12c86.667 0 154.167 19 202.5 57s72.5 102.667 72.5 194v733h168v-731c0 -56 -8 -106.333 -24 -151s-37.5 -81.834 -64.5 -111.501
s-59.5 -54.167 -97.5 -73.5s-78.167 -33.333 -120.5 -42s-87.833 -13 -136.5 -13c-48 0 -93.333 4.33301 -136 13s-83.167 22.834 -121.5 42.501s-71.333 44.334 -99 74.001s-49.5 66.834 -65.5 111.501s-24 94.667 -24 150z" />
    <glyph glyph-name="Scommaaccent" unicode="&#x218;" horiz-adv-x="1227" 
d="M490 -643l94 498h166l-143 -498h-117zM146 244c154 -76 319 -114 495 -114c216.667 0 325 98.667 325 296c0 64 -17.167 115.833 -51.5 155.5s-96.833 70.834 -187.5 93.501l-294 74c-224.667 56.667 -337 176.667 -337 360c0 140.667 48.333 245.167 145 313.5
s230.334 102.5 401.001 102.5c89.333 0 173 -9.66699 251 -29s143.333 -45.333 196 -78l-50 -141c-44.667 24.667 -103.834 46.667 -177.501 66s-148.167 29 -223.5 29c-241.333 0 -362 -83.667 -362 -251c0 -56.667 18.5 -102.167 55.5 -136.5s92.5 -60.5 166.5 -78.5
l281 -68c120 -28.667 211 -74.5 273 -137.5s93 -152.5 93 -268.5c0 -150.667 -46.167 -264.167 -138.5 -340.5s-217.833 -114.5 -376.5 -114.5c-118.667 0 -224.167 12.167 -316.5 36.5s-165.5 53.166 -219.5 86.499z" />
    <glyph glyph-name="scommaaccent" unicode="&#x219;" horiz-adv-x="953" 
d="M356 -643l94 498h166l-143 -498h-117zM470 -23c-74.667 0 -143.502 8.00098 -206.502 24.001s-114.167 36.667 -153.5 62l21 141c111.333 -59.333 220.666 -89 327.999 -89c162.667 0 246.334 57.333 251.001 172c0 48.667 -17.333 87 -52 115s-102.667 59.333 -204 94
l-83 29c-96 32 -164.5 71.667 -205.5 119s-61.833 106.333 -62.5 177c0 86 34.5 157.333 103.5 214s163.5 85 283.5 85c124 0 237 -24 339 -72l-49 -128c-103.333 42.667 -200 64 -290 64c-70 0 -124.833 -13.833 -164.5 -41.5s-59.5 -66.5 -59.5 -116.5
c0 -42.667 14.333 -75.334 43 -98.001s86 -48.667 172 -78c22 -8 49.667 -17.333 83 -28c110.667 -36 189 -78.5 235 -127.5s69 -115.167 69 -198.5c-1.33301 -101.333 -37.666 -179.833 -108.999 -235.5s-167.666 -83.5 -288.999 -83.5z" />
    <glyph glyph-name="uni021A" unicode="&#x21a;" horiz-adv-x="1099" 
d="M419 -620l94 498h166l-143 -498h-117zM636 0h-174v1326h-455v153h1084v-153h-455v-1326z" />
    <glyph glyph-name="uni021B" unicode="&#x21b;" horiz-adv-x="710" 
d="M222 -640l94 498h166l-143 -498h-117zM493 -20c-108 0 -184.666 26.333 -229.999 79s-69.333 137.667 -72 255v659h-163l7 110l155 14l57 251l110 4v-255h305v-124h-305v-629c0 -83.333 12.667 -142 38 -176s68.666 -51 129.999 -51c22 0 69.667 5.33301 143 16l7 -132
c-79.333 -14 -140 -21 -182 -21z" />
    <glyph glyph-name="uni0237" unicode="&#x237;" horiz-adv-x="444" 
d="M330 1098v-1237c0 -70.667 -4.5 -127.667 -13.5 -171s-26 -80.166 -51 -110.499s-58.833 -51.5 -101.5 -63.5s-98.334 -18 -167.001 -18h-52l-22 151h52c26 0 48.5 1.5 67.5 4.5s35.333 6.83301 49 11.5s24.834 12.334 33.501 23.001s15.5 20.834 20.5 30.501
s8.66699 24.167 11 43.5s3.83301 36.666 4.5 51.999s1 37 1 65v1219h168z" />
    <glyph glyph-name="circumflex" unicode="&#x2c6;" horiz-adv-x="800" 
d="M108 1251l187 388h213l187 -388h-134l-161 272l-161 -272h-131z" />
    <glyph glyph-name="caron" unicode="&#x2c7;" horiz-adv-x="800" 
d="M108 1639h131l161 -312l161 312h134l-187 -388h-213z" />
    <glyph glyph-name="breve" unicode="&#x2d8;" horiz-adv-x="754" 
d="M377 1299c-66.667 0 -124.833 22.6689 -174.5 68.002s-74.5 108.666 -74.5 189.999h116c0 -46 12.5 -81 37.5 -105s56.833 -36 95.5 -36s71 12 97 36s39 59 39 105h117c0 -80.667 -25.333 -143.834 -76 -189.501s-109.667 -68.5 -177 -68.5z" />
    <glyph glyph-name="dotaccent" unicode="&#x2d9;" horiz-adv-x="433" 
d="M84 300v-198h-168v198h168z" />
    <glyph glyph-name="ring" unicode="&#x2da;" horiz-adv-x="433" 
d="M66 418c0 -43.333 14.833 -80.168 44.5 -110.501s65.167 -45.5 106.5 -45.5s76.833 15.333 106.5 46s44.5 67.334 44.5 110.001c0 43.333 -14.833 80 -44.5 110s-65.167 45 -106.5 45s-76.833 -15 -106.5 -45s-44.5 -66.667 -44.5 -110zM-33 417.998
c0 68.667 24.5 127.667 73.5 177s107.5 74 175.5 74c68.667 0 127.5 -24.667 176.5 -74s73.5 -108.333 73.5 -177c0 -68 -24.333 -127.167 -73 -177.5s-107.667 -75.5 -177 -75.5c-68 0 -126.5 24.833 -175.5 74.5s-73.5 109.167 -73.5 178.5z" />
    <glyph glyph-name="ogonek" unicode="&#x2db;" horiz-adv-x="590" 
d="M331 -303c38 0 83.667 11 137 33v-117c-50.667 -21.333 -103 -32 -157 -32c-56 0 -102.167 15.5 -138.5 46.5s-54.5 74.167 -54.5 129.5c0 91.333 63.667 174 191 248h114c-120 -88.667 -180 -161.667 -180 -219c0 -25.333 9.16699 -46.5 27.5 -63.5
s38.5 -25.5 60.5 -25.5z" />
    <glyph glyph-name="tilde" unicode="&#x2dc;" horiz-adv-x="1257" 
d="M347 122l-81.998 55.001c23.333 65.333 50.666 111.666 81.999 138.999s67 41 107 41c30 0 65.5 -8 106.5 -24l120.5 -48c39.333 -16 72.666 -24 99.999 -24c55.333 0 97 32.667 125 98l86 -36c-23.333 -77.333 -51.833 -131.5 -85.5 -162.5s-72.167 -46.5 -115.5 -46.5
c-30.667 0 -66.667 7.66699 -108 23l-121.5 46.5c-39.667 15.667 -72.5 23.5 -98.5 23.5c-51.333 0 -90 -28.333 -116 -85z" />
    <glyph glyph-name="hungarumlaut" unicode="&#x2dd;" horiz-adv-x="817" 
d="M479 1594l-252 -335h-99l198 335h153zM713 1594l-250 -335h-102l202 335h150z" />
    <glyph glyph-name="uni0307" unicode="&#x307;" horiz-adv-x="411" 
d="M290 1496v-198h-168v198h168z" />
    <glyph glyph-name="uni030F" unicode="&#x30f;" horiz-adv-x="855" 
d="M359 1259l-250 335h150l202 -335h-102zM627 1259l-247 335h151l198 -335h-102z" />
    <glyph glyph-name="uni0311" unicode="&#x311;" horiz-adv-x="767" 
d="M383 1557c67.333 0 126.332 -22.8311 176.999 -68.498s76 -108.834 76 -189.501h-117c0 46 -13 81 -39 105s-58.333 36 -97 36s-70.5 -12 -95.5 -36s-37.5 -59 -37.5 -105h-116c0 81.333 24.833 144.666 74.5 189.999s107.834 68 174.501 68z" />
    <glyph glyph-name="uni0326" unicode="&#x326;" horiz-adv-x="555" 
d="M144 -672l94 498h166l-143 -498h-117z" />
    <glyph glyph-name="pi" unicode="&#x3c0;" horiz-adv-x="1456" 
d="M1296 1120l-0.00195312 -143.999h-182v-664c0 -16.667 0.333008 -30.334 1 -41.001s2.5 -24 5.5 -40s7.5 -28.667 13.5 -38s14.667 -17.5 26 -24.5s25.333 -10.5 42 -10.5s42 4.66699 76 14v-166c-52.667 -9.33301 -92 -14 -118 -14c-68.667 0 -116.5 23.333 -143.5 70
s-40.5 126.334 -40.5 239.001v675h-406c-20.667 -533.333 -62 -858.666 -124 -975.999h-148c68.667 147.333 109.334 472.666 122.001 975.999c-101.333 -2.66699 -182.666 -24.334 -243.999 -65.001l-16 142c28 26.667 65.5 44.5 112.5 53.5s112.833 13.5 197.5 13.5h826z
" />
    <glyph glyph-name="uni1E02" unicode="&#x1e02;" horiz-adv-x="1286" 
d="M778 1825v-198h-168v198h168zM347 704v-562h309c125.333 0 219.333 23.167 282 69.5s94 118.5 94 216.5c0 102 -33.833 173.5 -101.5 214.5s-173.167 61.5 -316.5 61.5h-267zM347 843h317c103.333 0 181.333 18 234 54s79 100 79 192c0 92.667 -31.5 156.5 -94.5 191.5
s-160.833 52.5 -293.5 52.5h-242v-490zM174 1479l424.001 0.00195312c190 0 330.833 -29 422.5 -87s137.5 -150.333 137.5 -277c0 -18.667 -1.16699 -37.167 -3.5 -55.5s-8.33301 -41.833 -18 -70.5s-22.834 -54.834 -39.501 -78.501s-41.167 -47.334 -73.5 -71.001
s-70.166 -42.5 -113.499 -56.5c99.333 -18.667 174.666 -60.667 225.999 -126s77 -144 77 -236c0 -134 -43.833 -237.667 -131.5 -311s-218.167 -110 -391.5 -110h-516v1479z" />
    <glyph glyph-name="uni1E03" unicode="&#x1e03;" horiz-adv-x="1215" 
d="M720 1853v-198h-168v198h168zM642 981c-106 0 -187.168 -36.499 -243.501 -109.499s-84.5 -180.167 -84.5 -321.5c0 -289.333 109 -434 327 -434c54 0 101.5 11.167 142.5 33.5s73.333 53.666 97 93.999s41.334 85.833 53.001 136.5s17.5 107 17.5 169
c0 84 -9.83301 157.333 -29.5 220s-53.167 113.667 -100.5 153s-107 59 -179 59zM658.999 1120c97.333 0 181.332 -24.666 251.999 -73.999s123.667 -116.333 159 -201s53 -181.667 53 -291c0 -113.333 -17.5 -213 -52.5 -299s-88 -153.833 -159 -203.5
s-155.833 -74.5 -254.5 -74.5c-72.667 0 -139 15.667 -199 47s-110 74 -150 128l-17 -152h-143v1523l167 10v-363c0 -89.333 -1.33301 -166 -4 -230c38.667 55.333 88.834 99.166 150.501 131.499s127.5 48.5 197.5 48.5z" />
    <glyph glyph-name="uni1E0A" unicode="&#x1e0a;" horiz-adv-x="1502" 
d="M866 1825v-198h-168v198h168zM1205 736c0 206.667 -53.334 357.001 -160.001 451.001s-262 141 -466 141h-232v-1177h261c194.667 0 342.834 49.167 444.501 147.5s152.5 244.166 152.5 437.499zM1390 741.001c0 -240.667 -68.3311 -424.333 -204.998 -551
s-327.334 -190 -572.001 -190h-439v1479h410c123.333 0 233.666 -14.5 330.999 -43.5s181.833 -73 253.5 -132s126.5 -136 164.5 -231s57 -205.5 57 -331.5z" />
    <glyph glyph-name="uni1E0B" unicode="&#x1e0b;" horiz-adv-x="1211" 
d="M662 1853v-198h-168v198h168zM571 121c110 0 191.831 35.333 245.498 106s80.5 171.667 80.5 303c0 148 -25.833 259.5 -77.5 334.5s-135.167 112.5 -250.5 112.5c-51.333 0 -96.666 -11 -135.999 -33s-71 -52.667 -95 -92s-42.167 -84.5 -54.5 -135.5
s-18.5 -106.833 -18.5 -167.5c0 -85.333 10.5 -159.333 31.5 -222s54.833 -112.667 101.5 -150s104.334 -56 173.001 -56zM899.998 159c-36 -55.333 -84 -99.332 -144 -131.999s-127 -49 -201 -49c-144.667 0 -258 51.5 -340 154.5s-123 243.167 -123 420.5
c0 169.333 41.667 306.166 125 410.499s195 156.5 335 156.5c72.667 0 141.167 -15.833 205.5 -47.5s112.5 -74.167 144.5 -127.5l-3 95v483l165 10v-1533h-142z" />
    <glyph glyph-name="uni1E1E" unicode="&#x1e1e;" horiz-adv-x="1041" 
d="M668 1825v-198h-168v198h168zM347 0h-173v1479h821l-7 -153h-641v-519h611v-147h-611v-660z" />
    <glyph glyph-name="uni1E1F" unicode="&#x1e1f;" horiz-adv-x="669" 
d="M454 1869v-198h-168v198h168zM560 1416c-69.333 0 -116.834 -20 -142.501 -60s-38.5 -109.333 -38.5 -208v-51h264v-124h-264v-973h-167v973h-178l14 110l164 14v49c1.33301 141.333 27.833 243.833 79.5 307.5s135.167 95.5 250.5 95.5c44.667 0 99.334 -5 164.001 -15
l-11 -131c-59.333 8.66699 -104.333 13 -135 13z" />
    <glyph glyph-name="uni1E40" unicode="&#x1e40;" horiz-adv-x="1817" 
d="M992 1825v-198h-168v198h168zM822 91l-454 1056l-38 101l7 -362v-886h-162v1479h224l515 -1178l510 1178h218v-1479h-168v890l7 354l-37 -101l-453 -1052h-169z" />
    <glyph glyph-name="uni1E41" unicode="&#x1e41;" horiz-adv-x="1773" 
d="M1007 1440v-198h-168v198h168zM1536 0l-0.000976562 571.002c0 53.333 -1.16699 98 -3.5 134s-7.66602 72.667 -15.999 110s-20 66.833 -35 88.5s-35.833 39.334 -62.5 53.001s-58.667 20.5 -96 20.5c-73.333 0 -135.833 -19.667 -187.5 -59
s-88.5 -94.666 -110.5 -165.999c-6 -48 -9 -99.333 -9 -154v-598h-167v589c0 49.333 -1.66699 92.166 -5 128.499s-9.66602 71.666 -18.999 105.999s-21.833 62.166 -37.5 83.499s-36.5 38.333 -62.5 51s-57 19 -93 19c-80 0 -147.167 -20.333 -201.5 -61
s-90.833 -94.667 -109.5 -162c-6 -51.333 -9 -107 -9 -167v-587h-167c-1.33301 686 -2 1051.67 -2 1097h140l21 -157c33.333 50.667 80.666 93.334 141.999 128.001s131 52 209 52c40.667 0 78.167 -4.16699 112.5 -12.5s63 -18.833 86 -31.5s43.5 -27.834 61.5 -45.501
s32 -35 42 -52s18.333 -34.833 25 -53.5c80 130 202.333 195 367 195c122 0 211.5 -34.833 268.5 -104.5s85.5 -172.834 85.5 -309.501v-706h-167z" />
    <glyph glyph-name="uni1E56" unicode="&#x1e56;" horiz-adv-x="1159" 
d="M722 1825v-198h-168v198h168zM323 0l-176.998 -0.000976562v1496h482c73.333 0 139.666 -7.66699 198.999 -23s112 -38.666 158 -69.999s81.667 -73.333 107 -126s38 -114 38 -184c0 -58 -5.33301 -109.833 -16 -155.5s-29 -88.5 -55 -128.5s-60 -73.167 -102 -99.5
s-95.833 -47 -161.5 -62s-141.834 -22.5 -228.501 -22.5c-68.667 0 -150 4.33301 -244 13v-638zM584.002 777.999c65.333 0 121.334 6.33203 168.001 18.999s82.5 28.334 107.5 47.001s44.667 43 59 73s23.166 57.5 26.499 82.5s5 55.167 5 90.5
c0 84.667 -28.5 147 -85.5 187s-134.5 60 -232.5 60h-309v-557c128.667 -1.33301 215.667 -2 261 -2z" />
    <glyph glyph-name="uni1E57" unicode="&#x1e57;" horiz-adv-x="1201" 
d="M710 1440v-198h-168v198h168zM143 -476v1573h147l16 -149c96 114.667 211.333 172 346 172c100 0 184.667 -25 254 -75s120.5 -117.667 153.5 -203s49.5 -185 49.5 -299c0 -109.333 -18 -206.5 -54 -291.5s-88.833 -152 -158.5 -201s-151.167 -73.5 -244.5 -73.5
c-70.667 0 -137 15.833 -199 47.5s-111.667 73.5 -149 125.5c4 -72 6 -142 6 -210v-405zM629 118c50.667 0 95.999 11.501 135.999 34.501s72.333 54.5 97 94.5s43.334 85.5 56.001 136.5s19 106.167 19 165.5c0 125.333 -26.333 228.166 -79 308.499
s-129.667 120.5 -231 120.5c-212 0 -318 -137 -318 -411c0 -148.667 24.833 -260.667 74.5 -336s131.5 -113 245.5 -113z" />
    <glyph glyph-name="uni1E60" unicode="&#x1e60;" horiz-adv-x="1227" 
d="M704 1845v-198h-168v198h168zM146 244c154 -76 319 -114 495 -114c216.667 0 325 98.667 325 296c0 64 -17.167 115.833 -51.5 155.5s-96.833 70.834 -187.5 93.501l-294 74c-224.667 56.667 -337 176.667 -337 360c0 140.667 48.333 245.167 145 313.5
s230.334 102.5 401.001 102.5c89.333 0 173 -9.66699 251 -29s143.333 -45.333 196 -78l-50 -141c-44.667 24.667 -103.834 46.667 -177.501 66s-148.167 29 -223.5 29c-241.333 0 -362 -83.667 -362 -251c0 -56.667 18.5 -102.167 55.5 -136.5s92.5 -60.5 166.5 -78.5
l281 -68c120 -28.667 211 -74.5 273 -137.5s93 -152.5 93 -268.5c0 -150.667 -46.167 -264.167 -138.5 -340.5s-217.833 -114.5 -376.5 -114.5c-118.667 0 -224.167 12.167 -316.5 36.5s-165.5 53.166 -219.5 86.499z" />
    <glyph glyph-name="uni1E61" unicode="&#x1e61;" horiz-adv-x="953" 
d="M570 1440v-198h-168v198h168zM470 -23c-74.667 0 -143.502 8.00098 -206.502 24.001s-114.167 36.667 -153.5 62l21 141c111.333 -59.333 220.666 -89 327.999 -89c162.667 0 246.334 57.333 251.001 172c0 48.667 -17.333 87 -52 115s-102.667 59.333 -204 94l-83 29
c-96 32 -164.5 71.667 -205.5 119s-61.833 106.333 -62.5 177c0 86 34.5 157.333 103.5 214s163.5 85 283.5 85c124 0 237 -24 339 -72l-49 -128c-103.333 42.667 -200 64 -290 64c-70 0 -124.833 -13.833 -164.5 -41.5s-59.5 -66.5 -59.5 -116.5
c0 -42.667 14.333 -75.334 43 -98.001s86 -48.667 172 -78c22 -8 49.667 -17.333 83 -28c110.667 -36 189 -78.5 235 -127.5s69 -115.167 69 -198.5c-1.33301 -101.333 -37.666 -179.833 -108.999 -235.5s-167.666 -83.5 -288.999 -83.5z" />
    <glyph glyph-name="uni1E6A" unicode="&#x1e6a;" horiz-adv-x="1099" 
d="M633 1825v-198h-168v198h168zM636 0h-174v1326h-455v153h1084v-153h-455v-1326z" />
    <glyph glyph-name="uni1E6B" unicode="&#x1e6b;" horiz-adv-x="710" 
d="M436 1672v-198h-168v198h168zM493 -20c-108 0 -184.666 26.333 -229.999 79s-69.333 137.667 -72 255v659h-163l7 110l155 14l57 251l110 4v-255h305v-124h-305v-629c0 -83.333 12.667 -142 38 -176s68.666 -51 129.999 -51c22 0 69.667 5.33301 143 16l7 -132
c-79.333 -14 -140 -21 -182 -21z" />
    <glyph glyph-name="Wgrave" unicode="&#x1e80;" horiz-adv-x="2013" 
d="M950 1627l-323 387h250l185 -387h-112zM446 0l-446 1479h181l366 -1273l366 1246h195l355 -1247l369 1274h181l-452 -1479h-189l-360 1243l-378 -1243h-188z" />
    <glyph glyph-name="wgrave" unicode="&#x1e81;" horiz-adv-x="1606" 
d="M747 1242l-323 387h250l185 -387h-112zM1090 0l-285.999 918.999c-20.667 -73.333 -44.334 -152.666 -71.001 -237.999l-70 -220l-78 -238l-73 -223h-180l-313 1097h173l235 -898l288 898h189c158.667 -502.667 252 -801 280 -895l232 895h171l-316 -1097h-181z" />
    <glyph glyph-name="Wacute" unicode="&#x1e82;" horiz-adv-x="2013" 
d="M1389 2015l-325 -388h-114l186 388h253zM446 0l-446 1479h181l366 -1273l366 1246h195l355 -1247l369 1274h181l-452 -1479h-189l-360 1243l-378 -1243h-188z" />
    <glyph glyph-name="wacute" unicode="&#x1e83;" horiz-adv-x="1606" 
d="M1185 1630l-325 -388h-114l186 388h253zM1090 0l-285.999 918.999c-20.667 -73.333 -44.334 -152.666 -71.001 -237.999l-70 -220l-78 -238l-73 -223h-180l-313 1097h173l235 -898l288 898h189c158.667 -502.667 252 -801 280 -895l232 895h171l-316 -1097h-181z" />
    <glyph glyph-name="Wdieresis" unicode="&#x1e84;" horiz-adv-x="2013" 
d="M1279 1627h-155v212h155v-212zM888 1627h-154v212h154v-212zM446 0l-446 1479h181l366 -1273l366 1246h195l355 -1247l369 1274h181l-452 -1479h-189l-360 1243l-378 -1243h-188z" />
    <glyph glyph-name="wdieresis" unicode="&#x1e85;" horiz-adv-x="1606" 
d="M1075 1242h-155v212h155v-212zM684 1242h-154v212h154v-212zM1090 0l-285.999 918.999c-20.667 -73.333 -44.334 -152.666 -71.001 -237.999l-70 -220l-78 -238l-73 -223h-180l-313 1097h173l235 -898l288 898h189c158.667 -502.667 252 -801 280 -895l232 895h171
l-316 -1097h-181z" />
    <glyph glyph-name="Ygrave" unicode="&#x1ef2;" horiz-adv-x="1194" 
d="M541 1627l-323 387h250l185 -387h-112zM591 754l416 725h188l-522 -889v-590h-175v586l-499 893h187z" />
    <glyph glyph-name="ygrave" unicode="&#x1ef3;" horiz-adv-x="1022" 
d="M451 1242l-323 387h250l185 -387h-112zM3 1097h177.001l346 -913l308 913h177c-296 -814.667 -449 -1234.67 -459 -1260c-46 -115.333 -101.667 -199.833 -167 -253.5s-151.333 -80.5 -258 -80.5c-32 0 -65.667 2.66699 -101 8l-10 142c37.333 -2.66699 65.333 -4 84 -4
c75.333 0 132.5 13.833 171.5 41.5s73.833 79.5 104.5 155.5c27.333 70 47.666 124 60.999 162z" />
    <glyph glyph-name="endash" unicode="&#x2013;" horiz-adv-x="1317" 
d="M1186 675v-148h-1047v148h1047z" />
    <glyph glyph-name="emdash" unicode="&#x2014;" horiz-adv-x="2427" 
d="M2296 675v-148h-2157v148h2157z" />
    <glyph glyph-name="quoteleft" unicode="&#x2018;" horiz-adv-x="510" 
d="M129 1102l136 472h117l-91 -472h-162z" />
    <glyph glyph-name="quoteright" unicode="&#x2019;" horiz-adv-x="504" 
d="M249 1102h-116l93 472h157z" />
    <glyph glyph-name="quotesinglbase" unicode="&#x201a;" horiz-adv-x="504" 
d="M126 -256l92 472h161l-134 -472h-119z" />
    <glyph glyph-name="quotedblleft" unicode="&#x201c;" horiz-adv-x="818" 
d="M438 1102l135 472h117l-90 -472h-162zM129 1102l134 472h120l-94 -472h-160z" />
    <glyph glyph-name="quotedblright" unicode="&#x201d;" horiz-adv-x="795" 
d="M133 1102l93 472h159l-135 -472h-117zM420 1102l91 472h163l-137 -472h-117z" />
    <glyph glyph-name="quotedblbase" unicode="&#x201e;" horiz-adv-x="819" 
d="M126 -256l90 472h161l-133 -472h-118zM441 -256l91 472h162l-135 -472h-118z" />
    <glyph glyph-name="dagger" unicode="&#x2020;" horiz-adv-x="876" 
d="M369 121v926h-298v102h298v412h130v-412h307v-102h-307v-926h-130z" />
    <glyph glyph-name="daggerdbl" unicode="&#x2021;" horiz-adv-x="950" 
d="M413 110v357h-306v137h306v455h-301v140h301v351h130v-351h307v-140h-307v-455h300v-137h-300v-357h-130z" />
    <glyph glyph-name="bullet" unicode="&#x2022;" horiz-adv-x="867" 
d="M731 753c0 -92 -29.667 -171.331 -89 -237.998s-129.333 -100 -210 -100c-82 0 -151.667 32.667 -209 98s-86 143.333 -86 234c0 91.333 30 170.666 90 237.999s129.667 101 209 101c80.667 0 150 -32.833 208 -98.5s87 -143.834 87 -234.501z" />
    <glyph glyph-name="ellipsis" unicode="&#x2026;" horiz-adv-x="1482" 
d="M261 -12c-41.333 0 -73.833 13.168 -97.5 39.501s-35.5 57.166 -35.5 92.499c0 36 11.667 67 35 93s56 39 98 39s74.667 -13 98 -39s35 -57 35 -93s-11.667 -67 -35 -93s-56 -39 -98 -39zM755 -11.999c-41.333 0 -73.833 13.168 -97.5 39.501s-35.5 57.166 -35.5 92.499
c0 36 11.667 67 35 93s56 39 98 39s74.667 -13 98 -39s35 -57 35 -93s-11.667 -67 -35 -93s-56 -39 -98 -39zM1249 -11.998c-41.333 0 -73.833 13.168 -97.5 39.501s-35.5 57.166 -35.5 92.499c0 36 11.667 67 35 93s56 39 98 39s74.667 -13 98 -39s35 -57 35 -93
s-11.667 -67 -35 -93s-56 -39 -98 -39z" />
    <glyph glyph-name="perthousand" unicode="&#x2030;" horiz-adv-x="2303" 
d="M395 -22h-136l856 1569h157zM404 1438c-54 0 -95.333 -24.501 -124 -73.501s-43 -110.5 -43 -184.5c0 -77.333 14.5 -140.166 43.5 -188.499s71.5 -72.5 127.5 -72.5c53.333 0 94.333 24.667 123 74s43 111 43 185c0 77.333 -14.5 140 -43.5 188s-71.167 72 -126.5 72z
M1105 609.999c-63.333 0 -111.999 -24.165 -145.999 -72.498s-51 -109.5 -51 -183.5c0 -76.667 17.167 -139.334 51.5 -188.001s83.5 -73 147.5 -73c63.333 0 112.166 25.167 146.499 75.5s51.5 112.166 51.5 185.499c0 76.667 -16.833 138.5 -50.5 185.5
s-83.5 70.5 -149.5 70.5zM1104 -29.999c-107.333 0 -188.667 34.332 -244 102.999s-83 162.334 -83 281.001c0 114 28 206 84 276s138 105 246 105c108.667 0 190.334 -33.833 245.001 -101.5s82 -161.5 82 -281.5c0 -112.667 -28.333 -204.5 -85 -275.5
s-138.334 -106.5 -245.001 -106.5zM404 796c-93.333 0 -166 34.668 -218 104.001s-78 162.666 -78 279.999c0 112.667 26.167 204 78.5 274s125.5 105 219.5 105c95.333 0 168.5 -34 219.5 -102s76.5 -161.667 76.5 -281c0 -111.333 -26.667 -202.5 -80 -273.5
s-126 -106.5 -218 -106.5zM1876 -29.999c-106 0 -186.833 34.332 -242.5 102.999s-83.5 162.334 -83.5 281.001c0 114 28.333 206 85 276s138.667 105 246 105c108 0 189.333 -33.667 244 -101s82 -161.333 82 -282c0 -112.667 -28.5 -204.5 -85.5 -275.5
s-138.833 -106.5 -245.5 -106.5zM1879 610c-64.667 0 -114.5 -24.168 -149.5 -72.501s-52.5 -109.5 -52.5 -183.5c0 -77.333 17.5 -140.166 52.5 -188.499s85.5 -72.5 151.5 -72.5c63.333 0 112.5 25 147.5 75s52.5 112 52.5 186c0 74.667 -17.667 136 -53 184
s-85 72 -149 72z" />
    <glyph glyph-name="guilsinglleft" unicode="&#x2039;" horiz-adv-x="620" 
d="M361 982h140l-232 -399l226 -401h-139l-236 401z" />
    </font>
</defs>
</svg>
