<?xml version="1.0" standalone="no"?>
<!DOCTYPE svg PUBLIC "-//W3C//DTD SVG 1.1//EN" "http://www.w3.org/Graphics/SVG/1.1/DTD/svg11.dtd" >
<svg>
<metadata>
Created by FontForge 20090914 at Mon Mar 21 09:48:26 2016
 By www-data
Copyright (C) 2004 Hoefler &#38; Frere-Jones Typography, Inc. www.typography.com
</metadata>
<defs>
<font id="Whitney-Bold" horiz-adv-x="454" >
  <font-face 
    font-family="Whitney-Bold"
    font-weight="700"
    font-stretch="normal"
    units-per-em="1000"
    panose-1="2 0 8 3 4 0 0 2 0 4"
    ascent="800"
    descent="-200"
    x-height="490"
    cap-height="690"
    bbox="-79 -200 998 953.999"
    underline-thickness="20"
    underline-position="-123"
    unicode-range="U+0020-U+FB02"
  />
<missing-glyph horiz-adv-x="500" 
 />
    <glyph glyph-name=".notdef" horiz-adv-x="500" 
 />
    <glyph glyph-name="space" unicode=" " horiz-adv-x="209" 
 />
    <glyph glyph-name="exclam" unicode="!" horiz-adv-x="295" 
d="M242 690h-188l49 -452l92 20zM229 0v172h-163v-172h163z" />
    <glyph glyph-name="quotedbl" unicode="&#x22;" horiz-adv-x="520" 
d="M473 676h-181l41 -279l96 -21zM228 676h-181l40 -279l97 -21z" />
    <glyph glyph-name="numbersign" unicode="#" horiz-adv-x="673" 
d="M236 141h137l-22 -143h95l23 143h151l-20 127h-111l23 140h123v127h-104l21 129l-92 21l-24 -150h-137l23 143h-96l-23 -143h-150l21 -127h109l-21 -140h-124v-127h104l-20 -129l91 -21zM278 411h140l-23 -146h-140z" />
    <glyph glyph-name="dollar" unicode="$" horiz-adv-x="549" 
d="M366 673l10.001 66.002l-73 16l-11 -74h-10c-74.667 0 -132.5 -17.167 -173.5 -51.5s-61.5 -82.166 -61.5 -143.499c0 -29.333 4.16699 -54.333 12.5 -75s20.666 -38.667 36.999 -54s36.5 -28.5 60.5 -39.5s51.333 -21.167 82 -30.5l-26 -171
c-26.667 4 -53.334 10.833 -80.001 20.5s-55 22.5 -85 38.5l-19 -122c24.667 -12.667 50.167 -23.334 76.5 -32.001s54.166 -15.334 83.499 -20.001l-15 -107l73 -16l17 117h1c36 0 69.167 4.16699 99.5 12.5s56.5 21 78.5 38s39 38.667 51 65s18 57.166 18 92.499
c0 29.333 -4 54.833 -12 76.5s-19.833 40.5 -35.5 56.5s-35.5 30 -59.5 42s-52 23 -84 33l22 146c22.667 -4.66699 44.334 -11.167 65.001 -19.5s40.334 -18.166 59.001 -29.499l21 123c-18 9.33301 -37.167 17.666 -57.5 24.999s-41.833 13 -64.5 17zM276.001 112.002
l22.999 156c30.667 -11.333 51.334 -23.333 62.001 -36s16 -28 16 -46c0 -48 -33.667 -72.667 -101 -74zM280 565.002l-20 -135.002c-30.667 10.667 -51.334 21.334 -62.001 32.001s-16 24.334 -16 41.001c0 19.333 6.83301 34.5 20.5 45.5s35.834 16.5 66.501 16.5h11z" />
    <glyph glyph-name="percent" unicode="%" horiz-adv-x="894" 
d="M373 486c0 32 -4.33496 60.332 -13.002 84.999s-20.5 45.334 -35.5 62.001s-32.667 29.334 -53 38.001s-42.166 13 -65.499 13s-45.166 -4.33301 -65.499 -13s-38.166 -21.5 -53.499 -38.5s-27.333 -37.833 -36 -62.5s-13 -53 -13 -85s4.33301 -60.5 13 -85.5
s20.5 -45.833 35.5 -62.5s32.833 -29.334 53.5 -38.001s42.667 -13 66 -13s45.166 4.33301 65.499 13s38 21.5 53 38.5s26.833 38 35.5 63s13 53.5 13 85.5zM707.998 662.999l-90 20l-432 -670l89 -20zM267.998 485.999c0 -36 -5 -64.167 -15 -84.5s-25.667 -30.5 -47 -30.5
s-37.333 10 -48 30s-16 48 -16 84c0 36.667 5.33301 65 16 85s26.667 30 48 30c20.667 0 36.167 -10 46.5 -30s15.5 -48 15.5 -84zM855.998 190.999c0 32 -4.33105 60.501 -12.998 85.501s-20.5 45.833 -35.5 62.5s-32.833 29.334 -53.5 38.001s-42.667 13 -66 13
s-45.166 -4.33301 -65.499 -13s-38 -21.5 -53 -38.5s-26.833 -38 -35.5 -63s-13 -53.5 -13 -85.5s4.33301 -60.333 13 -85s20.5 -45.334 35.5 -62.001s32.667 -29.334 53 -38.001s42.166 -13 65.499 -13s45.166 4.33301 65.499 13s38.166 21.5 53.499 38.5
s27.333 37.833 36 62.5s13 53 13 85zM751 191c0 -36 -5.16699 -64.167 -15.5 -84.5s-26.166 -30.5 -47.499 -30.5c-20.667 0 -36.334 10 -47.001 30s-16 48 -16 84s5.16699 64.167 15.5 84.5s26.166 30.5 47.499 30.5c20.667 0 36.334 -10 47.001 -30s16 -48 16 -84z" />
    <glyph glyph-name="ampersand" unicode="&#x26;" horiz-adv-x="662" 
d="M673 16l-135.999 157.999c32 56.667 54 126.667 66 210l-128 28c-3.33301 -26 -7.33301 -49.833 -12 -71.5s-10.334 -41.834 -17.001 -60.501l-141 161c-14.667 16 -25.167 29.833 -31.5 41.5s-9.5 24.167 -9.5 37.5c0 14.667 5 27 15 37s25.333 15 46 15
c22.667 0 46.334 -4.33301 71.001 -13s50 -20 76 -34l22 134c-22.667 12.667 -49.667 23.167 -81 31.5s-66 12.5 -104 12.5c-63.333 0 -113 -15.667 -149 -47s-54 -73.333 -54 -126c0 -30 4.66699 -56 14 -78s23.666 -45.333 42.999 -70
c-40.667 -23.333 -73.5 -51 -98.5 -83s-37.5 -72.333 -37.5 -121c0 -30 5.33301 -56.667 16 -80s26 -43.166 46 -59.499s44 -28.666 72 -36.999s59.333 -12.5 94 -12.5c72.667 0 135.667 24 189 72l60 -67zM370.001 147.999
c-27.333 -25.333 -56.999 -38.001 -88.999 -38.001c-30.667 0 -54.667 8 -72 24s-26 36.667 -26 62c0 19.333 4.66699 36.833 14 52.5s23.666 30.834 42.999 45.501z" />
    <glyph glyph-name="quotesingle" unicode="'" horiz-adv-x="278" 
d="M231 676h-184l40 -279l101 -21z" />
    <glyph glyph-name="parenleft" unicode="(" horiz-adv-x="408" 
d="M389 -67c-30.667 32 -57 62.499 -79 91.499s-40.167 58.5 -54.5 88.5s-24.833 61.167 -31.5 93.5s-10 67.5 -10 105.5c0 35.333 3 67.666 9 96.999s15 56.5 27 81.5s27 48.333 45 70s39 42.834 63 63.501l-15 102c-95.333 -44 -168.833 -99.833 -220.5 -167.5
s-77.5 -150.5 -77.5 -248.5c0 -46 5.5 -87.833 16.5 -125.5s26.5 -72.667 46.5 -105s44 -62.666 72 -90.999s59 -55.833 93 -82.5z" />
    <glyph glyph-name="parenright" unicode=")" horiz-adv-x="408" 
d="M362 318c0 45.333 -5.33301 86.8359 -16 124.503s-26 72.667 -46 105s-44 62.666 -72 90.999s-59 56.166 -93 83.499l-116 -27c30.667 -32 57.167 -62.667 79.5 -92s40.666 -59 54.999 -89s24.833 -61 31.5 -93s10 -67 10 -105c0 -35.333 -3.16699 -67.666 -9.5 -96.999
s-15.666 -56.5 -27.999 -81.5s-27.5 -48.333 -45.5 -70s-38.667 -42.834 -62 -63.501l15 -103c47.333 22 89.5 47 126.5 75s68.167 59 93.5 93s44.5 71.667 57.5 113s19.5 86.666 19.5 135.999z" />
    <glyph glyph-name="asterisk" unicode="*" horiz-adv-x="438" 
d="M407 546l-11 35l-128 -7l-30 122h-39l-29 -122l-128 7l-11 -35l107 -69l-47 -119l30 -20l98 80l97 -80l31 20l-47 119z" />
    <glyph glyph-name="plus" unicode="+" horiz-adv-x="572" 
d="M518 279v118h-171v177h-122v-177h-171v-118h171v-177h122v177h171z" />
    <glyph glyph-name="comma" unicode="," horiz-adv-x="258" 
d="M237 172h-171l-44 -299l90 -21z" />
    <glyph glyph-name="hyphen" unicode="-" horiz-adv-x="354" 
d="M314 219v144h-273v-144h273z" />
    <glyph glyph-name="period" unicode="." horiz-adv-x="258" 
d="M211 0v172h-162v-172h162z" />
    <glyph glyph-name="slash" unicode="/" horiz-adv-x="530" 
d="M518 672l-124 27l-430 -799l124 -27z" />
    <glyph glyph-name="zero" unicode="0" horiz-adv-x="634" 
d="M598 338c0 56.667 -6.66699 106.834 -20 150.501s-32.333 80.334 -57 110.001s-54.167 52.167 -88.5 67.5s-72.5 23 -114.5 23s-80.333 -7.66699 -115 -23s-64.334 -37.833 -89.001 -67.5s-43.834 -66.334 -57.501 -110.001s-20.5 -93.834 -20.5 -150.501
s6.83301 -106.834 20.5 -150.501s32.834 -80.334 57.501 -110.001s54.334 -52.167 89.001 -67.5s73 -23 115 -23s80.167 7.66699 114.5 23s63.833 37.833 88.5 67.5s43.667 66.334 57 110.001s20 93.834 20 150.501zM433 338c0 -72.667 -9.33301 -128.167 -28 -166.5
s-47.667 -57.5 -87 -57.5s-68.5 19.167 -87.5 57.5s-28.5 93.833 -28.5 166.5s9.5 128.167 28.5 166.5s48.167 57.5 87.5 57.5s68.333 -19.167 87 -57.5s28 -93.833 28 -166.5z" />
    <glyph glyph-name="one" unicode="1" horiz-adv-x="407" 
d="M339 0v677h-149l-173 -80l18 -130l136 53v-520h168z" />
    <glyph glyph-name="two" unicode="2" horiz-adv-x="552" 
d="M517 0l-21 132.001h-256l135 131c20.667 19.333 39 38 55 56s29.5 36 40.5 54s19.333 36.667 25 56s8.5 40.666 8.5 63.999c0 60.667 -20 108.167 -60 142.5s-95 51.5 -165 51.5c-48 0 -90 -6.33301 -126 -19s-68.667 -28.667 -98 -48l20 -142
c29.333 21.333 59 38.166 89 50.499s60 18.5 90 18.5c28 0 49.5 -6.16699 64.5 -18.5s22.5 -30.166 22.5 -53.499c0 -22.667 -5.66699 -43 -17 -61s-28.333 -38.667 -51 -62l-233 -233v-119h477z" />
    <glyph glyph-name="three" unicode="3" horiz-adv-x="545" 
d="M508 189c0 44.667 -11.498 79.999 -34.498 105.999s-54.833 45.667 -95.5 59c34.667 12.667 63.167 31.167 85.5 55.5s33.5 58.166 33.5 101.499c0 52.667 -20.5 95.5 -61.5 128.5s-99.5 49.5 -175.5 49.5c-44.667 0 -85.667 -5.83301 -123 -17.5
s-69.333 -26.5 -96 -44.5l21 -128c25.333 17.333 52.666 31 81.999 41s59.666 15 90.999 15c64.667 0 97 -22.333 97 -67c0 -23.333 -10 -42.166 -30 -56.499s-54 -21.5 -102 -21.5h-63l20 -122h41c53.333 0 91.166 -7.16699 113.499 -21.5s33.5 -36.166 33.5 -65.499
c0 -26 -9.5 -45.833 -28.5 -59.5s-45.167 -20.5 -78.5 -20.5c-34 0 -66.5 4.5 -97.5 13.5s-60.5 21.167 -88.5 36.5l-21 -131c28.667 -16 61.834 -28.833 99.501 -38.5s78.5 -14.5 122.5 -14.5c36.667 0 70.5 4.33301 101.5 13s57.833 21.5 80.5 38.5s40.5 38.167 53.5 63.5
s19.5 54.333 19.5 87z" />
    <glyph glyph-name="four" unicode="4" horiz-adv-x="610" 
d="M591 135v113h-95v429h-185l-285 -438v-104h313v-135h157v135h95zM339 248h-173l173 268v-268z" />
    <glyph glyph-name="five" unicode="5" horiz-adv-x="555" 
d="M519 226c0 34 -5.49902 63.832 -16.499 89.499s-26.167 47.167 -45.5 64.5s-42.666 30.5 -69.999 39.5s-57.333 13.5 -90 13.5c-21.333 0 -39.833 -1.16699 -55.5 -3.5s-29.167 -5.16602 -40.5 -8.49902l8 120h294l-21 135h-399l-23 -367l103 -23
c13.333 5.33301 27.666 10 42.999 14s33.333 6 54 6c33.333 0 58.833 -7.66699 76.5 -23s26.5 -37 26.5 -65c0 -31.333 -11.333 -55 -34 -71s-51.667 -24 -87 -24c-34 0 -66.5 4.83301 -97.5 14.5s-60.5 21.167 -88.5 34.5l-22 -139c30 -13.333 62.167 -24.333 96.5 -33
s72.166 -13 113.499 -13c40 0 76.833 5.16699 110.5 15.5s62.667 25.5 87 45.5s43.333 44.833 57 74.5s20.5 64.167 20.5 103.5z" />
    <glyph glyph-name="six" unicode="6" horiz-adv-x="577" 
d="M192 380c16.667 48 47.332 86.001 91.999 114.001s99 49.333 163 64l-21 132c-56 -11.333 -107.667 -28 -155 -50s-88.5 -50.167 -123.5 -84.5s-62.333 -74.833 -82 -121.5s-29.5 -100.334 -29.5 -161.001c0 -46.667 6.33301 -87.834 19 -123.501s30.5 -65.5 53.5 -89.5
s50.333 -42.167 82 -54.5s66.834 -18.5 105.501 -18.5c35.333 0 68.333 5.66699 99 17s57.167 27.333 79.5 48s40 45.5 53 74.5s19.5 61.5 19.5 97.5c0 34.667 -5 64.834 -15 90.501s-23.833 47 -41.5 64s-38.167 29.667 -61.5 38s-48 12.5 -74 12.5
c-32 0 -61 -4.16699 -87 -12.5s-51.333 -20.5 -76 -36.5zM185.998 272.001c18.667 12.667 37 22.333 55 29s36.667 10 56 10c63.333 0 95 -32.333 95 -97c0 -33.333 -8.66699 -59.333 -26 -78s-40.666 -28 -69.999 -28c-31.333 0 -57.333 13.167 -78 39.5
s-31.334 67.833 -32.001 124.5z" />
    <glyph glyph-name="seven" unicode="7" horiz-adv-x="541" 
d="M505 547v129h-476l21 -139h283l-237 -516l159 -28z" />
    <glyph glyph-name="eight" unicode="8" horiz-adv-x="589" 
d="M322 406c-43.333 16.667 -73.333 32.5 -90 47.5s-25 33.167 -25 54.5s7.5 39 22.5 53s36.167 21 63.5 21c28 0 50.167 -6.83301 66.5 -20.5s24.5 -32.167 24.5 -55.5c0 -20.667 -5.5 -39 -16.5 -55s-26.167 -31 -45.5 -45zM260 303c26 -10.667 47.833 -20.333 65.5 -29
s31.834 -17.5 42.501 -26.5s18.167 -18.5 22.5 -28.5s6.5 -21.667 6.5 -35c0 -25.333 -9.66699 -45.5 -29 -60.5s-43 -22.5 -71 -22.5c-31.333 0 -57.333 8 -78 24s-31 38.333 -31 67c0 22.667 6.66699 43.167 20 61.5s30.666 34.833 51.999 49.5zM156 352.001
c-38 -21.333 -67.666 -46.8271 -88.999 -76.4941s-32 -62.834 -32 -99.501c0 -25.333 5.5 -49.5 16.5 -72.5s27.333 -43.167 49 -60.5s48.667 -31 81 -41s69.833 -15 112.5 -15c40 0 76 5 108 15s59.167 23.667 81.5 41s39.5 38.166 51.5 62.499s18 51.166 18 80.499
c0 41.333 -10.167 75.333 -30.5 102s-50.833 50 -91.5 70c32 20 57 43 75 69s27 55.333 27 88c0 25.333 -5.5 48.666 -16.5 69.999s-26.5 39.666 -46.5 54.999s-44.5 27.333 -73.5 36s-61.5 13 -97.5 13c-34.667 0 -66.834 -4.16699 -96.501 -12.5
s-55.167 -20.333 -76.5 -36s-38.166 -35 -50.499 -58s-18.5 -48.833 -18.5 -77.5c0 -34 8.66699 -63.333 26 -88s41.666 -46.334 72.999 -65.001z" />
    <glyph glyph-name="nine" unicode="9" horiz-adv-x="577" 
d="M383 287c-17.333 -46.667 -48.6709 -83.3359 -94.0039 -110.003s-101 -46.334 -167 -59.001l19 -132c58 10.667 111.333 27 160 49s90.834 50.167 126.501 84.5s63.5 75 83.5 122s30 100.833 30 161.5c0 46.667 -6.33301 87.834 -19 123.501s-30.5 65.5 -53.5 89.5
s-50.5 42.167 -82.5 54.5s-67.333 18.5 -106 18.5c-35.333 0 -68.333 -5.66699 -99 -17s-57.167 -27.5 -79.5 -48.5s-39.833 -46.333 -52.5 -76s-19 -63.167 -19 -100.5c0 -35.333 4.83301 -66.166 14.5 -92.499s23.334 -48.166 41.001 -65.499s38.5 -30.166 62.5 -38.499
s50 -12.5 78 -12.5c28.667 0 55.834 4.33301 81.501 13s50.834 20.667 75.501 36zM390.995 392.998c-36.667 -24.667 -73.334 -37 -110.001 -37c-64 0 -96 34 -96 102c0 35.333 8.83301 62.5 26.5 81.5s40.834 28.5 69.501 28.5c32 0 58.333 -13.667 79 -41
s31 -71.333 31 -132v-2z" />
    <glyph glyph-name="colon" unicode=":" horiz-adv-x="267" 
d="M215 320v170h-162v-170h162zM215 0v170h-162v-170h162z" />
    <glyph glyph-name="semicolon" unicode=";" horiz-adv-x="267" 
d="M221 320v170h-162v-170h162zM232 170h-171l-44 -297l91 -21z" />
    <glyph glyph-name="less" unicode="&#x3c;" horiz-adv-x="572" 
d="M504 63v131l-298 145l298 144v130l-447 -222v-106z" />
    <glyph glyph-name="equal" unicode="=" horiz-adv-x="590" 
d="M518 399v120h-445v-120h445zM518 158v119h-445v-119h445z" />
    <glyph glyph-name="greater" unicode="&#x3e;" horiz-adv-x="572" 
d="M515 285v106l-447 222v-131l298 -145l-298 -143v-131z" />
    <glyph glyph-name="question" unicode="?" horiz-adv-x="506" 
d="M293 0v172h-162v-172h162zM270 285c68.667 22 121.001 50.667 157.001 86s54 82 54 140c0 60.667 -19.5 107.834 -58.5 141.501s-93.833 50.5 -164.5 50.5c-50 0 -93.667 -6.66699 -131 -20s-71 -30 -101 -50l21 -140c29.333 20.667 60.166 37.667 92.499 51
s64.5 20 96.5 20c28 0 49.167 -5.83301 63.5 -17.5s21.5 -27.834 21.5 -48.501c0 -24 -9.83301 -44.167 -29.5 -60.5s-54.167 -31.833 -103.5 -46.5l-31 -10l11 -152l99 23z" />
    <glyph glyph-name="at" unicode="@" horiz-adv-x="835" 
d="M458 212c-19.333 -24 -35.5 -40.668 -48.5 -50.001s-25.5 -14 -37.5 -14c-11.333 0 -20.333 3.83301 -27 11.5s-10 21.167 -10 40.5c0 23.333 2.83301 45.333 8.5 66s13.5 38.5 23.5 53.5s21.5 26.833 34.5 35.5s26.833 13 41.5 13c7.33301 0 14.333 -0.666992 21 -2
s12.667 -2.66602 18 -3.99902zM462 129.999c9.33301 -25.333 26.3262 -45.334 50.9932 -60.001s53 -22 85 -22c31.333 0 59.333 6.16699 84 18.5s45.5 30 62.5 53s29.833 50.833 38.5 83.5s13 69 13 109c0 52 -8 98.5 -24 139.5s-38.667 75.5 -68 103.5
s-64.5 49.333 -105.5 64s-86.5 22 -136.5 22c-58 0 -112.833 -12.167 -164.5 -36.5s-96.667 -57.166 -135 -98.499s-68.666 -89.333 -90.999 -144s-33.5 -112 -33.5 -172c0 -54.667 7.83301 -102.667 23.5 -144s38 -75.666 67 -102.999s64.333 -48 106 -62
s88.5 -21 140.5 -21c44.667 0 86 4.5 124 13.5s71 20.167 99 33.5l-6 36c-30 -15.333 -63 -27.166 -99 -35.499s-74 -12.5 -114 -12.5c-43.333 0 -83.166 5.5 -119.499 16.5s-67.666 28.333 -93.999 52s-46.833 54.167 -61.5 91.5s-22 82.666 -22 135.999
c0 58 10.167 112.333 30.5 163s47.833 94.5 82.5 131.5s74.667 66.167 120 87.5s93 32 143 32c42.667 0 82 -6 118 -18s67 -30 93 -54s46.333 -54.5 61 -91.5s22 -80.5 22 -130.5c0 -64.667 -11.167 -114.667 -33.5 -150s-50.166 -53 -83.499 -53
c-22.667 0 -38.667 5.5 -48 16.5s-14 23.833 -14 38.5c0 9.33301 0.333008 18.333 1 27s1.66699 16.667 3 24l33 214c-23.333 9.33301 -49.166 17.166 -77.499 23.499s-57.166 9.5 -86.499 9.5c-32 0 -62 -6.83301 -90 -20.5s-52.5 -33 -73.5 -58s-37.5 -54.667 -49.5 -89
s-18 -72.5 -18 -114.5c0 -42.667 10.5 -75.167 31.5 -97.5s46.833 -33.5 77.5 -33.5c24.667 0 47.834 6.66699 69.501 20s44.5 34 68.5 62z" />
    <glyph glyph-name="A" unicode="A" horiz-adv-x="702" 
d="M689 21l-240 672h-188l-248 -693h167l48 143h237l52 -150zM424 277h-156l78 240z" />
    <glyph glyph-name="B" unicode="B" horiz-adv-x="588" 
d="M558 199c0 46.667 -11.499 83 -34.499 109s-53.167 45 -90.5 57c28 12.667 51.5 30.667 70.5 54s28.5 54 28.5 92c0 56.667 -19.333 100.667 -58 132s-97.334 47 -176.001 47h-235v-690h230c82.667 0 147.5 16.5 194.5 49.5s70.5 82.833 70.5 149.5zM380.001 492
c0 -25.333 -8.33301 -45.168 -25 -59.501s-41 -21.5 -73 -21.5h-57v156h61c33.333 0 57.333 -6.66699 72 -20s22 -31.666 22 -54.999zM397.001 209.998c0 -29.333 -9.5 -51.167 -28.5 -65.5s-45.833 -21.5 -80.5 -21.5h-63v178h61c36 0 63.5 -7.66699 82.5 -23
s28.5 -38 28.5 -68z" />
    <glyph glyph-name="C" unicode="C" horiz-adv-x="605" 
d="M569 39l-22.0039 140c-26 -14.667 -51.667 -26.334 -77 -35.001s-52 -13 -80 -13c-26 0 -50 4.66699 -72 14s-41.167 23 -57.5 41s-29 40.333 -38 67s-13.5 57.334 -13.5 92.001c0 68 15.667 120.667 47 158s73 56 125 56c30 0 57.833 -5.33301 83.5 -16
s49.167 -24 70.5 -40l24 154c-25.333 14 -53.666 25 -84.999 33s-66.666 12 -105.999 12c-49.333 0 -94.166 -8.66699 -134.499 -26s-75 -41.666 -104 -72.999s-51.5 -69 -67.5 -113s-24 -92.667 -24 -146c0 -54 7.66699 -103 23 -147s37.333 -81.5 66 -112.5
s63.834 -54.833 105.501 -71.5s88.5 -25 140.5 -25c38 0 73.167 4.66699 105.5 14s62.5 21.666 90.5 36.999z" />
    <glyph glyph-name="D" unicode="D" horiz-adv-x="705" 
d="M666 346c0 51.333 -7.83203 98.167 -23.499 140.5s-38.834 78.5 -69.501 108.5s-68.834 53.333 -114.501 70s-98.5 25 -158.5 25h-237v-690h242c58 -0 109.5 8.33301 154.5 25s82.833 40.334 113.5 71.001s53.834 67.167 69.501 109.5s23.5 89.166 23.5 140.499z
M494.001 345.001c0 -37.333 -4.66504 -69.332 -13.998 -95.999s-22.5 -48.5 -39.5 -65.5s-37.667 -29.667 -62 -38s-51.833 -12.5 -82.5 -12.5h-62v424h62c29.333 0 56.166 -4.16699 80.499 -12.5s45.166 -21.333 62.499 -39s30.833 -39.834 40.5 -66.501s14.5 -58 14.5 -94
z" />
    <glyph glyph-name="E" unicode="E" horiz-adv-x="535" 
d="M502 0v137h-271v149h222l-22 141h-200v126h262v137h-430v-690h439z" />
    <glyph glyph-name="F" unicode="F" horiz-adv-x="503" 
d="M476 547v143h-413v-690h170v262h204l-24 145h-180v140h243z" />
    <glyph glyph-name="G" unicode="G" horiz-adv-x="682" 
d="M630 60l-0.00195312 335.999h-289l20 -127h120v-123c-14 -7.33301 -28.167 -12.833 -42.5 -16.5s-31.166 -5.5 -50.499 -5.5c-30 0 -56.167 5.33301 -78.5 16s-41 25.834 -56 45.501s-26.167 43 -33.5 70s-11 56.833 -11 89.5c0 32 3.66699 61.333 11 88
s18.333 49.5 33 68.5s33 33.833 55 44.5s48 16 78 16c36 0 69.167 -5.66699 99.5 -17s58.5 -25.333 84.5 -42l23 149c-28 15.333 -59.5 27.666 -94.5 36.999s-73.833 14 -116.5 14c-53.333 0 -101.166 -8.66699 -143.499 -26s-78.333 -41.833 -108 -73.5
s-52.5 -69.5 -68.5 -113.5s-24 -92.667 -24 -146s7.5 -101.833 22.5 -145.5s36.833 -81.167 65.5 -112.5s64.167 -55.666 106.5 -72.999s90.833 -26 145.5 -26c48 0 93 6.33301 135 19s81 30.667 117 54z" />
    <glyph glyph-name="H" unicode="H" horiz-adv-x="707" 
d="M644 0v690h-171v-258h-239v258h-171v-690h171v282h239v-282h171z" />
    <glyph glyph-name="I" unicode="I" horiz-adv-x="305" 
d="M238 0v690h-171v-690h171z" />
    <glyph glyph-name="J" unicode="J" horiz-adv-x="425" 
d="M368 210l0.000976562 480.004h-172v-453c0 -38.667 -8.5 -65.334 -25.5 -80.001s-40.5 -22 -70.5 -22c-19.333 0 -34.833 1 -46.5 3s-23.167 4.66699 -34.5 8l23 -144c9.33301 -2.66699 22.666 -4.83398 39.999 -6.50098s35.666 -2.5 54.999 -2.5
c32.667 0 63.167 4 91.5 12s52.833 20.667 73.5 38s36.834 39.666 48.501 66.999s17.5 60.666 17.5 99.999z" />
    <glyph glyph-name="K" unicode="K" horiz-adv-x="650" 
d="M650 21l-253 350l244 319h-190l-217 -295v295h-171v-690h171v321l232 -328z" />
    <glyph glyph-name="L" unicode="L" horiz-adv-x="485" 
d="M469 0l-23 148h-212v542h-171v-690h406z" />
    <glyph glyph-name="M" unicode="M" horiz-adv-x="891" 
d="M848 0l-50 690h-215l-135 -475l-134 475h-221l-50 -690h149l30 459l131 -460h160l131 460l30 -459h174z" />
    <glyph glyph-name="N" unicode="N" horiz-adv-x="705" 
d="M642 0v690h-159v-386l-254 386h-166v-690h159v413l272 -413h148z" />
    <glyph glyph-name="O" unicode="O" horiz-adv-x="735" 
d="M697 346c0 53.333 -7.83203 101.833 -23.499 145.5s-37.667 81.167 -66 112.5s-62.833 55.666 -103.5 72.999s-86 26 -136 26s-95.333 -8.66699 -136 -26s-75.334 -41.833 -104.001 -73.5s-50.834 -69.5 -66.501 -113.5s-23.5 -92.667 -23.5 -146
s7.83301 -101.833 23.5 -145.5s37.834 -81.167 66.501 -112.5s63.167 -55.666 103.5 -72.999s85.166 -26 134.499 -26c50 0 95.5 8.66699 136.5 26s75.833 41.833 104.5 73.5s50.834 69.5 66.501 113.5s23.5 92.667 23.5 146zM525.001 345
c0 -68.667 -13.833 -123.167 -41.5 -163.5s-66.5 -60.5 -116.5 -60.5s-88.833 20.167 -116.5 60.5s-41.5 94.833 -41.5 163.5s13.833 123.167 41.5 163.5s66.5 60.5 116.5 60.5s88.833 -20.167 116.5 -60.5s41.5 -94.833 41.5 -163.5z" />
    <glyph glyph-name="P" unicode="P" horiz-adv-x="574" 
d="M556 465c0 74.667 -24.166 130.834 -72.499 168.501s-114.5 56.5 -198.5 56.5h-222v-690h171v229h44c42 0 80 5 114 15s63.167 24.833 87.5 44.5s43.166 44.167 56.499 73.5s20 63.666 20 102.999zM390.001 462c0 -36 -10.167 -62.333 -30.5 -79s-49.5 -25 -87.5 -25h-40
v203h43c76.667 0 115 -33 115 -99z" />
    <glyph glyph-name="Q" unicode="Q" horiz-adv-x="735" 
d="M697 356c0 52.667 -7.83105 100.334 -23.498 143.001s-37.834 79.167 -66.501 109.5s-63.334 53.666 -104.001 69.999s-85.667 24.5 -135 24.5c-50 0 -95.167 -8.66699 -135.5 -26s-75 -41.833 -104 -73.5s-51.333 -69.5 -67 -113.5s-23.5 -92.667 -23.5 -146
c0 -91.333 20 -165 60 -221s100 -98.333 180 -127l387 -139l32 146l-161 51c50 26.667 89.333 65.5 118 116.5s43 112.833 43 185.5zM525.002 344c0 -33.333 -3.50098 -64 -10.501 -92s-17.167 -52 -30.5 -72s-29.833 -35.5 -49.5 -46.5s-42.167 -16.5 -67.5 -16.5
c-24.667 0 -46.834 5.5 -66.501 16.5s-36.167 26.5 -49.5 46.5s-23.666 44 -30.999 72s-11 58.667 -11 92s3.5 63.833 10.5 91.5s17.333 51.334 31 71.001s30.167 35 49.5 46s41.666 16.5 66.999 16.5c24.667 0 46.834 -5.5 66.501 -16.5s36.334 -26.333 50.001 -46
s24 -43.334 31 -71.001s10.5 -58.167 10.5 -91.5z" />
    <glyph glyph-name="R" unicode="R" horiz-adv-x="615" 
d="M401 462c0 -33.333 -10.166 -58.667 -30.499 -76s-48.833 -26 -85.5 -26h-53v201h55c37.333 0 65.666 -8.5 84.999 -25.5s29 -41.5 29 -73.5zM441.001 275.999c41.333 18 73 43.167 95 75.5s33 72.5 33 120.5c0 71.333 -23.167 125.5 -69.5 162.5
s-111.5 55.5 -195.5 55.5h-241v-690h170v237h47l151 -244l175 29z" />
    <glyph glyph-name="S" unicode="S" horiz-adv-x="553" 
d="M523 208c0 27.333 -3.83008 51.499 -11.4971 72.499s-20 39.833 -37 56.5s-38.833 32 -65.5 46s-58.667 28 -96 42c-21.333 8 -38.833 15.333 -52.5 22s-24.334 13.167 -32.001 19.5s-13 13 -16 20s-4.5 14.833 -4.5 23.5c0 16 6.33301 29 19 39s32 15 58 15
c26.667 0 55.5 -4.83301 86.5 -14.5s62.167 -23.5 93.5 -41.5l26 144c-30 14.667 -61 26 -93 34s-70.333 12 -115 12c-33.333 0 -64.333 -4.33301 -93 -13s-53.5 -21.667 -74.5 -39s-37.667 -38.666 -50 -63.999s-18.5 -54.666 -18.5 -87.999
c0 -28.667 3.83301 -53.334 11.5 -74.001s19.5 -39 35.5 -55s36.5 -30.5 61.5 -43.5s54.833 -26.167 89.5 -39.5c24 -9.33301 43.667 -17.666 59 -24.999s27.333 -14.5 36 -21.5s14.5 -14.167 17.5 -21.5s4.5 -16 4.5 -26c0 -20.667 -7.66699 -36.167 -23 -46.5
s-35.333 -15.5 -60 -15.5c-34.667 0 -70.834 5.83301 -108.501 17.5s-74.5 27.167 -110.5 46.5l-25 -146c35.333 -16 72.666 -28.667 111.999 -38s82.333 -14 129 -14c34 0 66 4.16699 96 12.5s56.167 21.333 78.5 39s40 40.167 53 67.5s19.5 59.666 19.5 96.999z" />
    <glyph glyph-name="T" unicode="T" horiz-adv-x="609" 
d="M595 545l-24 145h-546v-145h191v-545h172v545h207z" />
    <glyph glyph-name="U" unicode="U" horiz-adv-x="688" 
d="M633 274l0.000976562 415.998h-172v-418c0 -44 -9.66699 -78.167 -29 -102.5s-48.666 -36.5 -87.999 -36.5c-38.667 0 -67.834 12.333 -87.501 37s-29.5 59.334 -29.5 104.001v416h-172v-417c0 -48 7 -89.833 21 -125.5s33.667 -65.334 59 -89.001
s55.666 -41.167 90.999 -52.5s74 -17 116 -17s80.667 5.83301 116 17.5s66 29.334 92 53.001s46.333 53.334 61 89.001s22 77.5 22 125.5z" />
    <glyph glyph-name="V" unicode="V" horiz-adv-x="692" 
d="M679 690h-176l-150 -477l-154 484l-186 -28l242 -672h175z" />
    <glyph glyph-name="W" unicode="W" horiz-adv-x="990" 
d="M972 690h-169l-99 -432l-112 432h-172l-112 -432l-104 439l-185 -29l182 -668h172l119 445l119 -445h173z" />
    <glyph glyph-name="X" unicode="X" horiz-adv-x="661" 
d="M230 351l-218 -351h175l136 236l142 -243l183 29l-16 25.5l-40 63.5l-52.5 82.5l-52.5 82.5l-40 63l-16 25l201 326h-176l-119 -211l-13 23l-31 54.5l-37 64.5l-31 53.5c-8 13.667 -12.333 21.167 -13 22.5l-182 -29z" />
    <glyph glyph-name="Y" unicode="Y" horiz-adv-x="672" 
d="M666 690h-179l-147 -280l-150 287l-182 -25l238 -420v-252h172v254z" />
    <glyph glyph-name="Z" unicode="Z" horiz-adv-x="613" 
d="M580 0l-22 136h-309l322 430v124h-517l21 -136h287l-322 -430v-124h540z" />
    <glyph glyph-name="bracketleft" unicode="[" horiz-adv-x="418" 
d="M383 -104l-16 93h-151v609h162v92h-307v-794h312z" />
    <glyph glyph-name="backslash" unicode="\" horiz-adv-x="530" 
d="M566 -101l-430 800l-125 -27l430 -799z" />
    <glyph glyph-name="bracketright" unicode="]" horiz-adv-x="418" 
d="M347 -104v794h-312l15 -92h152v-609h-162v-93h307z" />
    <glyph glyph-name="asciicircum" unicode="^" 
d="M394 560l-96 134h-138l-102 -147h96l74 58l77 -62z" />
    <glyph glyph-name="underscore" unicode="_" 
d="M456 -104v70h-458v-70h458z" />
    <glyph glyph-name="grave" unicode="`" 
d="M341 547l-60 151l-185 -30l146 -121h99z" />
    <glyph glyph-name="a" unicode="a" horiz-adv-x="507" 
d="M459 0v328c0 62.667 -16.667 106.667 -50 132s-84 38 -152 38c-40 0 -76.167 -3.5 -108.5 -10.5s-62.5 -16.167 -90.5 -27.5l18 -114c26 11.333 51.833 20.333 77.5 27s52.5 10 80.5 10c49.333 0 74 -20.667 74 -62v-9c-96 -8.66699 -166.667 -27.5 -212 -56.5
s-68 -72.167 -68 -129.5c0 -44.667 12.333 -78.5 37 -101.5s56.667 -34.5 96 -34.5c34 0 63.167 6.5 87.5 19.5s46.5 30.167 66.5 51.5l10 -61h134zM308 135c-28 -24.667 -56 -37 -84 -37c-14 0 -25.333 4.16699 -34 12.5s-13 20.166 -13 35.499c0 10.667 2 20.834 6 30.501
s11 18.5 21 26.5s23.333 15 40 21s38 11 64 15v-104z" />
    <glyph glyph-name="b" unicode="b" horiz-adv-x="541" 
d="M510 258c0 41.333 -4.50195 77.168 -13.502 107.501s-21.333 55.5 -37 75.5s-34.334 34.833 -56.001 44.5s-44.834 14.5 -69.501 14.5c-29.333 0 -54.666 -6.66699 -75.999 -20s-39.666 -28 -54.999 -44v286l-151 -24v-669c28.667 -11.333 60.834 -20 96.501 -26
s73.5 -9 113.5 -9c38 0 72.167 5.16699 102.5 15.5s56.333 26.333 78 48s38.334 49.167 50.001 82.5s17.5 72.666 17.5 117.999zM358.998 248.002c0 -48.667 -9.33301 -83 -28 -103s-43 -30 -73 -30c-11.333 0 -20.833 0.666992 -28.5 2s-16.5 3.66602 -26.5 6.99902v194
c12.667 14 25.667 25.333 39 34s28 13 44 13c21.333 0 38.833 -9.16699 52.5 -27.5s20.5 -48.166 20.5 -89.499z" />
    <glyph glyph-name="c" unicode="c" horiz-adv-x="451" 
d="M421 35l-18.001 123.001c-21.333 -13.333 -40.833 -23 -58.5 -29s-35.5 -9 -53.5 -9c-30.667 0 -56.667 10.333 -78 31s-32 52 -32 94c0 41.333 9.83301 72.166 29.5 92.499s44.834 30.5 75.501 30.5c20 0 38.667 -2.83301 56 -8.5s35.666 -14.834 54.999 -27.501l20 129
c-20 11.333 -41.833 20.333 -65.5 27s-50.5 10 -80.5 10c-33.333 0 -64.666 -5.33301 -93.999 -16s-55 -26.667 -77 -48s-39.5 -48 -52.5 -80s-19.5 -69.667 -19.5 -113c0 -39.333 5.66699 -74.5 17 -105.5s27.5 -57.167 48.5 -78.5s46 -37.666 75 -48.999
s61.167 -17 96.5 -17c29.333 0 56.5 3.5 81.5 10.5s49.833 18.167 74.5 33.5z" />
    <glyph glyph-name="d" unicode="d" horiz-adv-x="544" 
d="M492 0l-0.000976562 722l-151 -24v-221c-14 5.33301 -29.167 9.33301 -45.5 12s-35.833 4 -58.5 4c-27.333 0 -53.333 -4.83301 -78 -14.5s-46.667 -25 -66 -46s-34.666 -48.167 -45.999 -81.5s-17 -73.333 -17 -120c0 -41.333 4.5 -77.166 13.5 -107.499
s21.5 -55.333 37.5 -75s34.667 -34.334 56 -44.001s44.666 -14.5 69.999 -14.5c32 0 59.333 7.66699 82 23s42.334 32.333 59.001 51l10 -64h134zM340.999 174c-13.333 -14.667 -26.668 -26.667 -40.001 -36s-28 -14 -44 -14c-21.333 0 -39.166 9.16699 -53.499 27.5
s-21.5 48.5 -21.5 90.5c0 47.333 8.33301 81.333 25 102s37.667 31 63 31c16 0 29 -1 39 -3s20.667 -5.66699 32 -11v-187z" />
    <glyph glyph-name="e" unicode="e" horiz-adv-x="505" 
d="M476 246c0 35.333 -4.33594 68.501 -13.0029 99.501s-21.834 58 -39.501 81s-40.167 41 -67.5 54s-59.666 19.5 -96.999 19.5c-33.333 0 -64.166 -5.83301 -92.499 -17.5s-52.666 -28.667 -72.999 -51s-36.333 -49.333 -48 -81s-17.5 -67.5 -17.5 -107.5
c0 -44 6.16699 -81.833 18.5 -113.5s29.666 -57.834 51.999 -78.501s49 -36 80 -46s64.833 -15 101.5 -15c38.667 0 74.167 4.83301 106.5 14.5s61.833 23.167 88.5 40.5l-15 106c-27.333 -15.333 -54.166 -27.666 -80.499 -36.999s-53.166 -14 -80.499 -14
c-33.333 0 -60.666 8.16699 -81.999 24.5s-34 43.833 -38 82.5h294c1.33301 4 2.16602 9.66699 2.49902 17s0.5 14.666 0.5 21.999zM331.997 290.001h-154.001c2.66699 38 10.834 66.167 24.501 84.5s31.167 27.5 52.5 27.5c46 0 71.667 -37.333 77 -112z" />
    <glyph glyph-name="f" unicode="f" horiz-adv-x="341" 
d="M346 592l-17.999 116.001c-8.66699 1.33301 -18 2.5 -28 3.5s-21 1.5 -33 1.5c-56.667 0 -101.834 -12.333 -135.501 -37s-50.5 -66.334 -50.5 -125.001v-61h-68v-123h68v-367h151v367h107l-18 123h-89v46c0 40 20 60 60 60c10.667 0 20.5 -0.333008 29.5 -1
s17.167 -1.66699 24.5 -3z" />
    <glyph glyph-name="g" unicode="g" horiz-adv-x="534" 
d="M155 9l34 -5.49902c10.667 -1.66699 25 -3.16699 43 -4.5l73 -6c26.667 -3.33301 45.167 -7.83301 55.5 -13.5s15.5 -14.167 15.5 -25.5c0 -16 -10.667 -29.667 -32 -41s-52 -17 -92 -17c-44 0 -76 5.33301 -96 16s-30 24.667 -30 42s9.66699 35.666 29 54.999z
M315 329.001c0 -23.333 -6.16895 -42.666 -18.502 -57.999s-30.166 -23 -53.499 -23c-22 0 -39.167 7.16699 -51.5 21.5s-18.5 33.166 -18.5 56.499s6.16699 43 18.5 59s29.5 24 51.5 24c22.667 0 40.334 -7.5 53.001 -22.5s19 -34.167 19 -57.5zM391.998 451.001
c-18.667 14.667 -40.5049 26.1699 -65.5049 34.5029s-53.167 12.5 -84.5 12.5c-29.333 0 -56.666 -4 -81.999 -12s-47.166 -19.5 -65.499 -34.5s-32.666 -33.333 -42.999 -55s-15.5 -45.834 -15.5 -72.501c0 -32 8 -60.167 24 -84.5s39.333 -43.5 70 -57.5
c-48.667 -27.333 -73 -56.666 -73 -87.999c0 -20 9 -38 27 -54c-27.333 -15.333 -47.5 -31.333 -60.5 -48s-19.5 -35.667 -19.5 -57c0 -18.667 5.83301 -35.334 17.5 -50.001s28 -27 49 -37s45.833 -17.5 74.5 -22.5s60.334 -7.5 95.001 -7.5
c39.333 0 75.666 4.16699 108.999 12.5s62.333 20.166 87 35.499s43.834 33.833 57.501 55.5s20.5 45.834 20.5 72.501c0 37.333 -13.833 64.5 -41.5 81.5s-66.167 28.167 -115.5 33.5l-90 6c-16.667 2 -30 3.83301 -40 5.5s-17.833 3.5 -23.5 5.5s-9.5 4.16699 -11.5 6.5
s-3 5.16602 -3 8.49902c0 6.66699 4 14 12 22c14.667 -2 30 -3 46 -3c28 0 54.167 3.83301 78.5 11.5s45.833 18.667 64.5 33s33.334 32 44.001 53s16 44.833 16 71.5c0 17.333 -3 34.666 -9 51.999l13.5 0.5c9 0.333008 18.833 0.5 29.5 0.5s20.5 0.166992 29.5 0.5
l13.5 0.5l-19 112z" />
    <glyph glyph-name="h" unicode="h" horiz-adv-x="537" 
d="M488 0l-0.000976562 348c0 48 -11.667 85.333 -35 112s-58 40 -104 40c-30 0 -56.667 -6.83301 -80 -20.5s-45.333 -30.5 -66 -50.5v293l-151 -24v-698h151v322c13.333 13.333 26.833 24 40.5 32s27.834 12 42.501 12c18 0 30.833 -5.5 38.5 -16.5
s11.5 -25.167 11.5 -42.5v-307h152z" />
    <glyph glyph-name="i" unicode="i" horiz-adv-x="262" 
d="M217 635c0 25.333 -8.16699 45.333 -24.5 60s-36.833 22 -61.5 22c-24 0 -44.333 -7.33301 -61 -22s-25 -34.667 -25 -60c0 -24.667 8.33301 -44.334 25 -59.001s37 -22 61 -22c24.667 0 45.167 7.33301 61.5 22s24.5 34.334 24.5 59.001zM207 0v490h-152v-490h152z" />
    <glyph glyph-name="j" unicode="j" horiz-adv-x="263" 
d="M217 635c0 25.333 -8.16699 45.333 -24.5 60s-36.833 22 -61.5 22c-24 0 -44.333 -7.33301 -61 -22s-25 -34.667 -25 -60c0 -24.667 8.33301 -44.334 25 -59.001s37 -22 61 -22c24.667 0 45.167 7.33301 61.5 22s24.5 34.334 24.5 59.001zM207 -14v504.001h-152v-492
c0 -24 -4.83301 -40.333 -14.5 -49s-23.167 -13 -40.5 -13c-7.33301 0 -13.833 0.333008 -19.5 1s-11.167 1.66699 -16.5 3l18 -118c5.33301 -1.33301 13 -2.33301 23 -3s20.333 -1 31 -1c25.333 0 48.5 3 69.5 9s39 15.667 54 29s26.667 30.666 35 51.999
s12.5 47.333 12.5 78z" />
    <glyph glyph-name="k" unicode="k" horiz-adv-x="505" 
d="M502 15l-160 252l154 223h-162l-131 -201v433l-151 -24v-698h151v228l142 -235z" />
    <glyph glyph-name="l" unicode="l" horiz-adv-x="262" 
d="M207 0v722l-152 -24v-698h152z" />
    <glyph glyph-name="m" unicode="m" horiz-adv-x="811" 
d="M762 0l0.00488281 348c0 48 -11.667 85.333 -35 112s-58 40 -104 40c-30.667 0 -58.334 -7.33301 -83.001 -22s-48 -33 -70 -55c-9.33301 22 -23.5 40.333 -42.5 55s-45.5 22 -79.5 22c-32 0 -59.833 -7.16699 -83.5 -21.5s-46.5 -32.833 -68.5 -55.5l-11 67h-133v-490
h151v323c13.333 13.333 26.5 23.833 39.5 31.5s26.5 11.5 40.5 11.5c17.333 0 29.666 -5.5 36.999 -16.5s11 -25.167 11 -42.5v-307h151v323c13.333 13.333 26.666 23.833 39.999 31.5s26.666 11.5 39.999 11.5c17.333 0 29.666 -5.5 36.999 -16.5s11 -25.167 11 -42.5v-307
h152z" />
    <glyph glyph-name="n" unicode="n" horiz-adv-x="537" 
d="M488 0l-0.00195312 348c0 48 -11.667 85.333 -35 112s-58 40 -104 40c-31.333 0 -59.166 -7.5 -83.499 -22.5s-47.5 -33.167 -69.5 -54.5l-11 67h-133v-490h151v322c13.333 13.333 26.833 24 40.5 32s27.834 12 42.501 12c18 0 30.833 -5.5 38.5 -16.5
s11.5 -25.167 11.5 -42.5v-307h152z" />
    <glyph glyph-name="o" unicode="o" horiz-adv-x="527" 
d="M499 245c0 39.333 -6 74.667 -18 106s-28.5 58 -49.5 80s-45.833 39 -74.5 51s-60 18 -94 18s-65.333 -6 -94 -18s-53.5 -29 -74.5 -51s-37.333 -48.833 -49 -80.5s-17.5 -67.167 -17.5 -106.5s5.83301 -74.666 17.5 -105.999s28 -58 49 -80s45.667 -38.833 74 -50.5
s59.5 -17.5 93.5 -17.5s65.5 6 94.5 18s54 29 75 51s37.5 48.667 49.5 80s18 66.666 18 105.999zM353 244.001c0 -40 -7.66699 -72 -23 -96s-37.666 -36 -66.999 -36c-28.667 0 -50.667 12.167 -66 36.5s-23 56.5 -23 96.5s7.5 71.833 22.5 95.5s37.167 35.5 66.5 35.5
s51.666 -12 66.999 -36s23 -56 23 -96z" />
    <glyph glyph-name="p" unicode="p" horiz-adv-x="544" 
d="M512 258c0 41.333 -4.49902 77.167 -13.499 107.5s-21.333 55.5 -37 75.5s-34.167 34.833 -55.5 44.5s-44.666 14.5 -69.999 14.5c-16 0 -30.667 -2.16699 -44 -6.5s-25.833 -10 -37.5 -17s-22.334 -15 -32.001 -24s-18.834 -18.167 -27.501 -27.5l-10 65h-133v-676
l151 23v175c14 -4.66699 29.167 -8.66699 45.5 -12s35.5 -5 57.5 -5c26.667 0 52.5 5 77.5 15s47 25.667 66 47s34.167 48.5 45.5 81.5s17 72.833 17 119.5zM361.001 248.001c0 -48 -8.5 -82.333 -25.5 -103s-38.167 -31 -63.5 -31c-15.333 0 -28 1.16699 -38 3.5
s-20.333 6.16602 -31 11.499v186c12.667 15.333 25.667 27.5 39 36.5s28.333 13.5 45 13.5c21.333 0 39 -9.16699 53 -27.5s21 -48.166 21 -89.499z" />
    <glyph glyph-name="q" unicode="q" horiz-adv-x="541" 
d="M489 -163l0.000976562 624.001c-29.333 10.667 -61.833 19.167 -97.5 25.5s-73.5 9.5 -113.5 9.5c-37.333 0 -71.333 -5.33301 -102 -16s-56.834 -26.834 -78.501 -48.501s-38.334 -49.167 -50.001 -82.5s-17.5 -72.666 -17.5 -117.999
c0 -41.333 4.5 -77.166 13.5 -107.499s21.333 -55.333 37 -75s34.334 -34.334 56.001 -44.001s45.167 -14.5 70.5 -14.5c29.333 0 54.5 6.66699 75.5 20s39.5 27.666 55.5 42.999v-239zM338.001 171.001c-13.333 -13.333 -26.668 -24.501 -40.001 -33.501
s-27.666 -13.5 -42.999 -13.5c-21.333 0 -38.833 9.16699 -52.5 27.5s-20.5 48.5 -20.5 90.5c0 48 9.16699 82 27.5 102s42.5 30 72.5 30c11.333 0 21 -0.666992 29 -2s17 -3.66602 27 -6.99902v-194z" />
    <glyph glyph-name="r" unicode="r" horiz-adv-x="377" 
d="M368 346l-25 154c-36 -2.66699 -65.167 -14.167 -87.5 -34.5s-40.833 -44.5 -55.5 -72.5l-16 97h-132v-490h151v272c18.667 20 41.667 36.667 69 50s59.333 21.333 96 24z" />
    <glyph glyph-name="s" unicode="s" horiz-adv-x="464" 
d="M435 151c0 22.667 -3 42.001 -9 58.001s-16 30 -30 42s-32.167 22.667 -54.5 32s-49.833 18.333 -82.5 27c-17.333 4.66699 -31.333 9 -42 13s-19 7.83301 -25 11.5s-10.167 7.5 -12.5 11.5s-3.5 8.66699 -3.5 14c0 9.33301 4.16699 17 12.5 23s21.5 9 39.5 9
c23.333 0 49.333 -4 78 -12s56.334 -19.333 83.001 -34l19 115c-25.333 11.333 -53.5 20.166 -84.5 26.499s-63.167 9.5 -96.5 9.5c-60.667 0 -107.167 -13.833 -139.5 -41.5s-48.5 -64.5 -48.5 -110.5c0 -23.333 3.33301 -43 10 -59s17.167 -30 31.5 -42
s32.5 -22.333 54.5 -31s48.333 -17 79 -25c17.333 -4 31.333 -8 42 -12s19 -8 25 -12s10.167 -8.33301 12.5 -13s3.5 -10 3.5 -16c0 -24.667 -20.667 -37 -62 -37c-28 0 -58.5 5.16699 -91.5 15.5s-64.167 24.5 -93.5 42.5l-18 -115c25.333 -13.333 55.5 -24.833 90.5 -34.5
s72.167 -14.5 111.5 -14.5c65.333 0 115.166 13.5 149.499 40.5s51.5 66.5 51.5 118.5z" />
    <glyph glyph-name="t" unicode="t" horiz-adv-x="363" 
d="M344 3l-19.001 123.999c-12 -3.33301 -24 -5 -36 -5c-40 0 -60 19.333 -60 58v187h112l-19 123h-93v169l-150 -23v-146h-65v-123h65v-211c0 -31.333 4.33301 -57.5 13 -78.5s20.834 -37.667 36.501 -50s34.5 -21.166 56.5 -26.499s46 -8 72 -8
c20 0 36.5 0.833008 49.5 2.5s25.5 4.16699 37.5 7.5z" />
    <glyph glyph-name="u" unicode="u" horiz-adv-x="537" 
d="M485 0l0.000976562 490.001h-151v-323c-13.333 -13.333 -26.833 -24 -40.5 -32s-27.834 -12 -42.501 -12c-18 0 -31 5.66699 -39 17s-12 25.666 -12 42.999v307h-151v-349c0 -48 11.667 -85.167 35 -111.5s58 -39.5 104 -39.5c30.667 0 58.167 7.33301 82.5 22
s47.833 33 70.5 55l11 -67h133z" />
    <glyph glyph-name="v" unicode="v" horiz-adv-x="507" 
d="M499 490h-147l-89 -303l-91 310l-162 -19l167 -480h151z" />
    <glyph glyph-name="w" unicode="w" horiz-adv-x="725" 
d="M715 490h-140l-65 -285l-70 285h-136l-69 -286l-67 293l-156 -19l134 -478h145l71 280l72 -280h144z" />
    <glyph glyph-name="x" unicode="x" horiz-adv-x="496" 
d="M481 12l-150 248l142 230h-143l-75 -132l-76 139l-157 -19l142 -236l-149 -242h144l81 144l84 -151z" />
    <glyph glyph-name="y" unicode="y" horiz-adv-x="510" 
d="M502 490h-145.999l-90 -302l-95 309l-162 -19l178 -479l-6 -15c-8 -17.333 -19 -29.5 -33 -36.5s-29.667 -10.5 -47 -10.5c-14.667 0 -26.334 0.666992 -35.001 2s-17 3.33301 -25 6l19 -121l22.5 -4c7.66699 -1.33301 19.167 -2 34.5 -2c26.667 0 50.667 3 72 9
s40.5 15.667 57.5 29s32 31 45 53s25.167 49 36.5 81z" />
    <glyph glyph-name="z" unicode="z" horiz-adv-x="467" 
d="M442 0l-19 118h-207l214 257v115h-392l18 -118h187l-214 -258v-114h413z" />
    <glyph glyph-name="braceleft" unicode="{" horiz-adv-x="506" 
d="M469 -104l-15 92.998h-78c-23.333 0 -40.5 5 -51.5 15s-16.5 24 -16.5 42c0 20 2.16699 39.333 6.5 58s6.5 39 6.5 61c0 37.333 -9.83301 65.833 -29.5 85.5s-47.834 33.5 -84.501 41.5v2c36.667 8 64.834 21.833 84.501 41.5s29.5 48.167 29.5 85.5
c0 22.667 -2.16699 43.167 -6.5 61.5s-6.5 37.5 -6.5 57.5c0 38.667 22.667 58 68 58h89v92h-150c-52 0 -91 -11.667 -117 -35s-39 -55.333 -39 -96c0 -23.333 2.16699 -45.5 6.5 -66.5s6.5 -42.833 6.5 -65.5c0 -33.333 -9.33301 -56.166 -28 -68.499
s-44.667 -18.5 -78 -18.5h-41l15 -93h25c33.333 0 59.5 -6.33301 78.5 -19s28.5 -35.667 28.5 -69c0 -22 -2.16699 -43.667 -6.5 -65s-6.5 -43.666 -6.5 -66.999c0 -40.667 13 -72.667 39 -96s65 -35 117 -35h154z" />
    <glyph glyph-name="bar" unicode="|" horiz-adv-x="300" 
d="M214 -166v888l-127 -20v-888z" />
    <glyph glyph-name="braceright" unicode="}" horiz-adv-x="506" 
d="M480 247l-15 93.0029h-25c-34 0 -60.5 6.16699 -79.5 18.5s-28.5 35.166 -28.5 68.499c0 22.667 2.33301 44.5 7 65.5s7 43.167 7 66.5c0 40.667 -13 72.667 -39 96s-65 35 -117 35h-154l14 -92h80c45.333 0 68 -19 68 -57c0 -20 -2.33301 -39.333 -7 -58
s-7 -39.334 -7 -62.001c0 -37.333 9.83301 -65.833 29.5 -85.5s47.834 -33.5 84.501 -41.5v-2c-36.667 -8 -64.834 -21.833 -84.501 -41.5s-29.5 -48.167 -29.5 -85.5c0 -22 2.33301 -42.5 7 -61.5s7 -38.5 7 -58.5c0 -37.333 -22.667 -56 -68 -56h-90v-93h150
c52 0 91 11.667 117 35s39 55.333 39 96c0 23.333 -2.33301 45.666 -7 66.999s-7 43 -7 65c0 33.333 9.5 56.333 28.5 69s45.167 19 78.5 19h41z" />
    <glyph glyph-name="asciitilde" unicode="~" horiz-adv-x="409" 
d="M372 354l-70.998 16.998c-4.66699 -17.333 -9.33398 -29.166 -14.001 -35.499s-10.667 -9.5 -18 -9.5c-8 0 -16.167 1.33301 -24.5 4s-22.166 8.33398 -41.499 17.001c-14 6 -26 10.833 -36 14.5s-21.333 5.5 -34 5.5c-25.333 0 -46 -10.333 -62 -31
s-27.333 -57 -34 -109l71 -15c4 17.333 8.5 29 13.5 35s11.167 9 18.5 9s15.166 -1.5 23.499 -4.5s22.166 -8.5 41.499 -16.5c14 -6 26.167 -10.833 36.5 -14.5s21.833 -5.5 34.5 -5.5c25.333 0 45.833 10.333 61.5 31s27.167 56.667 34.5 108z" />
    <glyph glyph-name="nonbreakingspace" unicode="&#xa0;" horiz-adv-x="104" 
 />
    <glyph glyph-name="exclamdown" unicode="&#xa1;" horiz-adv-x="295" 
d="M229 518v172h-163v-172h163zM242 0l-50 453l-92 -21l-46 -432h188z" />
    <glyph glyph-name="cent" unicode="&#xa2;" horiz-adv-x="494" 
d="M299 88c30 1.33301 57.499 5.33398 82.499 12.001s50.167 17 75.5 31l-15 116c-25.333 -14 -48.5 -23.833 -69.5 -29.5s-41.5 -8.83398 -61.5 -9.50098l39 255c15.333 -3.33301 30 -7.83301 44 -13.5s27.667 -12.167 41 -19.5l18 121
c-23.333 13.333 -49.666 23 -78.999 29l15 88l-76 17l-15 -98h-3c-36.667 0 -70.667 -5.5 -102 -16.5s-58.5 -27.167 -81.5 -48.5s-41.167 -47.5 -54.5 -78.5s-20 -66.5 -20 -106.5c0 -65.333 16.667 -119 50 -161s78.333 -69 135 -81l-14 -88l76 -17zM247.999 217.001
c-45.333 18.667 -68 58 -68 118c0 41.333 9.16699 73 27.5 95s44.833 34.333 79.5 37z" />
    <glyph glyph-name="sterling" unicode="&#xa3;" horiz-adv-x="551" 
d="M141 399l-94 -0.00195312v-127h54l-54 -171v-101h469l-21 130h-277l44 142h184l-20 127h-124l21 67c9.33301 30.667 21.5 52.334 36.5 65.001s35.5 19 61.5 19c13.333 0 25.5 -0.833008 36.5 -2.5s22.5 -4.5 34.5 -8.5l20 135
c-13.333 4.66699 -28.833 8.33398 -46.5 11.001s-38.167 4 -61.5 4c-60.667 0 -109 -13.833 -145 -41.5s-63.333 -72.167 -82 -133.5z" />
    <glyph glyph-name="currency" unicode="&#xa4;" horiz-adv-x="609" 
d="M101 380c-0.666992 -7.33301 -1.16895 -14.5 -1.50195 -21.5s-0.5 -14.167 -0.5 -21.5v-17c0 -5.33301 0.333008 -10.666 1 -15.999h-81l12 -77h78c15.333 -76.667 47.5 -135.5 96.5 -176.5s115.167 -61.5 198.5 -61.5c37.333 0 70.333 3.83301 99 11.5
s56.334 18.167 83.001 31.5l-21 129c-22.667 -12.667 -45.167 -22.334 -67.5 -29.001s-45.5 -10 -69.5 -10c-76 0 -125 35 -147 105h202v77h-215c-0.666992 5.33301 -1 11 -1 17v17v21c0 6.66699 0.333008 13.667 1 21h222l-13 77h-194c22.667 64.667 67.334 97 134.001 97
c28 0 52.333 -3.33301 73 -10s41.667 -16.334 63 -29.001l22 133c-23.333 12.667 -49.166 22.334 -77.499 29.001s-59.833 10 -94.5 10c-38.667 0 -73.834 -5.5 -105.501 -16.5s-59.667 -26.5 -84 -46.5s-45 -44.167 -62 -72.5s-29.833 -59.833 -38.5 -94.5h-88v-77h76z" />
    <glyph glyph-name="yen" unicode="&#xa5;" horiz-adv-x="641" 
d="M397 222h161l-12 76h-128l216 378h-172l-137 -276l-142 283l-175 -23l204 -362h-134v-76h155v-65h-160l12 -76h148v-81h164v81h156v76h-156v65z" />
    <glyph glyph-name="brokenbar" unicode="&#xa6;" horiz-adv-x="500" 
d="M25 -200h450v1000h-450v-1000z" />
    <glyph glyph-name="section" unicode="&#xa7;" horiz-adv-x="569" 
d="M538 365c0 35.333 -11.666 62 -34.999 80s-62 33.667 -116 47l-86 21c-22.667 6 -38.167 11.667 -46.5 17s-12.5 13 -12.5 23c0 9.33301 4 17 12 23s21 9 39 9c41.333 0 86.666 -10.333 135.999 -31l16 104c-24.667 8.66699 -49.5 15.167 -74.5 19.5
s-54.167 6.5 -87.5 6.5c-26 0 -50.167 -3.16699 -72.5 -9.5s-41.666 -15.5 -57.999 -27.5s-29 -27 -38 -45s-13.5 -38.667 -13.5 -62c0 -41.333 13.167 -72.166 39.5 -92.499s63.833 -36.5 112.5 -48.5l78 -19c29.333 -7.33301 49.333 -14.5 60 -21.5s16 -16.833 16 -29.5
c0 -7.33301 -1.33301 -14.333 -4 -21s-5.66699 -13.334 -9 -20.001l111 -18c9.33301 12.667 17.166 27.5 23.499 44.5s9.5 33.833 9.5 50.5zM32.001 311c0 -35.333 11.6689 -62 35.002 -80s61.666 -33.667 114.999 -47l87 -21c22 -6 37.333 -11.667 46 -17s13 -13 13 -23
c0 -9.33301 -4.16699 -17 -12.5 -23s-21.166 -9 -38.499 -9c-42 0 -87.667 10.333 -137 31l-16 -104c25.333 -8.66699 50.5 -15.167 75.5 -19.5s53.833 -6.5 86.5 -6.5c26 0 50.167 3.16699 72.5 9.5s41.666 15.5 57.999 27.5s29 27 38 45s13.5 38.667 13.5 62
c0 41.333 -13.167 72.166 -39.5 92.499s-63.833 36.5 -112.5 48.5l-77 19c-29.333 6.66699 -49.333 13.667 -60 21s-16 17.333 -16 30c0 7.33301 1.16699 14.333 3.5 21s5.16602 13.334 8.49902 20.001l-110 18c-10 -12.667 -18 -27.5 -24 -44.5s-9 -33.833 -9 -50.5z" />
    <glyph glyph-name="dieresis" unicode="&#xa8;" 
d="M391 548v131h-130v-131h130zM193 548v131h-130v-131h130z" />
    <glyph glyph-name="copyright" unicode="&#xa9;" horiz-adv-x="799" 
d="M745 346c0 53.333 -8.33594 101.833 -25.0029 145.5s-40.167 81.167 -70.5 112.5s-66.666 55.666 -108.999 72.999s-89.166 26 -140.499 26s-98.166 -8.66699 -140.499 -26s-78.666 -41.833 -108.999 -73.5s-54 -69.5 -71 -113.5s-25.5 -92.667 -25.5 -146
s8.33301 -101.833 25 -145.5s40.167 -81.167 70.5 -112.5s66.666 -55.666 108.999 -72.999s89.166 -26 140.499 -26c50.667 0 97.334 8.66699 140.001 26s79.167 41.833 109.5 73.5s54 69.5 71 113.5s25.5 92.667 25.5 146zM700.997 345c0 -52 -7.66504 -98 -22.998 -138
s-36.5 -73.667 -63.5 -101s-58.833 -48 -95.5 -62s-76.334 -21 -119.001 -21s-82.334 7 -119.001 21s-68.5 34.667 -95.5 62s-48.333 61 -64 101s-23.5 86 -23.5 138s7.66699 98 23 138s36.5 73.667 63.5 101s58.833 48 95.5 62s76.667 21 120 21c42 0 81.333 -7 118 -21
s68.5 -34.667 95.5 -62s48.333 -61 64 -101s23.5 -86 23.5 -138zM544.999 177l-13.999 89.999c-19.333 -11.333 -36.833 -19.166 -52.5 -23.499s-31.167 -6.5 -46.5 -6.5c-31.333 0 -55.833 10.167 -73.5 30.5s-26.5 47.5 -26.5 81.5c0 32 8 58.333 24 79s39 31 69 31
c18 0 34.5 -2.5 49.5 -7.5s31.167 -13.167 48.5 -24.5l15 98c-17.333 8 -35.833 14.333 -55.5 19s-41.167 7 -64.5 7c-30 0 -57.333 -4.83301 -82 -14.5s-45.834 -23.5 -63.501 -41.5s-31.5 -39.5 -41.5 -64.5s-15 -52.5 -15 -82.5s4.66699 -57.5 14 -82.5
s22.833 -46.5 40.5 -64.5s39 -31.833 64 -41.5s53.5 -14.5 85.5 -14.5c45.333 0 87 10.667 125 32z" />
    <glyph glyph-name="ordfeminine" unicode="&#xaa;" horiz-adv-x="401" 
d="M342 354l0.00390625 216.003c0 39.333 -11.333 67.666 -34 84.999s-56.667 26 -102 26c-28 0 -53.5 -2.5 -76.5 -7.5s-43.833 -11.167 -62.5 -18.5l11 -74c17.333 7.33301 34.666 13.166 51.999 17.499s35.333 6.5 54 6.5c18 0 31.667 -3.16699 41 -9.5
s14 -17.5 14 -33.5v-6c-66 -5.33301 -114.5 -17.333 -145.5 -36s-46.5 -47 -46.5 -85c0 -26.667 8.16699 -47.834 24.5 -63.501s38.166 -23.5 65.499 -23.5c21.333 0 40.666 4.16699 57.999 12.5s33.666 19.5 48.999 33.5l7 -40h91zM351.004 222.003l-12 73h-288v-73h300z
M239.004 446.003c-20 -18 -40.667 -27 -62 -27c-20 0 -30 10.667 -30 32c0 12 6.66699 23.167 20 33.5s37.333 17.833 72 22.5v-61z" />
    <glyph glyph-name="guillemotleft" unicode="&#xab;" horiz-adv-x="571" 
d="M535 490h-108l-166 -245l170 -253l98 20l-102 233zM297 490h-109l-166 -245l171 -253l98 20l-103 233z" />
    <glyph glyph-name="logicalnot" unicode="&#xac;" horiz-adv-x="572" 
d="M518 275v126h-464v-126h464z" />
    <glyph glyph-name="registered" unicode="&#xae;" horiz-adv-x="563" 
d="M508 470c0 34.667 -5.5 66.3369 -16.5 95.0039s-26.5 53.167 -46.5 73.5s-44 36.166 -72 47.499s-58.667 17 -92 17s-63.833 -5.66699 -91.5 -17s-51.5 -27.333 -71.5 -48s-35.667 -45.167 -47 -73.5s-17 -59.833 -17 -94.5s5.5 -66.334 16.5 -95.001
s26.5 -53.167 46.5 -73.5s44 -36 72 -47s58.667 -16.5 92 -16.5c32.667 0 63 5.66699 91 17s52 27.166 72 47.499s35.667 44.666 47 72.999s17 59.833 17 94.5zM475 470.003c0 -32.667 -5.00195 -61.667 -15.002 -87s-23.667 -46.833 -41 -64.5s-37.833 -31 -61.5 -40
s-49.167 -13.5 -76.5 -13.5s-52.666 4.5 -75.999 13.5s-43.833 22.333 -61.5 40s-31.5 39.167 -41.5 64.5s-15 54.333 -15 87s5 61.834 15 87.501s23.833 47.334 41.5 65.001s38.167 31 61.5 40s48.666 13.5 75.999 13.5c26.667 0 51.834 -4.5 75.501 -13.5
s44.334 -22.333 62.001 -40s31.5 -39.334 41.5 -65.001s15 -54.834 15 -87.501zM403.998 359.003l-64 96c30.667 13.333 46 37 46 71c0 26 -8.66699 45.833 -26 59.5s-42 20.5 -74 20.5h-99v-256h70v89h14l58 -92zM316.998 521.003c0 -24 -13.333 -36 -40 -36h-20v71h21
c26 0 39 -11.667 39 -35z" />
    <glyph glyph-name="macron" unicode="&#xaf;" 
d="M376 559v104h-298v-104h298z" />
    <glyph glyph-name="macron" unicode="&#x2c9;" 
d="M376 559v104h-298v-104h298z" />
    <glyph glyph-name="degree" unicode="&#xb0;" horiz-adv-x="446" 
d="M400 505c0 25.333 -4.33301 48.833 -13 70.5s-20.834 40.334 -36.501 56.001s-34.334 28 -56.001 37s-45.5 13.5 -71.5 13.5s-49.833 -4.5 -71.5 -13.5s-40.334 -21.333 -56.001 -37s-27.834 -34.334 -36.501 -56.001s-13 -45.167 -13 -70.5
c0 -26 4.33301 -49.667 13 -71s20.834 -39.833 36.501 -55.5s34.334 -27.834 56.001 -36.501s45.5 -13 71.5 -13s49.833 4.33301 71.5 13s40.334 20.834 56.001 36.501s27.834 34.167 36.501 55.5s13 45 13 71zM310 505c0 -27.333 -8 -49.666 -24 -66.999s-37 -26 -63 -26
s-47 8.66699 -63 26s-24 39.666 -24 66.999c0 26.667 8 49 24 67s37 27 63 27s47 -9 63 -27s24 -40.333 24 -67z" />
    <glyph glyph-name="plusminus" unicode="&#xb1;" horiz-adv-x="610" 
d="M591 135v115h-95v179l-152 -33v-146h-157l269 397l-145 34l-285 -434v-112h316v-135h154v135h95z" />
    <glyph glyph-name="twosuperior" unicode="&#xb2;" horiz-adv-x="500" 
d="M25 -200h450v1000h-450v-1000z" />
    <glyph glyph-name="threesuperior" unicode="&#xb3;" horiz-adv-x="500" 
d="M25 -200h450v1000h-450v-1000z" />
    <glyph glyph-name="acute" unicode="&#xb4;" 
d="M357 668l-183 30l-60 -151h96z" />
    <glyph glyph-name="mu" unicode="&#xb5;" horiz-adv-x="572" 
d="M425 113l86 86l-142 140l141 139l-84 84l-139 -141l-140 142l-86 -86l142 -140l-141 -139l84 -84l139 141z" />
    <glyph glyph-name="mu" unicode="&#x3bc;" horiz-adv-x="572" 
d="M425 113l86 86l-142 140l141 139l-84 84l-139 -141l-140 142l-86 -86l142 -140l-141 -139l84 -84l139 141z" />
    <glyph glyph-name="paragraph" unicode="&#xb6;" horiz-adv-x="550" 
d="M481 0v675.999h-189c-80 0 -142.833 -19.667 -188.5 -59s-68.5 -94.666 -68.5 -165.999c0 -37.333 6 -69.833 18 -97.5s29 -51 51 -70s48.667 -33.5 80 -43.5s66.333 -15.667 105 -17l36 220v164h65v-607h91z" />
    <glyph glyph-name="periodcentered" unicode="&#xb7;" horiz-adv-x="258" 
d="M211 204v173h-162v-173h162z" />
    <glyph glyph-name="cedilla" unicode="&#xb8;" 
d="M342 -76l-182 30l-54 -136h97z" />
    <glyph glyph-name="onesuperior" unicode="&#xb9;" horiz-adv-x="500" 
d="M25 -200h450v1000h-450v-1000z" />
    <glyph glyph-name="ordmasculine" unicode="&#xba;" horiz-adv-x="402" 
d="M364 514c0 26 -4.16699 49.167 -12.5 69.5s-19.666 37.833 -33.999 52.5s-31.5 25.834 -51.5 33.501s-42 11.5 -66 11.5c-23.333 0 -44.833 -3.83301 -64.5 -11.5s-36.834 -18.834 -51.501 -33.501s-26 -32.167 -34 -52.5s-12 -43.5 -12 -69.5s4 -49.167 12 -69.5
s19.333 -37.666 34 -51.999s31.834 -25.333 51.501 -33s41.167 -11.5 64.5 -11.5c24 0 46 3.83301 66 11.5s37.167 18.667 51.5 33s25.666 31.666 33.999 51.999s12.5 43.5 12.5 69.5zM357 222l-12 73h-297v-73h309zM261 514c0 -25.333 -5.33301 -45.833 -16 -61.5
s-25.667 -23.5 -45 -23.5s-34 7.83301 -44 23.5s-15 36.167 -15 61.5s5 45.833 15 61.5s24.667 23.5 44 23.5s34.333 -7.83301 45 -23.5s16 -36.167 16 -61.5z" />
    <glyph glyph-name="guillemotright" unicode="&#xbb;" horiz-adv-x="571" 
d="M549 244l-170 254l-99 -21l103 -233l-109 -244h109zM311 244l-171 254l-98 -21l102 -233l-108 -244h109z" />
    <glyph glyph-name="onequarter" unicode="&#xbc;" horiz-adv-x="500" 
d="M25 -200h450v1000h-450v-1000z" />
    <glyph glyph-name="onehalf" unicode="&#xbd;" horiz-adv-x="500" 
d="M25 -200h450v1000h-450v-1000z" />
    <glyph glyph-name="threequarters" unicode="&#xbe;" horiz-adv-x="500" 
d="M25 -200h450v1000h-450v-1000z" />
    <glyph glyph-name="questiondown" unicode="&#xbf;" horiz-adv-x="506" 
d="M213 690v-172h162v172h-162zM236 405c-69.333 -22 -121.834 -50.667 -157.501 -86s-53.5 -82 -53.5 -140c0 -60.667 19.5 -107.834 58.5 -141.501s93.833 -50.5 164.5 -50.5c50 0 93.667 6.66699 131 20s71 30 101 50l-21 140
c-29.333 -20.667 -60.166 -37.667 -92.499 -51s-64.5 -20 -96.5 -20c-28 0 -49.167 5.83301 -63.5 17.5s-21.5 27.834 -21.5 48.501c0 24 10 44 30 60s54.333 31.667 103 47l31 10l-11 152l-99 -23z" />
    <glyph glyph-name="Agrave" unicode="&#xc0;" horiz-adv-x="702" 
d="M689 21l-240 672h-188l-248 -693h167l48 143h237l52 -150zM424 277h-156l78 240zM404 740l-60 151l-185 -30l146 -121h99z" />
    <glyph glyph-name="Aacute" unicode="&#xc1;" horiz-adv-x="702" 
d="M546 861l-183 30l-60 -151h96zM689 21l-240 672h-188l-248 -693h167l48 143h237l52 -150zM424 277h-156l78 240z" />
    <glyph glyph-name="Acircumflex" unicode="&#xc2;" horiz-adv-x="702" 
d="M689 21l-240 672h-188l-248 -693h167l48 143h237l52 -150zM424 277h-156l78 240zM518 744l-96 134h-138l-102 -147h96l74 58l77 -62z" />
    <glyph glyph-name="Atilde" unicode="&#xc3;" horiz-adv-x="702" 
d="M689 21l-240 672h-188l-248 -693h167l48 143h237l52 -150zM424 277h-156l78 240zM518 879l-70.9961 16.998c-4 -17.333 -8.5 -29.166 -13.5 -35.499s-11.167 -9.5 -18.5 -9.5s-15.333 1.33301 -24 4s-22.334 8.33398 -41.001 17.001c-14 6.66699 -26 11.667 -36 15
s-21.667 5 -35 5c-25.333 0 -45.833 -10.333 -61.5 -31s-26.834 -57 -33.501 -109l71 -15c4 17.333 8.5 29 13.5 35s11.167 9 18.5 9s15.166 -1.5 23.499 -4.5s22.166 -8.5 41.499 -16.5c14 -6 26 -10.833 36 -14.5s21.667 -5.5 35 -5.5c24.667 0 45 10.333 61 31
s27.333 56.667 34 108z" />
    <glyph glyph-name="Adieresis" unicode="&#xc4;" horiz-adv-x="702" 
d="M689 21l-240 672h-188l-248 -693h167l48 143h237l52 -150zM424 277h-156l78 240zM515 741v131h-130v-131h130zM317 741v131h-130v-131h130z" />
    <glyph glyph-name="Aring" unicode="&#xc5;" horiz-adv-x="702" 
d="M689 21l-240 672h-188l-248 -693h167l48 143h237l52 -150zM424 277h-156l78 240zM483 846c0 29.333 -11.1689 54.666 -33.502 75.999s-55.166 32 -98.499 32s-76.166 -10.667 -98.499 -32s-33.5 -46.666 -33.5 -75.999c0 -30 11 -55.5 33 -76.5s55 -31.5 99 -31.5
s77 10.5 99 31.5s33 46.5 33 76.5zM400.998 846c0 -16 -4.5 -29.667 -13.5 -41s-21.167 -17 -36.5 -17s-27.5 5.66699 -36.5 17s-13.5 25 -13.5 41c0 15.333 4.5 28.666 13.5 39.999s21.167 17 36.5 17s27.5 -5.66699 36.5 -17s13.5 -24.666 13.5 -39.999z" />
    <glyph glyph-name="AE" unicode="&#xc6;" horiz-adv-x="906" 
d="M873 0v137h-271v149h222l-22 141h-200v126h262v137h-527l-335 -690h175l68 143h196v-143h432zM441 277h-138l138 299v-299z" />
    <glyph glyph-name="Ccedilla" unicode="&#xc7;" horiz-adv-x="605" 
d="M569 39l-22.0039 140c-26 -14.667 -51.667 -26.334 -77 -35.001s-52 -13 -80 -13c-26 0 -50 4.66699 -72 14s-41.167 23 -57.5 41s-29 40.333 -38 67s-13.5 57.334 -13.5 92.001c0 68 15.667 120.667 47 158s73 56 125 56c30 0 57.833 -5.33301 83.5 -16
s49.167 -24 70.5 -40l24 154c-25.333 14 -53.666 25 -84.999 33s-66.666 12 -105.999 12c-49.333 0 -94.166 -8.66699 -134.499 -26s-75 -41.666 -104 -72.999s-51.5 -69 -67.5 -113s-24 -92.667 -24 -146c0 -54 7.66699 -103 23 -147s37.333 -81.5 66 -112.5
s63.834 -54.833 105.501 -71.5s88.5 -25 140.5 -25c38 0 73.167 4.66699 105.5 14s62.5 21.666 90.5 36.999zM442.996 -79l-182 30l-54 -136h97z" />
    <glyph glyph-name="Egrave" unicode="&#xc8;" horiz-adv-x="535" 
d="M502 0v137h-271v149h222l-22 141h-200v126h262v137h-430v-690h439zM353 741l-60 151l-185 -30l146 -121h99z" />
    <glyph glyph-name="Eacute" unicode="&#xc9;" horiz-adv-x="535" 
d="M502 0v137h-271v149h222l-22 141h-200v126h262v137h-430v-690h439zM439 862l-183 30l-60 -151h96z" />
    <glyph glyph-name="Ecircumflex" unicode="&#xca;" horiz-adv-x="535" 
d="M502 0v137h-271v149h222l-22 141h-200v126h262v137h-430v-690h439zM442 754l-96 134h-138l-102 -147h96l74 58l77 -62z" />
    <glyph glyph-name="Edieresis" unicode="&#xcb;" horiz-adv-x="535" 
d="M502 0v137h-271v149h222l-22 141h-200v126h262v137h-430v-690h439zM439 742v131h-130v-131h130zM241 742v131h-130v-131h130z" />
    <glyph glyph-name="Igrave" unicode="&#xcc;" horiz-adv-x="305" 
d="M238 0v690h-171v-690h171zM208 741l-60 151l-185 -30l146 -121h99z" />
    <glyph glyph-name="Iacute" unicode="&#xcd;" horiz-adv-x="305" 
d="M342 862l-183 30l-60 -151h96zM238 0v690h-171v-690h171z" />
    <glyph glyph-name="Icircumflex" unicode="&#xce;" horiz-adv-x="305" 
d="M238 0v690h-171v-690h171zM320 745l-96 134h-138l-102 -147h96l74 58l77 -62z" />
    <glyph glyph-name="Idieresis" unicode="&#xcf;" horiz-adv-x="305" 
d="M238 0v690h-171v-690h171zM317 742v131h-130v-131h130zM119 742v131h-130v-131h130z" />
    <glyph glyph-name="Eth" unicode="&#xd0;" horiz-adv-x="740" 
d="M702 346c0 51.333 -7.83105 98.167 -23.498 140.5s-38.834 78.5 -69.501 108.5s-68.834 53.333 -114.501 70s-98.5 25 -158.5 25h-237v-265h-89l23 -144h66v-281h241c58 -0 109.5 8.33301 154.5 25s82.833 40.334 113.5 71.001s54 67.167 70 109.5s24 89.166 24 140.499z
M529.002 345.001c0 -74 -17.666 -127.832 -52.999 -161.499s-83.666 -50.5 -144.999 -50.5h-66v149h126v141h-126v134h66c29.333 0 56.166 -4.16699 80.499 -12.5s45.166 -21.333 62.499 -39s30.833 -39.834 40.5 -66.501s14.5 -58 14.5 -94z" />
    <glyph glyph-name="Ntilde" unicode="&#xd1;" horiz-adv-x="705" 
d="M642 0v690h-159v-386l-254 386h-166v-690h159v413l272 -413h148zM521 868l-70.9961 16.998c-4 -17.333 -8.5 -29.166 -13.5 -35.499s-11.167 -9.5 -18.5 -9.5s-15.333 1.33301 -24 4s-22.334 8.33398 -41.001 17.001c-14 6.66699 -26 11.667 -36 15s-21.667 5 -35 5
c-25.333 0 -45.833 -10.333 -61.5 -31s-26.834 -57 -33.501 -109l71 -15c4 17.333 8.5 29 13.5 35s11.167 9 18.5 9s15.166 -1.5 23.499 -4.5s22.166 -8.5 41.499 -16.5c14 -6 26 -10.833 36 -14.5s21.667 -5.5 35 -5.5c24.667 0 45 10.333 61 31s27.333 56.667 34 108z" />
    <glyph glyph-name="Ograve" unicode="&#xd2;" horiz-adv-x="735" 
d="M697 346c0 53.333 -7.83203 101.833 -23.499 145.5s-37.667 81.167 -66 112.5s-62.833 55.666 -103.5 72.999s-86 26 -136 26s-95.333 -8.66699 -136 -26s-75.334 -41.833 -104.001 -73.5s-50.834 -69.5 -66.501 -113.5s-23.5 -92.667 -23.5 -146
s7.83301 -101.833 23.5 -145.5s37.834 -81.167 66.501 -112.5s63.167 -55.666 103.5 -72.999s85.166 -26 134.499 -26c50 0 95.5 8.66699 136.5 26s75.833 41.833 104.5 73.5s50.834 69.5 66.501 113.5s23.5 92.667 23.5 146zM525.001 345
c0 -68.667 -13.833 -123.167 -41.5 -163.5s-66.5 -60.5 -116.5 -60.5s-88.833 20.167 -116.5 60.5s-41.5 94.833 -41.5 163.5s13.833 123.167 41.5 163.5s66.5 60.5 116.5 60.5s88.833 -20.167 116.5 -60.5s41.5 -94.833 41.5 -163.5zM423.001 750l-60 151l-185 -30
l146 -121h99z" />
    <glyph glyph-name="Oacute" unicode="&#xd3;" horiz-adv-x="735" 
d="M552 871l-183 30l-60 -151h96zM697 346c0 53.333 -7.83203 101.833 -23.499 145.5s-37.667 81.167 -66 112.5s-62.833 55.666 -103.5 72.999s-86 26 -136 26s-95.333 -8.66699 -136 -26s-75.334 -41.833 -104.001 -73.5s-50.834 -69.5 -66.501 -113.5
s-23.5 -92.667 -23.5 -146s7.83301 -101.833 23.5 -145.5s37.834 -81.167 66.501 -112.5s63.167 -55.666 103.5 -72.999s85.166 -26 134.499 -26c50 0 95.5 8.66699 136.5 26s75.833 41.833 104.5 73.5s50.834 69.5 66.501 113.5s23.5 92.667 23.5 146zM525.001 345
c0 -68.667 -13.833 -123.167 -41.5 -163.5s-66.5 -60.5 -116.5 -60.5s-88.833 20.167 -116.5 60.5s-41.5 94.833 -41.5 163.5s13.833 123.167 41.5 163.5s66.5 60.5 116.5 60.5s88.833 -20.167 116.5 -60.5s41.5 -94.833 41.5 -163.5z" />
    <glyph glyph-name="Ocircumflex" unicode="&#xd4;" horiz-adv-x="735" 
d="M697 346c0 53.333 -7.83203 101.833 -23.499 145.5s-37.667 81.167 -66 112.5s-62.833 55.666 -103.5 72.999s-86 26 -136 26s-95.333 -8.66699 -136 -26s-75.334 -41.833 -104.001 -73.5s-50.834 -69.5 -66.501 -113.5s-23.5 -92.667 -23.5 -146
s7.83301 -101.833 23.5 -145.5s37.834 -81.167 66.501 -112.5s63.167 -55.666 103.5 -72.999s85.166 -26 134.499 -26c50 0 95.5 8.66699 136.5 26s75.833 41.833 104.5 73.5s50.834 69.5 66.501 113.5s23.5 92.667 23.5 146zM525.001 345
c0 -68.667 -13.833 -123.167 -41.5 -163.5s-66.5 -60.5 -116.5 -60.5s-88.833 20.167 -116.5 60.5s-41.5 94.833 -41.5 163.5s13.833 123.167 41.5 163.5s66.5 60.5 116.5 60.5s88.833 -20.167 116.5 -60.5s41.5 -94.833 41.5 -163.5zM534.001 758l-96 134h-138l-102 -147
h96l74 58l77 -62z" />
    <glyph glyph-name="Otilde" unicode="&#xd5;" horiz-adv-x="735" 
d="M697 346c0 53.333 -7.83203 101.833 -23.499 145.5s-37.667 81.167 -66 112.5s-62.833 55.666 -103.5 72.999s-86 26 -136 26s-95.333 -8.66699 -136 -26s-75.334 -41.833 -104.001 -73.5s-50.834 -69.5 -66.501 -113.5s-23.5 -92.667 -23.5 -146
s7.83301 -101.833 23.5 -145.5s37.834 -81.167 66.501 -112.5s63.167 -55.666 103.5 -72.999s85.166 -26 134.499 -26c50 0 95.5 8.66699 136.5 26s75.833 41.833 104.5 73.5s50.834 69.5 66.501 113.5s23.5 92.667 23.5 146zM525.001 345
c0 -68.667 -13.833 -123.167 -41.5 -163.5s-66.5 -60.5 -116.5 -60.5s-88.833 20.167 -116.5 60.5s-41.5 94.833 -41.5 163.5s13.833 123.167 41.5 163.5s66.5 60.5 116.5 60.5s88.833 -20.167 116.5 -60.5s41.5 -94.833 41.5 -163.5zM534.001 890l-70.9961 16.998
c-4 -17.333 -8.5 -29.166 -13.5 -35.499s-11.167 -9.5 -18.5 -9.5s-15.333 1.33301 -24 4s-22.334 8.33398 -41.001 17.001c-14 6.66699 -26 11.667 -36 15s-21.667 5 -35 5c-25.333 0 -45.833 -10.333 -61.5 -31s-26.834 -57 -33.501 -109l71 -15c4 17.333 8.5 29 13.5 35
s11.167 9 18.5 9s15.166 -1.5 23.499 -4.5s22.166 -8.5 41.499 -16.5c14 -6 26 -10.833 36 -14.5s21.667 -5.5 35 -5.5c24.667 0 45 10.333 61 31s27.333 56.667 34 108z" />
    <glyph glyph-name="Odieresis" unicode="&#xd6;" horiz-adv-x="735" 
d="M697 346c0 53.333 -7.83203 101.833 -23.499 145.5s-37.667 81.167 -66 112.5s-62.833 55.666 -103.5 72.999s-86 26 -136 26s-95.333 -8.66699 -136 -26s-75.334 -41.833 -104.001 -73.5s-50.834 -69.5 -66.501 -113.5s-23.5 -92.667 -23.5 -146
s7.83301 -101.833 23.5 -145.5s37.834 -81.167 66.501 -112.5s63.167 -55.666 103.5 -72.999s85.166 -26 134.499 -26c50 0 95.5 8.66699 136.5 26s75.833 41.833 104.5 73.5s50.834 69.5 66.501 113.5s23.5 92.667 23.5 146zM525.001 345
c0 -68.667 -13.833 -123.167 -41.5 -163.5s-66.5 -60.5 -116.5 -60.5s-88.833 20.167 -116.5 60.5s-41.5 94.833 -41.5 163.5s13.833 123.167 41.5 163.5s66.5 60.5 116.5 60.5s88.833 -20.167 116.5 -60.5s41.5 -94.833 41.5 -163.5zM531.001 751v131h-130v-131h130z
M333.001 751v131h-130v-131h130z" />
    <glyph glyph-name="multiply" unicode="&#xd7;" horiz-adv-x="500" 
d="M25 -200h450v1000h-450v-1000z" />
    <glyph glyph-name="Oslash" unicode="&#xd8;" horiz-adv-x="735" 
d="M710 676l-104 23.001l-46 -56c-26.667 19.333 -56.167 34.166 -88.5 44.499s-67.5 15.5 -105.5 15.5c-49.333 0 -94 -8.66699 -134 -26s-74.5 -41.666 -103.5 -72.999s-51.333 -68.833 -67 -112.5s-23.5 -92.167 -23.5 -145.5c0 -46 5.83301 -88.5 17.5 -127.5
s28.834 -73.833 51.501 -104.5l-81 -100l103 -23l47 56c53.333 -40 117.666 -60 192.999 -60c49.333 0 94.166 8.66699 134.499 26s74.833 41.666 103.5 72.999s50.834 68.833 66.501 112.5s23.5 92.167 23.5 145.5c0 92.667 -23 169.667 -69 231zM468 532.001
l-243.002 -296c-12 30.667 -18 67 -18 109c0 34.667 3.66699 66.167 11 94.5s17.833 52.5 31.5 72.5s30.334 35.5 50.001 46.5s42.167 16.5 67.5 16.5c40.667 0 74.334 -14.333 101.001 -43zM527.998 345.001c0 -34.667 -3.66699 -66.167 -11 -94.5
s-17.833 -52.5 -31.5 -72.5s-30.5 -35.5 -50.5 -46.5s-42.667 -16.5 -68 -16.5c-40 0 -73.333 14.333 -100 43l244 296c11.333 -30.667 17 -67 17 -109z" />
    <glyph glyph-name="Ugrave" unicode="&#xd9;" horiz-adv-x="688" 
d="M633 274l0.000976562 415.998h-172v-418c0 -44 -9.66699 -78.167 -29 -102.5s-48.666 -36.5 -87.999 -36.5c-38.667 0 -67.834 12.333 -87.501 37s-29.5 59.334 -29.5 104.001v416h-172v-417c0 -48 7 -89.833 21 -125.5s33.667 -65.334 59 -89.001
s55.666 -41.167 90.999 -52.5s74 -17 116 -17s80.667 5.83301 116 17.5s66 29.334 92 53.001s46.333 53.334 61 89.001s22 77.5 22 125.5zM405.001 724.998l-60 151l-185 -30l146 -121h99z" />
    <glyph glyph-name="Uacute" unicode="&#xda;" horiz-adv-x="688" 
d="M527 846l-183 30l-60 -151h96zM633 274l0.000976562 415.998h-172v-418c0 -44 -9.66699 -78.167 -29 -102.5s-48.666 -36.5 -87.999 -36.5c-38.667 0 -67.834 12.333 -87.501 37s-29.5 59.334 -29.5 104.001v416h-172v-417c0 -48 7 -89.833 21 -125.5
s33.667 -65.334 59 -89.001s55.666 -41.167 90.999 -52.5s74 -17 116 -17s80.667 5.83301 116 17.5s66 29.334 92 53.001s46.333 53.334 61 89.001s22 77.5 22 125.5z" />
    <glyph glyph-name="Ucircumflex" unicode="&#xdb;" horiz-adv-x="688" 
d="M633 274l0.000976562 415.998h-172v-418c0 -44 -9.66699 -78.167 -29 -102.5s-48.666 -36.5 -87.999 -36.5c-38.667 0 -67.834 12.333 -87.501 37s-29.5 59.334 -29.5 104.001v416h-172v-417c0 -48 7 -89.833 21 -125.5s33.667 -65.334 59 -89.001
s55.666 -41.167 90.999 -52.5s74 -17 116 -17s80.667 5.83301 116 17.5s66 29.334 92 53.001s46.333 53.334 61 89.001s22 77.5 22 125.5zM511.001 741.998l-96 134h-138l-102 -147h96l74 58l77 -62z" />
    <glyph glyph-name="Udieresis" unicode="&#xdc;" horiz-adv-x="688" 
d="M633 274l0.000976562 415.998h-172v-418c0 -44 -9.66699 -78.167 -29 -102.5s-48.666 -36.5 -87.999 -36.5c-38.667 0 -67.834 12.333 -87.501 37s-29.5 59.334 -29.5 104.001v416h-172v-417c0 -48 7 -89.833 21 -125.5s33.667 -65.334 59 -89.001
s55.666 -41.167 90.999 -52.5s74 -17 116 -17s80.667 5.83301 116 17.5s66 29.334 92 53.001s46.333 53.334 61 89.001s22 77.5 22 125.5zM508.001 729.998v131h-130v-131h130zM310.001 729.998v131h-130v-131h130z" />
    <glyph glyph-name="Yacute" unicode="&#xdd;" horiz-adv-x="672" 
d="M666 690h-179l-147 -280l-150 287l-182 -25l238 -420v-252h172v254zM528 841l-183 30l-60 -151h96z" />
    <glyph glyph-name="Thorn" unicode="&#xde;" horiz-adv-x="582" 
d="M555 359c0 74.667 -23.999 130.834 -71.999 168.501s-114.333 56.5 -199 56.5h-50v106h-171v-690h171v123h43c42 0 80 5 114 15s63.167 24.833 87.5 44.5s43.166 44.167 56.499 73.5s20 63.666 20 102.999zM390.001 356c0 -36 -10.167 -62.333 -30.5 -79
s-49.5 -25 -87.5 -25h-40v203h43c76.667 0 115 -33 115 -99z" />
    <glyph glyph-name="germandbls" unicode="&#xdf;" horiz-adv-x="613" 
d="M591 156c0 50 -15.166 89.6641 -45.499 118.997s-74.833 54.333 -133.5 75c23.333 26.667 43 54.334 59 83.001s24 63.334 24 104.001c0 25.333 -4.16699 48.833 -12.5 70.5s-20.833 40.334 -37.5 56.001s-37.667 27.834 -63 36.501s-55 13 -89 13
c-68.667 0 -121.167 -17.667 -157.5 -53s-54.5 -86.333 -54.5 -153v-17h-68v-123h68v-367h151v518c0 25.333 5 45.166 15 59.499s24.667 21.5 44 21.5s33.833 -6.5 43.5 -19.5s14.5 -31.5 14.5 -55.5c0 -29.333 -5.83301 -58 -17.5 -86s-26.167 -55.667 -43.5 -83l15 -99
c28.667 -8.66699 52.167 -17.5 70.5 -26.5s33 -17.833 44 -26.5s18.667 -17.334 23 -26.001s6.5 -17.334 6.5 -26.001c0 -15.333 -4.5 -26.666 -13.5 -33.999s-21.167 -11 -36.5 -11c-16 0 -32.833 2.83301 -50.5 8.5s-35.167 13.834 -52.5 24.501l-19 -114
c20.667 -10 42.667 -17.833 66 -23.5s47.666 -8.5 72.999 -8.5c54 0 97 13.667 129 41s48 68 48 122z" />
    <glyph glyph-name="agrave" unicode="&#xe0;" horiz-adv-x="507" 
d="M459 0v328c0 62.667 -16.667 106.667 -50 132s-84 38 -152 38c-40 0 -76.167 -3.5 -108.5 -10.5s-62.5 -16.167 -90.5 -27.5l18 -114c26 11.333 51.833 20.333 77.5 27s52.5 10 80.5 10c49.333 0 74 -20.667 74 -62v-9c-96 -8.66699 -166.667 -27.5 -212 -56.5
s-68 -72.167 -68 -129.5c0 -44.667 12.333 -78.5 37 -101.5s56.667 -34.5 96 -34.5c34 0 63.167 6.5 87.5 19.5s46.5 30.167 66.5 51.5l10 -61h134zM308 135c-28 -24.667 -56 -37 -84 -37c-14 0 -25.333 4.16699 -34 12.5s-13 20.166 -13 35.499c0 10.667 2 20.834 6 30.501
s11 18.5 21 26.5s23.333 15 40 21s38 11 64 15v-104zM319 547l-60 151l-185 -30l146 -121h99z" />
    <glyph glyph-name="aacute" unicode="&#xe1;" horiz-adv-x="507" 
d="M459 0v328c0 62.667 -16.667 106.667 -50 132s-84 38 -152 38c-40 0 -76.167 -3.5 -108.5 -10.5s-62.5 -16.167 -90.5 -27.5l18 -114c26 11.333 51.833 20.333 77.5 27s52.5 10 80.5 10c49.333 0 74 -20.667 74 -62v-9c-96 -8.66699 -166.667 -27.5 -212 -56.5
s-68 -72.167 -68 -129.5c0 -44.667 12.333 -78.5 37 -101.5s56.667 -34.5 96 -34.5c34 0 63.167 6.5 87.5 19.5s46.5 30.167 66.5 51.5l10 -61h134zM308 135c-28 -24.667 -56 -37 -84 -37c-14 0 -25.333 4.16699 -34 12.5s-13 20.166 -13 35.499c0 10.667 2 20.834 6 30.501
s11 18.5 21 26.5s23.333 15 40 21s38 11 64 15v-104zM429 668l-183 30l-60 -151h96z" />
    <glyph glyph-name="acircumflex" unicode="&#xe2;" horiz-adv-x="507" 
d="M459 0v328c0 62.667 -16.667 106.667 -50 132s-84 38 -152 38c-40 0 -76.167 -3.5 -108.5 -10.5s-62.5 -16.167 -90.5 -27.5l18 -114c26 11.333 51.833 20.333 77.5 27s52.5 10 80.5 10c49.333 0 74 -20.667 74 -62v-9c-96 -8.66699 -166.667 -27.5 -212 -56.5
s-68 -72.167 -68 -129.5c0 -44.667 12.333 -78.5 37 -101.5s56.667 -34.5 96 -34.5c34 0 63.167 6.5 87.5 19.5s46.5 30.167 66.5 51.5l10 -61h134zM308 135c-28 -24.667 -56 -37 -84 -37c-14 0 -25.333 4.16699 -34 12.5s-13 20.166 -13 35.499c0 10.667 2 20.834 6 30.501
s11 18.5 21 26.5s23.333 15 40 21s38 11 64 15v-104zM421 560l-96 134h-138l-102 -147h96l74 58l77 -62z" />
    <glyph glyph-name="atilde" unicode="&#xe3;" horiz-adv-x="507" 
d="M459 0v328c0 62.667 -16.667 106.667 -50 132s-84 38 -152 38c-40 0 -76.167 -3.5 -108.5 -10.5s-62.5 -16.167 -90.5 -27.5l18 -114c26 11.333 51.833 20.333 77.5 27s52.5 10 80.5 10c49.333 0 74 -20.667 74 -62v-9c-96 -8.66699 -166.667 -27.5 -212 -56.5
s-68 -72.167 -68 -129.5c0 -44.667 12.333 -78.5 37 -101.5s56.667 -34.5 96 -34.5c34 0 63.167 6.5 87.5 19.5s46.5 30.167 66.5 51.5l10 -61h134zM308 135c-28 -24.667 -56 -37 -84 -37c-14 0 -25.333 4.16699 -34 12.5s-13 20.166 -13 35.499c0 10.667 2 20.834 6 30.501
s11 18.5 21 26.5s23.333 15 40 21s38 11 64 15v-104zM424 686l-70.9961 16.998c-4 -17.333 -8.5 -29.166 -13.5 -35.499s-11.167 -9.5 -18.5 -9.5s-15.333 1.33301 -24 4s-22.334 8.33398 -41.001 17.001c-14 6.66699 -26 11.667 -36 15s-21.667 5 -35 5
c-25.333 0 -45.833 -10.333 -61.5 -31s-26.834 -57 -33.501 -109l71 -15c4 17.333 8.5 29 13.5 35s11.167 9 18.5 9s15.166 -1.5 23.499 -4.5s22.166 -8.5 41.499 -16.5c14 -6 26 -10.833 36 -14.5s21.667 -5.5 35 -5.5c24.667 0 45 10.333 61 31s27.333 56.667 34 108z" />
    <glyph glyph-name="adieresis" unicode="&#xe4;" horiz-adv-x="507" 
d="M459 0v328c0 62.667 -16.667 106.667 -50 132s-84 38 -152 38c-40 0 -76.167 -3.5 -108.5 -10.5s-62.5 -16.167 -90.5 -27.5l18 -114c26 11.333 51.833 20.333 77.5 27s52.5 10 80.5 10c49.333 0 74 -20.667 74 -62v-9c-96 -8.66699 -166.667 -27.5 -212 -56.5
s-68 -72.167 -68 -129.5c0 -44.667 12.333 -78.5 37 -101.5s56.667 -34.5 96 -34.5c34 0 63.167 6.5 87.5 19.5s46.5 30.167 66.5 51.5l10 -61h134zM308 135c-28 -24.667 -56 -37 -84 -37c-14 0 -25.333 4.16699 -34 12.5s-13 20.166 -13 35.499c0 10.667 2 20.834 6 30.501
s11 18.5 21 26.5s23.333 15 40 21s38 11 64 15v-104zM420 548v131h-130v-131h130zM222 548v131h-130v-131h130z" />
    <glyph glyph-name="aring" unicode="&#xe5;" horiz-adv-x="507" 
d="M459 0v328c0 62.667 -16.667 106.667 -50 132s-84 38 -152 38c-40 0 -76.167 -3.5 -108.5 -10.5s-62.5 -16.167 -90.5 -27.5l18 -114c26 11.333 51.833 20.333 77.5 27s52.5 10 80.5 10c49.333 0 74 -20.667 74 -62v-9c-96 -8.66699 -166.667 -27.5 -212 -56.5
s-68 -72.167 -68 -129.5c0 -44.667 12.333 -78.5 37 -101.5s56.667 -34.5 96 -34.5c34 0 63.167 6.5 87.5 19.5s46.5 30.167 66.5 51.5l10 -61h134zM308 135c-28 -24.667 -56 -37 -84 -37c-14 0 -25.333 4.16699 -34 12.5s-13 20.166 -13 35.499c0 10.667 2 20.834 6 30.501
s11 18.5 21 26.5s23.333 15 40 21s38 11 64 15v-104zM386 653c0 29.333 -11.1689 54.666 -33.502 75.999s-55.166 32 -98.499 32s-76.166 -10.667 -98.499 -32s-33.5 -46.666 -33.5 -75.999c0 -30 11 -55.5 33 -76.5s55 -31.5 99 -31.5s77 10.5 99 31.5s33 46.5 33 76.5z
M303.998 653c0 -16 -4.5 -29.667 -13.5 -41s-21.167 -17 -36.5 -17s-27.5 5.66699 -36.5 17s-13.5 25 -13.5 41c0 15.333 4.5 28.666 13.5 39.999s21.167 17 36.5 17s27.5 -5.66699 36.5 -17s13.5 -24.666 13.5 -39.999z" />
    <glyph glyph-name="ae" unicode="&#xe6;" horiz-adv-x="781" 
d="M751 246c0 35.333 -4.16602 68.498 -12.499 99.498s-21.166 58 -38.499 81s-39 41 -65 54s-57 19.5 -93 19.5c-31.333 0 -58.5 -5.83301 -81.5 -17.5s-43.167 -28.167 -60.5 -49.5c-14.667 23.333 -33.5 40 -56.5 50s-54.5 15 -94.5 15c-36 0 -69.833 -3.5 -101.5 -10.5
s-61.5 -16.167 -89.5 -27.5l18 -114c26 11.333 51.833 20.333 77.5 27s52.5 10 80.5 10c25.333 0 43.5 -5 54.5 -15s16.5 -25.667 16.5 -47v-9c-95.333 -9.33301 -165.333 -28.666 -210 -57.999s-67 -72.333 -67 -129c0 -45.333 14.5 -79.166 43.5 -101.499
s65.833 -33.5 110.5 -33.5c34 0 65.5 6.33301 94.5 19s57.5 30.667 85.5 54c22.667 -24.667 50.5 -43 83.5 -55s69.833 -18 110.5 -18c38.667 0 74.167 4.83301 106.5 14.5s61.833 23.167 88.5 40.5l-16 106c-26.667 -15.333 -53.334 -27.666 -80.001 -36.999
s-53.667 -14 -81 -14c-32.667 0 -59.834 8.16699 -81.501 24.5s-34.5 43.833 -38.5 82.5h295c0.666992 4 1.16699 9.66699 1.5 17s0.5 14.666 0.5 21.999zM607.001 289.998h-153c2 38 10 66.167 24 84.5s31.333 27.5 52 27.5c47.333 0 73 -37.333 77 -112zM319.001 137.998
c-29.333 -26.667 -59.332 -40 -89.999 -40c-16 0 -28.667 4 -38 12s-14 20.667 -14 38c0 10 2 19.5 6 28.5s10.667 17.333 20 25s22.166 14.667 38.499 21s37.166 11.5 62.499 15.5v-1c0 -18.667 1.33301 -36 4 -52s6.33398 -31.667 11.001 -47z" />
    <glyph glyph-name="ccedilla" unicode="&#xe7;" horiz-adv-x="451" 
d="M421 35l-18.001 123.001c-21.333 -13.333 -40.833 -23 -58.5 -29s-35.5 -9 -53.5 -9c-30.667 0 -56.667 10.333 -78 31s-32 52 -32 94c0 41.333 9.83301 72.166 29.5 92.499s44.834 30.5 75.501 30.5c20 0 38.667 -2.83301 56 -8.5s35.666 -14.834 54.999 -27.501l20 129
c-20 11.333 -41.833 20.333 -65.5 27s-50.5 10 -80.5 10c-33.333 0 -64.666 -5.33301 -93.999 -16s-55 -26.667 -77 -48s-39.5 -48 -52.5 -80s-19.5 -69.667 -19.5 -113c0 -39.333 5.66699 -74.5 17 -105.5s27.5 -57.167 48.5 -78.5s46 -37.666 75 -48.999
s61.167 -17 96.5 -17c29.333 0 56.5 3.5 81.5 10.5s49.833 18.167 74.5 33.5zM358.999 -78.999l-182 30l-54 -136h97z" />
    <glyph glyph-name="egrave" unicode="&#xe8;" horiz-adv-x="505" 
d="M476 246c0 35.333 -4.33594 68.501 -13.0029 99.501s-21.834 58 -39.501 81s-40.167 41 -67.5 54s-59.666 19.5 -96.999 19.5c-33.333 0 -64.166 -5.83301 -92.499 -17.5s-52.666 -28.667 -72.999 -51s-36.333 -49.333 -48 -81s-17.5 -67.5 -17.5 -107.5
c0 -44 6.16699 -81.833 18.5 -113.5s29.666 -57.834 51.999 -78.501s49 -36 80 -46s64.833 -15 101.5 -15c38.667 0 74.167 4.83301 106.5 14.5s61.833 23.167 88.5 40.5l-15 106c-27.333 -15.333 -54.166 -27.666 -80.499 -36.999s-53.166 -14 -80.499 -14
c-33.333 0 -60.666 8.16699 -81.999 24.5s-34 43.833 -38 82.5h294c1.33301 4 2.16602 9.66699 2.49902 17s0.5 14.666 0.5 21.999zM331.997 290.001h-154.001c2.66699 38 10.834 66.167 24.501 84.5s31.167 27.5 52.5 27.5c46 0 71.667 -37.333 77 -112zM309.996 547.001
l-60 151l-185 -30l146 -121h99z" />
    <glyph glyph-name="eacute" unicode="&#xe9;" horiz-adv-x="505" 
d="M476 246c0 35.333 -4.33594 68.501 -13.0029 99.501s-21.834 58 -39.501 81s-40.167 41 -67.5 54s-59.666 19.5 -96.999 19.5c-33.333 0 -64.166 -5.83301 -92.499 -17.5s-52.666 -28.667 -72.999 -51s-36.333 -49.333 -48 -81s-17.5 -67.5 -17.5 -107.5
c0 -44 6.16699 -81.833 18.5 -113.5s29.666 -57.834 51.999 -78.501s49 -36 80 -46s64.833 -15 101.5 -15c38.667 0 74.167 4.83301 106.5 14.5s61.833 23.167 88.5 40.5l-15 106c-27.333 -15.333 -54.166 -27.666 -80.499 -36.999s-53.166 -14 -80.499 -14
c-33.333 0 -60.666 8.16699 -81.999 24.5s-34 43.833 -38 82.5h294c1.33301 4 2.16602 9.66699 2.49902 17s0.5 14.666 0.5 21.999zM331.997 290.001h-154.001c2.66699 38 10.834 66.167 24.501 84.5s31.167 27.5 52.5 27.5c46 0 71.667 -37.333 77 -112zM438.996 668.001
l-183 30l-60 -151h96z" />
    <glyph glyph-name="ecircumflex" unicode="&#xea;" horiz-adv-x="505" 
d="M476 246c0 35.333 -4.33594 68.501 -13.0029 99.501s-21.834 58 -39.501 81s-40.167 41 -67.5 54s-59.666 19.5 -96.999 19.5c-33.333 0 -64.166 -5.83301 -92.499 -17.5s-52.666 -28.667 -72.999 -51s-36.333 -49.333 -48 -81s-17.5 -67.5 -17.5 -107.5
c0 -44 6.16699 -81.833 18.5 -113.5s29.666 -57.834 51.999 -78.501s49 -36 80 -46s64.833 -15 101.5 -15c38.667 0 74.167 4.83301 106.5 14.5s61.833 23.167 88.5 40.5l-15 106c-27.333 -15.333 -54.166 -27.666 -80.499 -36.999s-53.166 -14 -80.499 -14
c-33.333 0 -60.666 8.16699 -81.999 24.5s-34 43.833 -38 82.5h294c1.33301 4 2.16602 9.66699 2.49902 17s0.5 14.666 0.5 21.999zM331.997 290.001h-154.001c2.66699 38 10.834 66.167 24.501 84.5s31.167 27.5 52.5 27.5c46 0 71.667 -37.333 77 -112zM424.996 560.001
l-96 134h-138l-102 -147h96l74 58l77 -62z" />
    <glyph glyph-name="edieresis" unicode="&#xeb;" horiz-adv-x="505" 
d="M476 246c0 35.333 -4.33594 68.501 -13.0029 99.501s-21.834 58 -39.501 81s-40.167 41 -67.5 54s-59.666 19.5 -96.999 19.5c-33.333 0 -64.166 -5.83301 -92.499 -17.5s-52.666 -28.667 -72.999 -51s-36.333 -49.333 -48 -81s-17.5 -67.5 -17.5 -107.5
c0 -44 6.16699 -81.833 18.5 -113.5s29.666 -57.834 51.999 -78.501s49 -36 80 -46s64.833 -15 101.5 -15c38.667 0 74.167 4.83301 106.5 14.5s61.833 23.167 88.5 40.5l-15 106c-27.333 -15.333 -54.166 -27.666 -80.499 -36.999s-53.166 -14 -80.499 -14
c-33.333 0 -60.666 8.16699 -81.999 24.5s-34 43.833 -38 82.5h294c1.33301 4 2.16602 9.66699 2.49902 17s0.5 14.666 0.5 21.999zM331.997 290.001h-154.001c2.66699 38 10.834 66.167 24.501 84.5s31.167 27.5 52.5 27.5c46 0 71.667 -37.333 77 -112zM421.996 548.001
v131h-130v-131h130zM223.996 548.001v131h-130v-131h130z" />
    <glyph glyph-name="igrave" unicode="&#xec;" horiz-adv-x="262" 
d="M187 547l-53 151l-165 -30l130 -121h88zM208 0v490h-151v-490h151z" />
    <glyph glyph-name="iacute" unicode="&#xed;" horiz-adv-x="262" 
d="M294 668l-163 30l-53 -151h85zM208 0v490h-151v-490h151z" />
    <glyph glyph-name="icircumflex" unicode="&#xee;" horiz-adv-x="262" 
d="M282 560l-86 134h-125l-91 -147h87l66 58l69 -62zM208 0v490h-151v-490h151z" />
    <glyph glyph-name="idieresis" unicode="&#xef;" horiz-adv-x="262" 
d="M271 548v131h-113v-131h113zM104 548v131h-113v-131h113zM208 0v490h-151v-490h151z" />
    <glyph glyph-name="eth" unicode="&#xf0;" horiz-adv-x="539" 
d="M508 312c0 76.667 -13.165 141.668 -39.498 195.001s-64.5 97.333 -114.5 132l49 65l-86 18l-31 -45c-20.667 9.33301 -42.667 17.666 -66 24.999s-47.666 13.666 -72.999 18.999l-18 -117l42.5 -14c13.667 -4.66699 26.834 -9.66699 39.501 -15l-51 -72h87l28 37
c23.333 -17.333 42.166 -37.166 56.499 -59.499s23.166 -48.833 26.499 -79.5c-40.667 38.667 -88.334 58 -143.001 58c-26 0 -50.333 -5.5 -73 -16.5s-42.334 -26.667 -59.001 -47s-29.834 -45 -39.501 -74s-14.5 -61.167 -14.5 -96.5c0 -38 5.83301 -71.667 17.5 -101
s27.834 -54 48.501 -74s44.667 -35.167 72 -45.5s57 -15.5 89 -15.5c67.333 0 122 21.333 164 64c28 28.667 49.667 64.5 65 107.5s23 93.5 23 151.5zM362.002 300.001c0.666992 -1.33301 1.00293 -4.33398 1.00293 -9.00098c-1.33301 -60.667 -10.5 -106.5 -27.5 -137.5
s-40.5 -46.5 -70.5 -46.5c-28 0 -50.167 10 -66.5 30s-24.5 48 -24.5 84c0 39.333 7.66699 69.333 23 90s35.666 31 60.999 31c17.333 0 35.166 -3.66699 53.499 -11s35.166 -17.666 50.499 -30.999z" />
    <glyph glyph-name="ntilde" unicode="&#xf1;" horiz-adv-x="537" 
d="M488 0l-0.00195312 348c0 48 -11.667 85.333 -35 112s-58 40 -104 40c-31.333 0 -59.166 -7.5 -83.499 -22.5s-47.5 -33.167 -69.5 -54.5l-11 67h-133v-490h151v322c13.333 13.333 26.833 24 40.5 32s27.834 12 42.501 12c18 0 30.833 -5.5 38.5 -16.5
s11.5 -25.167 11.5 -42.5v-307h152zM439.998 686l-70.9961 16.998c-4 -17.333 -8.5 -29.166 -13.5 -35.499s-11.167 -9.5 -18.5 -9.5s-15.333 1.33301 -24 4s-22.334 8.33398 -41.001 17.001c-14 6.66699 -26 11.667 -36 15s-21.667 5 -35 5
c-25.333 0 -45.833 -10.333 -61.5 -31s-26.834 -57 -33.501 -109l71 -15c4 17.333 8.5 29 13.5 35s11.167 9 18.5 9s15.166 -1.5 23.499 -4.5s22.166 -8.5 41.499 -16.5c14 -6 26 -10.833 36 -14.5s21.667 -5.5 35 -5.5c24.667 0 45 10.333 61 31s27.333 56.667 34 108z" />
    <glyph glyph-name="ograve" unicode="&#xf2;" horiz-adv-x="527" 
d="M499 245c0 39.333 -6 74.667 -18 106s-28.5 58 -49.5 80s-45.833 39 -74.5 51s-60 18 -94 18s-65.333 -6 -94 -18s-53.5 -29 -74.5 -51s-37.333 -48.833 -49 -80.5s-17.5 -67.167 -17.5 -106.5s5.83301 -74.666 17.5 -105.999s28 -58 49 -80s45.667 -38.833 74 -50.5
s59.5 -17.5 93.5 -17.5s65.5 6 94.5 18s54 29 75 51s37.5 48.667 49.5 80s18 66.666 18 105.999zM353 244.001c0 -40 -7.66699 -72 -23 -96s-37.666 -36 -66.999 -36c-28.667 0 -50.667 12.167 -66 36.5s-23 56.5 -23 96.5s7.5 71.833 22.5 95.5s37.167 35.5 66.5 35.5
s51.666 -12 66.999 -36s23 -56 23 -96zM314 547.001l-60 151l-185 -30l146 -121h99z" />
    <glyph glyph-name="oacute" unicode="&#xf3;" horiz-adv-x="527" 
d="M456 668l-183 30l-60 -151h96zM499 245c0 39.333 -6 74.667 -18 106s-28.5 58 -49.5 80s-45.833 39 -74.5 51s-60 18 -94 18s-65.333 -6 -94 -18s-53.5 -29 -74.5 -51s-37.333 -48.833 -49 -80.5s-17.5 -67.167 -17.5 -106.5s5.83301 -74.666 17.5 -105.999
s28 -58 49 -80s45.667 -38.833 74 -50.5s59.5 -17.5 93.5 -17.5s65.5 6 94.5 18s54 29 75 51s37.5 48.667 49.5 80s18 66.666 18 105.999zM353 244.001c0 -40 -7.66699 -72 -23 -96s-37.666 -36 -66.999 -36c-28.667 0 -50.667 12.167 -66 36.5s-23 56.5 -23 96.5
s7.5 71.833 22.5 95.5s37.167 35.5 66.5 35.5s51.666 -12 66.999 -36s23 -56 23 -96z" />
    <glyph glyph-name="ocircumflex" unicode="&#xf4;" horiz-adv-x="527" 
d="M499 245c0 39.333 -6 74.667 -18 106s-28.5 58 -49.5 80s-45.833 39 -74.5 51s-60 18 -94 18s-65.333 -6 -94 -18s-53.5 -29 -74.5 -51s-37.333 -48.833 -49 -80.5s-17.5 -67.167 -17.5 -106.5s5.83301 -74.666 17.5 -105.999s28 -58 49 -80s45.667 -38.833 74 -50.5
s59.5 -17.5 93.5 -17.5s65.5 6 94.5 18s54 29 75 51s37.5 48.667 49.5 80s18 66.666 18 105.999zM353 244.001c0 -40 -7.66699 -72 -23 -96s-37.666 -36 -66.999 -36c-28.667 0 -50.667 12.167 -66 36.5s-23 56.5 -23 96.5s7.5 71.833 22.5 95.5s37.167 35.5 66.5 35.5
s51.666 -12 66.999 -36s23 -56 23 -96zM430 560.001l-96 134h-138l-102 -147h96l74 58l77 -62z" />
    <glyph glyph-name="otilde" unicode="&#xf5;" horiz-adv-x="527" 
d="M499 245c0 39.333 -6 74.667 -18 106s-28.5 58 -49.5 80s-45.833 39 -74.5 51s-60 18 -94 18s-65.333 -6 -94 -18s-53.5 -29 -74.5 -51s-37.333 -48.833 -49 -80.5s-17.5 -67.167 -17.5 -106.5s5.83301 -74.666 17.5 -105.999s28 -58 49 -80s45.667 -38.833 74 -50.5
s59.5 -17.5 93.5 -17.5s65.5 6 94.5 18s54 29 75 51s37.5 48.667 49.5 80s18 66.666 18 105.999zM353 244.001c0 -40 -7.66699 -72 -23 -96s-37.666 -36 -66.999 -36c-28.667 0 -50.667 12.167 -66 36.5s-23 56.5 -23 96.5s7.5 71.833 22.5 95.5s37.167 35.5 66.5 35.5
s51.666 -12 66.999 -36s23 -56 23 -96zM431 686.001l-70.9961 16.998c-4 -17.333 -8.5 -29.166 -13.5 -35.499s-11.167 -9.5 -18.5 -9.5s-15.333 1.33301 -24 4s-22.334 8.33398 -41.001 17.001c-14 6.66699 -26 11.667 -36 15s-21.667 5 -35 5
c-25.333 0 -45.833 -10.333 -61.5 -31s-26.834 -57 -33.501 -109l71 -15c4 17.333 8.5 29 13.5 35s11.167 9 18.5 9s15.166 -1.5 23.499 -4.5s22.166 -8.5 41.499 -16.5c14 -6 26 -10.833 36 -14.5s21.667 -5.5 35 -5.5c24.667 0 45 10.333 61 31s27.333 56.667 34 108z" />
    <glyph glyph-name="odieresis" unicode="&#xf6;" horiz-adv-x="527" 
d="M499 245c0 39.333 -6 74.667 -18 106s-28.5 58 -49.5 80s-45.833 39 -74.5 51s-60 18 -94 18s-65.333 -6 -94 -18s-53.5 -29 -74.5 -51s-37.333 -48.833 -49 -80.5s-17.5 -67.167 -17.5 -106.5s5.83301 -74.666 17.5 -105.999s28 -58 49 -80s45.667 -38.833 74 -50.5
s59.5 -17.5 93.5 -17.5s65.5 6 94.5 18s54 29 75 51s37.5 48.667 49.5 80s18 66.666 18 105.999zM353 244.001c0 -40 -7.66699 -72 -23 -96s-37.666 -36 -66.999 -36c-28.667 0 -50.667 12.167 -66 36.5s-23 56.5 -23 96.5s7.5 71.833 22.5 95.5s37.167 35.5 66.5 35.5
s51.666 -12 66.999 -36s23 -56 23 -96zM427 548.001v131h-130v-131h130zM229 548.001v131h-130v-131h130z" />
    <glyph glyph-name="divide" unicode="&#xf7;" horiz-adv-x="572" 
d="M353 472v130h-134v-130h134zM518 280v116h-464v-116h464zM353 74v130h-134v-130h134z" />
    <glyph glyph-name="oslash" unicode="&#xf8;" horiz-adv-x="527" 
d="M509 479l-81.001 19.001l-30 -39c-19.333 13.333 -40.5 23.5 -63.5 30.5s-47.167 10.5 -72.5 10.5c-33.333 0 -64.166 -6 -92.499 -18s-52.833 -29 -73.5 -51s-37 -48.833 -49 -80.5s-18 -67.167 -18 -106.5c0 -33.333 4.16699 -63.5 12.5 -90.5
s20.166 -51.167 35.499 -72.5l-59 -71l81 -18l30 39c38.667 -27.333 84 -41 136 -41c32.667 0 63.334 6 92.001 18s53.5 29 74.5 51s37.5 48.667 49.5 80s18 66.666 18 105.999c0 66.667 -16.333 121 -49 163zM318.999 361.001l-140.998 -177.998
c-2.66699 9.33301 -4.5 19.166 -5.5 29.499s-1.5 21.166 -1.5 32.499c0 41.333 7.83301 74.833 23.5 100.5s38.5 38.5 68.5 38.5c11.333 0 21.666 -2 30.999 -6s17.666 -9.66699 24.999 -17zM349.001 307.003c6 -18 9 -39.001 9 -63.001
c0 -41.333 -8.16699 -74.666 -24.5 -99.999s-39.833 -38 -70.5 -38c-22 0 -40.667 7.66699 -56 23z" />
    <glyph glyph-name="ugrave" unicode="&#xf9;" horiz-adv-x="537" 
d="M485 0l0.000976562 490.001h-151v-323c-13.333 -13.333 -26.833 -24 -40.5 -32s-27.834 -12 -42.501 -12c-18 0 -31 5.66699 -39 17s-12 25.666 -12 42.999v307h-151v-349c0 -48 11.667 -85.167 35 -111.5s58 -39.5 104 -39.5c30.667 0 58.167 7.33301 82.5 22
s47.833 33 70.5 55l11 -67h133zM326.001 547.001l-60 151l-185 -30l146 -121h99z" />
    <glyph glyph-name="uacute" unicode="&#xfa;" horiz-adv-x="537" 
d="M485 0l0.000976562 490.001h-151v-323c-13.333 -13.333 -26.833 -24 -40.5 -32s-27.834 -12 -42.501 -12c-18 0 -31 5.66699 -39 17s-12 25.666 -12 42.999v307h-151v-349c0 -48 11.667 -85.167 35 -111.5s58 -39.5 104 -39.5c30.667 0 58.167 7.33301 82.5 22
s47.833 33 70.5 55l11 -67h133zM445.001 668.001l-183 30l-60 -151h96z" />
    <glyph glyph-name="ucircumflex" unicode="&#xfb;" horiz-adv-x="537" 
d="M485 0l0.000976562 490.001h-151v-323c-13.333 -13.333 -26.833 -24 -40.5 -32s-27.834 -12 -42.501 -12c-18 0 -31 5.66699 -39 17s-12 25.666 -12 42.999v307h-151v-349c0 -48 11.667 -85.167 35 -111.5s58 -39.5 104 -39.5c30.667 0 58.167 7.33301 82.5 22
s47.833 33 70.5 55l11 -67h133zM435.001 560.001l-96 134h-138l-102 -147h96l74 58l77 -62z" />
    <glyph glyph-name="udieresis" unicode="&#xfc;" horiz-adv-x="537" 
d="M485 0l0.000976562 490.001h-151v-323c-13.333 -13.333 -26.833 -24 -40.5 -32s-27.834 -12 -42.501 -12c-18 0 -31 5.66699 -39 17s-12 25.666 -12 42.999v307h-151v-349c0 -48 11.667 -85.167 35 -111.5s58 -39.5 104 -39.5c30.667 0 58.167 7.33301 82.5 22
s47.833 33 70.5 55l11 -67h133zM433.001 548.001v131h-130v-131h130zM235.001 548.001v131h-130v-131h130z" />
    <glyph glyph-name="yacute" unicode="&#xfd;" horiz-adv-x="510" 
d="M502 490h-145.999l-90 -302l-95 309l-162 -19l178 -479l-6 -15c-8 -17.333 -19 -29.5 -33 -36.5s-29.667 -10.5 -47 -10.5c-14.667 0 -26.334 0.666992 -35.001 2s-17 3.33301 -25 6l19 -121l22.5 -4c7.66699 -1.33301 19.167 -2 34.5 -2c26.667 0 50.667 3 72 9
s40.5 15.667 57.5 29s32 31 45 53s25.167 49 36.5 81zM455.001 659l-183 30l-60 -151h96z" />
    <glyph glyph-name="thorn" unicode="&#xfe;" horiz-adv-x="544" 
d="M512 258c0 41.333 -4.50098 77.167 -13.501 107.5s-21.333 55.5 -37 75.5s-34.167 34.833 -55.5 44.5s-44.666 14.5 -69.999 14.5c-30 0 -55.833 -6.83301 -77.5 -20.5s-40.167 -29.167 -55.5 -46.5v289l-151 -24v-884l151 23v175c14 -4.66699 29.167 -8.66699 45.5 -12
s35.5 -5 57.5 -5c26.667 0 52.5 5 77.5 15s47 25.667 66 47s34.167 48.5 45.5 81.5s17 72.833 17 119.5zM360.999 248.001c0 -48 -8.5 -82.333 -25.5 -103s-38.5 -31 -64.5 -31c-14.667 0 -27 1.16699 -37 3.5s-20.333 6.16602 -31 11.499v186
c12.667 15.333 25.667 27.5 39 36.5s28.333 13.5 45 13.5c21.333 0 39 -9.16699 53 -27.5s21 -48.166 21 -89.499z" />
    <glyph glyph-name="ydieresis" unicode="&#xff;" horiz-adv-x="510" 
d="M502 490h-145.999l-90 -302l-95 309l-162 -19l178 -479l-6 -15c-8 -17.333 -19 -29.5 -33 -36.5s-29.667 -10.5 -47 -10.5c-14.667 0 -26.334 0.666992 -35.001 2s-17 3.33301 -25 6l19 -121l22.5 -4c7.66699 -1.33301 19.167 -2 34.5 -2c26.667 0 50.667 3 72 9
s40.5 15.667 57.5 29s32 31 45 53s25.167 49 36.5 81zM428.001 548v131h-130v-131h130zM230.001 548v131h-130v-131h130z" />
    <glyph glyph-name="dotlessi" unicode="&#x131;" horiz-adv-x="262" 
d="M208 0v490h-151v-490h151z" />
    <glyph glyph-name="Lslash" unicode="&#x141;" horiz-adv-x="519" 
d="M503 0l-23 148h-211v176l138 38v145l-138 -39v222h-170v-271l-89 -25l23 -138l66 18v-274h404z" />
    <glyph glyph-name="lslash" unicode="&#x142;" horiz-adv-x="333" 
d="M320 346v144l-79 -20v252l-149 -24v-272l-90 -25l23 -139l67 19v-281h149v324z" />
    <glyph glyph-name="OE" unicode="&#x152;" horiz-adv-x="908" 
d="M875 0l0.000976562 137h-271v149h222l-22 141h-200v126h262v137h-466c-58 0 -109.5 -8.33301 -154.5 -25s-82.833 -40.334 -113.5 -71.001s-53.834 -67.167 -69.501 -109.5s-23.5 -89.166 -23.5 -140.499s7.83301 -98 23.5 -140s38.667 -78.167 69 -108.5
s68.333 -53.833 114 -70.5s98.5 -25 158.5 -25h471zM438.001 133l-29 -0.000976562c-29.333 0 -56.333 4.16699 -81 12.5s-45.667 21.333 -63 39s-30.833 39.834 -40.5 66.501s-14.5 58 -14.5 94c0 74 17.833 127.833 53.5 161.5s84.167 50.5 145.5 50.5h29v-424z" />
    <glyph glyph-name="oe" unicode="&#x153;" horiz-adv-x="830" 
d="M800 246c0 35.333 -4.17383 68.5 -12.5068 99.5s-21.166 58 -38.499 81s-39.166 41 -65.499 54s-57.5 19.5 -93.5 19.5s-67.5 -7.5 -94.5 -22.5s-50.167 -35.5 -69.5 -61.5c-17.333 27.333 -40 48.166 -68 62.499s-60.333 21.5 -97 21.5
c-33.333 0 -64.166 -6 -92.499 -18s-53 -29 -74 -51s-37.333 -48.833 -49 -80.5s-17.5 -67.167 -17.5 -106.5s5.83301 -74.666 17.5 -105.999s27.834 -58 48.501 -80s44.834 -38.833 72.501 -50.5s57.5 -17.5 89.5 -17.5c38 0 70.833 7.5 98.5 22.5s51.167 35.167 70.5 60.5
c38.667 -55.333 100 -83 184 -83c40 0 75.167 4.83301 105.5 14.5s58.833 23.167 85.5 40.5l-15 106c-27.333 -15.333 -54.166 -27.666 -80.499 -36.999s-53.166 -14 -80.499 -14c-32.667 0 -60 8.16699 -82 24.5s-35 43.833 -39 82.5h295
c0.666992 4 1.16699 9.66699 1.5 17s0.5 14.666 0.5 21.999zM655.993 290h-152.999c2 38 10 66.167 24 84.5s31.667 27.5 53 27.5c45.333 0 70.666 -37.333 75.999 -112zM352.994 244c0 -40 -7.66699 -72 -23 -96s-37.666 -36 -66.999 -36
c-28.667 0 -50.667 12.167 -66 36.5s-23 56.5 -23 96.5s7.5 71.833 22.5 95.5s37.167 35.5 66.5 35.5s51.666 -12 66.999 -36s23 -56 23 -96z" />
    <glyph glyph-name="Scaron" unicode="&#x160;" horiz-adv-x="553" 
d="M523 208c0 27.333 -3.83008 51.499 -11.4971 72.499s-20 39.833 -37 56.5s-38.833 32 -65.5 46s-58.667 28 -96 42c-21.333 8 -38.833 15.333 -52.5 22s-24.334 13.167 -32.001 19.5s-13 13 -16 20s-4.5 14.833 -4.5 23.5c0 16 6.33301 29 19 39s32 15 58 15
c26.667 0 55.5 -4.83301 86.5 -14.5s62.167 -23.5 93.5 -41.5l26 144c-30 14.667 -61 26 -93 34s-70.333 12 -115 12c-33.333 0 -64.333 -4.33301 -93 -13s-53.5 -21.667 -74.5 -39s-37.667 -38.666 -50 -63.999s-18.5 -54.666 -18.5 -87.999
c0 -28.667 3.83301 -53.334 11.5 -74.001s19.5 -39 35.5 -55s36.5 -30.5 61.5 -43.5s54.833 -26.167 89.5 -39.5c24 -9.33301 43.667 -17.666 59 -24.999s27.333 -14.5 36 -21.5s14.5 -14.167 17.5 -21.5s4.5 -16 4.5 -26c0 -20.667 -7.66699 -36.167 -23 -46.5
s-35.333 -15.5 -60 -15.5c-34.667 0 -70.834 5.83301 -108.501 17.5s-74.5 27.167 -110.5 46.5l-25 -146c35.333 -16 72.666 -28.667 111.999 -38s82.333 -14 129 -14c34 0 66 4.16699 96 12.5s56.167 21.333 78.5 39s40 40.167 53 67.5s19.5 59.666 19.5 96.999z
M453.003 896.999h-96l-74 -58l-77 63l-89 -18l96 -134h138z" />
    <glyph glyph-name="scaron" unicode="&#x161;" horiz-adv-x="464" 
d="M435 151c0 22.667 -3 42.001 -9 58.001s-16 30 -30 42s-32.167 22.667 -54.5 32s-49.833 18.333 -82.5 27c-17.333 4.66699 -31.333 9 -42 13s-19 7.83301 -25 11.5s-10.167 7.5 -12.5 11.5s-3.5 8.66699 -3.5 14c0 9.33301 4.16699 17 12.5 23s21.5 9 39.5 9
c23.333 0 49.333 -4 78 -12s56.334 -19.333 83.001 -34l19 115c-25.333 11.333 -53.5 20.166 -84.5 26.499s-63.167 9.5 -96.5 9.5c-60.667 0 -107.167 -13.833 -139.5 -41.5s-48.5 -64.5 -48.5 -110.5c0 -23.333 3.33301 -43 10 -59s17.167 -30 31.5 -42
s32.5 -22.333 54.5 -31s48.333 -17 79 -25c17.333 -4 31.333 -8 42 -12s19 -8 25 -12s10.167 -8.33301 12.5 -13s3.5 -10 3.5 -16c0 -24.667 -20.667 -37 -62 -37c-28 0 -58.5 5.16699 -91.5 15.5s-64.167 24.5 -93.5 42.5l-18 -115c25.333 -13.333 55.5 -24.833 90.5 -34.5
s72.167 -14.5 111.5 -14.5c65.333 0 115.166 13.5 149.499 40.5s51.5 66.5 51.5 118.5zM403 694.001h-96l-74 -58l-77 63l-89 -18l96 -134h138z" />
    <glyph glyph-name="Ydieresis" unicode="&#x178;" horiz-adv-x="672" 
d="M666 690h-179l-147 -280l-150 287l-182 -25l238 -420v-252h172v254zM504 730v131h-130v-131h130zM306 730v131h-130v-131h130z" />
    <glyph glyph-name="Zcaron" unicode="&#x17d;" horiz-adv-x="613" 
d="M580 0l-22 136h-309l322 430v124h-517l21 -136h287l-322 -430v-124h540zM485 888h-96l-74 -58l-77 63l-89 -18l96 -134h138z" />
    <glyph glyph-name="zcaron" unicode="&#x17e;" horiz-adv-x="467" 
d="M442 0l-19 118h-207l214 257v115h-392l18 -118h187l-214 -258v-114h413zM405 694h-96l-74 -58l-77 63l-89 -18l96 -134h138z" />
    <glyph glyph-name="florin" unicode="&#x192;" horiz-adv-x="445" 
d="M127 457h-75.999l-18 -125h74l-52 -332h161l54 332h112v125h-92l5 33c4 24.667 11.833 42.5 23.5 53.5s28.834 16.5 51.501 16.5c16.667 0 32.667 -1.66699 48 -5v124c-11.333 1.33301 -23.5 2.5 -36.5 3.5s-27.5 1.5 -43.5 1.5c-29.333 0 -55.5 -2.83301 -78.5 -8.5
s-42.833 -15.167 -59.5 -28.5s-30.334 -30.833 -41.001 -52.5s-18.334 -48.167 -23.001 -79.5z" />
    <glyph glyph-name="circumflex" unicode="&#x2c6;" 
d="M394 560l-96 134h-138l-102 -147h96l74 58l77 -62z" />
    <glyph glyph-name="caron" unicode="&#x2c7;" 
d="M396 694h-96l-74 -58l-77 63l-89 -18l96 -134h138z" />
    <glyph glyph-name="breve" unicode="&#x2d8;" 
d="M383 696l-87.002 -0.000976562c-5.33301 -19.333 -13.666 -33.166 -24.999 -41.499s-25.666 -12.5 -42.999 -12.5c-19.333 0 -34.5 4.33301 -45.5 13s-19.833 24 -26.5 46l-84 -13c5.33301 -44 21 -78.667 47 -104s61.667 -38 107 -38c47.333 0 84 13 110 39
s41.667 63 47 111z" />
    <glyph glyph-name="dotaccent" unicode="&#x2d9;" 
d="M294 548v131h-134v-131h134z" />
    <glyph glyph-name="ring" unicode="&#x2da;" 
d="M359 653c0 29.333 -11.1689 54.666 -33.502 75.999s-55.166 32 -98.499 32s-76.166 -10.667 -98.499 -32s-33.5 -46.666 -33.5 -75.999c0 -30 11 -55.5 33 -76.5s55 -31.5 99 -31.5s77 10.5 99 31.5s33 46.5 33 76.5zM276.998 653c0 -16 -4.5 -29.667 -13.5 -41
s-21.167 -17 -36.5 -17s-27.5 5.66699 -36.5 17s-13.5 25 -13.5 41c0 15.333 4.5 28.666 13.5 39.999s21.167 17 36.5 17s27.5 -5.66699 36.5 -17s13.5 -24.666 13.5 -39.999z" />
    <glyph glyph-name="ogonek" unicode="&#x2db;" 
d="M350 -182l-55 136l-185 -30l141 -106h99z" />
    <glyph glyph-name="tilde" unicode="&#x2dc;" 
d="M394 686l-70.9961 16.998c-4 -17.333 -8.5 -29.166 -13.5 -35.499s-11.167 -9.5 -18.5 -9.5s-15.333 1.33301 -24 4s-22.334 8.33398 -41.001 17.001c-14 6.66699 -26 11.667 -36 15s-21.667 5 -35 5c-25.333 0 -45.833 -10.333 -61.5 -31s-26.834 -57 -33.501 -109
l71 -15c4 17.333 8.5 29 13.5 35s11.167 9 18.5 9s15.166 -1.5 23.499 -4.5s22.166 -8.5 41.499 -16.5c14 -6 26 -10.833 36 -14.5s21.667 -5.5 35 -5.5c24.667 0 45 10.333 61 31s27.333 56.667 34 108z" />
    <glyph glyph-name="hungarumlaut" unicode="&#x2dd;" 
d="M443 670l-164 28l-61 -150h80zM242 670l-165 28l-60 -150h81z" />
    <glyph glyph-name="Delta" unicode="&#x394;" horiz-adv-x="500" 
d="M25 -200h450v1000h-450v-1000z" />
    <glyph glyph-name="Omega" unicode="&#x3a9;" horiz-adv-x="682" 
d="M687 592l-18 116.001c-8.66699 1.33301 -18 2.5 -28 3.5s-21 1.5 -33 1.5c-57.333 0 -102.5 -12.333 -135.5 -37s-49.5 -66.334 -49.5 -125.001v-61h-69v-123h69v-367h150v367h108l-20 123h-88v46c0 40 20 60 60 60c10.667 0 20.5 -0.333008 29.5 -1
s17.167 -1.66699 24.5 -3zM346 592.001l-17.999 116.001c-8.66699 1.33301 -18 2.5 -28 3.5s-21 1.5 -33 1.5c-56.667 0 -101.834 -12.333 -135.501 -37s-50.5 -66.334 -50.5 -125.001v-61h-68v-123h68v-367h151v367h107l-18 123h-89v46c0 40 20 60 60 60
c10.667 0 20.5 -0.333008 29.5 -1s17.167 -1.66699 24.5 -3z" />
    <glyph glyph-name="pi" unicode="&#x3c0;" horiz-adv-x="799" 
d="M745 346c0 53.333 -8.33594 101.833 -25.0029 145.5s-40.167 81.167 -70.5 112.5s-66.666 55.666 -108.999 72.999s-89.166 26 -140.499 26s-98.166 -8.66699 -140.499 -26s-78.666 -41.833 -108.999 -73.5s-54 -69.5 -71 -113.5s-25.5 -92.667 -25.5 -146
s8.33301 -101.833 25 -145.5s40.167 -81.167 70.5 -112.5s66.666 -55.666 108.999 -72.999s89.166 -26 140.499 -26c50.667 0 97.334 8.66699 140.001 26s79.167 41.833 109.5 73.5s54 69.5 71 113.5s25.5 92.667 25.5 146zM700.997 345c0 -52 -7.66504 -98 -22.998 -138
s-36.5 -73.667 -63.5 -101s-58.833 -48 -95.5 -62s-76.334 -21 -119.001 -21s-82.334 7 -119.001 21s-68.5 34.667 -95.5 62s-48.333 61 -64 101s-23.5 86 -23.5 138s7.66699 98 23 138s36.5 73.667 63.5 101s58.833 48 95.5 62s76.667 21 120 21c42 0 81.333 -7 118 -21
s68.5 -34.667 95.5 -62s48.333 -61 64 -101s23.5 -86 23.5 -138zM572.999 412c0 42 -13.999 74.501 -41.999 97.501s-66 34.5 -114 34.5h-148v-394h110v124h32c49.333 0 88.666 11.667 117.999 35s44 57.666 44 102.999zM468 410.001
c0 -19.333 -5.66797 -33.833 -17.001 -43.5s-26.666 -14.5 -45.999 -14.5h-27v113h28c19.333 0 34.5 -4.66699 45.5 -14s16.5 -23 16.5 -41z" />
    <glyph glyph-name="endash" unicode="&#x2013;" 
d="M413 220v141h-372v-141h372z" />
    <glyph glyph-name="emdash" unicode="&#x2014;" horiz-adv-x="908" 
d="M867 221v139h-826v-139h826z" />
    <glyph glyph-name="quoteleft" unicode="&#x2018;" horiz-adv-x="258" 
d="M216 678l-92 21l-101 -315h171z" />
    <glyph glyph-name="quoteright" unicode="&#x2019;" horiz-adv-x="258" 
d="M235 690h-171l-21 -294l92 -21z" />
    <glyph glyph-name="quotesinglbase" unicode="&#x201a;" horiz-adv-x="258" 
d="M229 172h-170l-22 -294l92 -21z" />
    <glyph glyph-name="quotedblleft" unicode="&#x201c;" horiz-adv-x="481" 
d="M213 678l-89 21l-101 -315h168zM438 678l-89 21l-100 -315h168z" />
    <glyph glyph-name="quotedblright" unicode="&#x201d;" horiz-adv-x="481" 
d="M232 690h-168l-21 -294l89 -21zM458 690h-168l-22 -294l89 -21z" />
    <glyph glyph-name="quotedblbase" unicode="&#x201e;" horiz-adv-x="481" 
d="M227 172h-168l-22 -294l89 -21zM452 172h-168l-21 -294l89 -21z" />
    <glyph glyph-name="dagger" unicode="&#x2020;" horiz-adv-x="512" 
d="M324 611v79h-135v-79l50 -135h34zM473 373v127h-42l-135 -47v-33l135 -47h42zM216 420v33l-135 47h-42v-127h42zM311 11v268l-38 119h-34l-39 -119v-268l40 -125h31z" />
    <glyph glyph-name="daggerdbl" unicode="&#x2021;" horiz-adv-x="531" 
d="M333 611v79h-135v-79l50 -135h34zM482 377v120h-42l-135 -44v-33l135 -43h42zM225 420v33l-135 44h-42v-120h42zM327 230v49l-45 119h-34l-45 -119v-49l45 -119h34zM482 12v120h-42l-135 -44v-33l135 -43h42zM225 55v33l-135 44h-42v-120h42zM333 -182v79l-51 136h-34
l-50 -136v-79h135z" />
    <glyph glyph-name="bullet" unicode="&#x2022;" horiz-adv-x="482" 
d="M412 344l-24 157l-147 23l-146 -23l-25 -157l25 -156l146 -23l147 23z" />
    <glyph glyph-name="ellipsis" unicode="&#x2026;" horiz-adv-x="778" 
d="M727 0v171h-159v-171h159zM469 0v171h-159v-171h159zM211 0v171h-160v-171h160z" />
    <glyph glyph-name="perthousand" unicode="&#x2030;" horiz-adv-x="799" 
d="M745 346c0 53.333 -8.33594 101.833 -25.0029 145.5s-40.167 81.167 -70.5 112.5s-66.666 55.666 -108.999 72.999s-89.166 26 -140.499 26s-98.166 -8.66699 -140.499 -26s-78.666 -41.833 -108.999 -73.5s-54 -69.5 -71 -113.5s-25.5 -92.667 -25.5 -146
s8.33301 -101.833 25 -145.5s40.167 -81.167 70.5 -112.5s66.666 -55.666 108.999 -72.999s89.166 -26 140.499 -26c50.667 0 97.334 8.66699 140.001 26s79.167 41.833 109.5 73.5s54 69.5 71 113.5s25.5 92.667 25.5 146zM700.997 345c0 -52 -7.66504 -98 -22.998 -138
s-36.5 -73.667 -63.5 -101s-58.833 -48 -95.5 -62s-76.334 -21 -119.001 -21s-82.334 7 -119.001 21s-68.5 34.667 -95.5 62s-48.333 61 -64 101s-23.5 86 -23.5 138s7.66699 98 23 138s36.5 73.667 63.5 101s58.833 48 95.5 62s76.667 21 120 21c42 0 81.333 -7 118 -21
s68.5 -34.667 95.5 -62s48.333 -61 64 -101s23.5 -86 23.5 -138zM490.999 310c21.333 11.333 37.833 26.1689 49.5 44.502s17.5 40.166 17.5 65.499c0 41.333 -14 73.166 -42 95.499s-68 33.5 -120 33.5h-140v-394h108v128h23l89 -133l113 20zM389.999 470.003
c42.667 0 64 -18.667 64 -56c0 -38 -21.333 -57 -64 -57h-27v113h27z" />
    <glyph glyph-name="guilsinglleft" unicode="&#x2039;" horiz-adv-x="333" 
d="M297 490h-109l-166 -245l171 -253l98 20l-103 233z" />
    <glyph glyph-name="guilsinglright" unicode="&#x203a;" horiz-adv-x="333" 
d="M311 244l-171 254l-98 -21l102 -233l-108 -244h109z" />
    <glyph glyph-name="trademark" unicode="&#x2122;" horiz-adv-x="812" 
d="M776 345l-26 345h-115l-67 -225l-67 225h-120l-26 -345h82l15 215l64 -217h86l64 217l15 -215h95zM332 615l-11 75h-294v-75h102v-270h93v270h110z" />
    <glyph glyph-name="partialdiff" unicode="&#x2202;" horiz-adv-x="747" 
d="M722 141l-60.001 43c23.333 50 35 106 35 168c0 50.667 -7.5 97.5 -22.5 140.5s-36.5 80.167 -64.5 111.5s-62.333 55.666 -103 72.999s-87 26 -139 26c-50 0 -95.333 -8.66699 -136 -26s-75.5 -41.833 -104.5 -73.5s-51.333 -69.5 -67 -113.5s-23.5 -92.667 -23.5 -146
s7.83301 -101.666 23.5 -144.999s37.834 -80.5 66.501 -111.5s63.167 -55 103.5 -72s85.5 -25.5 135.5 -25.5c44 0 84.5 7.16699 121.5 21.5s69.5 34.5 97.5 60.5l108 -86zM527.999 348c0 -11.333 -0.833984 -21.8311 -2.50098 -31.498s-4.16699 -18.5 -7.5 -26.5l-31 23
l-168 -37l152 -115c-26.667 -28 -60.667 -42 -102 -42c-50.667 0 -90 20.167 -118 60.5s-42 95.166 -42 164.499s13.833 124.166 41.5 164.499s67.167 60.5 118.5 60.5c50.667 0 89.834 -20 117.501 -60s41.5 -93.667 41.5 -161z" />
    <glyph glyph-name="product" unicode="&#x220f;" horiz-adv-x="500" 
d="M25 -200h450v1000h-450v-1000z" />
    <glyph glyph-name="summation" unicode="&#x2211;" horiz-adv-x="1011" 
d="M998 690h-170l-133 -471l-136 479l-180 -27l59 -182l-99 -270l-145 478l-180 -28l217 -672h168l106 290l97 -290h172z" />
    <glyph glyph-name="minus" unicode="&#x2212;" horiz-adv-x="500" 
d="M25 -200h450v1000h-450v-1000z" />
    <glyph glyph-name="fraction" unicode="&#x2215;" horiz-adv-x="452" 
d="M535 766l-77 18l-537 -874l77 -18z" />
    <glyph glyph-name="radical" unicode="&#x221a;" horiz-adv-x="944" 
d="M889 0v722l-151 -24v-698h151zM687 592l-18 116.001c-8.66699 1.33301 -18 2.5 -28 3.5s-21 1.5 -33 1.5c-57.333 0 -102.5 -12.333 -135.5 -37s-49.5 -66.334 -49.5 -125.001v-61h-69v-123h69v-367h150v367h108l-20 123h-88v46c0 40 20 60 60 60
c10.667 0 20.5 -0.333008 29.5 -1s17.167 -1.66699 24.5 -3zM346 592.001l-17.999 116.001c-8.66699 1.33301 -18 2.5 -28 3.5s-21 1.5 -33 1.5c-56.667 0 -101.834 -12.333 -135.501 -37s-50.5 -66.334 -50.5 -125.001v-61h-68v-123h68v-367h151v367h107l-18 123h-89v46
c0 40 20 60 60 60c10.667 0 20.5 -0.333008 29.5 -1s17.167 -1.66699 24.5 -3z" />
    <glyph glyph-name="infinity" unicode="&#x221e;" horiz-adv-x="507" 
d="M459 0v328c0 62.667 -16.667 106.667 -50 132s-84 38 -152 38c-40 0 -76.167 -3.5 -108.5 -10.5s-62.5 -16.167 -90.5 -27.5l18 -114c26 11.333 51.833 20.333 77.5 27s52.5 10 80.5 10c49.333 0 74 -20.667 74 -62v-9c-96 -8.66699 -166.667 -27.5 -212 -56.5
s-68 -72.167 -68 -129.5c0 -44.667 12.333 -78.5 37 -101.5s56.667 -34.5 96 -34.5c34 0 63.167 6.5 87.5 19.5s46.5 30.167 66.5 51.5l10 -61h134zM308 135c-28 -24.667 -56 -37 -84 -37c-14 0 -25.333 4.16699 -34 12.5s-13 20.166 -13 35.499c0 10.667 2 20.834 6 30.501
s11 18.5 21 26.5s23.333 15 40 21s38 11 64 15v-104z" />
    <glyph glyph-name="integral" unicode="&#x222b;" horiz-adv-x="541" 
d="M489 30l0.000976562 430.999c-29.333 10.667 -61.833 19.167 -97.5 25.5s-73.5 9.5 -113.5 9.5c-37.333 0 -71.333 -5.16699 -102 -15.5s-56.834 -26 -78.501 -47s-38.334 -47.667 -50.001 -80s-17.5 -70.5 -17.5 -114.5c0 -40 4.5 -74.667 13.5 -104
s21.333 -53.666 37 -72.999s34.334 -33.666 56.001 -42.999s45.167 -14 70.5 -14c29.333 0 54.5 6.5 75.5 19.5s39.5 27.167 55.5 42.5v-42c0 -33.333 -9.16699 -57.5 -27.5 -72.5s-44.166 -22.5 -77.499 -22.5c-25.333 0 -50.833 3.5 -76.5 10.5
s-49.834 16.167 -72.501 27.5l-22 -114c26.667 -10.667 55.167 -19.334 85.5 -26.001s65.166 -10 104.499 -10c78.667 0 137.834 17.833 177.501 53.5s59.5 88.5 59.5 158.5zM338.001 179.999c-13.333 -13.333 -26.668 -24.501 -40.001 -33.501s-27.666 -13.5 -42.999 -13.5
c-21.333 0 -38.833 9 -52.5 27s-20.5 46.667 -20.5 86c0 46.667 9.16699 79.667 27.5 99s42.5 29 72.5 29c11.333 0 21 -0.666992 29 -2s17 -3.66602 27 -6.99902v-185z" />
    <glyph glyph-name="approxequal" unicode="&#x2248;" horiz-adv-x="944" 
d="M899 636c0 24.667 -8.33301 44.334 -25 59.001s-36.667 22 -60 22c-24.667 0 -45.167 -7.33301 -61.5 -22s-24.5 -34.334 -24.5 -59.001s8.16699 -44.334 24.5 -59.001s36.833 -22 61.5 -22c23.333 0 43.333 7.33301 60 22s25 34.334 25 59.001zM687 592l-18 116.001
c-8.66699 1.33301 -18 2.5 -28 3.5s-21 1.5 -33 1.5c-57.333 0 -102.5 -12.333 -135.5 -37s-49.5 -66.334 -49.5 -125.001v-61h-69v-123h69v-367h150v367h108l-20 123h-88v46c0 40 20 60 60 60c10.667 0 20.5 -0.333008 29.5 -1s17.167 -1.66699 24.5 -3zM346 592.001
l-17.999 116.001c-8.66699 1.33301 -18 2.5 -28 3.5s-21 1.5 -33 1.5c-56.667 0 -101.834 -12.333 -135.501 -37s-50.5 -66.334 -50.5 -125.001v-61h-68v-123h68v-367h151v367h107l-18 123h-89v46c0 40 20 60 60 60c10.667 0 20.5 -0.333008 29.5 -1
s17.167 -1.66699 24.5 -3zM889.001 0.00195312v490h-151v-490h151z" />
    <glyph glyph-name="notequal" unicode="&#x2260;" horiz-adv-x="545" 
d="M508 206c0 30.667 -4.66895 57.002 -14.002 79.002s-22.333 40.5 -39 55.5s-36.667 27.167 -60 36.5s-49 16.333 -77 21l174 157v121h-452l22 -131h235l-165 -153l16 -99h54c96.667 0 145 -28.333 145 -85c0 -58.667 -37.333 -88 -112 -88c-30 0 -61 4.66699 -93 14
s-62 21.666 -90 36.999l-21 -132c30 -15.333 63.833 -27.833 101.5 -37.5s78.834 -14.5 123.501 -14.5c38.667 0 73.667 5.16699 105 15.5s57.833 25.166 79.5 44.499s38.334 42.333 50.001 69s17.5 56.667 17.5 90z" />
    <glyph glyph-name="lessequal" unicode="&#x2264;" horiz-adv-x="884" 
d="M822 0v690h-223l-153 -472l-154 472h-229v-690h145v454l151 -457h149l151 457v-454h163z" />
    <glyph glyph-name="greaterequal" unicode="&#x2265;" horiz-adv-x="698" 
d="M480 66l3.00098 -17l5.5 -32c1.66699 -10 2.5 -15.667 2.5 -17h144v690h-171v-494c-50 -38 -96 -57 -138 -57c-62.667 0 -94 33.667 -94 101v450h-172v-474c0 -40 5.16699 -74.167 15.5 -102.5s25 -51.333 44 -69s41.667 -30.667 68 -39s55.833 -12.5 88.5 -12.5
c39.333 0 75.166 6.66699 107.499 20s64.5 31 96.5 53z" />
    <glyph glyph-name="lozenge" unicode="&#x25ca;" horiz-adv-x="812" 
d="M776 345l-26 345h-115l-67 -225l-67 225h-120l-26 -345h82l15 215l64 -217h86l64 217l15 -215h95zM182 340c34.667 0 63.8369 8.50195 87.5039 25.502s35.5 43.833 35.5 80.5c0 14.667 -2 27.5 -6 38.5s-10.333 20.667 -19 29s-19.5 16.166 -32.5 23.499
s-28.833 14.666 -47.5 21.999c-17.333 7.33301 -29 13.833 -35 19.5s-9 12.5 -9 20.5c0 6.66699 2.66699 12.334 8 17.001s13.666 7 24.999 7c25.333 0 55 -10 89 -30l11 78c-13.333 7.33301 -27.833 13.166 -43.5 17.499s-34.167 6.5 -55.5 6.5
c-32.667 0 -60.334 -9 -83.001 -27s-34 -43.333 -34 -76c0 -14.667 1.83301 -27.167 5.5 -37.5s9.5 -19.666 17.5 -27.999s18.167 -16 30.5 -23s27.166 -14.167 44.499 -21.5c19.333 -7.33301 32.333 -14 39 -20s10 -13.667 10 -23
c0 -8.66699 -3.16699 -15.334 -9.5 -20.001s-14.833 -7 -25.5 -7c-16 0 -32.833 3 -50.5 9s-35.834 14.333 -54.501 25l-13 -78c18 -9.33301 36.333 -16.333 55 -21s38.667 -7 60 -7z" />
    <glyph glyph-name="apple" unicode="&#xf8ff;" horiz-adv-x="694" 
d="M644 -200v921h-101l-29 79h-334l-30 -79h-100v-554c9.33301 0 17 -3.16699 23 -9.5s9 -13.833 9 -22.5c0 -9.33301 -3 -17 -9 -23s-13.667 -9 -23 -9v-303h207l8 14h163l8 -14h208zM400 563h58v-14h-43v-66h38v-14h-38v-78h-15v172zM184 563h15v-79h47v79h15v-172h-15v79
h-47v-79h-15v172zM460 394l-0.000976562 15.999c2.66699 -1.33301 6 -2.66602 10 -3.99902s7.33301 -2 10 -2c10.667 0 16 7.33301 16 22v137h16v-137c0 -24 -10.333 -36 -31 -36c-3.33301 0 -7.16602 0.333008 -11.499 1s-7.5 1.66699 -9.5 3zM522.999 322.999h8v-24l21 24
h10l-18 -20l19 -26h-9l-16 20l-7 -7v-13h-8v46zM487.999 291.999h-12v-15h-8v46h21c5.33301 0 9.33301 -1.5 12 -4.5s4 -6.16699 4 -9.5c0 -8 -3.33301 -13 -10 -15l12 -17h-9zM425.999 275.999c-7.33301 0 -13 2.33301 -17 7s-6 10.334 -6 17.001c0 6 2 11.5 6 16.5
s9.66699 7.5 17 7.5s13.166 -2.5 17.499 -7.5s6.5 -10.5 6.5 -16.5c0 -6.66699 -2.16699 -12.334 -6.5 -17.001s-10.166 -7 -17.499 -7zM369.999 300.999l13 22h9l-18 -29v-17h-8v17l-18 29h9zM192.999 322.999h33v-7h-25v-12h22v-7h-22v-13h25v-7h-33v46zM131.999 322.999
h7l25 -32v32h8v-46h-7l-25 32v-32h-8v46zM240.999 322.999h8l10 -35h1l11 35h8l10 -35h1l10 35h8l-14 -47h-8l-11 34h-1l-10 -34h-8zM326.999 478.999c10 10.667 15 21.333 15 32c0 5.33301 -1.16699 9.83301 -3.5 13.5s-5.5 5.5 -9.5 5.5s-7.33301 -1.83301 -10 -5.5
s-4 -8.16699 -4 -13.5s1.16699 -10.333 3.5 -15zM341.999 422.998l-20 39c-10 -10 -15 -21 -15 -33c0 -7.33301 1.5 -13.666 4.5 -18.999s7.16699 -8 12.5 -8c3.33301 0 6.83301 2.16699 10.5 6.5s6.16699 9.16602 7.5 14.499zM487.999 298.998c6 0 9 3 9 9
c0 5.33301 -3.33301 8 -10 8h-11v-17h12zM425.999 282.998c4.66699 0 8.5 1.66699 11.5 5s4.5 7.33301 4.5 12c0 4 -1.5 7.83301 -4.5 11.5s-6.83301 5.5 -11.5 5.5s-8.33398 -1.83301 -11.001 -5.5s-4 -7.5 -4 -11.5c0 -4.66699 1.33301 -8.66699 4 -12
s6.33398 -5 11.001 -5zM348.999 437.998l4.5 15l4.5 15l13 -3c-1.33301 -7.33301 -3.16602 -14.166 -5.49902 -20.499s-4.83301 -12.5 -7.5 -18.5l16 -30l-11 -8l-12 24h-1c-2.66699 -6 -6.16699 -11.5 -10.5 -16.5s-9.83301 -7.5 -16.5 -7.5
c-9.33301 0 -16.833 3.66699 -22.5 11s-8.5 16.666 -8.5 27.999c0 18 7.66699 33 23 45c-4 7.33301 -7.33301 13.833 -10 19.5s-4 12.167 -4 19.5s2.5 14.333 7.5 21s11.833 10 20.5 10c9.33301 0 16.166 -3.33301 20.499 -10s6.5 -13.667 6.5 -21
c0 -8 -2.16699 -15.5 -6.5 -22.5s-9.83301 -13.5 -16.5 -19.5z" />
    <glyph glyph-name="fi" unicode="&#xfb01;" horiz-adv-x="604" 
d="M558 636c0 24.667 -8.33301 44.334 -25 59.001s-37 22 -61 22s-44.333 -7.33301 -61 -22s-25 -34.334 -25 -59.001s8.33301 -44.334 25 -59.001s37 -22 61 -22s44.333 7.33301 61 22s25 34.334 25 59.001zM346 592l-17.999 116.001c-8.66699 1.33301 -18 2.5 -28 3.5
s-21 1.5 -33 1.5c-56.667 0 -101.834 -12.333 -135.501 -37s-50.5 -66.334 -50.5 -125.001v-61h-68v-123h68v-367h151v367h107l-18 123h-89v46c0 40 20 60 60 60c10.667 0 20.5 -0.333008 29.5 -1s17.167 -1.66699 24.5 -3zM548.001 0.000976562v490h-152v-490h152z" />
    <glyph glyph-name="fl" unicode="&#xfb02;" horiz-adv-x="604" 
d="M548 0v722l-152 -24v-698h152zM346 592l-17.999 116.001c-8.66699 1.33301 -18 2.5 -28 3.5s-21 1.5 -33 1.5c-56.667 0 -101.834 -12.333 -135.501 -37s-50.5 -66.334 -50.5 -125.001v-61h-68v-123h68v-367h151v367h107l-18 123h-89v46c0 40 20 60 60 60
c10.667 0 20.5 -0.333008 29.5 -1s17.167 -1.66699 24.5 -3z" />
    <glyph glyph-name="NUL" horiz-adv-x="0" 
 />
    <glyph glyph-name="nonmarkingreturn" horiz-adv-x="209" 
 />
    </font>
</defs>
</svg>
